<?xml version="1.0" encoding="iso-8859-1"?>
<!-- Generator: Adobe Illustrator 23.0.6, SVG Export Plug-In . SVG Version: 6.00 Build 0)  -->
<svg version="1.1" id="&#x421;&#x43B;&#x43E;&#x439;_1"
	 xmlns="http://www.w3.org/2000/svg" xmlns:xlink="http://www.w3.org/1999/xlink" x="0px" y="0px" viewBox="0 0 1176.014 800"
	 style="enable-background:new 0 0 1176.014 800;" xml:space="preserve">
<g>
	<ellipse style="fill:#D04123;" cx="576.746" cy="658.307" rx="338.165" ry="140.934"/>
	<path style="fill:#EBE2C3;" d="M1101.73,497.562c-7.274-6.431-32.623,10.844-50.595,23.091
		c-25.279,17.227-45.07,34.785-59.844,49.501c0.85-3.451,1.693-7.03,2.531-10.745c12.861-56.995,29.031-156.092,12.378-181.933
		c-2.349-3.646-7.538-4.65-11.256-2.212c-24.606,16.136-59.008,106.163-72.665,163.138c-24.893-54.095-63.629-126.25-89.422-137.736
		c-4.128-1.839-9.027-0.01-10.647,3.939c-9.043,22.042,7.603,91.582,26.712,145.6c-13.039-9.023-28.519-19.792-46.984-32.672
		c-47.804-33.344-55.372-38.667-58.591-37.716c-0.438,0.129-0.619,0.287-0.736,0.357c-17.067,10.16,5.382,135.134,78.457,172.296
		c6.589,3.351,3.24,0.725,129.36,5.653c18.621,0.728,42.233,1.705,65.871-11.761c17.228-9.815,28.547-23.927,32.811-29.337
		c8.333-10.571,11.134-17.613,25.116-45.779c7.999-16.113,14.856-29.471,19.817-39.015
		C1105.717,508.302,1104.832,500.304,1101.73,497.562z"/>
	<path style="fill:#EBE2C3;" d="M399.067,473.405c-7.958-6.967-35.722,11.784-55.405,25.078
		c-27.687,18.699-49.366,37.753-65.552,53.721c0.584-2.417,1.577-6.543,2.78-11.652c40.573-172.32,22.181-196.415,14.63-204.067
		c-2.565-2.599-14.74-14.936-29.872-13.787c-53.321,4.049-76.324,170.461-78.892,189.955
		c-30.892-78.438-69.274-166.861-85.786-162.381c-3.367,0.914-5.866,5.702-7.821,22.568
		c-7.069,60.991,11.656,118.713,29.125,157.849c-14.267-9.773-31.204-21.438-51.407-35.387
		c-52.305-36.116-60.586-41.881-64.11-40.847c-0.479,0.141-0.678,0.312-0.806,0.387c-18.692,11.03,5.784,146.518,85.75,186.754
		c7.211,3.628,3.547,0.783,141.608,6.026c20.384,0.774,46.232,1.815,72.119-12.805c18.868-10.656,31.27-25.967,35.942-31.835
		c9.13-11.468,12.203-19.106,27.531-49.657c8.769-17.477,16.287-31.966,21.725-42.319
		C403.423,485.046,402.461,476.375,399.067,473.405z"/>
	<path style="fill:#D04123;" d="M94.972,536.14c-1.275-3.831,0.677-7.988,4.446-9.464c2.719-1.741,6.207-1.741,8.926,0
		c25.424,14.394,48.761,32.176,69.367,52.854c-9.39-49.405-12.935-99.737-10.564-149.965c0.334-6.965,10.029-12.897,15.411-6.365
		c33.526,41.875,57.813,90.33,71.272,142.201c17.584-53.121,38.678-105.042,75.885-147.966c3.562-3.502,9.298-3.462,12.812,0.089
		c1.07,1.082,1.849,2.415,2.265,3.877c9.059,50.855-3.811,99.244-22.264,145.966c22.192-18.124,47.971-31.377,75.651-38.891
		c4.908-1.146,9.818,1.891,10.967,6.783c0.522,2.222,0.187,4.559-0.938,6.547c-18.319,37.191-38.544,76.649-73.311,101.41
		c-31.725,22.495-71.773,29.227-109.95,25.294c-34.834-3.566-62.079-15.296-84.443-42.79c-20.793-25.527-33.998-56.287-44.863-87.08
		C95.278,537.85,95.052,537.005,94.972,536.14z"/>
	<path style="fill:#E5A024;" d="M1096.308,676.374c-8.971,4.542-12.403,3.799-91.547,4.065c-48.147,0.162-51.265,0.452-57.628-3.34
		c-36.135-21.531-32.201-88.431-30.195-122.532c0.953-16.198,1.936-30.925,7.757-32.322c11.111-2.665,32.172,45.083,48.853,87.722
		c16.445-76.036,99.612-223.311,103.963-184.32c5.851,52.439-7.079,124.858-19.366,173.153
		c34.574-26.279,69.147-52.557,103.721-78.836c4.099-3.463,9.365-7.144,12.165-5.498c9.844,5.789-20.01,72.034-22.151,76.744
		C1129.433,640.594,1118.21,665.285,1096.308,676.374z"/>
	<path style="fill:#FFBD5C;" d="M1018.32,551.707c-0.336,0-0.677-0.028-1.02-0.087c-3.263-0.56-5.454-3.657-4.895-6.92
		c2.936-17.121,8.266-33.646,15.845-49.113c4.891-9.984,10.755-19.58,17.43-28.521c1.98-2.652,5.734-3.199,8.388-1.218
		c2.652,1.979,3.198,5.735,1.218,8.388c-6.231,8.348-11.705,17.306-16.271,26.625c-7.074,14.44-12.052,29.872-14.794,45.865
		C1023.72,549.645,1021.187,551.707,1018.32,551.707z"/>
	<path style="fill:#FFBD5C;" d="M933.287,581.579c-3.109,0-5.738-2.401-5.971-5.552l-1.532-20.681
		c-0.245-3.301,2.233-6.175,5.535-6.42c3.294-0.234,6.175,2.234,6.419,5.535l1.532,20.681c0.245,3.301-2.233,6.175-5.535,6.42
		C933.585,581.573,933.436,581.579,933.287,581.579z"/>
	<path style="fill:#3B301B;" d="M773.977,630.936c1.482-2.283,4.357-3.232,6.913-2.281c11.72,3.598,23.074,8.292,33.908,14.02
		c-8.33-21.34-18.505-44.423-14.062-65.874c0.926-3.476,4.503-5.546,7.99-4.623c1.176,0.311,2.241,0.944,3.076,1.826
		c18.263,17.402,35.283,36.056,50.935,55.825c1.041-29.535,4.314-58.949,9.791-87.993c1.098-5.786,9.43-6.035,12.099-1.452
		c18.984,32.397,32.977,67.454,41.51,103.997c9.481-15.12,25.062-29.402,36.548-35.158c4.036-2.047,10.481,0.487,9.746,5.788
		c-2.747,25.244-6.162,55.691-22.683,76.217c-13.214,16.16-34.369,14.826-53.416,15.238c-28.032,0.589-54.878,3.729-78.563-13.746
		c-18.98-14.079-32.02-34.648-44.448-54.3C771.625,636.114,771.906,632.913,773.977,630.936z"/>
	<path style="fill:#3A301B;" d="M469.405,68.954c-15.998-7.817-13.103-51.129,0-56.059c11.395-4.287,39.963,16.897,34.258,37.373
		C499.633,64.736,479.829,74.046,469.405,68.954z"/>
	<path style="fill:#3A301B;" d="M707.324,69.992c15.998-7.817,13.103-51.129,0-56.059c-11.395-4.287-39.963,16.897-34.258,37.373
		C677.097,65.774,696.901,75.085,707.324,69.992z"/>
	<path style="fill:#3A301B;" d="M793.302,641.287c-19.164,22.174-43.29,37.227-68.454,47.432
		c-54.969,22.299-114.942,21.438-139.172,21.085c-28.341-0.415-102.619-1.505-162.395-37.092
		c-17.077-10.163-32.971-23.15-46.269-39.729c-59.277-73.894-53.858-202.809,21.905-316.973
		c17.295-26.057,24.053-57.606,19.527-88.553c-9.561-65.423,7.111-129.175,48.885-172.714c8.585-8.949,52.53-54.159,121.461-53.983
		c64.987,0.166,107.914,40.622,121.461,55.021c40.144,42.667,55.841,104.758,45.501,167.762
		c-5.046,30.708,1.734,62.257,18.613,88.397C853.088,433.806,856.203,568.525,793.302,641.287z"/>
	<ellipse style="fill:#D04123;" cx="587.752" cy="159.271" rx="144.3" ry="133.919"/>
	<circle style="fill:#D04123;" cx="484.458" cy="260.489" r="39.968"/>
	<ellipse style="fill:#D04123;" cx="683.26" cy="268.794" rx="38.411" ry="35.816"/>
	<path style="fill:#D04123;" d="M536.342,337.387c-5.657-0.134-10.177-4.784-10.132-10.462l0.535-66.447
		c0.046-5.733,4.731-10.343,10.464-10.297c5.704,0.06,10.344,4.732,10.297,10.464l-0.535,66.447
		c-0.046,5.733-4.731,10.343-10.465,10.297C536.452,337.389,536.397,337.388,536.342,337.387z"/>
	<path style="fill:#D04123;" d="M569.777,340.349c-5.641,0-10.266-4.517-10.375-10.182l-1.038-53.983
		c-0.11-5.733,4.448-10.469,10.18-10.579c5.712-0.104,10.469,4.447,10.579,10.179l1.038,53.983
		c0.11,5.733-4.448,10.469-10.18,10.579C569.913,340.348,569.845,340.349,569.777,340.349z"/>
	<path style="fill:#D04123;" d="M602.776,340.672c-5.646,0-10.273-4.524-10.376-10.193l-1.038-57.097
		c-0.104-5.733,4.459-10.464,10.191-10.569c0.064-0.001,0.129-0.001,0.193-0.001c5.646,0,10.273,4.524,10.376,10.193l1.038,57.097
		c0.104,5.733-4.459,10.464-10.191,10.569C602.905,340.672,602.84,340.672,602.776,340.672z"/>
	<path style="fill:#D04123;" d="M635.5,337.609c-5.559,0-10.165-4.403-10.368-10.004l-2.076-57.097
		c-0.208-5.73,4.268-10.543,9.998-10.752c5.716-0.206,10.544,4.268,10.752,9.998l2.076,57.097c0.208,5.73-4.268,10.543-9.998,10.752
		C635.756,337.606,635.627,337.609,635.5,337.609z"/>
	<path style="fill:#3A301B;" d="M605.401,242.322c-0.256,1.136-2.237,9.241-8.305,10.381c-3.988,0.75-8.496-1.743-11.419-6.229
		c-3.015,4.639-7.607,7.136-11.419,6.229c-5.355-1.274-6.919-8.725-7.267-10.381c-3.153-15.019,15.484-29.503,17.648-31.144
		C599.037,220.449,607.622,232.486,605.401,242.322z"/>
	<ellipse style="fill:#EAE2C2;" cx="519.933" cy="175.335" rx="48.734" ry="46.169"/>
	<ellipse style="fill:#EAE2C2;" cx="653.852" cy="175.335" rx="48.734" ry="46.169"/>
	<path style="fill:#DB6653;" d="M516.124,87.64c-2.241,0-4.475-0.901-6.112-2.68c-3.107-3.374-2.889-8.628,0.485-11.735
		c9.711-8.94,30.478-24.608,60.454-29.095c37.807-5.656,67.377,9.839,78.336,16.765c3.878,2.451,5.034,7.58,2.584,11.458
		c-2.451,3.878-7.579,5.034-11.458,2.584c-9.388-5.933-34.708-19.214-67.003-14.379c-25.59,3.83-43.353,17.237-51.664,24.888
		C520.15,86.915,518.134,87.64,516.124,87.64z"/>
	<path style="fill:#DB6653;" d="M695.721,266.201c-3.257,0-6.347-1.928-7.673-5.123c-0.441-1.06-1.506-3.024-3.696-4.267
		c-3.388-1.923-7.133-0.628-7.549-0.473c-4.3,1.592-9.079-0.601-10.673-4.903c-1.593-4.301,0.602-9.079,4.903-10.673
		c2.653-0.982,12.046-3.771,21.517,1.602c6.504,3.691,9.583,9.319,10.838,12.345c1.759,4.236-0.249,9.096-4.486,10.854
		C697.862,265.996,696.782,266.201,695.721,266.201z"/>
	<path style="fill:#DB6653;" d="M466.301,264.123c-0.383,0-0.77-0.026-1.16-0.081c-4.543-0.634-7.711-4.831-7.076-9.374
		c0.596-4.264,2.081-8.213,4.414-11.739c4.972-7.517,12.149-10.547,15.985-11.684c4.4-1.303,9.02,1.205,10.323,5.602
		c1.304,4.397-1.204,9.019-5.602,10.323c-1.671,0.495-4.782,1.794-6.853,4.924c-0.956,1.444-1.566,3.083-1.816,4.873
		C473.936,261.119,470.378,264.123,466.301,264.123z"/>
	<path style="fill:#574730;" d="M594.437,657.316c-12.936,0-24.16-2.012-33.248-4.602c-16.505-4.702-47.35-17.32-68.49-48.997
		c-16.159-24.215-19.245-48.242-19.646-60.409c-1.262-38.23,13.963-63.31,26.958-77.615c6.681-7.356,31.54-31.555,70.897-34.035
		c16.337-1.039,56.992,0.026,81.604,32.04c19.077,24.813,16.846,53.73,16.113,63.232c-0.992,12.856-2.837,36.783-22.269,55.146
		c-19.896,18.802-56.492,28.727-85.125,10.078c-22.962-14.955-27.779-40.522-28.709-48.002c-2.706-21.756,2.15-38.752,14.432-50.516
		c10.394-9.955,26.183-15.702,41.185-15.028c11.947,0.546,22.299,5.185,29.149,13.063c10.117,11.635,14.661,32.756,3.154,48.985
		c-9.135,12.885-25.583,18.911-41.899,15.347c-5.042-1.101-8.236-6.079-7.136-11.12c1.101-5.042,6.078-8.237,11.121-7.136
		c8.842,1.928,17.953-1.244,22.67-7.898c6.359-8.969,2.652-20.554-2.011-25.916c-4.439-5.104-11.097-6.438-15.901-6.657
		c-9.931-0.441-20.683,3.416-27.407,9.856c-7.786,7.457-10.75,19.137-8.813,34.715c0.678,5.46,4.152,24.091,20.363,34.649
		c19.873,12.943,47.176,6.096,62.093-8.002c14.189-13.409,15.618-31.933,16.472-42.999c0.66-8.556,2.412-31.277-12.297-50.409
		c-19.14-24.895-52.262-25.623-65.613-24.78c-32.34,2.039-52.755,21.909-58.241,27.95c-10.671,11.748-23.17,32.463-22.115,64.436
		c0.271,8.195,2.42,29.534,16.513,50.652c17.821,26.704,44.03,37.4,58.066,41.399c28.125,8.012,57.49,3.924,87.273-12.15
		c9.318-5.029,34.068-18.387,49.068-47.69c9.535-18.629,17.856-49.738,3.351-92.156c-12.05-35.238-36.133-55.895-49.417-65.07
		c-33.504-23.149-68.042-24.292-85.648-22.91c-5.129,0.407-9.641-3.439-10.044-8.584c-0.403-5.144,3.44-9.641,8.584-10.044
		c20.076-1.573,59.472-0.268,97.729,26.165c15.176,10.482,42.693,34.089,56.477,74.397c16.625,48.619,6.785,84.869-4.398,106.717
		c-17.646,34.476-46.111,49.838-56.826,55.621C636.92,652.82,613.769,657.316,594.437,657.316z"/>
	<path style="fill:#574730;" d="M474.079,433.833c-2.915,0-5.787-1.36-7.611-3.913c-2.999-4.199-2.026-10.034,2.172-13.033
		l29.067-20.763c4.2-2.998,10.034-2.027,13.034,2.172c2.999,4.199,2.026,10.034-2.172,13.033l-29.067,20.763
		C477.855,433.267,475.958,433.833,474.079,433.833z"/>
	<path style="fill:#574730;" d="M440.839,575.018c-4.623,0-8.639-3.429-9.253-8.136l-3.115-23.877
		c-0.667-5.116,2.939-9.806,8.056-10.473c5.117-0.666,9.806,2.939,10.473,8.057l3.115,23.877c0.667,5.116-2.939,9.806-8.056,10.473
		C441.649,574.993,441.242,575.018,440.839,575.018z"/>
	<path style="fill:#574730;" d="M738.831,448.703c-3.607,0-7.043-2.102-8.573-5.62l-10.381-23.877
		c-2.058-4.731,0.11-10.236,4.842-12.294c4.733-2.059,10.236,0.109,12.294,4.843l10.381,23.877
		c2.058,4.732-0.111,10.236-4.843,12.294C741.338,448.453,740.074,448.703,738.831,448.703z"/>
	<path style="fill:#574730;" d="M756.453,566.715c-0.555,0-1.117-0.05-1.682-0.152c-5.077-0.923-8.444-5.787-7.521-10.864
		l6.229-34.258c0.923-5.077,5.785-8.439,10.864-7.521c5.077,0.923,8.444,5.787,7.521,10.863l-6.229,34.26
		C764.814,563.554,760.882,566.715,756.453,566.715z"/>
	<path style="fill:#CF4427;" d="M830.675,185.728c-4.865,0-8.809-3.944-8.809-8.809V120.86c0-4.865,3.944-8.809,8.809-8.809
		s8.809,3.944,8.809,8.809v56.059C839.484,181.784,835.54,185.728,830.675,185.728z"/>
	<path style="fill:#CF4427;" d="M916.839,184.69c-0.896,0-1.799-0.137-2.678-0.417c-3.071-0.981-5.362-3.562-5.971-6.728
		l-15.572-80.974c-0.919-4.777,2.209-9.395,6.986-10.313c4.776-0.918,9.395,2.209,10.313,6.986l12.521,65.105l81.749-78.115
		c3.516-3.36,9.092-3.235,12.453,0.283c3.361,3.518,3.234,9.093-0.283,12.454l-93.432,89.279
		C921.262,183.839,919.073,184.69,916.839,184.69z"/>
	<path style="fill:#CF4427;" d="M998.86,227.254c-2.743,0-5.446-1.277-7.167-3.677c-2.834-3.953-1.927-9.456,2.026-12.291
		l55.021-39.449c3.955-2.835,9.457-1.927,12.291,2.026c2.835,3.954,1.928,9.457-2.025,12.291l-55.021,39.449
		C1002.431,226.718,1000.637,227.254,998.86,227.254z"/>
	<path style="fill:#CF4427;" d="M1039.329,294.732c-4.46,0-8.285-3.374-8.751-7.907c-0.498-4.839,3.021-9.166,7.859-9.664
		l70.593-7.267c4.84-0.494,9.167,3.021,9.664,7.86c0.499,4.839-3.021,9.166-7.859,9.664l-70.593,7.267
		C1039.936,294.717,1039.631,294.732,1039.329,294.732z"/>
	<path style="fill:#CF4427;" d="M237.901,169.118c-0.902,0-1.812-0.139-2.698-0.424l-90.318-29.068
		c-4.631-1.49-7.176-6.453-5.686-11.083s6.451-7.176,11.083-5.686l73.421,23.63l-27.332-77.726
		c-1.614-4.589,0.798-9.618,5.388-11.231c4.589-1.616,9.618,0.798,11.231,5.388l33.22,94.47c1.11,3.156,0.336,6.669-1.999,9.066
		C242.528,168.184,240.241,169.118,237.901,169.118z"/>
	<path style="fill:#CF4427;" d="M321.984,176.385c-4.711,0-8.617-3.729-8.796-8.477l-2.076-55.021
		c-0.183-4.861,3.609-8.951,8.47-9.134c4.845-0.165,8.951,3.609,9.134,8.47l2.076,55.021c0.183,4.861-3.609,8.951-8.47,9.134
		C322.209,176.382,322.097,176.385,321.984,176.385z"/>
	<path style="fill:#CF4427;" d="M189.12,236.597c-0.337,0-0.677-0.019-1.021-0.059l-80.974-9.343
		c-4.833-0.558-8.298-4.927-7.741-9.76c0.558-4.832,4.922-8.303,9.76-7.741l80.974,9.343c4.833,0.558,8.298,4.927,7.741,9.76
		C197.342,233.287,193.533,236.597,189.12,236.597z"/>
	<path style="fill:#CF4427;" d="M99.822,300.961c-4.614,0-8.491-3.591-8.783-8.259c-0.304-4.855,3.386-9.037,8.242-9.34l33.22-2.076
		c4.857-0.305,9.038,3.387,9.34,8.242c0.304,4.855-3.386,9.037-8.242,9.34l-33.22,2.076
		C100.193,300.955,100.006,300.961,99.822,300.961z"/>
	<path style="fill:#3B301B;" d="M1145.451,657.906c-0.949-1.461-2.789-2.068-4.425-1.46c-7.502,2.303-14.768,5.307-21.703,8.974
		c5.331-13.659,11.844-28.433,9-42.163c-0.593-2.225-2.882-3.55-5.114-2.959c-0.753,0.199-1.435,0.604-1.969,1.169
		c-11.689,11.138-22.583,23.077-32.601,35.731c-0.666-18.904-2.761-37.73-6.266-56.32c-0.703-3.703-6.036-3.863-7.744-0.929
		c-12.151,20.736-21.107,43.174-26.568,66.563c-6.068-9.678-16.041-18.819-23.392-22.503c-2.584-1.31-6.708,0.312-6.238,3.705
		c1.758,16.157,3.944,35.645,14.518,48.783c8.458,10.343,21.998,9.49,34.189,9.753c17.942,0.377,35.125,2.387,50.284-8.798
		c12.148-9.011,20.494-22.176,28.449-34.755C1146.956,661.22,1146.776,659.172,1145.451,657.906z"/>
	<path style="fill:#E59F22;" d="M832.749,690.669c-56.528,54.993-153.129,63.883-239.644,19.629
		c19.771-17.643,39.542-35.286,59.312-52.929c-1.844-19.427-3.688-38.854-5.532-58.28c17.228-7.145,34.457-14.29,51.685-21.435
		c1.29-21.907,2.58-43.814,3.87-65.721c18.832-2.529,37.664-5.059,56.496-7.588c-0.543-15.99-1.086-31.98-1.629-47.971
		c7.415,0.117,82.628,2.429,116.698,58.027C911.213,575.121,871.125,653.336,832.749,690.669z"/>
	<path style="fill:#3B301B;" d="M789.497,628.28c-0.256,0-0.514-0.014-0.774-0.041c-4.036-0.423-6.965-4.037-6.542-8.073
		l7.104-67.809c0.423-4.036,4.032-6.967,8.073-6.542c4.036,0.423,6.965,4.037,6.542,8.073l-7.104,67.809
		C796.4,625.472,793.21,628.28,789.497,628.28z"/>
	<path style="fill:#3B301B;" d="M769.459,589.43c-4.004,0-7.281-3.214-7.344-7.232c-0.064-4.058,3.174-7.398,7.231-7.462
		l62.59-0.983c4.038-0.069,7.398,3.174,7.462,7.231s-3.173,7.398-7.231,7.462l-62.59,0.983
		C769.538,589.43,769.498,589.43,769.459,589.43z"/>
	<path style="fill:#3B301B;" d="M742.125,678.752c-0.276,0-0.555-0.016-0.836-0.048c-4.032-0.456-6.931-4.095-6.475-8.127
		l2.209-19.508l-49.415-3.103l5.508-38.405l-40.057,13.709c-3.842,1.313-8.018-0.734-9.331-4.573
		c-1.314-3.839,0.733-8.017,4.572-9.331l62.771-21.48l-6.657,46.411l48.948,3.073l-3.946,34.859
		C748.992,675.981,745.813,678.752,742.125,678.752z"/>
	<ellipse style="fill:#F3BC63;" cx="753.296" cy="528.479" rx="11.489" ry="11.872"/>
	<ellipse style="fill:#F3BC63;" cx="831.423" cy="508.564" rx="11.489" ry="13.404"/>
	<ellipse style="fill:#F3BC63;" cx="832.189" cy="638.392" rx="9.191" ry="10.723"/>
	<path style="fill:#3A301B;" d="M184.933,470.65c-15.969,0-29.43-12.377-30.536-28.548c-0.637-9.309-4.364-92.303,59.954-139.403
		c30.123-22.059,68.708-31.31,108.649-26.048c39.824,5.246,77.569,24.751,106.281,54.921c11.666,12.257,11.186,31.65-1.072,43.315
		c-12.258,11.666-31.651,11.185-43.315-1.072c-37.755-39.672-96.764-49.196-134.34-21.679
		c-38.496,28.19-35.063,85.212-35.024,85.784c1.155,16.882-11.594,31.503-28.476,32.657
		C186.344,470.627,185.635,470.65,184.933,470.65z"/>
	<path style="fill:#3A301B;" d="M117.553,474.481c-3.511,0-6.675-2.429-7.469-5.998c-1.253-5.633-2.382-16.568,4.128-26.533
		c9.044-13.842,28.663-18.96,46.649-12.168c3.958,1.494,5.955,5.914,4.46,9.872c-1.494,3.957-5.913,5.951-9.871,4.46
		c-11.137-4.206-23.352-1.533-28.414,6.215c-3.567,5.459-2.586,12.188-2,14.828c0.918,4.13-1.684,8.222-5.813,9.14
		C118.664,474.422,118.104,474.481,117.553,474.481z"/>
	<path style="fill:#3A301B;" d="M135.173,505.119c-3.395,0-6.498-2.273-7.402-5.711c-1.528-5.804-2.597-14.767,0.984-24.507
		c7.385-20.09,28.303-25.679,30.665-26.249c4.111-0.996,8.251,1.531,9.246,5.644c0.995,4.111-1.532,8.251-5.644,9.245
		c-0.617,0.149-15.167,3.804-19.888,16.646c-2.206,6.002-1.516,11.645-0.547,15.321c1.077,4.091-1.367,8.28-5.458,9.357
		C136.474,505.037,135.818,505.119,135.173,505.119z"/>
	<path style="fill:#3A301B;" d="M168.875,513.543c-4.133,0-7.539-3.292-7.653-7.449c-0.242-8.851,0.589-17.716,2.471-26.352
		c1.665-7.637,4.158-15.117,7.411-22.234c1.758-3.847,6.304-5.543,10.15-3.781c3.848,1.758,5.541,6.303,3.782,10.15
		c-2.799,6.123-4.944,12.559-6.376,19.127c-1.619,7.428-2.333,15.056-2.125,22.67c0.116,4.229-3.219,7.751-7.447,7.866
		C169.017,513.542,168.946,513.543,168.875,513.543z"/>
	<path style="fill:#3A301B;" d="M246.25,457.63c-0.369,0-0.741-0.026-1.117-0.081c-4.186-0.611-7.083-4.5-6.472-8.687
		c0.227-1.554,1.096-9.584-4.105-15.067c-5.646-5.952-15.851-6.682-24.262-1.733c-3.646,2.144-8.34,0.927-10.485-2.72
		s-0.927-8.341,2.719-10.485c14.495-8.525,32.64-6.677,43.142,4.396c9.821,10.354,8.721,23.915,8.149,27.825
		C253.262,454.887,249.989,457.63,246.25,457.63z"/>
	<path style="fill:#3A301B;" d="M203.337,515.075c-3.744,0-7.018-2.747-7.57-6.562l-7.66-52.85
		c-0.607-4.187,2.295-8.072,6.481-8.679c4.18-0.606,8.072,2.294,8.679,6.481l7.66,52.85c0.607,4.187-2.295,8.072-6.481,8.679
		C204.073,515.049,203.703,515.075,203.337,515.075z"/>
	<path style="fill:#EAE2C2;" d="M193.396,393.675c-0.708,0-1.426-0.086-2.144-0.265l-15.319-3.83
		c-4.719-1.18-7.589-5.963-6.409-10.682c1.181-4.721,5.966-7.59,10.682-6.409l15.319,3.83c4.719,1.18,7.589,5.963,6.409,10.682
		C200.934,391.003,197.343,393.675,193.396,393.675z"/>
	<path style="fill:#EAE2C2;" d="M212.531,364.567c-1.815,0-3.646-0.559-5.219-1.718l-14.553-10.724
		c-3.917-2.886-4.752-8.4-1.866-12.317c2.886-3.916,8.401-4.751,12.316-1.866l14.554,10.724c3.916,2.886,4.751,8.4,1.866,12.317
		C217.902,363.326,215.234,364.567,212.531,364.567z"/>
	<path style="fill:#EAE2C2;" d="M243.184,343.12c-2.847,0-5.64-1.377-7.337-3.923l-12.255-18.383
		c-2.698-4.048-1.604-9.517,2.443-12.215c4.046-2.699,9.516-1.605,12.215,2.443l12.255,18.382c2.698,4.048,1.604,9.517-2.443,12.215
		C246.56,342.641,244.863,343.12,243.184,343.12z"/>
	<path style="fill:#EAE2C2;" d="M276.872,329.333c-4.733,0-8.645-3.759-8.798-8.524l-0.766-23.744
		c-0.157-4.862,3.657-8.931,8.52-9.088c4.843-0.172,8.931,3.657,9.088,8.52l0.766,23.744c0.157,4.862-3.657,8.931-8.52,9.088
		C277.065,329.331,276.968,329.333,276.872,329.333z"/>
	<path style="fill:#EAE2C2;" d="M319.01,327.037c-0.731,0-1.475-0.092-2.216-0.284c-4.709-1.221-7.537-6.028-6.316-10.737
		l5.362-20.68c1.221-4.709,6.028-7.54,10.737-6.316c4.709,1.221,7.537,6.028,6.316,10.737l-5.362,20.68
		C326.502,324.405,322.927,327.037,319.01,327.037z"/>
	<path style="fill:#EAE2C2;" d="M360.357,339.291c-1.542,0-3.105-0.405-4.524-1.256c-4.171-2.503-5.524-7.914-3.021-12.085
		l9.192-15.319c2.503-4.172,7.914-5.524,12.085-3.021c4.171,2.503,5.524,7.914,3.021,12.085l-9.191,15.318
		C366.267,337.766,363.35,339.291,360.357,339.291z"/>
	<circle style="fill:#D04123;" cx="183.815" cy="435.799" r="15.702"/>
	<path style="fill:#3A301B;" d="M986.941,468.352c-0.704,0-1.412-0.023-2.125-0.072c-16.881-1.156-29.629-15.779-28.473-32.66
		c0.04-0.572,3.478-57.587-35.024-85.781c-37.576-27.517-96.585-17.994-134.34,21.679c-11.665,12.256-31.059,12.737-43.315,1.072
		c-12.257-11.665-12.737-31.058-1.072-43.315c28.713-30.17,66.458-49.675,106.282-54.921c39.94-5.264,78.527,3.989,108.649,26.048
		c64.326,47.106,60.591,130.099,59.953,139.406C1016.368,455.975,1002.907,468.352,986.941,468.352z"/>
	<path style="fill:#3A301B;" d="M1054.32,472.183c-0.551,0-1.109-0.06-1.67-0.185c-4.129-0.918-6.732-5.01-5.813-9.14
		c0.587-2.64,1.567-9.368-2-14.828c-5.063-7.748-17.279-10.42-28.413-6.215c-3.96,1.491-8.377-0.502-9.872-4.461
		c-1.494-3.957,0.503-8.377,4.46-9.871c17.984-6.789,37.604-1.675,46.649,12.168c6.511,9.965,5.382,20.901,4.129,26.533
		C1060.996,469.755,1057.831,472.183,1054.32,472.183z"/>
	<path style="fill:#3A301B;" d="M1036.701,502.821c-0.646,0-1.301-0.082-1.955-0.254c-4.091-1.077-6.534-5.267-5.457-9.357
		c0.968-3.677,1.659-9.319-0.548-15.321c-4.72-12.84-19.271-16.496-19.889-16.646c-4.111-0.995-6.638-5.134-5.643-9.246
		c0.994-4.111,5.135-6.639,9.246-5.643c2.36,0.571,23.279,6.161,30.664,26.249c3.58,9.74,2.511,18.703,0.983,24.507
		C1043.198,500.547,1040.096,502.821,1036.701,502.821z"/>
	<path style="fill:#3A301B;" d="M1002.998,511.245c-0.071,0-0.143-0.001-0.215-0.003c-4.229-0.116-7.562-3.639-7.446-7.867
		c0.209-7.612-0.505-15.239-2.125-22.668c-1.432-6.571-3.577-13.007-6.375-19.128c-1.759-3.847-0.066-8.392,3.781-10.15
		c3.846-1.76,8.392-0.066,10.151,3.781c3.253,7.115,5.746,14.596,7.41,22.234c1.883,8.637,2.715,17.503,2.471,26.353
		C1010.536,507.953,1007.13,511.245,1002.998,511.245z"/>
	<path style="fill:#3A301B;" d="M925.624,455.332c-3.741,0-7.014-2.744-7.569-6.556c-0.57-3.91-1.667-17.474,8.15-27.822
		c10.501-11.072,28.646-12.92,43.141-4.396c3.646,2.145,4.864,6.839,2.719,10.485c-2.144,3.646-6.838,4.863-10.485,2.72
		c-8.413-4.949-18.617-4.22-24.261,1.732c-5.2,5.482-4.333,13.516-4.106,15.071c0.61,4.186-2.289,8.073-6.475,8.684
		C926.364,455.305,925.992,455.332,925.624,455.332z"/>
	<path style="fill:#3A301B;" d="M968.537,512.777c-0.366,0-0.736-0.026-1.108-0.08c-4.187-0.606-7.088-4.492-6.481-8.679l7.66-52.85
		c0.606-4.187,4.491-7.089,8.679-6.481c4.187,0.606,7.088,4.492,6.481,8.679l-7.66,52.85
		C975.554,510.029,972.28,512.777,968.537,512.777z"/>
	<path style="fill:#EAE2C2;" d="M978.478,391.377c-3.946,0-7.538-2.672-8.539-6.674c-1.18-4.719,1.689-9.502,6.409-10.682
		l15.319-3.83c4.718-1.18,9.501,1.689,10.682,6.409c1.18,4.719-1.689,9.502-6.409,10.682l-15.319,3.83
		C979.904,391.291,979.185,391.377,978.478,391.377z"/>
	<path style="fill:#EAE2C2;" d="M959.342,362.269c-2.704,0-5.371-1.24-7.098-3.583c-2.886-3.917-2.05-9.431,1.866-12.317
		l14.553-10.724c3.916-2.885,9.43-2.052,12.317,1.866c2.886,3.917,2.05,9.431-1.866,12.317l-14.554,10.724
		C962.988,361.71,961.157,362.269,959.342,362.269z"/>
	<path style="fill:#EAE2C2;" d="M928.689,340.823c-1.679,0-3.376-0.479-4.878-1.48c-4.047-2.699-5.141-8.167-2.443-12.215
		l12.255-18.383c2.699-4.047,8.167-5.141,12.215-2.443c4.047,2.699,5.141,8.167,2.443,12.215L936.027,336.9
		C934.33,339.446,931.536,340.823,928.689,340.823z"/>
	<path style="fill:#EAE2C2;" d="M895.001,327.035c-0.096,0-0.193-0.001-0.29-0.005c-4.862-0.157-8.676-4.226-8.52-9.088
		l0.766-23.744c0.157-4.862,4.227-8.696,9.088-8.52c4.862,0.157,8.676,4.226,8.52,9.088l-0.766,23.744
		C903.646,323.276,899.734,327.035,895.001,327.035z"/>
	<path style="fill:#EAE2C2;" d="M852.863,324.739c-3.917,0-7.492-2.632-8.521-6.6l-5.362-20.68
		c-1.221-4.709,1.607-9.516,6.316-10.737c4.712-1.223,9.517,1.607,10.737,6.316l5.362,20.68c1.221,4.709-1.607,9.516-6.316,10.737
		C854.339,324.647,853.595,324.739,852.863,324.739z"/>
	<path style="fill:#EAE2C2;" d="M811.516,336.993c-2.993,0-5.91-1.525-7.562-4.278l-9.191-15.318
		c-2.503-4.171-1.15-9.582,3.021-12.085c4.17-2.503,9.582-1.15,12.085,3.021l9.191,15.319c2.503,4.171,1.15,9.582-3.022,12.084
		C814.621,336.588,813.059,336.993,811.516,336.993z"/>
	<circle style="fill:#D04123;" cx="988.059" cy="433.501" r="15.702"/>
	<path style="fill:#EAE2C2;" d="M560.282,122.144c-2.206,0-4.395-0.948-5.91-2.781l-14.553-17.617
		c-2.694-3.261-2.234-8.089,1.027-10.783c3.261-2.695,8.089-2.234,10.783,1.027l14.553,17.616c2.694,3.261,2.234,8.089-1.027,10.784
		C563.729,121.569,562,122.144,560.282,122.144z"/>
	<path style="fill:#EAE2C2;" d="M587.848,120.613c-4.144,0-7.552-3.308-7.654-7.473l-0.766-31.404
		c-0.103-4.229,3.242-7.741,7.471-7.844c4.25-0.08,7.741,3.242,7.844,7.471l0.766,31.404c0.103,4.229-3.242,7.741-7.471,7.844
		C587.975,120.612,587.911,120.613,587.848,120.613z"/>
	<g>
		<path style="fill:#3A301B;" d="M218.771,508.86c-43.328,88.278-55.393,167.472-22.954,194.911
			c11.109,9.397,34.934,10.276,82.585,12.036c62.544,2.309,94.222,3.114,114.112-14.039c5.823-5.022,17.1-32.6,15.13-87.159
			c-3.025-27.571-35.856,23.939-74.829,48.135c9.432-30.756,4.846-66.235,5.973-95.027c2.948-32.161-39.014,16.519-86.588,92.576
			C245.29,578.766,239.697,474.205,218.771,508.86z"/>
		<path style="opacity:0.69;fill:#584631;" d="M294.936,638.476c-1.318,0.007-2.658-0.306-3.901-0.975
			c-3.967-2.135-5.452-7.081-3.318-11.047c2.555-4.748,5.327-9.461,8.237-14.008c5.441-8.499,11.551-16.697,18.157-24.367
			c2.939-3.414,8.091-3.797,11.503-0.858c3.413,2.94,3.797,8.09,0.858,11.503c-6.107,7.089-11.753,14.666-16.779,22.517
			c-2.69,4.202-5.25,8.557-7.611,12.943C300.617,636.907,297.826,638.461,294.936,638.476z"/>
		<path style="opacity:0.69;fill:#584631;" d="M202.773,630.329c-4.083,0.022-7.624-3.02-8.13-7.171
			c-0.749-6.149-1.012-12.391-0.785-18.554c0.519-14.062,3.561-27.935,9.041-41.234c1.717-4.165,6.484-6.148,10.649-4.434
			c4.165,1.717,6.15,6.485,4.434,10.649c-4.743,11.509-7.375,23.493-7.823,35.62c-0.195,5.307,0.032,10.683,0.678,15.982
			c0.544,4.472-2.639,8.538-7.111,9.082C203.406,630.307,203.088,630.327,202.773,630.329z"/>
		<path style="opacity:0.69;fill:#584631;" d="M378.044,688.89c-1.486,0.008-2.992-0.39-4.347-1.234
			c-3.824-2.38-4.994-7.411-2.612-11.235c2.174-3.493,4.134-7.163,5.822-10.908c2.837-6.292,4.979-12.935,6.367-19.743
			c0.899-4.414,5.21-7.261,9.62-6.363c4.414,0.899,7.263,5.206,6.363,9.62c-1.628,7.993-4.144,15.796-7.478,23.191
			c-1.986,4.404-4.289,8.72-6.846,12.826C383.395,687.514,380.753,688.876,378.044,688.89z"/>
	</g>
	<path style="fill:#EAE2C2;" d="M616.952,120.613c-1.615,0-3.244-0.509-4.629-1.562c-3.368-2.56-4.023-7.365-1.463-10.733
		l14.553-19.148c2.56-3.367,7.365-4.022,10.733-1.463c3.368,2.56,4.023,7.365,1.463,10.733l-14.553,19.148
		C621.549,119.57,619.264,120.613,616.952,120.613z"/>
	<g>
		<path style="fill:#E59F22;" d="M351.769,709.187c62.35,52.386,162.504,54.279,248.277,2.201
			c-12.84-21.385-25.681-42.77-38.521-64.155c-18.659-8.686-37.317-17.373-55.976-26.059c1.845-19.679,3.69-39.358,5.535-59.038
			c-21.904-10.762-43.807-21.523-65.711-32.285c5.09-17.604,10.18-35.208,15.27-52.812c-16.263-4.939-32.527-9.877-48.79-14.816
			c-7.628,0.678-84.913,8.713-115.821,68.532C262.276,596.087,309.441,673.624,351.769,709.187z"/>
		<path style="fill:#3B301B;" d="M340.957,602.919c-4.123,0-7.504-3.302-7.583-7.442c-0.08-4.189,3.252-7.65,7.441-7.73
			l73.701-1.401c4.199-0.088,7.65,3.253,7.73,7.441c0.08,4.19-3.252,7.65-7.442,7.73l-73.7,1.401
			C341.055,602.919,341.005,602.919,340.957,602.919z"/>
		<path style="fill:#3B301B;" d="M367.554,639.647c-0.107,0-0.215-0.003-0.324-0.007c-4.187-0.177-7.438-3.713-7.262-7.899
			l2.716-64.655c0.176-4.187,3.709-7.408,7.899-7.263c4.187,0.177,7.438,3.713,7.262,7.899l-2.716,64.655
			C374.958,636.456,371.597,639.647,367.554,639.647z"/>
		<path style="fill:#3B301B;" d="M412.836,703.14c-0.368,0-0.739-0.026-1.114-0.081c-4.146-0.61-7.012-4.466-6.401-8.611
			l6.952-47.238l49.369,14.681l10.252-56.864l59.082,26.425c3.825,1.71,5.539,6.198,3.829,10.023
			c-1.71,3.826-6.198,5.541-10.024,3.828l-41.391-18.513l-9.822,54.479l-48.832-14.521l-4.402,29.91
			C419.778,700.429,416.538,703.14,412.836,703.14z"/>
		<circle style="fill:#F3BC63;" cx="375.685" cy="511.245" r="14.553"/>
		<ellipse style="fill:#F3BC63;" cx="417.046" cy="543.032" rx="8.425" ry="6.511"/>
		<ellipse style="fill:#F3BC63;" cx="368.791" cy="676.689" rx="14.553" ry="10.723"/>
		<circle style="fill:#F3BC63;" cx="515.087" cy="706.561" r="9.957"/>
	</g>
	<path style="fill:#3B301B;" d="M53.892,646.423c1.353-2.127,4.007-3.029,6.382-2.171c10.883,3.232,21.436,7.482,31.516,12.694
		c-7.894-19.689-17.512-40.976-13.58-60.877c0.828-3.227,4.123-5.174,7.359-4.348c1.092,0.278,2.083,0.855,2.864,1.665
		c17.059,15.958,32.977,33.086,47.637,51.258c0.713-27.357,3.493-54.621,8.318-81.561c0.968-5.367,8.681-5.669,11.191-1.447
		c17.854,29.837,31.109,62.179,39.32,95.943c8.65-14.081,22.957-27.438,33.543-32.866c3.72-1.93,9.709,0.362,9.074,5.277
		c-2.329,23.398-5.233,51.62-20.356,70.767c-12.098,15.076-31.698,14.021-49.331,14.563c-25.951,0.784-50.783,3.92-72.863-12.061
		c-17.694-12.875-29.944-31.81-41.618-49.901C51.759,651.237,51.992,648.271,53.892,646.423z"/>
	<path style="fill:#3A301B;" d="M518.153,206.399c-0.043,0-0.087,0-0.13-0.001c-4.229-0.07-7.601-3.557-7.53-7.786l0.766-45.957
		c0.07-4.229,3.57-7.62,7.786-7.531c4.23,0.07,7.602,3.556,7.531,7.786l-0.766,45.958
		C525.739,203.053,522.324,206.399,518.153,206.399z"/>
	<path style="fill:#3A301B;" d="M656.78,201.803c-4.042,0-7.423-3.165-7.642-7.25l-2.298-42.893
		c-0.226-4.224,3.015-7.832,7.239-8.058c4.221-0.219,7.832,3.014,8.058,7.239l2.298,42.893c0.227,4.224-3.015,7.832-7.239,8.058
		C657.058,201.799,656.918,201.803,656.78,201.803z"/>
	<path style="fill:#3A301B;" d="M541.129,181.888h-46.723c-4.23,0-7.66-3.43-7.66-7.66s3.43-7.66,7.66-7.66h46.723
		c4.23,0,7.66,3.43,7.66,7.66S545.359,181.888,541.129,181.888z"/>
	<path style="fill:#3A301B;" d="M633.034,181.122c-3.942,0-7.291-3.024-7.624-7.024c-0.352-4.215,2.781-7.917,6.997-8.269
		l45.957-3.83c4.2-0.36,7.917,2.781,8.269,6.997c0.352,4.215-2.781,7.917-6.997,8.269l-45.957,3.83
		C633.462,181.114,633.247,181.122,633.034,181.122z"/>
</g>
</svg>
