<svg xmlns="http://www.w3.org/2000/svg" version="1.1" xmlns:xlink="http://www.w3.org/1999/xlink" xmlns:svgjs="http://svgjs.com/svgjs" width="1440" height="560" preserveAspectRatio="none" viewBox="0 0 1440 560"><g mask="url(&quot;#SvgjsMask1000&quot;)" fill="none"><rect width="1440" height="560" x="0" y="0" fill="#1e3266"></rect><path d="M1488 560L0 560 L0 375.44Q-11.44 292, 72 280.57Q144.41 232.98, 192 305.38Q246.15 239.53, 312 293.69Q405.44 267.13, 432 360.58Q473.65 330.23, 504 371.87Q516.28 312.15, 576 324.44Q641.63 270.06, 696 335.69Q732.25 251.94, 816 288.2Q866.62 266.81, 888 317.43Q950.2 307.63, 960 369.84Q982.81 272.64, 1080 295.45Q1155.03 250.48, 1200 325.51Q1244.41 297.92, 1272 342.33Q1323.97 322.3, 1344 374.27Q1374.83 333.1, 1416 363.92Q1429.13 305.05, 1488 318.18z" fill="#182f5d"></path><path d="M1464 560L0 560 L0 372.91Q30.15 331.06, 72 361.21Q122.19 339.4, 144 389.6Q200.26 373.86, 216 430.12Q247.64 341.76, 336 373.41Q409.1 326.51, 456 399.62Q524.22 347.84, 576 416.06Q647.14 367.21, 696 438.35Q713.99 384.34, 768 402.32Q804.32 318.64, 888 354.96Q964.26 311.23, 1008 387.49Q1038.1 345.59, 1080 375.69Q1137.43 361.12, 1152 418.55Q1182.55 329.1, 1272 359.65Q1351.52 319.17, 1392 398.69Q1452.57 387.26, 1464 447.83z" fill="#25467d"></path><path d="M1560 560L0 560 L0 502.66Q36.3 466.96, 72 503.26Q85.38 444.64, 144 458.02Q191.29 385.31, 264 432.6Q347.89 396.49, 384 480.38Q426.23 450.61, 456 492.83Q477.92 442.75, 528 464.67Q553.87 418.54, 600 444.41Q627.44 399.85, 672 427.29Q730.74 414.03, 744 472.77Q825.65 434.42, 864 516.07Q871.85 451.92, 936 459.77Q979.07 382.84, 1056 425.91Q1140.76 390.67, 1176 475.43Q1198.06 425.49, 1248 447.54Q1313.05 392.59, 1368 457.64Q1422.22 439.86, 1440 494.07Q1473.65 407.73, 1560 441.38z" fill="#356cb1"></path><path d="M1512 560L0 560 L0 517.75Q44.93 490.68, 72 535.62Q86.22 477.84, 144 492.05Q219.65 447.7, 264 523.34Q315.02 454.36, 384 505.38Q437.81 439.19, 504 492.99Q581.96 450.95, 624 528.91Q708.96 493.87, 744 578.82Q744.04 506.87, 816 506.91Q897.79 468.7, 936 550.48Q958.34 500.82, 1008 523.15Q1054.45 449.6, 1128 496.04Q1183.44 479.49, 1200 534.93Q1244.96 507.89, 1272 552.86Q1340.13 501, 1392 569.13Q1432.55 489.67, 1512 530.22z" fill="white"></path></g><defs><mask id="SvgjsMask1000"><rect width="1440" height="560" fill="#ffffff"></rect></mask></defs></svg>