<svg enable-background="new 0 0 60.506 87.079" height="87.079" viewBox="0 0 60.506 87.079" width="60.506" xmlns="http://www.w3.org/2000/svg"><path d="m5.071 49.085h20v35.77h-20z" fill="#6fc998" transform="matrix(.9503 .3113 -.3113 .9503 21.5988 -1.3637)"/><path d="m27.55 56.97h35.77v20h-35.77z" fill="#6fc998" transform="matrix(.3113 .9503 -.9503 .3113 94.9307 2.9424)"/><path d="m30.254 56.447c-15.563 0-28.224-12.661-28.224-28.224s12.661-28.223 28.224-28.223 28.223 12.66 28.223 28.223-12.661 28.224-28.223 28.224zm0-50.447c-12.254 0-22.224 9.969-22.224 22.223s9.97 22.224 22.224 22.224 22.223-9.97 22.223-22.224-9.97-22.223-22.223-22.223z" fill="#262103"/></svg>