<svg xmlns="http://www.w3.org/2000/svg" width="64" height="64" viewBox="0 0 64 64"><path fill="#8d6c9f" d="M22 14.833c-.552 0-1 .448-1 1v2c0 .552.448 1 1 1s1-.448 1-1v-2C23 15.281 22.552 14.833 22 14.833zM17 14.833c-.552 0-1 .448-1 1v2c0 .552.448 1 1 1s1-.448 1-1v-2C18 15.281 17.552 14.833 17 14.833zM12 14.833c-.552 0-1 .448-1 1v2c0 .552.448 1 1 1s1-.448 1-1v-2C13 15.281 12.552 14.833 12 14.833zM52 14.833c-.552 0-1 .448-1 1v2c0 .552.448 1 1 1s1-.448 1-1v-2C53 15.281 52.552 14.833 52 14.833zM47 14.833c-.552 0-1 .448-1 1v2c0 .552.448 1 1 1s1-.448 1-1v-2C48 15.281 47.552 14.833 47 14.833zM42 14.833c-.552 0-1 .448-1 1v2c0 .552.448 1 1 1s1-.448 1-1v-2C43 15.281 42.552 14.833 42 14.833z"/><path fill="#85cbf8" d="M28,59c-0.553,0-1-0.447-1-1V12H12c-0.553,0-1-0.447-1-1V7c0-0.553,0.447-1,1-1h40 c0.553,0,1,0.447,1,1v4c0,0.553-0.447,1-1,1H37v46c0,0.553-0.447,1-1,1H28z"/><path fill="#9fddff" d="M27,11.838v46.075c2.903-0.023,5.25-2.379,5.25-5.287v-35.5C32.25,14.217,29.903,11.861,27,11.838z"/><path fill="#8d6c9f" d="M32 20c-.553 0-1-.447-1-1v-4c0-.553.447-1 1-1s1 .447 1 1v4C33 19.553 32.553 20 32 20zM32 32c-.553 0-1-.447-1-1v-8c0-.553.447-1 1-1s1 .447 1 1v8C33 31.553 32.553 32 32 32z"/><path fill="#8d6c9f" d="M52,7v4H37.5c-0.828,0-1.5,0.672-1.5,1.5V58h-8V12.5c0-0.828-0.672-1.5-1.5-1.5H12V7h16h8H52 M52,5 H36h-8H12c-1.105,0-2,0.895-2,2v4c0,1.105,0.895,2,2,2h14v45c0,1.105,0.895,2,2,2h8c1.105,0,2-0.895,2-2V13h14c1.105,0,2-0.895,2-2 V7C54,5.895,53.105,5,52,5L52,5z"/></svg>