<svg height="116.013" viewBox="0 0 108.846 116.013" width="108.846" xmlns="http://www.w3.org/2000/svg"><path d="m108.434 55.01c-.065-.132.9-.112-.254 0 .123.408-.272 1.362-.817.633-.385.266-.264-.545.074-.633.616.525-.386 1.352-.43.382-.98.052-.827-.6-.772-.382-.188.636-.814-.674-.546-.273-.422.626-.894.182-1.085.273-.365.431.182-.093-.106.632-.075-1.053-.782.425-.925-.5-.9-.38-.326-1.648-1-.134-.194.8-.865.793-.33.721-.589.775.294-.005-1-.665-.066.965-1.022.568-1.072-.056.657-1.686-1.839-1.214-1.477-.1-.193-2.182-.7-.452-1.27.1.2.261-.628 1.373-1.386-.032-.174 1.076-1.984.376-1.673.032-1.386-.537-.663-.582-1.68-.052-.024.857-1.813.112-1.663.052-.571.532-1.917-2.062-1.752.163-1.244 1.376-2.165.713-1.846-.163-.741.543-1.4-.614-1.885 0-1.759 1.017-2.233-1.461-2.966.08-1.507.062-2.776 1.191-3.2-.08a2.964 2.964 0 0 0 -3.2-.045c-2.053.724-2.709-.283-3.363.045-.726-.371-2.041 1.267-3.4-.372-.717.7-2.315.249-3.444.372-1.426-.163-1.969.821-3.5 0-1.288-.1-2.324.3-3.529 0-1.242.355-2.207-.382-3.133-.177-.892.5-2.25-.406-3.078.177-.534-.534-1.407.06-2.849.263-.771-.587-1.9.41-3.342-.263a2.789 2.789 0 0 1 -3.083-.087c-.462-.573-2.154.255-3.016.087-1.409.451-1.863-.1-3.181-.055-.646.221-1.734-.5-2.754.055-1.372-.847-3.68.888-3.289 0a8.364 8.364 0 0 1 -3.239.186c-1.92.511-.932 1.5-3.051-.186-.421.021-1.14-1.01-2.987.172-.766-.67-1.537 1.311-1.436 1.162-1.674 1.3-.407.376-1.393-1.334-.194.089-.958-.85-1.94 0 .143-.228-1.767 1.573-2.049-.127.471-.467-1.658.354-1.589.127-.283 1.345.537-1.845-1.579.006-.153-.564-.935-2.591-1.7-.006-1.58-1.506-1.192-1.119-1.662.012.29.869-1.493-.692-1.223-.012.514-1.65-.584.741-1.246-.257.7-.32-.867.432-1.2.257.482-3-1.28-1.558-1.29.008-.867-.908.536-.6-.684-.008-1.848-1.864-1.883.244-1.459 0 .526.932-.934.331-.905 0-.583-.839-.277-.512-.31 0-.178 2.125-.436.189.351-.724-.125-.732-1.562-.288.438-.5-1.132 1.235-.984.31.525-1.49 1.456 1.624 2.018-.728.9-1.331-.1-.847-.6-.939.544-1.634-.092-2.035.231-2.223.907-1.575-.429 3.119 1.622-1.43.318-.971-.388-.538 1.218.17.553-1.12-1.368.055.059-1.095.462-.908.552.984-.1.246.684-.936.581-1.383.81-.747.368-1.038.657 2.48.4-1.2.469-1.2 1.439.843-.6-.1.389-1.216a1.057 1.057 0 0 0 .582-1.086c-.06-1.57.432-1.672.627-.97.52 3.739.425-.638.452-.954 1.205-2.458-.911-.683.507-1.046-.869-.48-.024.055.5-1.033.584-1.305 1.04.91.9-1.57-.177-2.808 1.139-1.275.814-1.97.765.28.262-.767.612-1.254-.134-2.307-.123-1.834.9-1.855.434-.767.908-1.918.577-1.621.1-1.656-.079-1.153.623-.853 0-.2 1.607.284.49-.649.159-.608-.48-.5.3-.985-.39-.553-.922-.153.286-.591 1.051-.935.069-.7.429 0 .758.375 1.206-.539 1.238 0 .932-.214 0 .545.877.12.078-1.012-.009-.6 1.091-.12-.019-1.259 1.443.043 1.391.025 1.363 1.3 1.245-.675 1.232-.025.64-.375.685-.7.783-.516-.605-1.235-.224 1.272.9.409.77-.665.672-.151 1.519.107.259-.508 1.152-.51.936-.106.619-.754 1.68-.755.84-.106a1.929 1.929 0 0 0 1.134.025c.209.667.88 1.448.79.187.493.557.629-.366.994 0-.23-.21 1.39-.457 1.019 0-.034.13.8-.241.682-.132.827-.076 1.43.552 1.089.09.534.3.407 1.139 1.034.078-.171-.135.125 1.131.915-.036-.45.681 1.135-1.484.811-.171 1.063-.2.959-.225.954.122.41.063 1.624-.381.964-.024.37-.376 1.209-1.945 1.23.073.113-1.057.746 1.7.913.286-.561.383.448-.4 1.076-.121.245-.954.686-.707.9-.142 1.051-.013.68-.576 1.257-.023.145-.9.653-1.03 1.166-.043-.114.507.428-1.076 1.112-.159-.295-.191 1.062.167.95.056.1.952.527.388 1.06.146.545-.029 1.168 1.2.961.176 1.494-.276.737 1.164 1.125-.073-.109.62.226-.091 1.121-.055-.076-.857 2.289.121 1.169-.048.325-.394.741 1.585 1.061.064.756-1.273.928-.8 1.315-.064.37-.225 1.284-1.19 1.24-.127 1.154.435.961.307 1.139.127.057-.488.357.114 1.178.234.04-.015 1.047-.5 1.2-.234 1.067.3.481-.353 1.182 0-.52.971-.2-.712 1.179 0 .081-.517.772-1.28 1.2.033.709.222.546-.631 1.245.12-.33.517 2.512.691 1.3-.083.7.25 1.721-.58.906-.07-.6.639 1.76-1.37 1.084.053 2.161.649.2-.963 1.127-.222-.264.4.372.806 1.107.352 1.483-1.021.829-.34 1.192-.183 3.086.627.306-.139 2.153.041.919.11 1.633.885 2.149-.041.571-1.57.934-.435 1.919.041 1.336.367.127-.283 2.112-.041-.725.726 2.229.4 1.755.141.824-1.038 1.127 1.441 1.943-.141 1.342.738.5.08 1.627.083-.934 1.363 1.325.947.932.12 1.959-.945-.132 1.405.743-.2-.987.64-.568.244 1.507.194.925.442.945-.124 1.336-.194-.715-1.2-.248-1.572 1.022-.069-.4-.1.518-2.535 1.3.069-.659-.62-.175.646.794.232-1.174.589-.557.7.941-.232-.331 1.884 2.27.029 1.087 0-.566 1.037-1.32.668.377 0 .959.8.219 1.223.351.724.662.693-.271 1.522.142 1.132.5.792.608 1.579.821.853.315 1.6 1.542.79.651 1.272.526.075.385 1.7.307.565-1.1-2.48 2.421-.857.481 1.128-.229-.205-.584 1.684.506.786-.556 1.253.961.792.491.91-.677-.616.212.529.357 1.167-.263 1.16-1.082 2.016.424.8-.338.684.468 1.086.3.682.728-.482-.506 2.22.571 1.051-1.431.248 2.053.78.765.743-.085 2.726 1.611-.677.346 1.611 1.069 1.219.765 2.051.563.837.252.333-.411 2.531.3 1.373.077 2.442-.978.114.368 1.333-.615.1.324-.867.821.683-.488 1.265-.576.314.507 1.045.221-.253 1.476 2.312.5 1.033.45-.838.335.775 1.007 1.934 1.2.5.092.906.711 1.607.279-.716 1.164-.049.765 1.745-.777 2.421 1 .021.743 1.364-1.181 2.1.49 1.38.547 1.445 1.08-.072.269 1.975.654 1.029.5-.429.093 1.2.679 1.174.27.294.349.228.113.46-.508-.16-1.002 2.59.281.593z" fill="#9fe6ff"/><path d="m.266 54.756c-.9-.327.79-.392.72.807.363.058-.034 2.5 2.023 2.27.657.884-.177.877.789.884-.054 1.125-.063 1.958.909.987-.128 2.443.514.743.918 1.062.435-.224.423-.958 1.1.949-.157.068.227-.176 1.024 1.437 1.519-.68.558 3.985 1.257 1.363 1.274 1.768-.3-.122 1.133 1.318.471 3.218 1.192 1.231 1.352 1.724-.179 1.79-1.365.349 1.262 1.208.084-.172.726.931 1.4 1.653-1.122-.434-.107 1.2 1.4 1.486 2.594-.556.212.085 1.577 1.651-.591-1.086 2.314.823 1.369 1.654.536-.662 1.159.324 1.317 1.477a2.072 2.072 0 0 0 1.271 1.363c.277 2.007 1.389 1.37 1.413 1.647-.71.4.665 2.163 1.258 1.6-.269 1.863.219.587 1.47 1.464-2.145-.657 1.546 2.689 1.379 1.478 1.586.043 2.061.817 1.367 1.6.21.442 2.248.218 1.281 1.74.964.464 1.541 1.6 1.46 1.334.491 1.244 1.283 2.663 1.3 1.6-.6.286.509-.494 1.414 1.443 1.29-.256.2.276 1.326 1.282 1.739-.366.889 1.583 1.326 1.693 1.774.1 1.1.738 1.277 1.248 1.14.943 1.468 2.272 1.294 1.636 1.028.8 1.49 1.21 1.223 1.515-.231 1.242.455 1.037 1.241 1.248.98-.164.8 1.2 1.184 1.328.258.92.525.373 1.147 1.287-.447.415.588.561.634.711-.213.1.815.727.621.7-.065-.28.268-.133.482.707.807.642.659.357.61.874 0-.3.944 1.225.309.533.516 1.158 1.15 1.47.938.509.06 1.408.68-.64.246.118 1.081.192 1.469 1.475.815.965.1.027.209-1.337.662.243-.056.728.391 1.213.357 1.007 1.327.553.046 1.413.928.958-.321.509 1.1 1.1.9.341.216.808.566.1-.041.7-.354-1.006.323 1.789.817.9.084.427 1.158-1.426.636.733.3-.286-.553.535.494.827-.531-.811.492 1.852.589.388.056.136-.456-.159.227.91-.107.508 1.376 1.368.45-.151-.47.235-.253-.566.234.262-1.067-.8.223.412.43-.482 1.446.319.13-.275.6-.521.8.078.436-1.141.627-.858 1.356-.747 1.216-.6.832-.747-.214-1.449-.759-.322.448-.47.121.527 1-.505.654-.951.086-.147.613-1.2 1.01-.407-.145-.126-.14.179.168-.851 1.415-.208-.071-.4.326-.844.523.52 1.121.129 1.041-.753.731.809.409-.756.883-.528.531.395.111-.509.519-1.159.256-.235.619-1.967.792-1.189.178.37.155.1.868-.559.658 1.1.054-1.474.3-.954.328.386-.887-.476.344.235-.133-.763 1.624.754.656-.735-1.527.012 2.155-.862 1.113-.778-.489-.042.7-.261.194-.676.463-.766 1.482-.9 1.081-.641.665-.153-.107-1.15.371-1-.251-.2.36-.817.733-.978s.687-.134.381.141c.059.12.878-.886.416-.634-.028-1.14.579-1.151.74-1.244.3-.629.031-1.174.676-.59.345.824.333.039.765-.761.262.769-.489-1.223.768-1.035-.6 1.025-.07-1.4.83-1.035.147-1.216.552.128.728-.636-.262.338.215.049.687-.77.048-.824.155-.746.692-.776-.565.9.751-.709.706-.142-.43-.039-.214-1.449.226-.839.832-.348-.622-1.277.584-.826 1.141-.344-.925-.4.549-.492.743-.4.072-1.514.735-.842 1.164.13.545-.553.95-1.111-.436-.737.924.036.518-.738.793-.939.66-1.6.7-.817-.5-1.156-.5-.045.664-.515-.069.025-.185 0 .555-.95 0 .529 1.288-1.787.825-.878.977-.543.161-1.691.686-.79-.219.151 1.615-1.194.777-.57-.083-.27.5.89.63-.691.621-.822-.248-1.615.535-.964-.851.432.472-1.513.6-.933.21-.037.342.568 1.055-.578.5-.538-.028.456.918-.677.463-.828.575-1.246.614-.711 0-.89 1.025-1.577 1.241-1.723-.561-.113.963-1.081.748-.839-.062 1.122.03-1.681.742-.832.669.089 1.26-1.074.614-.8.2-.513.922-2.637.7-.825 1.07.835 1.2-1.594.658-1.185-.017-.814 1.186-.794.921-.431 1 .247.446-1.351.649-1.065.461 1.448-.071-.121.82-.491-.456.388-.108 1.1.291-.478.812-2.306.049-.306.985-1.045-.22-1.228.628.163.583-.423.514-.286.343-.654.8-.776.888-.631 1.766-.829 1.176-1.673.608-1 1.722.171 1.341-1.584-.553-.071.963-.589 1-1.039-.012-.827.674-1.423.971-1.218 1.135.495.839.721 1.11-1.115 1.276-.552-.186.5.925-1.087.509-1.388.087-.984.859-.915-.716.21-.265.373.713-1.068-.169.266.651.323.74-.561.513-.667 1.211-.637.707-.733 1.356-.158-.333-.031.376-.482.307.719.107-.755.677-.759.384-.634 0-1.018.234-.262-.257-.421-.224.679-.311 0-.917-.746.346.383-.9 0-.123-.1-.512-.614-1.459 0-.223.7-.975-.012-.925 0-.471.329-.677-.282-2.095 0-.837-.37-1.753-.852-2.507 0-.846.164-1.462-.358-2.807.121a10.773 10.773 0 0 0 -3.311-.121c-.51-.3-2.514.82-3.307-.01-.358 1.1-1.212-.213-2.062.287-1.168-.6-.644-2.311-1.994-.277-.953.546-.259.17-2.121-.093-.606 1.361-1.587 1.684-1.907.234-.575-.16-2.085-.37-2.259.213-1.578-.426-1.212.511-2.047-.354-.617-.9-1.562-.1-2.21.042-.916-.13-2.41.427-3.485-.2-1.171.377-1.96-.393-3.34.155a9.355 9.355 0 0 1 -2.44.167c-.447-.079-1.268.389-2.256-.167-1.194-.26-1.449.558-2.4.069-.918.073-1.4-.167-2.368-.069a4.1 4.1 0 0 0 -3.248.17c-1.216.348-2.181-.436-2.764-.17-.692.514-1.67-.065-3.094.109a5.047 5.047 0 0 1 -2.913-.109c-.965-.464-2.012-.072-2.992-.2-1.379.452-1.819-.44-2.944.2-1.511-.324-1.919.513-3.165.158-.531-.19-1.6.066-2.634-.158-.351-.114-1.309.443-2.266 0-.89-.207.3.916-2.229 0-.476-.609-2.1-.013-2.064.042-1.722.114-2.368-.3-2.369.218-1.061.926-1.708-1.459-2.216-.328-.306-.521-.985-3.13-1.814.068-.231 1.683-1.738.375-2.278-.016-1.354-.765-2.389-.345-1.737-.129-1.319-.558-1.572-.439-1.925-.375-.853.77-.532-.08-1.594.52-1.076 2.235-1.046.552-3.117-.166-.989-.437-3.116 1.749-3.216.166-.018 1.486-.655 1.587-1.167 1.175-.32.915-1.11 1.023-1.491-.907-1.2-.041-1.095-.973-2.2-.268-1.171-.149-1.689.669-2.076.034-.232.676-.612-.339-1.039-.034-1.014-1 .061-1.058-1.107-.009z" fill="#78ccff"/><path d="m56.8 53.519c-.541-.386-1.077-.67-1.669-.079a.425.425 0 0 1 -.287.027 14.255 14.255 0 0 0 -1.589-.247 2.392 2.392 0 0 0 -1.319.228c-.4.264-.632.15-1 .018-.561-.2-1.167-.511-1.758.05a1.168 1.168 0 0 1 -.681.138c-.317.013-.7-.16-.946-.041a1.594 1.594 0 0 1 -1.277.025c-.282-.087-.728-.141-.889.014-.4.367-.768.237-1.16.133-.332-.079-.7-.426-.878.2-.012.04-.166.052-.331.1.093-.21.139-.33.255-.579-.521.2-.928.369-1.343.5-.112.035-.345 0-.373-.062-.246-.533-.51-.18-.77-.1a8.9 8.9 0 0 0 -1.717-.133c-.645.048-1.288.616-1.936-.051a.305.305 0 0 0 -.473.32c.005.092-.095.27-.137.268-.283-.027-.575-.094-.869-.13a2.883 2.883 0 0 0 -.663 0c-.33.054-.588.489-1.018.15-.127-.107-.478-.044-.666.048a1.353 1.353 0 0 1 -1.733-.234 1.81 1.81 0 0 0 -.54-.212c.14.241.234.389.422.706a6.62 6.62 0 0 1 -1.251-.281c-.517-.242-.971-.337-1.39.263-.622-.982-1.118-.09-1.712.144.05-.181.075-.271.088-.322-.46.015-.915.491-1.3-.152a.313.313 0 0 0 -.221-.063 2.562 2.562 0 0 0 -1.9.533c-.3.279-.544.257-.833-.075a.9.9 0 0 0 -.732-.233c-.218.03-.415.285-.564.4a12.485 12.485 0 0 0 -1.751-.072c-.513.044-.991.192-1.384-.268-.029-.032-.122 0-.3.016.188.122.286.188.543.345-.351.042-.535.094-.729.094-.734-.009-1.476-.079-2.2-.015-.676.057-1.333.318-2.01.394a15.775 15.775 0 0 1 -2.773.129c-.5-.046-1 .427-1.477-.036-.019-.032-.136.054-.207.06a.954.954 0 0 0 -.856.73 2.12 2.12 0 0 0 -.068.507c.205.011.416.042.621.033.122 0 .25-.11.361-.083a13.529 13.529 0 0 0 1.484.376 4.806 4.806 0 0 0 1.247-.229c.414.093 1.04.218 1.676.354.23-.5.364-.512.8-.152a.778.778 0 0 0 .981.164c.147-.1.428 0 .642.014a1.547 1.547 0 0 0 .365.04c.382-.072.754-.175 1.126-.257a.5.5 0 0 1 .122.006c-.111-.414.155-.216.317-.2a4.039 4.039 0 0 0 1.248.127 5.676 5.676 0 0 1 2.03.016 2.389 2.389 0 0 0 1.139.07 2.4 2.4 0 0 1 1.895.07c.021.011.054-.028.086-.047.064-.068.139-.135.2-.2-.163 0-.327.014-.491.016.042-.049.087-.108.131-.157 1.61.229 3.21-.106 4.846.022a23.1 23.1 0 0 0 4.656-.243c.037.063.133.191.284.423.044-.253.061-.385.074-.435a3.366 3.366 0 0 1 1.925.06.287.287 0 0 0 .164-.012c.364-.122.728-.255 1.009-.363.075.136.124.363.243.421.209.1.44.176.6-.193.15-.339.836-.364 1.139-.123.127.1.256.177.443.309l.022-.416c.264.2.5.384.746.56a1.011 1.011 0 0 0 .016-.315 1.549 1.549 0 0 1 .126-.259c1.212.656 2.08.651 2.462-.013.341.11.692.241 1.044.331.222.053.573.153.681.046.431-.436.966-.132 1.443-.26a15.672 15.672 0 0 1 2.708-.287c.184-.021.5-.055.529.018.163.4.422.134.636.135.122.007.245-.007.367.01.507.057 1 .134 1.52.2.023-.244.041-.4.061-.589.638.3 1.465-.29 1.952.532-.025-.1-.05-.207-.084-.341.364.058.718.118 1.052.178-.036-.1-.072-.188-.151-.437.565.51 1.049.617 1.588.268-.046-.094-.1-.219-.165-.345a.7.7 0 0 1 .906.048 1.465 1.465 0 0 0 1.419.37 8.993 8.993 0 0 1 1.583-.222.564.564 0 0 0 .209-.1 1.065 1.065 0 0 1 1.5.059 8.1 8.1 0 0 1 1.291-.1c.528.048 1.048.229 1.587.288a12.988 12.988 0 0 0 1.65.057c.123 0 .243-.161.4-.275a5.083 5.083 0 0 0 .963-.061c.3-.066.593-.4.779.133a.276.276 0 0 0 .253.044 1.059 1.059 0 0 1 .976-.132 1.456 1.456 0 0 0 .8.063 3.763 3.763 0 0 1 1.9-.114.22.22 0 0 0 .177-.062.576.576 0 0 1 .088-.109.583.583 0 0 1 .825.015c.483-.25.928-.39 1.357.01.087-.107.153-.206.23-.3.007.062.013.134.02.2.3.037.609.042.913.1.444.086.841.1 1.091-.381.023-.05.224 0 .509.017-.282.136-.419.21-.671.34l1.323.07c0-.092-.01-.194-.015-.286.234.4.5.6.941.345.011-.019.07.025.1.047.494.312.57.03.538-.532.339.13.6.225.859.33.449.177.914.447 1.37.124a1.857 1.857 0 0 1 2.316.011 1.029 1.029 0 0 0 .433.094 11.368 11.368 0 0 0 1.853.088 8.865 8.865 0 0 1 1.878-.013c.365.039.84-.252 1.1-.1.654.381.967.234 1.125-.421a3.765 3.765 0 0 0 2.431.558c.869-.015 1.761.287 2.476-.491.28.494.577.653 1.109.436a2.734 2.734 0 0 1 1 .032l-.008.143c.26-.088.51-.177.759-.256.168.111.335.222.571.387-.062-.176-.088-.26-.115-.342a1.424 1.424 0 0 1 1.439.2 1.429 1.429 0 0 0 .811.1c.674-.015 1.342-.092 2.015-.087.245 0 .485.281.721.263.584-.041 1.14-.338 1.74-.1.04.022.127-.095.2-.142.327-.2.555-.451 1.076-.27 1.082.373 1.558.062 1.686-1a1.533 1.533 0 0 0 -.443-.9c-.086-.106-.407-.011-.7 0-.7-.793-.8-.808-1.841-.108a.553.553 0 0 0 -.171-.247.546.546 0 0 0 -.769.075c-.363.328-.589.173-.873-.056-.584.612-1.142-.019-1.712-.049-.033.049-.056.089-.089.138.14.058.279.127.418.2-.043.049-.076.109-.12.157-1.137-.345-2.262-.691-3.367-1.025-.346.757-.743.941-1.275.382-.16.124-.267.219-.32.258-.739-.1-1.408-.2-2.086-.294.025.1.049.217.083.351-.283-.055-.526-.088-.757-.152-.2-.051-.417-.216-.612-.2-.422.06-.838.2-1.261.3-.052.008-.121-.037-.172-.029-.405.09-.784-.267-1.03-.239a1.682 1.682 0 0 1 -1.458-.414c-.064.252-.1.413-.192.735-.417-.216-.774-.408-1.132-.59a.429.429 0 0 0 -.261-.085 16.808 16.808 0 0 1 -1.985.292c-.449 0-.938.184-1.39-.156-.137-.1-.438.006-.8.029a1.3 1.3 0 0 0 -.4-.225 2.964 2.964 0 0 0 -1.522.021c-.6.152-1.241.139-1.848.239a9.862 9.862 0 0 1 -1.745-.194c-.459 0-1.007-.258-1.353-.082a4.881 4.881 0 0 1 -1.81.3c-.113.015-.23-.073-.351-.11a3.075 3.075 0 0 0 -.655-.168 14.513 14.513 0 0 0 -1.629-.055 1.045 1.045 0 0 0 -.75.287c-.264.363-.557.306-.966.326.2-.214.324-.35.454-.486-.016-.062-.035-.114-.052-.167-.939.767-1.93.2-2.943.253.024.134.058.267.074.351-.536-.1-1.041-.2-1.6-.3-.5.667-1.275.372-2.028.332.056-.1.112-.178.178-.277-.839.048-1.659.514-2.4-.218-.314.544-.658.679-1.173.386a2.348 2.348 0 0 0 -1.007-.247 5.773 5.773 0 0 0 -1.985.1 2.3 2.3 0 0 1 -1.811-.032c-.09-.045-.26.089-.4.133.056.105.111.209.2.378a.87.87 0 0 0 -.194.008zm44.069.068a1.513 1.513 0 0 1 -.569.1c-.151-.028-.263-.228-.389-.357.035-.049.058-.1.091-.148l.845.228c.007.064.015.115.022.177z"/><g fill="#e1f9ff"><path d="m15.7 23.57c.3-.357.031-.3 0 0z"/><path d="m22.385 23.415c-.3-.615-.358-.3-.2.06.115-.114.149-.156.2-.06z"/><path d="m33.275 24.035c.016-.026.027-.039.044-.068-.036-.028-.05.008-.044.068z"/><path d="m95.147 37.92.018-.017h-.016z"/><path d="m80.056 37.028c0-.008 0-.015-.009-.023l-.009.006z"/><path d="m39.1 24.241v-.024c-.233.164-.179.113 0 .024z"/><path d="m78.861 36.03v-.035l-.014.017z"/><path d="m34.355 32.64a.1.1 0 0 1 -.017 0v.019z"/><path d="m8.975 36.067c-.172.1-.283.366.232.271a.856.856 0 0 0 .008-.093c-.196-.108-.267-.151-.24-.178z"/><path d="m97.7 36.672c.267-.428.767-.856.749-1.267 0-.041-.011-.082-.014-.124-.2.085-.141-.264-.074-.636-.039-.236-.087-.472-.141-.707-.01.006-.018.007-.03.015.167.4-.639 0-.3-.682-1.506 1.213-.687.357-.424-.8a6.641 6.641 0 0 0 -.555-1.188c-.274-.031-.6-.194-.293-.889-1.09.9-.735-.991-.506-.786 1.674-1.712-.71-3.149-.692-1.92-.237-.068-.6-.279-.747-1.045-.213.726-.32-.061-.821-.853-.382.36.369-.319-.032-.97.077-.115.077-.437-.461-.886l-.141.059c.458.3-1.621 1.641-1.323-.059-1.5.933-2.115.821-.941.232-.969.414-1.453-.853-.794-.232-.714-2.378-1.538-.558-1.371-.147-1.211-1.4-1.65-1.028-.95.147-.391.07-.411.636-1.336.194a14.348 14.348 0 0 0 -1.445.105c.139-.258.112-.539-.805-.1.393.827-1.866 1.243-.932-.12-1.127 0-.285.655-1.627-.083-.816 1.582-1.119-.9-1.943.141.474.26-2.48.585-1.755-.141-1.985-.242-.776.408-2.112.041-.985-.476-1.348-1.611-1.919-.041-.516.926-1.23.151-2.149.041-1.847-.18.933.586-2.153-.041-.363-.157.291-.838-1.192.183-.735.454-1.371.044-1.107-.352-.931-.741 1.034.871-1.127.222.676-1.423-1.685.586-1.084-.053l.086-.051a1.42 1.42 0 0 1 -.992.121c1.21.774-1.632.6-1.3.082-.7-.75-.536.1-1.246-.119-.428-1.313-1.119-.55-1.2-.033a1.052 1.052 0 0 0 -1.189 0c-.681-.339-.112.3-1.172 0-.149-.265-1.156.219-1.2.234-.821-.12-1.121-.722-1.178-.234-.178.18.015.308-1.139-.127.044-1.063-.87-.1-1.24.127-.383-.73-.56-1.208-1.316.07-.252 1.2-.563.229-.843-.046.475-.017-1.456-.747-1.387.03-.9-.036-1.23.675-1.121.055-.388 1.237.369-.2-1.125.073.207 1.025-.416-.2-.961-.176-.533.242-.955.806-1.06-.146.112.111-1.245-.247-.95-.056-.684-.917-1.226.666-1.112.159-.513-.987-1.021-.854-1.166.043-.577-.553-.206.01-1.257.023-.217-.565-.658-.812-.9.142a1.411 1.411 0 0 0 -1.08.145c-.172 1.343-.8-1.36-.909-.31-.019-1.831-.71-.712-1.115-.207a5.205 5.205 0 0 1 -1.081.153c0-.347.109-.32-.954-.122.324-1.313-1.261.852-.811.171-.623.92-.937.33-.959.1-.571.933-.47.141-.99-.146.341.462-.262-.166-1.089-.09.123-.109-.716.262-.682.132.371-.457-1.249-.21-1.019 0-.365-.366-.5.557-.994 0 .09 1.261-.581.48-.79-.187a1.929 1.929 0 0 1 -1.134-.025c.84-.649-.221-.648-.84.106.216-.4-.677-.4-.936.106-.847-.258-.749-.772-1.519-.107-.563.433-.939.017-1.1-.349a2.6 2.6 0 0 1 -.582.456c0-.032 0-.054 0-.074-.03.237-.23 1.053-1.234.1.053.018-1.41-1.284-1.391-.025-1.1-.477-1.013-.892-1.091.12-.873.425.055-.334-.877-.12-.032-.539-.48.375-1.238 0a.623.623 0 0 1 -.074-.361 3.158 3.158 0 0 1 -.355.361c-1.208.438-.676.038-.286.591-.783.488-.144.377-.3.985 1.117.933-.49.445-.49.649-.7-.3-.526-.8-.623.853.331-.3-.143.854-.577 1.621-1.02.021-1.031-.452-.9 1.855-.245.342-.078.95-.216 1.192.534.246 1.07.572 1.622.874-.071.143-.178.375-.285.607-.375-.2-.767-.411-1.445-.768.321.643.517 1.035.82 1.659-.553-.231-.856-.338-1.32-.535.02.386-.361.616-.578.9 0 .41-.043.529-.117.539a1.188 1.188 0 0 0 .267.434c.25-.125.5-.267.66-.339.428.357.767.66 1.338 1.142-.036-.785-.071-1.231-.089-1.7.713.589 1.445 1.178 2.14 1.749.821-.429 1.552-.768 2.248-1.16.161-.089.214-.357.3-.553a1.6 1.6 0 0 0 -.606-.143c-.553.125-1.07.321-1.606.482l-.2-.2c.482-.839.946-1.7 1.427-2.533h.25a8.311 8.311 0 0 0 .053.945c.036.268.054.7.214.767 1.445.642 2.89 1.213 4.353 1.784.122.035.328-.167.488-.26l-.006.01c1.855.232 2.729-.41 2.515-1.855-.089-.642-.2-1.284-.3-1.944 1.552-.464 2.712.374 3.96.8a6.413 6.413 0 0 0 1.445.142c-.035-.339-.089-.7-.125-1.034a5.142 5.142 0 0 1 .036-.643 5.12 5.12 0 0 1 1.177 3.283 14.07 14.07 0 0 0 .75 3.532 1.614 1.614 0 0 0 .285.463c.125-.125.357-.267.339-.392-.054-.535-.178-1.053-.268-1.588-.035-.232-.035-.463-.053-.7.5.142.838.232 1.159.321-.035-.553-.089-1.124-.125-1.624.232-.053.553-.142.875-.214-.25-.677-.518-1.355-.785-2.051-.482.25-.749.375-1.088.553-.7-1.3 1.034-2.033.535-3.193.41-.107.713-.178 1.016-.25.072.161.125.232.108.286-.09.535-.2 1.07-.3 1.605a1.33 1.33 0 0 0 1.3 1.747c-.043-.823.522-1.125 1.2-1.426a6.176 6.176 0 0 0 -.322 1.213c-.017.143.2.357.357.428a.5.5 0 0 0 .432-.158c.339-.624.625-1.284.8-1.641.767-.054 1.267-.089 1.8-.125.035.089.089.464.267.535 1.142.41.732 1.338.749 2.1.018.731-.445.8-.963.517a8.388 8.388 0 0 1 -1.052-.749c-.446.571-.785 1.017-1.142 1.463-.214.285-.7.7-.624.838a2.076 2.076 0 0 0 .927.91c.268.107.678-.071 1.017-.125l-.856-.589c-.054-.035-.071-.107-.232-.338.339-.322.678-.892 1.088-.946.321-.053.714.553 1.07.874.018.018.018.072.036.089.161.125.375.357.464.321a1.1 1.1 0 0 0 .464-.481c.428-.714.856-1.445 1.23-2.087.785.731 1.427 1.338 2.123 1.98.375-.446.7-.874 1.07-1.249.161-.16.607-.321.7-.232.464.446 1.142.91 1.231 1.445a1.056 1.056 0 0 1 -1.249 1.124c-.16-.41-.321-.767-.57-1.356-.393.5-.643.8-.892 1.124a9.973 9.973 0 0 0 1.391.945c.178.09.571-.142.785-.321.571-.463 1.124-.767 1.837-.142l.161-.321c-.286-.232-.571-.446-.857-.678.2-.179.411-.357.5-.446a4.7 4.7 0 0 0 1.088.2c.089 0 .3-.482.232-.571a3.2 3.2 0 0 0 -.877-.744c-.161-.089-.446.071-.607-.018-.267-.143-.642-.339-.731-.588a7.8 7.8 0 0 1 -.268-1.606c.339.232.66.482 1.017.678a9.077 9.077 0 0 0 1.035.428c-.036-.375-.054-.749-.072-1.124v-.97c.161-.054.3-.125.464-.178-.464 1.962 1.231 1.32 1.873 1.908-.071.268-.142.535-.214.785a2.155 2.155 0 0 0 .25.179c.41-.322.8-.625 1.463-1.142-.5-.25-.821-.428-1.124-.589.3-.517.535-.91.767-1.3.285.178.571.5.892.553.749.143 1.516.161 2.265.232 0 .107.018.214.018.321-.375.3-.749.589-1.159.91-.2-.375-.286-.749-.5-.874a1.393 1.393 0 0 0 -.856 0c-.054.018-.125.446-.054.5.571.482 1.2.928 1.855 1.427-.142.732-.3 1.588-.445 2.319.606.482 1.1.856 1.587 1.231-1.356-.214-1.391 1.017-2.016 1.516.339.642.625 1.213 1.017 1.962.25-.642.41-1.034.535-1.355.518.428.946.785 1.392 1.141.107-.517-.107-.963 0-1.07.481-.482.089-.767-.107-1.159-.268-.5-.75-1.106.214-1.534.125.374.249.731.5 1.409.25-1.32.839-1.5 1.837-1.142-.089-.464-.214-1.017-.463-1.07-1.017-.232-2.07-.321-3.282-.5.66-1.034 1.212-2.015 1.908-2.907.286-.375.8-.428.892.321a3.616 3.616 0 0 0 .268.66c.624-.963 1.177-1.784 1.73-2.622.125.071.267.125.392.2-.232.785-.463 1.57-.677 2.3-.357.071-.75.036-.857.2a1.135 1.135 0 0 0 -.2.946 1.254 1.254 0 0 0 .946.5 3.644 3.644 0 0 0 1.159-.517c-.071-.428-.161-.892-.268-1.552.429.357.66.553.964.82.249-.446.428-.8.642-1.213.446.322.8.589 1.124.821-.072.357-.143.642-.25 1.106.517-.232.8-.375 1.2-.553.339.892.642 1.7 1 2.64.749-1.677.874-1.677 2.247-.571a2.131 2.131 0 0 0 1.231.143 1.67 1.67 0 0 0 .642-.214c.411.517.678 1.141.964 1.159.731.036.874-.588.838-1.248a7.7 7.7 0 0 1 .054-1.106c.713-.107 1.32-.179 2.069-.286-.446-.374-.821-.7-1.195-1.016-.3.267-.535.481-.785.7-.143-.392-.143-.874.018-.927 1.3-.464.41-.857-.072-1.267.179-.392.321-.749.535-1.249a28.75 28.75 0 0 0 2.426 1.624 18.37 18.37 0 0 0 2.23.892c-.267.731.036 1.337 1.088 1.712-.25-.856-.535-1.6.678-1.516.071 0 .232-.339.25-.517a7.772 7.772 0 0 0 -.036-1.053c.428.143.714.25 1.017.339a2.628 2.628 0 0 0 -.25.714 5.254 5.254 0 0 0 .071.909c.232-.142.464-.267.678-.428a3.69 3.69 0 0 0 .357-.392 1.588 1.588 0 0 1 .268.089q-.135.723-.268 1.445c-1.373-.125-1.463.018-1.035 1.266a1.278 1.278 0 0 1 .068.376 5.615 5.615 0 0 1 .9-.946 2.5 2.5 0 0 1 .856-.161c-.054.321-.018.838-.214.945a.768.768 0 0 0 -.348 1.172c.371-.229.725-.442 1.079-.672.089.285.179.517.25.767.071-.018.143-.018.214-.036.036-.3.071-.606.071-.642 1.106-.731 2.034-1.338 3.033-1.98.107.339.267.892.5 1.641.214-.7.589-1.249.5-1.73a2.139 2.139 0 0 0 -.963-1.481c-.446-.142-1.124.339-1.713.553-.107-.339-.267-.838-.41-1.338.053-.035.107-.107.16-.107.714.09 1.624-1.659 2.123.25 0 .018.054.018.089.036.607.214 1.2.428 1.677.588.143.5.178 1.124.392 1.2 1.3.463 1.481 1.48 1.5 2.64a.909.909 0 0 0 .571.7 7.057 7.057 0 0 0 1.676.036c-.374-.571-.57-1.2-.981-1.445-.909-.553-.7-1.641-1.248-2.355-.072-.071.2-.481.392-.642.678-.57 1.374-1.088 2.034-1.587.16.553.3 1.07.481 1.569a2.1 2.1 0 0 0 .3.5 3.23 3.23 0 0 0 .41-.446 1.134 1.134 0 0 0 .131-.232c.711 0 1.3.16 1.67-.053.429-.25.678-.857 1-1.3a2.315 2.315 0 0 1 -.142 1.16c-.16.478-.337.938-.514 1.4-.426.079-1.007.345-1.217.171-.82-.678-1.177.107-1.8.321.446.606.838 1.123 1.266 1.676.393-.356.767-.677 1.16-1.034.249.481.428.856.535 1.052-.2.446-.5.839-.41 1.088.107.25.588.375.909.536a1.422 1.422 0 0 0 .377.1c.035-.315.071-.65.141-1.156.903.601 1.527-.719 2.403-.094zm-79.31-3.407c-.214-.09-.428-.179-.713-.3.16-.249.285-.446.267-.41-.2-.963-.339-1.748-.5-2.515.642.571 1.213 1.07 1.909 1.677-.303.459-.606.977-.963 1.548zm3.978 1.427c-.087-.018-.308.418-.467.672a4.248 4.248 0 0 0 -.817-1.029 10.085 10.085 0 0 0 -1.659-.749c.66-1.213 1.427-2.6 2.212-4.032a1.816 1.816 0 0 1 1.338 1.946c-.036.3-.732.553-1.2.874.285.606.463 1.427 1.748.731-.316.784.486 1.995-1.155 1.587zm10.632-7.599a2.94 2.94 0 0 1 -.036-1.053c.089 0 .178-.018.268-.018.2.393.41.8.8 1.481-.532-.196-.961-.232-1.032-.41zm7.206.214-.571-.054c.036-.41.054-.838.09-1.266.214.018.445.053.66.071-.072.428-.125.842-.179 1.249zm3.782 3.3c-.607.035-1.017.071-1.57.107-.036-.25-.089-.7-.143-1.267.678.464 1.16.785 1.713 1.16zm-.767 2.943a.816.816 0 0 1 -.678-.25 2.744 2.744 0 0 1 -.214-.82 4.962 4.962 0 0 0 .713-.089c.179-.036.339-.179.535-.232a.857.857 0 0 1 .553-.036c.143.071.215.3.339.517a11.064 11.064 0 0 1 -1.248.91zm13.628-3.532c-1.088.036-1.142-.071-.731-1.552.374.089.749.179 1.248.286-.196.481-.357.874-.517 1.266zm4.834 1.855c-.285-.642-1.534-.214-1.356-1.338.107-.642.3-1.266.411-1.73.446.321.767.535 1.141.8-.142.089-.232.16-.339.214-.267.125-.553.214-.838.321.178.268.357.517.553.767.214.25.446.5.678.749-.089.074-.161.144-.25.217zm2.517.627c-.392-1.713.928-2.533 3.407-2.159-.232.2-.357.428-.481.41-1.804-.144-2.25.105-2.926 1.749zm3.122 1.159c.178.285.035.767.035 1.374-.784-.536-.445-2.284-1.926-1.32a2.69 2.69 0 0 1 2.551-1.659c-.876.354-1.144.818-.662 1.603zm2.178-1.197a3.745 3.745 0 0 1 -.8 1.231.839.839 0 0 1 -.535-.321.624.624 0 0 1 .214-.589c.553-.339.767-.7.072-1.267 1.223-.267 1.134.484 1.049.946zm.767-2.194c-.2-.089-.375-.179-.571-.268.214-.339.428-.678.732-1.177.017.053-.072-.089-.09-.232a.956.956 0 0 1 .054-.5.374.374 0 0 1 .357-.072c.142.125.321.375.285.482-.218.607-.503 1.178-.771 1.767zm11.256 4.816a7.332 7.332 0 0 1 -.2-1.356 3.371 3.371 0 0 1 .677-.178c.036.482.09.963.143 1.445-.196.036-.41.053-.624.089zm3.315-10.827c-.519.069-.449.069.159-.326-.08.14-.127.241-.163.326zm10.6 3.594c.007.042.013.084.025.131a.279.279 0 0 0 -.139-.07zm-1.069 6.132a3.094 3.094 0 0 0 1.031-.433 8.245 8.245 0 0 0 .981-1.231c.089.036.2.09.285.125-.089.268-.089.678-.267.785-1.053.642-.571 1 .2 1.284-.393.214-.8.428-1.285.678-.238-.302-.593-.746-.948-1.208z"/><path d="m65.236 23.88c.238-.107.3-.182 0 0z"/><path d="m9.472 35.775a1.956 1.956 0 0 1 -.5.292c.113-.066.245-.056.24.178l.122.067c-.051.013-.088.018-.13.026a3.073 3.073 0 0 1 -.246.733 1.276 1.276 0 0 0 .3-.2.83.83 0 0 0 .214-1.096z"/><path d="m96.908 31.28a1.084 1.084 0 0 0 .182.008c-.256-.23-.268-.188-.182-.008z"/><path d="m97.09 31.288.016.013c.143-.036.094-.02-.016-.013z"/><path d="m92.831 24.165c-.89.454-.457.634 0 0z"/><path d="m92.831 24.165c.106-.054.238-.113.384-.175a.442.442 0 0 0 -.236-.059 1.977 1.977 0 0 1 -.148.234z"/><path d="m76.042 36.993c.161-.5.322-1.017.482-1.57-1.177.143-1.5.392-1.784 1.142a2.418 2.418 0 0 1 -.5.642 4.4 4.4 0 0 0 -.589.7c-.107.179-.125.589-.035.625a1.074 1.074 0 0 0 .713.053c.161-.035.268-.249.446-.446a10.211 10.211 0 0 0 .535 1.3 2.257 2.257 0 0 0 .624.607c.036.036.375-.214.357-.268a5.667 5.667 0 0 0 -.339-.749c-.089-.2-.16-.41-.232-.606a3.508 3.508 0 0 1 .678-.25 1.125 1.125 0 0 1 .428-.018c.232.571.393 1.017.589 1.516a.418.418 0 0 0 -.214.161 4.36 4.36 0 0 0 -.392.945c-.018.072.285.232.428.339.214-.285.428-.553.624-.856a1.007 1.007 0 0 0 .053-.41v-2.964c.563.263.984.074 1-.732-1.196-.554-1.909.357-2.872.839z"/><path d="m78.912 36.154a.024.024 0 0 0 0-.035c.002.012 0 .022 0 .035z"/><path d="m25.08 37.992a3.781 3.781 0 0 0 .66-.25c.267-.178.535-.375.784-.571a5.689 5.689 0 0 0 -.713-.606c-.393-.232-.838-.411-1.409-.678-.036 1.016-.125 1.891-.107 2.765a6.283 6.283 0 0 0 .339 1.355c.214-.339.41-.7.856-1.462-.2 1.659.785 2.265 1.766 3.068.178-.571.321-1.017.535-1.659-.464.143-.7.214-.856.25-.999-.464-.072-2.177-1.855-2.212z"/><path d="m52.978 34.3a1.25 1.25 0 0 0 -.945-.464 3.413 3.413 0 0 0 -2.622 3.193 3.991 3.991 0 0 0 .089.411c.018-.161.018-.3.035-.446.839-.714 1.659-1.427 2.5-2.141.624.517 1.088.839.3 1.5a4.754 4.754 0 0 0 -1.017 1.266c-.089.143.018.428.036.642a2.548 2.548 0 0 0 .535-.285c.232-.214.41-.5.66-.7a2.112 2.112 0 0 0 .429-2.976z"/><path d="m15.09 41.113c-.463-.392-1.427-.2-2.158-.267.2.374.41.749.606 1.123.036.054 0 .143 0 .215-.267.107-.535.231-1 .428.392.214.677.481.8.428a15.033 15.033 0 0 0 1.409-.963c.821.784.678 2.194 1.873 3.05.107-.66.375-1.177.232-1.463a8.348 8.348 0 0 0 -1.762-2.551z"/><path d="m27.666 33.193c-.606.018-1.463.161-1.677-.892-.035-.178-.749-.214-1.159-.3a4.622 4.622 0 0 0 .053.874c.892.125.75.838.839 1.409l-.018-.018v.028l-.016.008h.012v.006l.039-.006h2.087c.089.286.089.624.249.767a1.11 1.11 0 0 0 .8.179c.125-.018.321-.429.268-.536-.335-.645-.335-1.554-1.477-1.519z"/><path d="m67.944 37.813c-.2.375-.143 1-.428 1.213-1.07.821-.3 1.784-.446 2.658a1.761 1.761 0 0 1 .285.036 4.722 4.722 0 0 1 .339-1 23.992 23.992 0 0 0 1.41-2.337c.124-.3-.3-.838-.482-1.266a3.117 3.117 0 0 0 -.678.696z"/><path d="m36.621 36.939c-.625-.232-1.249-.5-1.873-.731a.472.472 0 0 0 -.446.071.486.486 0 0 0 .018.446c.57.446 1.177.874 1.766 1.3a2.793 2.793 0 0 1 .5.411c.285.392.535.8.91 1.337a2.376 2.376 0 0 0 -.875-2.834z"/><path d="m22.011 37.082c-.856.25-1.48.232-1.516-.892a1.98 1.98 0 0 0 -.2-.3c-.125.125-.214.16-.214.2-.089.517-.143 1.035-.214 1.552.357.018.713.018 1.07.053.089.018.179.107.268.143.517.143 1.052.285 1.569.428.018-.071.054-.143.072-.214.2.232.392.464.678.785.253-1.47-.353-2.094-1.513-1.755z"/><path d="m18.194 35.476c-.053.446.036.946-.178 1.213-.767.946-.714 1.374.5 2.052a11.14 11.14 0 0 0 .892-1.249c.499-.892-.375-2.158-1.214-2.016z"/><path d="m92.507 40.988a6.844 6.844 0 0 0 -1.356-.124c1.035 1.141-.16 2.978 1.57 3.906.089-.268.2-.428.178-.571-.071-.892-.517-1.784.036-2.675.036-.072-.235-.482-.428-.536z"/><path d="m92.025 36.672c.143.446.232.767.286.909-.375.714-.678 1.32-1.071 2.1a2.233 2.233 0 0 0 2.087-1.944c-.035-.655-.427-1.012-1.302-1.065z"/><path d="m89.706 38.509a4.546 4.546 0 0 1 -.517.125c-.214.035-.5.018-.606.143-.357.463-.66.963-1.017 1.516.142.053.357.214.464.178a14.359 14.359 0 0 0 1.926-.856 1.1 1.1 0 0 0 .446-.66c.054-.2-.071-.446-.107-.66-.195.071-.395.16-.589.214z"/><path d="m74.134 33.55a11.877 11.877 0 0 0 -1.249-1.25c-.143.09-.285.161-.428.268.321.713.642 1.445 1.053 2.39a2.516 2.516 0 0 0 .927-.464c.125-.141-.107-.694-.303-.944z"/><path d="m84.64 36.85c-.089.036-.2.054-.285.089q.294.723.589 1.445c.035.125.071.268.107.393.624-1.106.981-.2 1.516-.09.267-.517.517-1 .767-1.48a2.227 2.227 0 0 1 -2.694-.357z"/><path d="m42.311 36.957c-.125.232-.25.446-.357.678-.357.785.518.945.767 1.427.107.2.375.285.571.428.107-.178.232-.375.41-.678a14.493 14.493 0 0 0 -.784-1.48c-.108-.179-.393-.25-.607-.375z"/><path d="m23.991 43.058c-.089.053-.214.142-.214.214-.053.481-.071.981-.089 1.462.143.036.286.054.446.09.214-.25.571-.482.625-.767.124-.643.356-1.713.089-1.873-.767-.464-.448.66-.857.874z"/><path d="m46.271 41.862c-.143.2-.357.375-.392.589a8.393 8.393 0 0 0 -.232 1.873c0 .3.339.589.517.892a3.515 3.515 0 0 0 .41-.767 3.83 3.83 0 0 0 .018-.91h.036a7.961 7.961 0 0 0 -.018-1.124c-.018-.196-.21-.374-.339-.553z"/><path d="m20.977 40.7c-.535-.161-1-.3-1.427-.446-.054.125-.089.25-.143.375.535.356 1.053.713 1.588 1.07 1.106-1.516 1.124-1.552.463-2.355-.178.503-.321.913-.481 1.356z"/><path d="m99.576 41.249c.173-.33.347-.643.521-.973-.357-.072-.731-.107-1.106-.2a3.1 3.1 0 0 0 -.856-.232c-.214.018-.411.25-.607.375.161.2.428.553.482.517.721-.366 1.044.389 1.566.513z"/><path d="m99.6 41.257-.021-.008-.014.025z"/><path d="m81.982 40.293-.588-.8a1.553 1.553 0 0 1 -.3.036c.071.66.16 1.32.249 1.98h.214c.072-.232.125-.464.2-.7.071.089.124.161.2.25.481-.268.981-.535 1.463-.8-.054-.125-.125-.268-.179-.392-.42.14-.848.283-1.259.426z"/><path d="m71.048 38.491c-.054.125.125.393.25.517a.471.471 0 0 0 .428-.089c.428-.731 1.2-1.445.3-2.461-.336.695-.675 1.355-.978 2.033z"/><path d="m7.349 39.347a3.458 3.458 0 0 0 -.3.7c.215.089.446.25.625.214a1.2 1.2 0 0 0 .678-.446 6.354 6.354 0 0 0 .428-1.2c-.86-.07-.896-.053-1.431.732z"/><path d="m60.06 39.258c.731.393 1.213.66 1.837 1.017.161-.5.3-1.017.464-1.516a1.648 1.648 0 0 1 -.286-.2c-.606.218-1.23.432-2.015.699z"/><path d="m73.848 43.182a10.234 10.234 0 0 0 -.677 1.784c.16.072.3.143.463.214.428-.66.839-1.32 1.267-1.98-.036-.089-.071-.2-.125-.3-.321.086-.803.068-.928.282z"/><path d="m25.329 35.53a1.381 1.381 0 0 0 1.106.232c.179-.036.268-.535.5-1.035-.589.143-.892.214-1.285.321.017-.3.034-.524.051-.743-.253.036-.492.085-.746.119.107.376.125.876.374 1.106z"/><path d="m39.956 36.511c-.142.607-.285 1.2-.374 1.8a2.9 2.9 0 0 0 .125.856c.267-.232.731-.446.731-.678a12.708 12.708 0 0 0 -.232-2c-.089.004-.178.022-.25.022z"/><path d="m80.11 37.1.011.017.006-.017c0 .018-.017 0-.017 0z"/><path d="m80.466 37.581c-.155-.1-.228-.3-.345-.464-.248.672-.513 1.326-.761 2l.321.107c.214-.178.411-.481.66-.553.982-.287.803-.626.125-1.09z"/><path d="m85.368 40.868c-.214.072-.392.393-.5.642-.054.143.107.357.178.535.214-.089.428-.2.642-.285a2.707 2.707 0 0 0 .571-.232 5.571 5.571 0 0 0 .571-.678 7.406 7.406 0 0 0 -1.462.018z"/><path d="m21.976 48.017h.357c.071-.875.124-1.749.2-2.623-.179 0-.357-.018-.553-.018z"/><path d="m100.343 43.57c-.123.547-.23 1.077-.371 1.712.624.018 1.07.036 1.766.072-.582-.741-.99-1.254-1.395-1.784z"/><path d="m100.329 43.552.014.018v-.018c.021-.018-.014 0-.014 0z"/><path d="m41.294 35.066a2.7 2.7 0 0 0 -.446.089c.054.268.125.536.161.821a7.45 7.45 0 0 1 .035.892v.91c.179 0 .357.017.553.017 0-.606.018-1.213-.017-1.819a3.387 3.387 0 0 0 -.286-.91z"/><path d="m74.437 40.114a3.844 3.844 0 0 0 -.856-.927 2.255 2.255 0 0 0 -.482.446 10.589 10.589 0 0 0 .91 1.266c.214-.374.482-.678.428-.785z"/><path d="m80.5 42.9c-.161-.392-.3-.785-.446-1.177-.107-.25-.214-.518-.321-.767-.143.107-.41.2-.428.321a1.912 1.912 0 0 0 .107 1.017c.16.3.535.463.82.7.092-.043.181-.061.268-.094z"/><path d="m70.263 38.669c-.143.268-.41.536-.392.767a3.485 3.485 0 0 0 .446 1c.231-.249.445-.481.784-.838-.356-.393-.601-.661-.838-.929z"/><path d="m83.267 38.152c-.161-.553-.357-1-1-.606-.589.374-.642.856-.2 1.462.433-.321.825-.588 1.2-.856z"/><path d="m41.794 43.5v1.569c.553.072 1.088 0 1.052-.785a.806.806 0 0 0 -1.052-.784z"/><path d="m10.684 42.077c-.232-.143-.642 0-.963.017v.321c.535.322 1.088.66 1.73 1.053.321-.768-.285-1.106-.767-1.391z"/><path d="m73.385 37.456c.089-.089.178-.16.249-.231a6.472 6.472 0 0 0 .072-1.3c-.018-.142-.375-.249-.571-.374a3.114 3.114 0 0 0 -.375 1.106c.018.282.411.532.625.799z"/><path d="m45.807 40.382a.794.794 0 0 0 -.249-.071c-.25.249-.5.517-.75.784-.107.125-.285.268-.285.411a3.845 3.845 0 0 0 .143.767 2.188 2.188 0 0 0 .642-.411 2.962 2.962 0 0 0 .428-.856 2.414 2.414 0 0 0 .071-.624z"/><path d="m9.454 38.027c.142.107.339.339.428.3.481-.179.945-.411 1.676-.75-.463-.249-.713-.481-.82-.428a14.918 14.918 0 0 0 -1.284.878z"/><path d="m35.247 34.763c.5-.977-.489-1.335-.832-1.972-.515.967-.228 1.619.832 1.972z"/><path d="m34.409 32.783.006.008c0-.009.007-.017.012-.026z"/><path d="m93.577 39.561c.25.625.482 1.249.767 1.945.821-.874.714-1.213-.767-1.945z"/><path d="m47.323 37.546c-.374.053-.731 1.462-.392 2.033a11.375 11.375 0 0 0 .856-1.534c.036-.089-.339-.517-.464-.499z"/><path d="m95.221 37.989c.141.744.266 1.506.408 2.25l.428-.053a4.552 4.552 0 0 1 .017-1.3c.301-.921-.135-1.017-.853-.897z"/><path d="m95.2 37.992h.021v-.015z"/><path d="m96.717 40.257c.035.8.071 1.588.107 2.39a1.517 1.517 0 0 1 .285-.018c.268-.8.607-1.623-.071-2.408-.107.018-.232.018-.321.036z"/><path d="m15.2 47.927c-.463-.82-.8-1.427-1.159-2.087-.541 1.285-.431 1.534 1.159 2.087z"/><path d="m38.38 43a4.486 4.486 0 0 0 -.839 1.2c.107.053.214.107.339.16.482-.321.963-.642 1.7-1.141-.54-.113-1.022-.363-1.2-.219z"/><path d="m61.044 35.059c-.268.66-1.427 1.088-.428 2.247.285-.82.517-1.48.749-2.158a2.135 2.135 0 0 0 -.321-.089z"/><path d="m12.433 37.813c-.429.286-1.142.571-.643 1.356.446-.214.839-.41 1.57-.749-.41-.268-.838-.678-.927-.607z"/><path d="m83.766 45.858c.286.018.767.125.8.054a7.852 7.852 0 0 0 .3-1.32c-.16-.054-.321-.09-.481-.143-.208.464-.405.945-.619 1.409z"/><path d="m63.4 38.17c-.142.3-.481.678-.392.892.107.3.535.482.821.713a3.252 3.252 0 0 1 .321-.2c-.125-.481-.25-.945-.375-1.409z"/><path d="m97.965 48.552c.072.053.125.107.2.16l1.5-.517c-.054-.25-.107-.571-.2-1.142z"/><path d="m34.659 39.08c-.018 0-.125.2-.09.249a.767.767 0 0 0 .286.25c.41.214.82.428 1.248.625a.683.683 0 0 0 .446.089c.09-.018.143-.179.268-.339a7.128 7.128 0 0 0 -1-.732 4.134 4.134 0 0 0 -1.158-.142z"/><path d="m17.944 41.22c-.178.09-.339.2-.517.3a5.2 5.2 0 0 0 .553 1.034c.071.072.5-.178.749-.267-.267-.353-.517-.71-.785-1.067z"/><path d="m18.248 44.877v1.659c.2-.018.374-.018.553-.036-.054-.553-.09-1.106-.143-1.659-.125.018-.268.018-.41.036z"/><path d="m81.983 42.219-.7 1.338c.089.089.178.2.285.285a3.709 3.709 0 0 0 .892-.767c.107-.178-.143-.553-.214-.838-.085 0-.174-.018-.263-.018z"/><path d="m6.671 46.821c-.072-.017-.286.143-.286.214.018.464.072.91.125 1.356.161 0 .3-.018.446-.018a10.428 10.428 0 0 0 .072-1.284c-0-.089-.214-.232-.357-.268z"/><path d="m32.377 43.383c-.591-.066-.789-.574-.911-1.2-.375.677-.66 1.213-1.017 1.837.895-.1 1.606-.19 2.3-.276.084.062.176.126.284.2.089-.589.143-1.089.214-1.588-.79.444-1.057.713-.87 1.027z"/><path d="m88.743 44.128c.036.071.089.143.125.214.339-.161.838-.232.963-.482s-.107-.678-.25-1.3c-.374.712-.606 1.14-.838 1.568z"/><path d="m50.5 44.181a2.526 2.526 0 0 0 -.732.714c-.018.036.286.446.339.428a6.979 6.979 0 0 0 .839-.5 3.441 3.441 0 0 1 .142-.393c-.197-.088-.482-.32-.588-.249z"/><path d="m32.768 39.312c-.179.2-.464.374-.464.553.018.249.25.481.553.981.214-.535.41-.8.392-1.071-.017-.16-.321-.303-.481-.463z"/><path d="m14.707 39.329c-.25-.481-.482-.945-.732-1.409-.16.072-.3.143-.463.214.232.482.446.946.678 1.427a4.284 4.284 0 0 1 .517-.232z"/><path d="m26.2 44.271a2.075 2.075 0 0 0 .714.588c.053.018.41-.357.392-.392a11.5 11.5 0 0 0 -.785-.928c-.175.393-.389.661-.321.732z"/><path d="m61.237 43.567c-.16.231-.446.463-.446.7a.7.7 0 0 0 .464.589c.268.036.571-.178.857-.286-.09-.16-.179-.3-.268-.445-.196-.202-.41-.38-.607-.558z"/><path d="m54.941 45.263c-.125.2-.268.393-.393.589.2.035.464.178.607.107.214-.125.481-.375.5-.589a4.472 4.472 0 0 0 -.2-1.159c-.211.446-.355.767-.514 1.052z"/><path d="m70.8 41.72a1.226 1.226 0 0 0 -.2.642 7.2 7.2 0 0 0 .357 1.159 5.954 5.954 0 0 0 .392-1.088 1.433 1.433 0 0 0 -.214-.731c-.016-.054-.301-.036-.335.018z"/><path d="m14.377 43.718c-.179 0-.339.017-.535.017.035.429.053.839.089 1.267.143-.018.428-.018.428-.036.018-.41.018-.838.018-1.248z"/><path d="m65.911 44.61h.249v-1.91h-.249z"/><path d="m79.771 44.788c.071.41.16.8.249 1.2a1.015 1.015 0 0 0 .143.268 3.774 3.774 0 0 1 .41-.143c-.142-.446-.285-.892-.446-1.32 0-.059-.227-.005-.356-.005z"/><path d="m56.787 42.781c.16.089.3.161.463.268.232-.464.464-.91.7-1.374a3.069 3.069 0 0 0 -.339-.178c-.289.428-.557.856-.824 1.284z"/></g><path d="m33.495 48.957c-.045-.427-.028-.664-.408-.555a.116.116 0 0 1 -.087-.077c-.049-.112-.089-.2-.151-.316l-.249-.409a1.443 1.443 0 0 0 -.6-.529c-.275-.088-.308-.237-.386-.46-.116-.338-.2-.736-.685-.8a.7.7 0 0 1 -.321-.266c-.126-.143-.188-.384-.338-.457a.954.954 0 0 1 -.492-.586c-.066-.163-.208-.392-.341-.409-.321-.047-.4-.268-.5-.491-.088-.184-.066-.487-.423-.334-.024.009-.087-.058-.169-.119l.366-.1c-.288-.168-.522-.293-.739-.438-.059-.038-.131-.16-.112-.2.156-.316-.108-.306-.242-.4a5.322 5.322 0 0 0 -.585-.85c-.265-.283-.772-.369-.706-.922a.182.182 0 0 0 -.327-.1c-.041.037-.162.057-.176.037-.095-.142-.173-.3-.267-.454a1.774 1.774 0 0 0 -.248-.311c-.149-.133-.449-.09-.454-.418 0-.1-.159-.239-.273-.292a.812.812 0 0 1 -.543-.9 1.1 1.1 0 0 0 -.1-.332l-.171.462a4 4 0 0 1 -.34-.688c-.082-.333-.208-.58-.646-.55.223-.659-.379-.554-.712-.743l.183-.08c-.18-.209-.573-.242-.418-.663a.186.186 0 0 0 -.054-.127 1.536 1.536 0 0 0 -.962-.683c-.243-.035-.324-.157-.278-.416a.544.544 0 0 0 -.168-.429c-.1-.091-.289-.087-.4-.113a7.676 7.676 0 0 0 -.626-.844c-.214-.222-.463-.389-.4-.746 0-.025-.048-.055-.118-.132l.043.383c-.152-.148-.245-.214-.318-.3-.273-.345-.52-.717-.823-1.033-.282-.293-.651-.5-.941-.788a9.524 9.524 0 0 1 -1.1-1.244c-.166-.25-.576-.306-.539-.7.008-.021-.076-.043-.106-.074a.571.571 0 0 0 -.663-.123 1.3 1.3 0 0 0 -.262.158 3.47 3.47 0 0 0 .219.3c.048.056.145.076.175.137a7.947 7.947 0 0 0 .378.836 2.9 2.9 0 0 0 .577.5c.118.231.288.566.466.914.319-.08.375-.023.373.318a.466.466 0 0 0 .293.519c.1.033.16.2.236.305a.926.926 0 0 0 .119.185l.543.428a.27.27 0 0 1 .043.059c.152-.207.159-.009.212.073a2.389 2.389 0 0 0 .41.63 3.4 3.4 0 0 1 .758.953 1.43 1.43 0 0 0 .4.557 1.441 1.441 0 0 1 .681.91c0 .014.033.014.054.022l.172.019-.192-.223h.122c.5.837 1.258 1.457 1.815 2.268a13.848 13.848 0 0 0 1.867 2.079l-.091.291.231-.129a2.018 2.018 0 0 1 .7.92.172.172 0 0 0 .067.072l.55.334c-.036.086-.123.194-.105.272.031.136.083.271.316.208.215-.058.485.252.487.484l.023.323.2-.146.019.558a.6.6 0 0 0 .154-.111.87.87 0 0 1 .168-.038c.151.812.48 1.214.933 1.142.077.2.148.413.239.612.059.123.145.324.235.335.366.036.425.4.664.574a9.388 9.388 0 0 1 1.154 1.154c.079.079.215.214.191.254-.123.225.1.247.176.347.043.06.1.112.134.175l.478.785.3-.193c.108.421.669.549.5 1.135l.114-.186.412.7c.023-.073.037-.137.1-.3.046.554.275.954.6 1.024l.023-.311c.172.008.31.2.362.5a1.671 1.671 0 0 0 .539 1.045 4.294 4.294 0 0 1 .432.364l.255-.368a1.2 1.2 0 0 0 .088-.2c.168-.579.4-.857.647-.77a7.553 7.553 0 0 1 .508-.749c.224-.241.5-.421.75-.684a8.066 8.066 0 0 0 .657-.789c.043-.06.012-.174.017-.292a3.043 3.043 0 0 0 .324-.478c.078-.166.029-.427.348-.321a.164.164 0 0 0 .114-.1.636.636 0 0 1 .3-.512.865.865 0 0 0 .324-.357 2.246 2.246 0 0 1 .645-.944.14.14 0 0 0 .035-.107.326.326 0 0 1 -.019-.082.349.349 0 0 1 .309-.385c.058-.321.156-.584.5-.64l-.06-.221.1.062c.128-.13.243-.273.381-.4.2-.179.354-.364.22-.657-.016-.029.083-.106.2-.235l-.085.442.518-.6-.142-.1c.276.036.467-.017.509-.319 0-.012.038-.024.059-.03.329-.12.223-.259-.055-.45l.472-.286c.248-.148.547-.27.561-.6a1.111 1.111 0 0 1 .854-1.094.621.621 0 0 0 .2-.171 6.673 6.673 0 0 0 .721-.846 5.309 5.309 0 0 1 .683-.9c.152-.159.189-.491.352-.559.421-.17.466-.372.213-.687a2.256 2.256 0 0 0 1.156-.949c.311-.417.782-.729.675-1.353.337.048.521-.035.614-.366a1.605 1.605 0 0 1 .382-.462l.064.056c.054-.156.108-.311.157-.454l.393-.128-.2-.072a.852.852 0 0 1 .621-.609.856.856 0 0 0 .347-.346c.24-.325.448-.67.7-.987.092-.115.311-.128.389-.246.2-.292.258-.664.59-.862.025-.011 0-.095.007-.148.026-.227-.011-.428.266-.609.574-.376.6-.715.143-1.166a.914.914 0 0 0 -.589-.12c-.082 0-.154.189-.256.335-.634.043-.678.084-.726.833a.324.324 0 0 0 -.18-.009.328.328 0 0 0 -.247.392c.023.292-.134.342-.346.393.076.5-.428.534-.651.794l.033.092.246-.126.03.114c-.581.412-1.158.822-1.721 1.22.232.442.174.7-.286.745l.005.246-.9.882.2.089c-.13.114-.235.217-.35.3-.1.077-.255.119-.317.218-.127.222-.213.471-.32.708-.015.028-.062.044-.077.071-.105.225-.414.274-.491.4a1.006 1.006 0 0 1 -.731.539l.278.361-.7.32a.266.266 0 0 0 -.136.092 10.084 10.084 0 0 1 -.589 1.049c-.162.215-.257.512-.584.6-.1.029-.158.211-.278.389a.788.788 0 0 0 -.27.104 1.774 1.774 0 0 0 -.548.73c-.147.339-.389.638-.564.963s-.518.479-.732.756c-.17.216-.491.383-.535.611a2.936 2.936 0 0 1 -.52.969c-.035.059-.12.083-.182.126a1.875 1.875 0 0 0 -.319.249 8.791 8.791 0 0 0 -.624.752.636.636 0 0 0 -.139.461c.076.259-.059.376-.2.578l-.064-.394-.1-.036c.019.726-.611.989-.959 1.488l.193.093-.727.648c.141.472-.314.766-.564 1.057a.616.616 0 0 1 -.088-.16c-.1.2-.137.711-.473.465.091.408.02.631-.136.569a.2.2 0 0 0 -.231.09c-.075.1-.155.176-.233.3a.147.147 0 0 0 -.163-.046c-.139.094-.312-.114-.375-.434-.008-.052-.077 0-.12-.009l-.047.31a.2.2 0 0 0 -.055-.059zm15.049-17.692a.9.9 0 0 1 -.16.307c-.069.061-.2.041-.312.053l-.037-.1.418-.317z"/><path d="m72.25 48.957c-.045-.427-.028-.664-.409-.555a.115.115 0 0 1 -.087-.077c-.05-.112-.089-.2-.151-.316l-.254-.41a1.434 1.434 0 0 0 -.6-.529c-.275-.088-.308-.237-.386-.46-.117-.338-.2-.736-.686-.8a.7.7 0 0 1 -.32-.266c-.126-.143-.188-.384-.338-.457a.951.951 0 0 1 -.492-.586c-.066-.163-.209-.392-.342-.409-.32-.047-.4-.268-.5-.491-.089-.184-.067-.487-.423-.334-.024.009-.087-.058-.169-.119l.365-.1c-.288-.168-.521-.293-.739-.438-.059-.038-.13-.16-.111-.2.155-.316-.109-.306-.243-.4a5.322 5.322 0 0 0 -.585-.85c-.265-.283-.772-.369-.7-.922a.182.182 0 0 0 -.327-.1c-.041.037-.162.057-.177.037-.094-.142-.173-.3-.267-.454a1.723 1.723 0 0 0 -.247-.311c-.15-.133-.45-.09-.454-.418 0-.1-.159-.239-.273-.292a.81.81 0 0 1 -.543-.9 1.072 1.072 0 0 0 -.1-.332l-.17.462a3.929 3.929 0 0 1 -.34-.688c-.082-.333-.209-.58-.647-.55.224-.659-.379-.554-.711-.743l.176-.069c-.18-.209-.573-.242-.418-.663a.186.186 0 0 0 -.054-.127 1.536 1.536 0 0 0 -.962-.683c-.244-.035-.325-.157-.279-.416a.543.543 0 0 0 -.167-.429c-.1-.091-.289-.087-.4-.113a7.676 7.676 0 0 0 -.626-.844c-.214-.222-.463-.389-.4-.746 0-.025-.048-.055-.119-.132l.044.383c-.152-.148-.246-.214-.319-.3-.272-.345-.519-.717-.823-1.033-.281-.293-.65-.5-.941-.788a9.517 9.517 0 0 1 -1.1-1.244c-.166-.25-.576-.306-.54-.7.008-.021-.076-.043-.106-.074a.569.569 0 0 0 -.662-.123 1.242 1.242 0 0 0 -.262.158 3.683 3.683 0 0 0 .218.3c.048.056.146.076.175.137a7.954 7.954 0 0 0 .379.836 2.846 2.846 0 0 0 .577.5l.465.914c.319-.08.376-.023.374.318a.466.466 0 0 0 .293.519c.1.033.16.2.235.305a.926.926 0 0 0 .119.185l.544.428a.307.307 0 0 1 .043.059c.151-.207.159-.009.211.073a2.393 2.393 0 0 0 .411.63 3.394 3.394 0 0 1 .757.953 1.443 1.443 0 0 0 .4.557 1.436 1.436 0 0 1 .68.91c0 .014.034.014.055.022l.171.019-.192-.223h.123c.5.837 1.258 1.457 1.814 2.268a13.9 13.9 0 0 0 1.867 2.079l-.09.291.23-.129a2.013 2.013 0 0 1 .7.92.172.172 0 0 0 .067.072l.549.334c-.035.086-.123.194-.105.272.031.136.084.271.317.208.214-.058.484.252.487.484l.022.323.2-.146.02.558a.6.6 0 0 0 .153-.111.887.887 0 0 1 .168-.038c.151.812.48 1.214.934 1.142.077.2.148.413.238.612.06.123.145.324.235.335.366.036.426.4.665.574a9.529 9.529 0 0 1 1.154 1.154c.079.079.215.214.191.254-.123.225.1.247.176.347.043.06.1.112.134.175l.478.785.3-.193c.109.421.669.549.505 1.135l.115-.186.412.7c.023-.073.037-.137.1-.3.047.554.276.954.606 1.024l.023-.311c.172.008.309.2.362.5a1.666 1.666 0 0 0 .539 1.045 4.176 4.176 0 0 1 .431.364l.256-.368a1.128 1.128 0 0 0 .087-.2c.169-.579.4-.857.648-.77a7.384 7.384 0 0 1 .508-.749c.224-.241.5-.421.75-.684a8.049 8.049 0 0 0 .656-.789c.043-.06.013-.174.017-.292a2.976 2.976 0 0 0 .324-.478c.079-.166.029-.427.349-.321a.162.162 0 0 0 .113-.1.637.637 0 0 1 .3-.512.872.872 0 0 0 .324-.357 2.253 2.253 0 0 1 .644-.944.137.137 0 0 0 .023-.125.378.378 0 0 1 -.02-.082.349.349 0 0 1 .31-.385c.058-.321.155-.584.5-.64l-.059-.221.1.062c.129-.13.243-.273.382-.4.2-.179.354-.364.22-.657-.016-.029.083-.106.194-.235l-.084.442.518-.6-.142-.1c.276.036.467-.017.509-.319 0-.012.038-.024.059-.03.329-.12.223-.259-.055-.45l.468-.285c.249-.148.547-.27.561-.6a1.112 1.112 0 0 1 .854-1.094.624.624 0 0 0 .2-.171 6.841 6.841 0 0 0 .721-.846 5.3 5.3 0 0 1 .682-.9c.153-.159.189-.491.353-.559.42-.17.466-.372.213-.687a2.26 2.26 0 0 0 1.156-.949c.311-.417.782-.729.674-1.353.337.048.522-.035.614-.366a1.622 1.622 0 0 1 .382-.462l.065.056c.054-.156.107-.311.157-.454l.393-.128-.2-.072a.855.855 0 0 1 .622-.609.863.863 0 0 0 .347-.346c.24-.325.448-.67.7-.987.091-.115.311-.128.389-.246.195-.292.258-.664.59-.862.025-.011 0-.095.006-.148.026-.227-.01-.428.267-.609.574-.376.6-.715.142-1.166a.91.91 0 0 0 -.588-.12c-.082 0-.155.189-.256.335-.634.043-.678.084-.727.833a.321.321 0 0 0 -.179-.009.327.327 0 0 0 -.247.392c.022.292-.134.342-.347.393.077.5-.427.534-.651.794l.033.092.246-.126.031.114-1.721 1.22c.232.442.173.7-.287.745l.006.246-.905.882.2.089c-.13.114-.235.217-.35.3-.1.077-.255.119-.317.218-.126.222-.212.471-.319.708-.016.028-.062.044-.077.071-.106.225-.414.274-.491.4a1.01 1.01 0 0 1 -.731.539l.278.361-.7.32a.262.262 0 0 0 -.136.092 10.084 10.084 0 0 1 -.589 1.049c-.162.215-.257.512-.584.6-.1.029-.158.211-.279.389a.792.792 0 0 0 -.251.105 1.774 1.774 0 0 0 -.548.73c-.148.339-.39.638-.565.963s-.517.479-.732.756c-.17.216-.491.383-.534.611a2.939 2.939 0 0 1 -.521.969c-.034.059-.119.083-.181.126a1.875 1.875 0 0 0 -.319.249 8.608 8.608 0 0 0 -.624.752.627.627 0 0 0 -.139.461c.075.259-.059.376-.2.578l-.063-.394-.1-.036c.02.726-.61.989-.959 1.488l.194.093-.727.648c.141.472-.314.766-.565 1.057a.681.681 0 0 1 -.088-.16c-.1.2-.137.711-.473.465.092.408.021.631-.135.569a.2.2 0 0 0 -.231.09c-.076.1-.155.176-.233.3a.147.147 0 0 0 -.163-.046c-.14.094-.312-.114-.376-.434-.007-.052-.076 0-.119-.009l-.048.31a.189.189 0 0 0 -.051-.053zm15.05-17.692a.9.9 0 0 1 -.16.307c-.069.061-.2.041-.312.053l-.037-.1.418-.317z"/><path d="m43.517 82.23c.072-.344.1-.664-.315-.825a.222.222 0 0 1 -.074-.134 7.531 7.531 0 0 0 -.217-.822 1.27 1.27 0 0 0 -.389-.59c-.213-.139-.207-.274-.221-.481-.02-.315 0-.673-.4-.841a.611.611 0 0 1 -.21-.3c-.074-.15-.07-.37-.181-.467a.837.837 0 0 1 -.282-.613c-.018-.154-.086-.382-.2-.427-.262-.115-.278-.322-.31-.534-.032-.177.057-.43-.282-.383-.022 0-.061-.069-.116-.14h.334c-.206-.211-.375-.371-.527-.545-.041-.046-.073-.166-.049-.193.206-.232-.021-.285-.113-.394a4.662 4.662 0 0 0 -.3-.86c-.159-.3-.571-.494-.385-.949a.157.157 0 0 0 -.029-.129.161.161 0 0 0 -.226-.032c-.043.022-.151.011-.159-.01-.047-.142-.076-.3-.121-.448a1.525 1.525 0 0 0 -.138-.322c-.1-.148-.361-.181-.289-.461.026-.084-.079-.241-.164-.312a.716.716 0 0 1 -.253-.889.959.959 0 0 0 -.011-.307c-.088.119-.14.2-.253.354a3.429 3.429 0 0 1 -.129-.665c.008-.3-.042-.542-.422-.618.344-.509-.193-.56-.432-.8l.175-.026c-.105-.219-.432-.339-.2-.66a.16.16 0 0 0 -.016-.121 1.352 1.352 0 0 0 -.659-.8c-.2-.086-.24-.209-.14-.419a.478.478 0 0 0 -.043-.4c-.06-.1-.225-.141-.312-.189a6.7 6.7 0 0 0 -.336-.863c-.13-.239-.3-.439-.163-.727.009-.021-.028-.058-.071-.14-.019.116-.03.178-.052.336-.1-.162-.159-.24-.2-.334-.151-.357-.274-.731-.459-1.07-.171-.315-.436-.578-.617-.89a8.407 8.407 0 0 1 -.649-1.315c-.083-.251-.419-.4-.3-.724.011-.015-.055-.054-.073-.087a.5.5 0 0 0 -.535-.26 1.119 1.119 0 0 0 -.26.074 3.249 3.249 0 0 0 .116.308c.027.059.106.1.116.157a7.145 7.145 0 0 0 .128.8 2.519 2.519 0 0 0 .375.555c.042.22.115.55.183.887.29.006.325.068.244.357a.411.411 0 0 0 .128.51c.078.051.09.208.129.314a.8.8 0 0 0 .059.185c.115.17.244.328.362.491a.257.257 0 0 1 .023.06c.177-.141.137.029.163.112a2.116 2.116 0 0 0 .2.631 2.991 2.991 0 0 1 .422.987 1.27 1.27 0 0 0 .208.566 1.276 1.276 0 0 1 .367.932c0 .013.025.021.041.032.046.017.095.039.141.056-.035-.079-.076-.155-.111-.234.032.01.07.019.1.03.231.828.731 1.532 1.016 2.351a12.2 12.2 0 0 0 1.1 2.2c-.022.031-.064.1-.145.226.132-.032.2-.051.227-.056a1.781 1.781 0 0 1 .378.945.152.152 0 0 0 .041.077c.136.151.278.3.389.412-.05.065-.15.137-.152.207-.006.123.007.25.22.251.2 0 .354.327.3.525-.021.082-.032.161-.056.28l.206-.078c-.04.17-.08.324-.114.48a.524.524 0 0 0 .157-.059.849.849 0 0 1 .151.007c-.06.725.126 1.145.528 1.189.019.189.03.386.061.576.021.118.047.31.121.339.3.117.269.44.432.644a8.341 8.341 0 0 1 .712 1.25c.049.085.133.232.1.261-.158.163.024.232.069.336.022.061.055.117.073.18.079.258.147.514.223.779.123-.041.2-.064.3-.095-.01.372.451.648.156 1.058.045-.034.09-.068.147-.113.049.189.095.373.137.547.043-.039.075-.075.179-.165-.127.381-.076.638.207.825.036-.042.085-.095.132-.153a.368.368 0 0 1 .169.449.773.773 0 0 0 .121.766 4.656 4.656 0 0 1 .442.719.3.3 0 0 0 .094.08.563.563 0 0 1 .288.738 4.323 4.323 0 0 1 .325.6c.088.266.111.556.2.83a6.74 6.74 0 0 0 .322.811c.028.059.129.084.218.137a2.66 2.66 0 0 0 .234.453c.095.131.317.2.1.405a.144.144 0 0 0 .032.132.561.561 0 0 1 .271.445.767.767 0 0 0 .14.4 2 2 0 0 1 .458.9.114.114 0 0 0 .067.072.349.349 0 0 1 .072.02.308.308 0 0 1 .167.4c.224.181.385.368.282.66.071.019.133.03.2.047l-.09.051c.047.155.109.3.145.463.053.233.132.428.416.448.029 0 .047.109.1.25-.126-.108-.191-.158-.307-.253l.246.656.136-.069c-.145.2-.184.369.031.529.012 0 0 .039 0 .058-.047.3.106.283.372.148.008.192.017.338.021.486.01.255-.023.537.23.69a.981.981 0 0 1 .486 1.123.535.535 0 0 0 .046.23 5.861 5.861 0 0 0 .35.916 4.686 4.686 0 0 1 .4.907c.058.185.3.353.283.509-.046.4.091.518.442.455a2 2 0 0 0 .245 1.3c.191.417.234.913.762 1.095-.18.24-.194.418.023.629a1.414 1.414 0 0 1 .2.491l-.07.027c.1.107.193.209.284.313-.018.105-.036.209-.066.359.072-.068.107-.1.141-.128a.749.749 0 0 1 .209.738.756.756 0 0 0 .121.415c.15.323.329.63.469.957.05.119-.033.3.025.405.144.274.405.481.418.821 0 .024.073.042.112.068.164.116.335.173.358.463.048.6.3.768.842.6a.8.8 0 0 0 .342-.4c.033-.065-.081-.2-.151-.34.235-.509.221-.56-.338-.915a.289.289 0 0 0 -.115-.492c-.236-.106-.209-.248-.158-.434-.42-.153-.232-.557-.338-.84l-.086-.013c0 .08 0 .162-.006.243-.033-.01-.069-.014-.1-.025-.073-.623-.144-1.241-.216-1.847-.44-.007-.613-.161-.455-.537-.094-.051-.163-.082-.193-.1-.108-.379-.2-.723-.3-1.073-.045.035-.095.07-.152.115-.033-.148-.069-.273-.087-.4-.018-.109.016-.247-.035-.338-.118-.191-.274-.363-.413-.546-.014-.024-.007-.067-.022-.09-.129-.177-.036-.436-.1-.549a.889.889 0 0 1 -.108-.794c-.136.022-.222.037-.4.063.016-.248.034-.462.046-.674a.23.23 0 0 0 -.014-.144 8.957 8.957 0 0 1 -.562-.9c-.1-.217-.287-.416-.218-.706.019-.088-.1-.212-.183-.38a.694.694 0 0 0 .025-.24 1.56 1.56 0 0 0 -.333-.732c-.2-.258-.329-.572-.506-.845a5.243 5.243 0 0 1 -.276-.886c-.095-.223-.088-.542-.246-.672a2.579 2.579 0 0 1 -.53-.813c-.031-.052-.013-.127-.021-.193a1.568 1.568 0 0 0 -.058-.353 7.538 7.538 0 0 0 -.308-.804.553.553 0 0 0 -.3-.3c-.232-.051-.266-.2-.363-.4.147.054.239.083.332.117.026-.021.048-.041.069-.06-.57-.293-.507-.891-.745-1.372-.06.04-.117.085-.155.11-.064-.28-.124-.546-.193-.836-.43-.1-.449-.539-.59-.912.06.006.11.016.172.028-.2-.4-.6-.7-.4-1.207-.33-.037-.468-.175-.435-.487a1.248 1.248 0 0 0 -.094-.54 3.033 3.033 0 0 0 -.468-.94 1.224 1.224 0 0 1 -.382-.892c0-.053-.1-.107-.147-.163-.04.049-.079.1-.14.179a.479.479 0 0 0 -.044-.095zm9.3 21.355a.809.809 0 0 1 -.17-.254c-.018-.079.055-.176.091-.264.031.006.06.007.091.013l.068.457z"/><path d="m66.606 81.856c.292-.2.532-.416.345-.821a.223.223 0 0 1 .039-.148 7.7 7.7 0 0 0 .415-.749 1.281 1.281 0 0 0 .127-.7c-.058-.25.041-.343.175-.5.2-.244.469-.49.3-.889a.614.614 0 0 1 .056-.365c.051-.161.207-.319.193-.467a.852.852 0 0 1 .222-.643c.095-.124.2-.338.156-.447-.111-.265.022-.427.146-.6.1-.152.341-.273.061-.475-.017-.014.005-.093.014-.184.088.085.139.131.242.234 0-.3-.014-.532 0-.763 0-.063.063-.173.1-.175.312-.026.184-.223.192-.367a4.65 4.65 0 0 0 .381-.834c.095-.332-.072-.757.381-.959a.163.163 0 0 0 -.074-.3c-.047-.015-.118-.1-.109-.118.065-.137.152-.271.224-.411a1.552 1.552 0 0 0 .124-.331c.033-.175-.137-.383.111-.537.077-.044.11-.23.1-.341a.721.721 0 0 1 .435-.824 1 1 0 0 0 .2-.231c-.147.026-.238.045-.43.081a3.528 3.528 0 0 1 .369-.574c.216-.214.347-.424.123-.743.605-.131.25-.543.242-.883l.144.1c.078-.233-.077-.547.314-.621a.164.164 0 0 0 .072-.1 1.362 1.362 0 0 0 .081-1.046c-.085-.2-.028-.319.19-.4a.48.48 0 0 0 .251-.324c.025-.114-.066-.259-.1-.354a6.757 6.757 0 0 0 .357-.863c.072-.264.085-.531.387-.643.021-.009.02-.062.047-.151-.1.071-.147.108-.272.208.043-.184.051-.285.086-.382.139-.366.31-.724.411-1.1.1-.349.085-.725.171-1.078a8.484 8.484 0 0 1 .444-1.41c.114-.241-.03-.58.289-.733.019 0 0-.077.007-.114a.507.507 0 0 0 -.208-.562 1.111 1.111 0 0 0 -.241-.127c-.043.1-.1.2-.13.3-.021.063.009.146-.025.2a7.344 7.344 0 0 0 -.464.671 2.553 2.553 0 0 0 -.113.666c-.122.189-.3.48-.484.773.207.206.189.275-.072.43a.414.414 0 0 0 -.261.46c.021.091-.08.214-.125.319a.816.816 0 0 0 -.087.175c-.034.2-.05.409-.078.61a.224.224 0 0 1 -.025.06c.227.021.08.117.041.2a2.136 2.136 0 0 0 -.293.6 3.018 3.018 0 0 1 -.379 1.012 1.27 1.27 0 0 0 -.244.557 1.281 1.281 0 0 1 -.382.935c-.01.008 0 .032.007.051.023.045.042.095.065.14.028-.082.053-.167.082-.249.017.03.038.063.054.095-.409.763-.535 1.624-.9 2.419a12.313 12.313 0 0 0 -.731 2.373c-.038.007-.12.032-.264.065.119.068.182.1.2.116a1.794 1.794 0 0 1 -.382.952.171.171 0 0 0 -.025.084c-.005.2-.005.411 0 .572-.082.012-.2-.005-.256.044-.089.086-.168.188-.014.336s.029.485-.146.593c-.073.045-.136.095-.236.165l.2.087c-.148.1-.284.18-.417.27a.545.545 0 0 0 .155.066.8.8 0 0 1 .106.111c-.55.486-.706.921-.445 1.233-.117.151-.247.3-.356.462-.067.1-.182.258-.148.332.139.3-.111.507-.134.769a8.423 8.423 0 0 1 -.353 1.407c-.023.1-.064.261-.106.262-.228.009-.144.186-.184.293-.026.059-.041.124-.072.181-.121.244-.251.478-.38.723l.283.139c-.266.264-.123.786-.623.879l.186.02c-.1.172-.191.338-.282.494h.246c-.358.19-.5.412-.425.746.056-.006.128-.011.2-.02a.369.369 0 0 1 -.19.444.782.782 0 0 0 -.445.642 4.848 4.848 0 0 1 -.179.833.321.321 0 0 0 .012.123.567.567 0 0 1 -.3.739 4.285 4.285 0 0 1 -.184.665c-.121.255-.306.482-.435.741a6.776 6.776 0 0 0 -.33.815c-.021.061.035.15.063.251a2.632 2.632 0 0 0 -.145.493c-.022.161.09.369-.209.365a.146.146 0 0 0 -.069.118.564.564 0 0 1 -.113.513.764.764 0 0 0 -.178.39 2.006 2.006 0 0 1 -.292.973.115.115 0 0 0 0 .1.325.325 0 0 1 .038.065.31.31 0 0 1 -.159.409c.037.288.025.536-.253.677.037.064.075.115.109.171l-.1-.026c-.074.145-.132.3-.217.439-.124.206-.2.4-.009.615.021.021-.042.112-.1.252-.016-.166-.028-.248-.047-.4l-.277.649.146.045c-.243.043-.39.14-.345.407.007.009-.025.03-.042.041-.246.19-.119.28.168.367-.127.145-.222.258-.323.369-.171.192-.391.375-.313.662a.987.987 0 0 1 -.429 1.156.555.555 0 0 0 -.127.2 5.97 5.97 0 0 0 -.383.911 4.7 4.7 0 0 1 -.338.941c-.086.175-.028.466-.148.568-.311.257-.295.441 0 .64a2.007 2.007 0 0 0 -.724 1.114c-.152.437-.466.828-.208 1.327-.3.05-.432.17-.421.476a1.457 1.457 0 0 1 -.2.494l-.07-.03c0 .146 0 .287-.011.426-.086.064-.172.127-.3.215h.192a.759.759 0 0 1 -.362.683.766.766 0 0 0 -.2.387c-.116.34-.2.688-.325 1.023-.047.122-.23.192-.264.313-.087.3-.04.632-.268.889-.018.016.025.081.034.127.039.2.124.359-.062.587-.385.473-.316.768.193 1.027a.817.817 0 0 0 .531-.057c.069-.023.08-.2.127-.353.525-.206.551-.253.391-.9a.291.291 0 0 0 .258-.438c-.1-.242.022-.327.188-.427-.2-.4.219-.567.338-.847-.018-.025-.034-.044-.052-.07-.055.06-.115.117-.175.174-.016-.031-.04-.058-.056-.089.381-.506.76-1.005 1.129-1.5-.315-.312-.334-.544.043-.708-.033-.1-.061-.173-.071-.207.186-.352.357-.668.53-.99-.057-.006-.118-.015-.191-.022.079-.132.14-.247.215-.351s.184-.169.21-.271c.047-.221.053-.456.08-.685.006-.027.041-.054.046-.081.029-.219.278-.343.308-.471a.9.9 0 0 1 .474-.654c-.114-.078-.187-.127-.332-.23.185-.17.346-.313.5-.458a.232.232 0 0 0 .09-.115 9.132 9.132 0 0 1 .217-1.047c.08-.225.081-.5.333-.666.075-.051.078-.221.132-.4a.7.7 0 0 0 .196-.155 1.579 1.579 0 0 0 .268-.765c.034-.327.158-.646.219-.968.068-.337.31-.545.417-.837.086-.229.313-.457.289-.662a2.585 2.585 0 0 1 .18-.96c.014-.06.079-.1.12-.156a1.625 1.625 0 0 0 .2-.3 7.7 7.7 0 0 0 .327-.805.564.564 0 0 0 -.006-.427c-.134-.2-.052-.335.013-.543.07.142.116.226.16.316h.093c-.211-.61.251-1 .413-1.517-.072-.013-.144-.021-.189-.028.148-.249.289-.484.442-.744-.241-.374.048-.705.2-1.075.04.047.069.089.106.14.13-.428.047-.924.548-1.159-.214-.257-.219-.453.022-.657a1.244 1.244 0 0 0 .308-.459 3.061 3.061 0 0 0 .314-1.011 1.228 1.228 0 0 1 .343-.915c.039-.036 0-.146.006-.222l-.226.033a.459.459 0 0 0 .039-.096zm-8.106 22.028a.781.781 0 0 1 .053-.3c.042-.071.162-.09.249-.129.019.026.04.047.058.072l-.269.381z"/><path d="m40.033 18.719c.067-.2-.606-.244-.7-.285-.162-.1-.125-.285-.271-.265-.049.22-.183-.328-.318-.312-.153-.365-.42-.112-.423-.414.01-.162-.111-.556-.086-.381-.178-.27-.481-.009-.429-.122.038.251-.281-.043-.252-.206-.162.138-.25-.245-.341-.375.076-.116-.523-.222-.416-.4-.155-.011.183-.47-.243-.24-.164.089-.675-.261-.405-.362-.069-.09-.445-.56-.306-.334-.173-.362-.37.105-.377-.381-.31-.318-.3-.633-.373-.353-.406-.145-.512-.021-.412-.31-.2-.018.02-.614-.364-.45-.041-.064-.465.072-.463-.44-.259-.08-.276-.5-.327-.332a5.113 5.113 0 0 1 -.393-.439c-.409.335-.057.084-.4-.334-.076-.183-.358-.784-.381-.374-.161-.048-.035.047-.4-.385s-.357.107-.373-.321c-.176-.073-.4-.236-.377-.413.094-.1-.12-.183-.161-.449-.111-.025-.219-.142-.558-.26-.278-.171-.3-.186-.283-.317-.148-.163-.3-.161-.368-.315-.1.126-.3-.045-.391-.26.05-.036-.429-.118-.235-.282-.018-.287-.251-.267-.477-.421-.2-.164-.072-.205 0-.121-.247-.261-.309-.514-.428-.413-.064.113-.444-.064-.313-.312.059-.307-.618-.228-.271-.265-.012-.3-.306-1.044-.3-.7-.013-.337-.092-.337.285-.71a1.19 1.19 0 0 1 .7-.3c.262-.295.532.107.709.284.219-.533-.078.19.27.265-.231.628.129-.076.284.282 0 .518.272.2.458.444.088-.176.549.446.526.449.1-.1.421.074.359.278.071.176.2.385.223.357.15-.039.442-.253.459.052.275-.045.291.251.186.584.341-.09.4.135.4.3.017.074 0 .059.325.4.226-.215.24.563.38.361.119.4.259.188.371.373.054.071.27.377.293.327-.16-.086.417.419.483.433-.167-.031.309.36.431.39.114-.257.337 0 .358.382.454.154.2.034.409.328 0 .65-.245.416.381.445 0 .021.423.547.4.433.144-.008.015.331.379.326-.2-.21.106.228.418.446.14-.282.4.171.333.288-.081-.082.15-.194.377.388.1.222.56.267.334.308.072.489-.051.554.413.438-.092.089.261.631.245.207.218.43.125.077.37.388.393.347-.062.248.223.192.39.3.565.662.515.5.159.366.243.58.423.414.379.083.327.237.319.311.254.467.136.961.27.265a3.365 3.365 0 0 1 .3.7c-.225.042-.056.866-.285.71-.139.177-.38.239-.314.327-.134.025-.11-.162-.395-.022z"/><path d="m54.376 17.442c-.114.144.043-.039-.25-.261-.08.13-.392.013-.457-.031-.351-.016-.49-.333-.293-.708-.324.135.137-.03 0-.425.432-.119-.063-.437.026-.57.064-.168-.133-.24.038-.011.3-.019-.366-.406-.064-.574-.13.267-.179.48.019-.156.011.1.521-.535.027-.62.082.035-.144-.105-.092-.2.192-.118-.336-.507.046-.721.011-.369.118-.58-.071-.549-.028-.526.073-.655.116-.464-.2-.637-.071-.155-.174-.534.021-.267-.071-.149.129-.519.365-.451-.053-.229 0-.634-.049-.033.033-.339 0-.479 0-.461-.219-.739-.122-.623-.2.071.225-.516.122-.512-.407-.358.1-.465-.046-.593.261-.087-.345-.329.046-.543.343-.127-.1-.187.091-.538.129-.124-.133-.439-.091-.575-.047-.16-.072-.229-.108-.383-.037-.379-.016-.752.108-.684.28-.058-.549-.343-.156-.473-.016.108.081-.554.156-.526.111-.2-.126.066-.147-.319-.106-.154-.036-.535.147-.588-.06-.246.227.1.028-.176 0-.08-.134-.4-.028-.618-.288.079-.025-.859 0-.657-.114-.167.46-.792 0-.5-.072-.552-.038-.6.1-.647.215.158.137.227-.1.222.221-.831-.1-.5.293-.707.106.173.143-.521.329-.358.377-.12.314-.382.378.065.005.2.851.255.707.293-.292-.1-.013.126.071.56.178.312.093.234.222.147 0-.043-.261-.076 0 .425-.182-.009-.062.387 0 .5.453.722.069.634 0 .657.011-.459-.3-.2.013.111-.121-.3-.348.5-.013.683-.347.427-.128.476-.039.515.007.3.084.4.039.392.266.141.117-.207.2.218-.328-.132-.127.218-.138.484-.224-.011-.4.153-.066.3.046.118.018.389.072.456-.014.019-.029.967-.072.611.14.5.308.339.025.567-.094-.346.327.146.007.28-.052-.015-.249-.128-.032.266-.1.222.316.149-.051.6.039.364.086.244.051.536-.244.565-.164.7-.063.686.169.351.2.407.059.064.284.247.033.7 0 .385.426.787.061.277.012.548.018.59-.039.386-.012.565.227.465-.061 0 .089.617.294.534-.224.112-.074.43.042.915.015.268-.044.451-.408-.386.026.325.029.568.185.4-.336.518.078.512-.13.608-.057-.1-.054.412.112.526.021.465.076.448.046-.1 0 .4-.1.329-.139.078-.017.956.013.619-.089-.082.018.612-.013.536-.287.613-.136.3 0 .425a1.479 1.479 0 0 0 -.293.708c-.432.16-.161.356-.348.3.148-.182-.184-.014-.351-.015z"/><path d="m68.7 18.719c-.137.248-.151.3-.414-.017-.228.168-.487-.762-.3-.284-.166-.368-.2-.518-.285-.71.309.066-.168-1 .3-.7-.057-.12-.235.086.27-.265.114.325.226.116.319-.311.211.045.041-.061.423-.414.232-.125.166-.449.514-.5a.537.537 0 0 0 .328-.2 2.765 2.765 0 0 0 .265-.378c.183.038-.048-.6.3-.4.257.05.315-.271.363-.24.016.21.275-.245.457-.335.269-.157.328-.577.254-.361-.008-.744.764-.587.373-.347-.061.439.3-.308.377-.387 0-.67.436-.24.3-.385.1-.317.512-.478.478-.374.224.12.336-.053.333-.26.07.144.1-.717.456-.513.335-.34-.033.115.419-.34.119-.33.245-.376.37-.432.182.383.266.28.4-.362.051-.176.375.223.381-.4.16.066.105-.036.337-.081-.09-.4.13-.066.181-.392-.035-.336.02-.488.232-.261.352.013.006-.014.345-.408.1.045-.172-.117.378-.235.074.13.125-.21.112-.42.029-.156.434-.146.534-.277.119-.434.029-.195.171-.441.318-.118.277-.267.456-.214.5.7.448-.344.481-.429-.021-.145.007-.22.373-.435.452.114.1.2.369-.291.021.205.236-.365.27-.265-.215-.92.085.185.71-.284.437.023.514.268.7.3.328.8.211.544.285.71-.1.279-.252.946-.3.7-.04.349-.046.387-.271.265-.332.049-.068-.033-.254.341a.694.694 0 0 0 -.487.384c-.545.327-.061.12-.49.469-.078-.072-.25.154-.618.615a2.054 2.054 0 0 0 -.241.41c-.14.311-.026.625-.14.332.06.045-.084-.007-.278-.1-.551.355-.136.271-.4.577-.219.36-.318.182-.312.119.063.637-.393.075-.323.348-.079-.23.02.1-.427.386-.173.254.08.712-.363.379-.449.479-.731.489-.413.38.2.608.111.4-.359.425-.076-.134-.172.373-.431.348-.2-.07-.392.276-.382.348-.174.535-.032.388-.407.424-.3.465-.054.633-.277.414-.062.062-.579.205-.5.346-.038.226-.211.485-.273.479-.567.464-.374.494-.478.255.212.388-.281.043-.312.39-.344.28-.413.368-.4.306.034.044-.239.023-.314.5-.078.206-.541-.1-.344.14-.149.288-.116.306-.292.284.023.249-.069.191-.3.3-.133.265-.364.538-.515.5-.088.27-.095.881-.423.414-.073.325-.026.3-.318.312-.192-.053-.1.369-.271.265-.282.494-.348.626-.702.283z"/></svg>