<svg height="92.205" viewBox="0 0 96.832 92.205" width="96.832" xmlns="http://www.w3.org/2000/svg"><path d="m43.814 90.2a22.57 22.57 0 0 1 -2.74-.2 11.1 11.1 0 0 0 -1.758-.155c-.414 0-.827-.051-1.241-.051-1.189-.052-2.327-.052-3.412-.207-1.81-.207-3.361-.466-4.7-.725h-.1a16.211 16.211 0 0 1 -4.863-1.662 12.924 12.924 0 0 1 -4.033-4.294 14 14 0 0 1 -1.867-5.43 29.4 29.4 0 0 1 -.466-5.382 31.2 31.2 0 0 1 .311-3.156c.1-.673.155-1.294.258-1.966.1-1.294.1-2.588.1-3.829v-.983c0-1.035-.1-2.174-.156-3.416-.051-.362-.051-.672-.1-1.034-.052-.828-.1-1.656-.1-2.432 0-.725-.052-1.5-.1-2.225l-.051-.569c-.1-1.346-.207-2.8-.207-4.192v-1.192a23.305 23.305 0 0 1 .155-3.777 18.642 18.642 0 0 1 1.6-4.967 16.151 16.151 0 0 1 2.947-4.5 19.941 19.941 0 0 1 4.187-3.208 13.644 13.644 0 0 1 3.154-1.19 10.96 10.96 0 0 0 1.551-.518 39.8 39.8 0 0 1 4.653-1.5c.517-.1 1.034-.311 1.6-.466a27.213 27.213 0 0 1 3.1-.828c1.5-.259 3.154-.466 4.808-.621 1.293-.1 2.533-.052 3.723-.052h1.137c1.551 0 3.2.1 4.86.259a16.286 16.286 0 0 1 3.309.725c.517.155.982.31 1.5.413.465.1.982.207 1.5.311a16.99 16.99 0 0 1 3.464.88 16.932 16.932 0 0 1 3.723 2.276c.258.156.465.363.724.518l.155.1a13.512 13.512 0 0 1 3.877 3.622 15.372 15.372 0 0 1 2.068 5.589 40.055 40.055 0 0 1 .516 5.434 23.911 23.911 0 0 1 -.155 3.363c-.051.673-.1 1.294-.1 1.914a7.157 7.157 0 0 0 .1 1.656 10.073 10.073 0 0 1 .155 2.484c-.051.983-.051 1.5-.051 1.966 0 .518 0 1.087-.052 2.173-.052 1.242-.155 1.863-.207 2.484-.052.466-.155.88-.207 1.759-.051.777-.1 1.294-.155 1.708a21.088 21.088 0 0 0 -.1 2.173c.052.673.155 1.4.207 2.07.1.724.155 1.449.206 2.173.052.362.052.776.1 1.138a20.3 20.3 0 0 1 .1 3.571 11.713 11.713 0 0 1 -1.5 5.019 11.912 11.912 0 0 1 -3.671 3.725 12.269 12.269 0 0 1 -3.567 1.449c-.414.1-.776.207-1.241.362a36.154 36.154 0 0 1 -4.55 1.139c-.465.1-.93.207-1.447.31a27.358 27.358 0 0 1 -3.1.621q-.776.156-1.706.311c-.931.155-1.862.362-2.9.465l-1.551.156c-.982.1-2.016.207-3.05.31-1.086.052-2.12.052-3.154.052h-1.438c.051.052 0 .052-.052.052z" fill="#f5b38e"/><path d="m43.814 92.205a24.484 24.484 0 0 1 -2.974-.221 18.805 18.805 0 0 0 -2.269-.171c-.166-.011-.331-.022-.5-.022l-.92-.033a25.275 25.275 0 0 1 -2.775-.195c-1.5-.171-3.033-.4-4.625-.707a1.951 1.951 0 0 1 -.373-.054l-.4-.1a16.324 16.324 0 0 1 -5.069-1.818 14.969 14.969 0 0 1 -4.661-4.937 15.957 15.957 0 0 1 -2.129-6.161 31.107 31.107 0 0 1 -.49-5.749 33.016 33.016 0 0 1 .332-3.4c.049-.32.085-.622.121-.924.039-.32.077-.641.127-.973.091-1.193.091-2.416.091-3.6v-.98c0-.614-.039-1.266-.08-1.957-.025-.415-.049-.843-.069-1.283-.023-.186-.038-.363-.051-.54-.01-.126-.018-.252-.038-.387-.007-.053-.013-.106-.016-.159-.053-.846-.107-1.718-.107-2.556 0-.651-.049-1.386-.1-2.083l-.048-.529c-.11-1.433-.215-2.924-.215-4.374v-1.8a20.407 20.407 0 0 1 .183-3.488 20.742 20.742 0 0 1 1.774-5.515 18.175 18.175 0 0 1 3.3-5.019 21.922 21.922 0 0 1 4.648-3.565 15.413 15.413 0 0 1 3.59-1.374 9.5 9.5 0 0 0 1.288-.422c.033-.015.065-.029.1-.041a41.611 41.611 0 0 1 4.89-1.568 7.274 7.274 0 0 0 .821-.229c.239-.077.485-.155.74-.226a28.281 28.281 0 0 1 3.254-.863c1.516-.262 3.186-.477 5-.647 1.092-.086 2.084-.078 3.039-.067l2.008.006c1.477 0 3.128.088 5.047.268a17.919 17.919 0 0 1 3.7.8l.3.091a10.386 10.386 0 0 0 1.017.278c.494.109 1 .21 1.5.31l.079.014a18.275 18.275 0 0 1 3.75.976 18.58 18.58 0 0 1 4.1 2.478c.159.1.309.215.457.33a1.959 1.959 0 0 0 .162.122l.238.156a15.464 15.464 0 0 1 4.439 4.203 17.334 17.334 0 0 1 2.355 6.313 34.169 34.169 0 0 1 .5 4.814l.048.856a26.076 26.076 0 0 1 -.16 3.674l-.009.106c-.046.6-.086 1.118-.086 1.618v.125a3.807 3.807 0 0 0 .045.934c.015.1.029.2.041.3a12.062 12.062 0 0 1 .166 2.86c-.05.954-.05 1.443-.05 1.884 0 .54 0 1.135-.054 2.268-.038.92-.105 1.532-.158 2.023-.021.188-.04.36-.054.532-.025.233-.051.405-.079.593a10.841 10.841 0 0 0 -.124 1.118c-.056.844-.112 1.4-.167 1.838l-.02.264c-.038.458-.066.793-.068 1.583.024.291.058.591.091.892.039.35.077.7.1 1.037.105.758.158 1.485.208 2.189.026.2.042.422.057.639.009.143.017.287.036.419.005.035.009.069.012.1a22.209 22.209 0 0 1 .1 3.917 13.644 13.644 0 0 1 -1.771 5.872 13.246 13.246 0 0 1 -8.419 6.081c-.419.105-.738.2-1.148.334a38.073 38.073 0 0 1 -4.8 1.2c-.412.093-.872.194-1.381.3a29.589 29.589 0 0 1 -3.213.643c-.522.1-1.094.208-1.715.311-.266.045-.532.094-.8.143-.7.128-1.417.259-2.225.34l-1.55.156c-.967.1-1.994.2-3.022.307l-.133.011c-1.133.054-2.209.054-3.249.054h-1.037a2.038 2.038 0 0 1 -.453.057zm-5.622-4.413c.161 0 .4.014.628.028.166.011.331.022.5.022a13.089 13.089 0 0 1 2.087.183c.639.073 1.314.152 2.035.174a1.96 1.96 0 0 1 .427-.046h1.448c1.022 0 1.988 0 3.008-.047 1.03-.1 2.033-.2 2.987-.3l1.561-.156c.646-.064 1.256-.177 1.9-.3.29-.053.576-.1.864-.153q.894-.15 1.642-.3c.036-.008.073-.014.109-.019a25.617 25.617 0 0 0 2.876-.575c.04-.011.08-.02.121-.028.5-.1.951-.2 1.4-.3a34.486 34.486 0 0 0 4.351-1.084c.521-.174.926-.289 1.388-.405a10.623 10.623 0 0 0 2.924-1.159 9.986 9.986 0 0 0 3.067-3.074 9.834 9.834 0 0 0 1.242-4.219 18.5 18.5 0 0 0 -.1-3.146c-.028-.212-.044-.436-.06-.662-.009-.143-.017-.286-.036-.419-.007-.048-.011-.1-.015-.142-.047-.673-.1-1.37-.191-2.031-.006-.043-.011-.087-.014-.13-.024-.314-.061-.64-.1-.967-.041-.372-.082-.745-.109-1.1q-.006-.077-.006-.153c0-1.014.04-1.491.082-2l.027-.33c.058-.481.106-.964.154-1.687a14.263 14.263 0 0 1 .162-1.472c.02-.131.039-.251.052-.376.012-.149.034-.353.058-.577.048-.439.1-.964.139-1.768.05-1.052.05-1.6.05-2.091s0-1.035.055-2.071a8.143 8.143 0 0 0 -.126-2.02c-.009-.046-.015-.092-.02-.138l-.034-.248a7.708 7.708 0 0 1 -.082-1.69c0-.632.049-1.232.1-1.865l.011-.141a22.331 22.331 0 0 0 .152-3.12l-.048-.849a30.731 30.731 0 0 0 -.433-4.283 13.461 13.461 0 0 0 -1.789-4.9 11.824 11.824 0 0 0 -3.346-3.068l-.116-.077a5.034 5.034 0 0 1 -.479-.343 1.959 1.959 0 0 0 -.162-.122c-.053-.032-.123-.078-.172-.115a15.278 15.278 0 0 0 -3.286-2.028 14.794 14.794 0 0 0 -2.942-.74l-.116-.02c-.566-.113-1.1-.22-1.575-.326s-.925-.233-1.361-.365l-.279-.086a14.407 14.407 0 0 0 -2.907-.648c-1.807-.169-3.336-.251-4.687-.251l-2.05-.007c-.869-.008-1.767-.017-2.65.052-1.681.158-3.247.36-4.628.6a25.486 25.486 0 0 0 -2.839.764c-.273.077-.463.138-.648.2a10.363 10.363 0 0 1 -1.165.322 37.76 37.76 0 0 0 -4.286 1.39 13.1 13.1 0 0 1 -1.784.6 12 12 0 0 0 -2.678.991 17.9 17.9 0 0 0 -3.78 2.889 14.221 14.221 0 0 0 -2.542 3.919 16.745 16.745 0 0 0 -1.448 4.455 17.19 17.19 0 0 0 -.132 2.824v1.824c0 1.308.1 2.712.2 4.04l.05.539c.058.808.112 1.625.112 2.407 0 .693.045 1.442.095 2.235.025.194.04.377.054.561.01.126.018.252.038.387.009.067.015.133.018.2.019.449.045.884.069 1.306.046.774.087 1.5.087 2.192v.983c0 1.285 0 2.614-.109 3.988 0 .049-.009.1-.017.146-.048.313-.084.615-.121.917-.041.345-.083.689-.138 1.048a29.112 29.112 0 0 0 -.289 2.947 27.281 27.281 0 0 0 .444 4.978 12.021 12.021 0 0 0 1.585 4.688 10.97 10.97 0 0 0 3.417 3.669 13.531 13.531 0 0 0 3.847 1.294l.2.048a1.948 1.948 0 0 1 .215.029c1.554.3 3.044.528 4.554.7a22.338 22.338 0 0 0 2.4.164l.874.032z" fill="#f6bc9b"/><path d="m53.9 53.416c0 3.5-2.334 6.658-4.629 8.953a12.988 12.988 0 0 1 -8.954 4.12 13.581 13.581 0 0 1 -9.356-3.718 13.934 13.934 0 0 1 -4.106-9.355c0-3.5 2.652-6.219 4.947-8.515a11.286 11.286 0 0 1 8.515-3.324c3.5 0 6.539.708 8.835 3s4.748 5.336 4.748 8.839z" fill="#fff"/><path d="m84.172 68.6c-1.343 0-2.638-.1-3.885-.192-.576-.048-1.1-.1-1.631-.1-1.2-.048-2.4-.192-3.549-.336a33.809 33.809 0 0 0 -4.845-.336 10.829 10.829 0 0 0 -1.583.192c-1.727.288-4.077.72-5.8-1.2-2.3-2.544-1.87-7.393-1.487-11.281.1-1.152.192-2.256.192-3.024 0-.192-.1-.865-.144-1.441-.431-3.936-.719-7.344.336-9.361a2.007 2.007 0 0 1 .24-1.152 1.94 1.94 0 0 1 2.638-.72c5.708 3.265 10.7 7.921 15.493 12.482l1.055.96c1.2 1.152 2.4 2.352 3.6 3.5 1.055 1.008 2.11 2.112 3.213 3.12.336.288.768.624 1.2 1.008 1.535 1.2 3.261 2.593 2.926 4.561-.336 1.872-2.4 2.544-3.07 2.736a18.938 18.938 0 0 1 -4.893.576z" fill="#e42937"/><path d="m84.172 70.1c-1.449 0-2.863-.108-4-.2l-.118-.01c-.49-.041-.944-.082-1.4-.082-1.3-.051-2.508-.193-3.736-.348l-.218-.02a32.245 32.245 0 0 0 -4.392-.3 9.974 9.974 0 0 0 -1.379.173c-1.9.315-4.921.823-7.168-1.677-2.787-3.081-2.254-8.485-1.864-12.431l.015-.19c.087-1.044.169-2.029.169-2.687 0-.07-.026-.245-.049-.45-.031-.268-.065-.579-.089-.867-.449-4.079-.71-7.445.32-9.8a3.687 3.687 0 0 1 .408-1.5 3.451 3.451 0 0 1 4.7-1.365c5.658 3.236 10.5 7.67 15.8 12.709l1.031.938c.63.6 1.23 1.193 1.83 1.782s1.2 1.175 1.8 1.75c.426.407.856.833 1.288 1.263.623.617 1.252 1.241 1.9 1.832.091.077.23.191.378.312.254.209.53.437.806.682 1.51 1.177 3.9 3.047 3.408 5.934-.335 1.872-1.8 3.261-4.137 3.926a20.408 20.408 0 0 1 -5.303.626zm-5.437-3.287c.494 0 1.019.045 1.573.092l.106.01c1.074.082 2.425.185 3.758.185a17.214 17.214 0 0 0 4.508-.526c.652-.186 1.816-.646 1.978-1.551.175-1.027-.921-1.979-2.373-3.114-.318-.28-.565-.481-.79-.666-.166-.137-.322-.265-.463-.386-.71-.648-1.37-1.3-2.021-1.947-.419-.416-.835-.828-1.251-1.226-.61-.586-1.216-1.181-1.823-1.775s-1.185-1.163-1.778-1.734l-1.025-.931c-5.181-4.925-9.884-9.232-15.228-12.289a.437.437 0 0 0 -.6.169.548.548 0 0 0 -.049.216l.058.466-.218.415c-.845 1.615-.579 4.806-.173 8.5.024.3.057.575.084.816.041.36.068.659.068.788 0 .782-.087 1.829-.179 2.936l-.018.212c-.336 3.411-.794 8.052 1.1 10.151 1.066 1.186 2.476 1.055 4.355.742a12.212 12.212 0 0 1 1.919-.228 33.073 33.073 0 0 1 4.778.318l.237.028c1.178.147 2.314.282 3.439.327z" fill="#e84450"/><path d="m39.523 61.4a3.5 3.5 0 0 1 -3.5-3.5v-7.253a3.5 3.5 0 0 1 7 0v7.253a3.5 3.5 0 0 1 -3.5 3.5z" fill="#37344b"/><path d="m70.775 27.479c.426 0 1.451-1.594 1.437-2.019a24.009 24.009 0 0 0 -1.832-9.253c-1.319-2.842-4.076-4.714-6.372-6.837a23.788 23.788 0 0 0 -7.624-4.989 24.634 24.634 0 0 0 -9-1.881 22.349 22.349 0 0 0 -9.53 1.832 27.3 27.3 0 0 0 -8.254 5.423 30.237 30.237 0 0 0 -5.93 8.078c-1.346 3.007-1.506 6.617-1.613 9.861-.014.425.576.268 1 .268 4.77-.055 4.781.861 9.551.8s4.765-.594 9.537-.652 4.775.38 9.545.321 4.733-1.188 9.5-1.386 4.81.49 9.585.434z" fill="#1c1933"/><path d="m32.187 31.268a23.748 23.748 0 0 1 -4.8-.443 18.892 18.892 0 0 0 -4.3-.363l-.135.008a3.189 3.189 0 0 1 -2.558-.771 2.727 2.727 0 0 1 -.835-2.088c.1-3.056.237-7.241 1.829-10.8a33.122 33.122 0 0 1 6.412-8.788 29.806 29.806 0 0 1 9-5.957 24.646 24.646 0 0 1 10.583-2.066 26.961 26.961 0 0 1 9.9 2.049 26.2 26.2 0 0 1 8.42 5.485c.5.462 1.022.911 1.546 1.361 1.945 1.675 4.149 3.571 5.4 6.258a25.868 25.868 0 0 1 2.063 10.224c.057 1.713-1.689 3.539-1.707 3.557a3.066 3.066 0 0 1 -2.205 1.045 34.314 34.314 0 0 1 -4.912-.265 24.5 24.5 0 0 0 -4.587-.169 16.222 16.222 0 0 0 -4.1.635 19.415 19.415 0 0 1 -5.478.754 47.519 47.519 0 0 1 -5-.168 41.707 41.707 0 0 0 -4.543-.153 34.4 34.4 0 0 0 -4.488.306 38.567 38.567 0 0 1 -5.049.346zm-7.537-5.786a23.4 23.4 0 0 1 3.622.422 18.716 18.716 0 0 0 4.305.361 34.236 34.236 0 0 0 4.492-.307 39.1 39.1 0 0 1 5.045-.345 46.1 46.1 0 0 1 5 .169 41.5 41.5 0 0 0 4.545.152 14.508 14.508 0 0 0 4.251-.586 21.089 21.089 0 0 1 5.179-.8 29.528 29.528 0 0 1 5.376.2 28.042 28.042 0 0 0 3.226.23 20.707 20.707 0 0 0 -1.578-7.72c-.793-1.707-2.411-3.1-4.124-4.574-.569-.489-1.136-.978-1.678-1.479a21.117 21.117 0 0 0 -6.83-4.493 21.852 21.852 0 0 0 -8.098-1.712 19.836 19.836 0 0 0 -8.474 1.6 25.24 25.24 0 0 0 -7.509 4.886 28.548 28.548 0 0 0 -5.451 7.369 19.354 19.354 0 0 0 -1.299 6.627z" fill="#36344b"/><path d="m8.264 32.813c-1.567 0-3.471-.052-5.889-.172a2.5 2.5 0 0 1 .249-4.994c7.571.38 9.59.063 12.645-.412 2.984-.465 7.071-1.1 17.775-1.357 3.386-.084 7.094-.006 11.022.073 5.783.116 12.337.249 19.534-.081 3.9-.18 7.972-.229 12.287-.282 5.818-.07 11.833-.143 18.294-.535a2.5 2.5 0 1 1 .3 4.99c-6.582.4-12.659.473-18.536.545-4.272.052-8.308.1-12.119.276-7.362.34-14 .2-19.864.086-3.871-.077-7.528-.151-10.8-.074-10.378.249-14.12.832-17.127 1.3a42.684 42.684 0 0 1 -7.771.637z" fill="#36344b"/><path d="m25.617 17.986c10.987-.265 10.957-1.536 21.944-1.8s11.027 1.365 22.014 1.1" fill="#1c1933"/><path d="m25.616 20.486a2.5 2.5 0 0 1 -.059-5 79.245 79.245 0 0 0 10.685-.877 84.485 84.485 0 0 1 11.258-.923 67.094 67.094 0 0 1 11.375.567 61.87 61.87 0 0 0 10.639.533h.061a2.5 2.5 0 0 1 .06 5 66.763 66.763 0 0 1 -11.375-.568 61.8 61.8 0 0 0 -10.639-.532 79.264 79.264 0 0 0 -10.686.877 84.452 84.452 0 0 1 -11.259.924z" fill="#36344b"/><path d="m39.324 83.919a2 2 0 0 1 -1.789-2.891 11.284 11.284 0 0 1 6.58-5.981l.718-.264c2.274-.848 5.387-2.009 8.714-.572a21.157 21.157 0 0 1 7.624 5.39 2 2 0 0 1 -3.007 2.639 17.2 17.2 0 0 0 -6.2-4.357c-1.85-.8-3.737-.1-5.732.648l-.762.281a7.319 7.319 0 0 0 -4.351 4 2 2 0 0 1 -1.795 1.107z" fill="#e84450"/></svg>