<svg height="220.946" viewBox="0 0 218.011 220.946" width="218.011" xmlns="http://www.w3.org/2000/svg"><path d="m215.771 170.31a19.192 19.192 0 0 0 -2.28-2.07 11.275 11.275 0 0 0 -2.034-1.509 13.436 13.436 0 0 0 -1.3-.81 3.066 3.066 0 0 0 -1.271-.37c-.906-.02-1.932.172-2.859.068a2.909 2.909 0 0 1 -1.569-.469l-1.988-1.341c-.342-.264-.579-.47-.921-.734l-.473-.411a1.869 1.869 0 0 1 -.6-.554c-.449-.324-.922-.734-1.4-1.145-.365-.348-.838-.757-1.2-1.107a31.265 31.265 0 0 1 -2.6-3.24 15.734 15.734 0 0 0 -2.256-1.988c-16.748 2.542-3.546 24.361-3.394 24.589a.083.083 0 0 1 -.059.106c.555.387 1.3.811 1.942 1.174l2.878 1.636c2.513 1.286 5.627 3.128 8.458 3.607a21.977 21.977 0 0 0 3.545.463 10.155 10.155 0 0 0 1.6-.08 9.651 9.651 0 0 0 1.634-.27 10.66 10.66 0 0 0 4.792-2.849 12 12 0 0 0 2.259-3.23 5.714 5.714 0 0 0 .612-1.7c.029-.547.058-1.1.087-1.644.117-2.19-.148-4.455-1.6-6.125" fill="#e8434f"/><path d="m126.068 119.549a47.171 47.171 0 1 1 -32.958 58 47.171 47.171 0 0 1 32.958-58" fill="#f5b38e"/><path d="m164.064 129.5a27.433 27.433 0 0 1 6.439 5.422 41.577 41.577 0 0 1 4.406 7.511 5.147 5.147 0 0 1 .468 1.041l2 4.664c.6 1.543 1.316 3.146 1.859 4.8 1.125 3.108 2.063 7.167 1.771 9.046a5.418 5.418 0 0 1 -.626 1.971 1.311 1.311 0 0 1 -.243.426l-.3.533-.425.747-.4.829a20.071 20.071 0 0 0 -1.712 5.868c-.15.761-.24 1.416-.375 1.9a3.827 3.827 0 0 1 -.417 1.1l-.121.213a50.562 50.562 0 0 1 -2.215 5.017c-.583 1.15-1.386 2.81-2.438 4.539l-.5 1.127a21.837 21.837 0 0 1 -5.392 6.88c-.372.282-.66.542-1.032.824l-1.032.824c-.661.542-1.32 1.083-2 1.541-.661.542-1.344 1-2.027 1.458a12.985 12.985 0 0 1 -2.286 1.169 17.325 17.325 0 0 1 -3.419 1.3c-2.175.6-4.433.231-6.563.008-.167.046-.312.176-.479.221-.311.176-.646.269-1.041.467l-1.147.406a34.032 34.032 0 0 1 -10.073 1.963 29.65 29.65 0 0 1 -7.128-.735 54.352 54.352 0 0 1 -5.974-1.773l-5.942-1.957a78.689 78.689 0 0 1 -8.083-2.9 8.711 8.711 0 0 1 -1.15-.583l-.732 1.911c-.342.723-.682 1.447-.938 2.147a47.5 47.5 0 0 1 -4.014 7.31c.662.448 1.3.811 2.05 1.235a59.4 59.4 0 0 0 15.414 6.009 67.817 67.817 0 0 0 13.025 1.9 63.654 63.654 0 0 0 16.308-1.523c1.088-.3 2.2-.515 3.474-.776 1.17-.323 2.34-.645 3.405-1.028a39.729 39.729 0 0 0 5.849-2.6l2.324-1.359c.707-.374 1.558-.879 2.431-1.3 1.52-.689 2.932-1.437 4.345-2.186a41.619 41.619 0 0 0 4.282-3.068 71.072 71.072 0 0 0 7.337-7.326 40 40 0 0 0 5.168-7.359 38.95 38.95 0 0 0 3.22-7.9.086.086 0 0 1 .061-.107l.159-.4a9.941 9.941 0 0 0 .4-1.818c.076-.381.15-.762.2-1.226.1-.928.171-1.666.177-2.3a7.914 7.914 0 0 1 .489-2.473 4.381 4.381 0 0 1 .461-.936l.4-.83.439-1.02a18.733 18.733 0 0 0 1.25-4.931 13.18 13.18 0 0 0 .109-2.548l.006-.632v-.631l-.047-1.156a30.9 30.9 0 0 0 -.512-3.816.779.779 0 0 1 -.031-.441c-.1-.692-.262-1.277-.363-1.969l-.384-2.052c-1.007-4.31-1.81-8.856-3.986-12.844a40.671 40.671 0 0 0 -3.733-5.717 44.951 44.951 0 0 0 -6.482-7.209c-.945-.819-1.806-1.662-2.835-2.457-.828.587-1.654 1.174-2.46 1.846a87.549 87.549 0 0 1 -8.678 5.717" fill="#f6bc9b"/><path d="m174.72 152.2a19.3 19.3 0 0 0 -2.327-3.226c-.672-.8-1.32-1.525-1.991-2.33a10.476 10.476 0 0 0 -2.362-2.047 16.885 16.885 0 0 0 -3.19-1.46 11.123 11.123 0 0 0 -4.915-.536c-1.513.057-2.957.365-4.447.5a44.178 44.178 0 0 0 -12.275 3.11 28.436 28.436 0 0 0 -6.395 3.559 16.042 16.042 0 0 0 -4.689 4.529c-.242.426-.462.937-.765 1.47-.219.51-.416 1.1-.612 1.7a10.368 10.368 0 0 0 -.511 2.389 4.383 4.383 0 0 0 -.119 1.2 7.275 7.275 0 0 0 .011 1.346 14.979 14.979 0 0 0 1.214 5.062 10.544 10.544 0 0 0 6.837 6.212c.19.038.4.159.594.2a10.707 10.707 0 0 0 3.369.151 15.9 15.9 0 0 0 2.828-.509c2.2-.514 4.2-1.067 6.339-1.475a51.9 51.9 0 0 0 5.259-.819c.754-.207 1.674-.46 2.57-.8 1.254-.344 2.425-.666 3.656-1.095l4.012-1.105a16.526 16.526 0 0 0 3.9-1.523 10.522 10.522 0 0 0 3.4-3.006c.3-.532.712-1 .932-1.514a7.241 7.241 0 0 0 .672-1.8 9.722 9.722 0 0 0 .348-3.963 8.542 8.542 0 0 0 -1.341-4.219" fill="#fff"/><path d="m150.632 163.691a13.871 13.871 0 0 0 7.794-.437 8.859 8.859 0 0 0 2.947-1.711 4.087 4.087 0 0 0 .614-.708c.614-.709.157-1.393-.195-2.016a1.2 1.2 0 0 1 -.207-.752c-.04-.8.026-1.536-.013-2.334-.032-.442-.04-.8-.072-1.24a10.15 10.15 0 0 0 -.079-1.6 3.988 3.988 0 0 0 -3.741-2.478 17.65 17.65 0 0 0 -6.379.677 18.935 18.935 0 0 0 -3.857 2.322c-.972.717-.529 1.674-.094 2.274a5.449 5.449 0 0 1 .688 1.519c.115.418.17.942.285 1.36l.345 1.255c.138.5-.012 1.263.126 1.763.253.92.164 1.575 1.838 2.1" fill="#36344b"/><path d="m173.408 182.063c.37-1.271.747-2.184-.191-3.634a5.927 5.927 0 0 0 -5.542-2.162 7.1 7.1 0 0 0 -2.569.8c-.227.153-.478.223-.706.375a.993.993 0 0 0 -.508.77 2.6 2.6 0 0 0 -.1.927 1.382 1.382 0 0 1 -.174.678 5.533 5.533 0 0 1 -.567.875c-.183.321-.387.557-.569.877a7.164 7.164 0 0 0 -.629.982 10.8 10.8 0 0 1 -.773 1.114 35.337 35.337 0 0 1 -2.08 2.905 10.515 10.515 0 0 1 -2.763 2.38 6.924 6.924 0 0 1 -1.816.589c-.608.079-1.194.239-1.8.317l-.442.032c-1.405.116-2.683.378-4.15.6a11.794 11.794 0 0 1 -4.381-.233 7.145 7.145 0 0 1 -1.507-.574 10.45 10.45 0 0 1 -1.2-.75q-.515-.4-1.029-.795a13.206 13.206 0 0 1 -.968-.9 3.6 3.6 0 0 0 -.838-.758 8.642 8.642 0 0 0 -.931-1.093 4.227 4.227 0 0 0 -3.72-.775c-1.733.567-3.033.745-4.5 1.959a4.973 4.973 0 0 0 -.992 1.621 10.284 10.284 0 0 0 -.482 1.842 2.178 2.178 0 0 0 .521 1.566 5.367 5.367 0 0 0 1.311 1.168c.662.447 1.348.978 1.927 1.448s1.052.879 1.608 1.266a28.568 28.568 0 0 0 6.092 3.18 32.279 32.279 0 0 0 8.225 1.782c.19.037.358-.009.548.029a19.62 19.62 0 0 0 6.563-.008 25.834 25.834 0 0 0 3.418-1.3 12.974 12.974 0 0 0 2.288-1.17c.683-.457 1.366-.915 2.025-1.456s1.345-1 2-1.541l1.033-.826c.288-.257.66-.54 1.032-.823a19.816 19.816 0 0 0 5.391-6.881l.5-1.125.28-.617c.439-1.02.84-1.851 1.157-2.658" fill="#e8434f"/><path d="m189.9 52.073c-.3-.8-.619-1.667-1.033-2.592s-.849-1.924-1.318-2.754a48.318 48.318 0 0 0 -4.3-7.2c-1.661-2.26-3.4-4.5-5.415-6.9-.461-.512-.921-1.025-1.456-1.516l-.691-.769c-.231-.256-.515-.418-.745-.674-.515-.418-1.05-.909-1.564-1.327l-1.678-1.141c-.284-.162-.589-.4-.873-.559l-.927-.463c-.568-.324-1.211-.626-1.779-.949l-1.887-.759c-.359-.141-.622-.228-.981-.369l-1.034-.275-1.636-.428c-.582-.08-1.088-.18-1.67-.26l-1.649-.185-1.682-.016-1.663.058c-.54.069-1.154.158-1.695.227-.3.082-.54.069-.837.15l-.817.225a13.733 13.733 0 0 0 -1.709.471 23.519 23.519 0 0 0 -7.22 3.666 36.383 36.383 0 0 0 -5.765 5.183 38.775 38.775 0 0 0 -3.92 4.914 18.761 18.761 0 0 0 -1.6 2.6l-.215.379-.161.284a2.321 2.321 0 0 0 -.228.622 15.367 15.367 0 0 0 -.527 3.022 21.364 21.364 0 0 0 -.184 4.845c.058 1.662.285 3.357.389 4.607a42.207 42.207 0 0 0 1.246 6.848 56.844 56.844 0 0 1 -4.176-7.638 24.676 24.676 0 0 0 -2.822-4.737 17.551 17.551 0 0 0 -4.057-4l-.284-.161-.5-.344a10.453 10.453 0 0 0 -1.136-.646l-1.306-.679-1.359-.584a22.308 22.308 0 0 0 -5.9-1.412c-.878 0-1.682-.016-2.56-.014-.858.077-1.716.153-2.553.3-.818.224-1.709.47-2.526.7-.8.3-1.573.672-2.349 1.046a16.279 16.279 0 0 0 -2.118 1.3 17.071 17.071 0 0 0 -2.091 1.694 23.743 23.743 0 0 0 -1.955 1.9l-.909 1.05c-.31.325-.526.7-.836 1.029a25.214 25.214 0 0 0 -1.986 2.944c-.592 1.042-1.036 2.043-1.533 3.139a25.245 25.245 0 0 0 -1.862 6.585c-.18 1.088-.265 2.231-.371 3.3.021.075-.033.169-.013.244l-.012.243.027.392c-.012.243 0 .56 0 .878a24.645 24.645 0 0 0 .361 3.333.7.7 0 0 1 .028.392 19.857 19.857 0 0 0 .907 3.586 11.357 11.357 0 0 0 -2.368-1.346 8.711 8.711 0 0 0 -4.778-.522l-.466.048a14.2 14.2 0 0 0 -1.729.4 18.571 18.571 0 0 0 -1.985.627l-1.019.36-.736.522-.924.415c-.277.155-.628.332-.9.488a21.363 21.363 0 0 0 -6.137 5.285 25.94 25.94 0 0 0 -3.834 6.969 26.249 26.249 0 0 0 -1.534 5.456 26.572 26.572 0 0 0 -.345 2.812c-.051.973-.049 1.852-.047 2.73a16.772 16.772 0 0 0 .2 2.743l.036.709.008.317.061.224.151.837c.191.986.342 1.823.533 2.81l.021.074a16.887 16.887 0 0 0 2.527 5.7 5.611 5.611 0 0 0 -1.874-1 8.467 8.467 0 0 0 -.94-.221 8.782 8.782 0 0 0 -5.4.689l-.426.2a3.461 3.461 0 0 0 -.35.176l-.648.259-.9.489c-.533.386-1.16.719-1.693 1.105a28.853 28.853 0 0 0 -8.924 9.089 42.148 42.148 0 0 0 -2.433 5.384c-2.1 5.134-3.07 10.035-4.679 15.511a64.272 64.272 0 0 0 -2.493 13.871 83.783 83.783 0 0 0 -.075 11.048c.064 1.1.148 2.277.211 3.378l.152 1.716.227 1.695q.476 3.465 1.173 6.869c.342 1.823.7 3.721 1.067 5.619a28.055 28.055 0 0 0 1.662 5.455 46.94 46.94 0 0 0 2.759 5.132 48.814 48.814 0 0 0 4.854 6.9 75.341 75.341 0 0 0 6.077 6.4 31.226 31.226 0 0 0 13.694 7.656 41.5 41.5 0 0 0 6.171.938c.486.026 1.047.031 1.534.057l1.588-.038 1.587-.037 1.622-.207a41.977 41.977 0 0 0 14.048-4.986c3.448-1.988 6.991-3.922 9.706-6.828.546-.63 1.22-1.374 1.874-2.194l1.865-2.511c.236-.3.4-.589.634-.893a42.164 42.164 0 0 0 3.565-6.5c.3-.642.605-1.285.833-1.908l.651-1.7.141-.358c.585-1.36 1.021-2.679 1.511-4.092a53.068 53.068 0 0 0 2.993-14.088c.123-1.872.194-3.649.243-5.5 0-.878-.024-1.831-.047-2.784l-.1-2.689c-.086-2.053-.213-4.255-.34-6.458l-.132-1.642-.105-1.249a15 15 0 0 0 -.268-1.844l-.041-.149a3.905 3.905 0 0 1 .44-2.758 5.389 5.389 0 0 1 2.354-1.607l2.572-1.107c3.281-1.143 9.018-3.522 13.623-4.79a16.917 16.917 0 0 1 2.735-.513c.393-.028.784-.056 1.1-.064l.243.013.318-.007.952-.023a45.925 45.925 0 0 0 7.194-.862 53.553 53.553 0 0 0 11.052-3.682c1.5-.652 2.956-1.453 4.413-2.254a71.728 71.728 0 0 0 7.637-5.059c.735-.522 1.47-1.044 2.185-1.64a31.765 31.765 0 0 0 6.608-5.894 42.992 42.992 0 0 0 3.359-4.92c3.063-4.839 4.74-9.775 6.91-15.247a55.467 55.467 0 0 0 3.351-13.947c.072-.9.2-1.893.27-2.791s.05-1.852.122-2.751a27.453 27.453 0 0 0 .027-2.8q-.034-1.429-.068-2.858a100.852 100.852 0 0 0 -1.552-13.476 64.385 64.385 0 0 0 -2.039-11.186" fill="#36344b"/><path d="m142.47 87.025c-.957-1.734-4.147-1.416-7.16-4.82-1.477-1.592-2.93-4.548-4.463-6.922-1.418-2.247-3.119-4.655-5.031-7.245l-1.452-2.077-1.511-2.3c-1.011-1.639-2-3.2-3.025-4.6l-.752-.991a5.429 5.429 0 0 1 -.387-.533l-.419-.364a9.837 9.837 0 0 0 -1.626-1.55l-.819-.653-.284-.162-.284-.161-.548-.249-.453-.2a9.659 9.659 0 0 0 -3.38-.667 9.409 9.409 0 0 0 -4.275 1.017l-.5.217-.479.292a15.35 15.35 0 0 0 -6.03 7.413c-.141.359-.208.7-.349 1.055l-.194.453c-.034.169-.047.412-.08.582a5.876 5.876 0 0 0 -.193 1.331l-.039.73-.033.169c.02.074-.013.243.008.317l.015.635a8.1 8.1 0 0 1 .05 1.345 8.421 8.421 0 0 0 .223 1.381c.048.466.191.986.24 1.452l.429 1.56.429 1.559.62 1.668c.38 1.093.876 2.315 1.373 3.537-1.355 1.172-2.666 1.054-3.169 2.71-.033.169-.483 1.731-.516 1.9a5.623 5.623 0 0 1 1.684 3.213c.04.148.05 1.344.05 1.344-.026.487.906.389.954.856 0 .561.066 1.979.106 2.128.544.809-1.3-1.24-.777-.5 0 0-3.079-4.506-4.251-5.862a42.258 42.258 0 0 1 -2.5-3.865l-2.2.127-1.128.55c-.858.076-1.539.5-2.471.6-.912.17-1.844.268-2.81.533a9.246 9.246 0 0 0 -1.411.389s-.925.414-1.2.57c-.352.177-.628.333-.979.509 0 0-.735.522-.937.658a21.207 21.207 0 0 0 -3.438 3.184 3.388 3.388 0 0 0 -.654.819 19.349 19.349 0 0 0 -2.114 3.373 11.971 11.971 0 0 0 -.779 1.813 13.133 13.133 0 0 0 -.5 1.974 13.307 13.307 0 0 0 .065 4.3c.041.149.069.54.151.837s.11.689.191.986q.154.558.307 1.115l.4 1.168a25.74 25.74 0 0 0 2.471 4.912c-.29.4-1.056 1.969-1.056 1.969-.055.095-.249.548-.249.548a13.2 13.2 0 0 0 -.59 1.92 7.422 7.422 0 0 0 -.238 2.623c.029.391.167 1.472.187 1.547a.075.075 0 0 0 .095.053 2.829 2.829 0 0 1 .365.459l.333.627.9 1.829-5.335-4.284a15.512 15.512 0 0 0 -2.648.25c-2.62.641-2.484.843-4.8 2.281l-2.2 1.563.135.2.021.074.02.074-.074.021-.277.156c-.128.115-.33.251-.458.366a7.027 7.027 0 0 0 -.9.806 13.708 13.708 0 0 0 -1.657 1.815c-1.072 1.333-2.1 2.816-3.24 4.487-.161.284-.4.589-.558.873-.667 1.063-1.313 2.2-1.959 3.336a33.589 33.589 0 0 0 -1.781 3.687 43.863 43.863 0 0 0 -2.022 7.748c-.547 2.947-.831 5.982-1.1 7.894-.307 2.082-.545 3.826-.8 5.5-.252 1.987-.565 3.751-.763 5.644a37.513 37.513 0 0 0 -.012 6.635c.489 6.417 3.037 12.188 5.023 17.954a5.443 5.443 0 0 0 .361 1.019 43.28 43.28 0 0 0 3.234 7.1 23.653 23.653 0 0 0 4.985 5.34 28.986 28.986 0 0 0 5.86 3.58 41.931 41.931 0 0 0 4.248 1.787l1.149.4 1.13.328 2.365.467c.8.019 1.629.112 2.581.089a13.513 13.513 0 0 0 3.054-.521 21.916 21.916 0 0 0 7.591-3.768c2.315-1.756 4.417-3.693 6.595-5.651l.769-.691a17.262 17.262 0 0 1 1.314-1.321 11.286 11.286 0 0 0 1.294-1.4l1.274-1.469c.343-.494.74-1.083 1.084-1.577l.4-.589.356-.738.747-1.643c.381-1.224.912-2.489 1.232-3.936.6-2.481 1.1-5.016 1.449-7.51l.844-5.347c.348-1.933.587-3.676.765-5.643.051-.973.177-1.967.189-3.089-.01-1.195-.02-2.391-.07-3.736-.093-1.493-.2-3.06-.444-4.512l-.2-1.3c-.069-.54-.232-1.135-.3-1.675-.233-1.134-.465-2.269-.623-3.424a21.038 21.038 0 0 1 -.239-3.769 10.115 10.115 0 0 1 .9-3.685 8.719 8.719 0 0 1 2.284-3.026 11.56 11.56 0 0 1 3.2-2l1.5-.652a43.184 43.184 0 0 1 6.088-1.678 21.224 21.224 0 0 1 2.492-.526c.742-.205 1.432-.315 2.175-.519 1.039-.287 2.281-.708 3.747-1.192l.944-.34 1-.435 2.221-.93a44.615 44.615 0 0 1 5.266-1.77 16.9 16.9 0 0 1 2.83-.459l1.716-.153c1.959-.14 3.6-.273 5.052-.512a41.6 41.6 0 0 0 5.269-.892 24.2 24.2 0 0 0 5.853-2.25 33.932 33.932 0 0 0 7.365-5.464c2.232-2.053 4.253-4.287 6.369-6.468l.674-.745c.856-.954 1.712-1.909 2.547-2.938l1.159-1.6a11.832 11.832 0 0 0 1.063-1.651 33.025 33.025 0 0 0 2.821-7.169 75.035 75.035 0 0 0 1.6-7.551c.2-1.014.346-1.934.513-2.778l.289-1.278c.046-.412.167-.845.232-1.183a40.621 40.621 0 0 0 .985-12.1 50.246 50.246 0 0 0 -1.887-9.468c-.431-1.56-.933-3.1-1.342-4.585l-.717-2.274-.613-2.228-.287-1.042a51.968 51.968 0 0 0 -2.658-7.338 26.327 26.327 0 0 0 -4.548-5.78 27.544 27.544 0 0 0 -5.421-4.021 27.216 27.216 0 0 0 -3.782-1.835 8.107 8.107 0 0 1 -.981-.369l-1.013-.2a8.665 8.665 0 0 0 -2.082-.307 9.788 9.788 0 0 0 -4.836 1.012l-.425.2c-.129.115-.276.156-.405.271l-.809.543a12.673 12.673 0 0 0 -1.484 1.287 18.362 18.362 0 0 0 -2.58 3.108c-.72 1.157-1.44 2.314-2.066 3.525-.161.284-.3.643-.464.927l-.269.474c-.054.094-.108.189-.161.284l-.2.453-.631 1.771a1.841 1.841 0 0 0 -.221.94l-.2 1.015c-.087.263-.154.6-.241.865-.033.169-.088.263-.121.432l-.026.487-.124 1.872c.008.318-.079.581-.051.973l.063 1.1.032 2.148c.029.392.056.784.1 1.25l.125 1.324.1 1.249c.049.467.056.784.125 1.324l.405 2.925.24 1.452.281 1.6.583 3.275c.258.649-1.08 14.361-1.1 14.287" fill="#1c1933"/><path d="m128.469 53.7c2.877 10.169 4.1 9.239 12.448 16.6 5.175 4.561 11.757 8.448 18.674 9.656 6.242 1.09 12.129-1.385 18.92-6.688 5.813-4.538 8.673-9.735 7.486-16.257a36.182 36.182 0 0 0 -8.9-17.33c-4.247-4.643-10.665-7.083-16.64-9.805-5.932-2.7-11.87-4.749-18.365-4.184a31.216 31.216 0 0 0 -17.6 6.859c-3 10.389 1.015 10.706 3.97 21.151" fill="#4c519d"/><path d="m162.253 87.526a23.8 23.8 0 0 1 -3.924-.354c-7.516-1.311-15.423-5.353-22.258-11.378-1.587-1.4-2.906-2.483-4.019-3.4-5.825-4.8-7.935-7.151-10.638-16.7a40.523 40.523 0 0 0 -2.576-6.666c-2.508-5.387-3.957-9.587-1.382-18.513l.64-2.219 1.8-1.451a38.5 38.5 0 0 1 21.57-8.46c8.484-.738 15.9 2.022 22.037 4.815.765.349 1.535.692 2.309 1.036 5.616 2.5 11.98 5.33 16.7 10.494a43.729 43.729 0 0 1 10.7 20.965c1.628 8.945-1.8 16.8-10.186 23.348-4.878 3.807-12.074 8.546-20.77 8.485m-26.733-35.828c1.68 5.941 1.758 6.006 5.849 9.375 1.22 1 2.658 2.189 4.391 3.718 4.837 4.262 10.195 7.08 15.089 7.933 2.6.451 6.192.186 13.148-5.243 4.966-3.877 5.233-6.7 4.783-9.167a29.09 29.09 0 0 0 -7.09-13.695c-2.658-2.907-7.121-4.891-11.844-6.993-.812-.361-1.623-.722-2.424-1.089-4.628-2.107-9.612-3.995-14.692-3.552a24.417 24.417 0 0 0 -11.781 3.9c-.48 2.385-.045 3.317 1.178 5.946a55.283 55.283 0 0 1 3.393 8.864" fill="#6165a8"/><path d="m132.631 83.893c-3.5 8.7 2.886 6.38 10.536 14.32a81.8 81.8 0 0 0 14.4 11.892 70.811 70.811 0 0 0 16.758 8.253c5.577 1.8 11.681 3.811 18.387 4.1 9.565.409 16.137-5.252 17.682-12.412 1.346-6.238-2.263-13.673-7.012-20.886a41.615 41.615 0 0 0 -16.272-14.244c-5.967-3.075-12.576-6.527-20.95-7.2a82.6 82.6 0 0 0 -22.484 1.464c-8.359 3.9-7.58 6.1-11.042 14.716" fill="#4c519d"/><path d="m193.426 129.805q-.513 0-1.029-.027c-7.585-.322-14.2-2.461-20.041-4.35l-.29-.094a77.193 77.193 0 0 1 -18.486-9.076 88.977 88.977 0 0 1 -15.693-12.958 24.555 24.555 0 0 0 -5.824-4.355c-3.782-2.226-10.822-6.369-6.235-17.781.6-1.5 1.065-2.786 1.473-3.916 2.357-6.536 4.136-10.443 13.269-14.709l.808-.379.876-.173a89.784 89.784 0 0 1 24.489-1.577c9.725.78 17.349 4.707 23.475 7.863l.245.126a48.8 48.8 0 0 1 19.037 16.725c4.826 7.333 10.1 16.966 8.055 26.464-2.358 10.927-12.2 18.3-24.131 18.217m-53.877-43.47a38.888 38.888 0 0 1 8.9 6.79 74.21 74.21 0 0 0 13.1 10.827 63.009 63.009 0 0 0 15.026 7.431l.29.095c5.191 1.679 10.559 3.415 16.152 3.652 5.258.228 9.288-2.379 10.207-6.635.462-2.143-.2-6.54-5.97-15.309a34.5 34.5 0 0 0 -13.503-11.756l-.249-.13c-5.475-2.819-11.138-5.736-17.932-6.282a74.76 74.76 0 0 0 -19.613 1.182c-3.246 1.534-3.355 1.837-4.863 6.016-.432 1.2-.923 2.558-1.543 4.117" fill="#6165a8"/><path d="m94.787 56.542c1 10.544-8.306 4.572-19.552 8.71-6.158 2.265-13.15 4.992-20.119 6.891-7.341 2-15 1-21.176 1.3-9.273.451-16.146-.375-16.822-7.506-.7-7.378.744-15.222 5.492-20.872a33.011 33.011 0 0 1 19.155-10.914c6.055-1.115 13.62-.469 21.977 1.019a116.082 116.082 0 0 1 20.958 6.261c8.249 4.2 9.252 6.24 10.092 15.111" fill="#4c519d"/><path d="m29.941 80.883c-7.563-.054-18.941-1.795-20.121-14.254-.974-10.279 1.574-19.613 7.18-26.281a40.608 40.608 0 0 1 23.437-13.4c6.345-1.169 14.157-.848 24.593 1.009a122.231 122.231 0 0 1 22.31 6.637l.685.3c10.855 5.533 13.031 10.085 14.06 20.953.159 1.68.642 6.789-2.793 10.7s-8.235 4.088-12.461 4.234a28.157 28.157 0 0 0 -9.066 1.347l-2.943 1.089c-5.431 2.019-11.588 4.307-17.778 5.994-6.139 1.674-12.082 1.6-17.3 1.522-1.963-.025-3.822-.05-5.443.027-1.155.057-2.659.129-4.356.118m-5.493-15.363c.632.318 2.7.919 9.133.607 2.076-.1 4.251-.073 6.354-.043 4.473.058 9.1.124 13.248-1.007 5.556-1.515 11.133-3.588 16.528-5.593l2.985-1.107a41.748 41.748 0 0 1 13.618-2.238c.331-.012.693-.024 1.058-.04-.513-5.215-.833-5.49-5.677-7.96a107.277 107.277 0 0 0 -19.244-5.747c-8.535-1.518-14.869-1.854-19.367-1.026a25.708 25.708 0 0 0 -14.869 8.418c-3.011 3.584-4.4 9.221-3.806 15.466.01.112.023.2.035.27" fill="#6165a8"/><path d="m110.438 68.549c6.748 7.858-7.061 5.842-15.553 14.668-4.26 4.427-7.919 10.783-13.333 15.932-4.885 4.644-11.061 8.282-16.378 12.736-5.491 4.6-10.381 9.762-15.81 13.36a68.052 68.052 0 0 1 -18.6 8.876c-7.87 2.222-13.609.892-17.422-5.681-3.639-6.273-5.9-12.808-6-19.822-.093-6.829.29-14.287 4.151-20.777 3.27-5.5 8.709-10.525 15.2-15.1a81.253 81.253 0 0 1 19-9.641c6.046-2.2 13.252-2.332 20.9-3.714 6.438-1.163 13.359-4.406 20.994-4.881 13.3 1.516 14.339 4.122 22.855 14.04" fill="#4c519d"/><path d="m24.24 142.431c-9.116-.064-14.333-5.3-17.239-10.312-4.601-7.919-6.882-15.576-6.989-23.399-.112-8.082.441-16.659 5.182-24.627 3.565-5.991 9.217-11.664 17.28-17.342a88.448 88.448 0 0 1 20.716-10.537c4.7-1.708 9.752-2.345 14.642-2.961 2.442-.308 4.969-.626 7.454-1.075a68.622 68.622 0 0 0 7.039-1.854 65.161 65.161 0 0 1 14.8-3.132l.644-.039.641.073c14.432 1.643 18.041 5.29 25.513 14.112.643.758 1.329 1.569 2.073 2.436 3.031 3.529 4.14 7.066 3.3 10.514-1.29 5.281-6.206 7.256-10.155 8.841-3.058 1.229-6.523 2.622-8.975 5.172a69.246 69.246 0 0 0 -4.866 5.981 81.988 81.988 0 0 1 -8.7 10.18 95.4 95.4 0 0 1 -10.045 7.98c-2.373 1.716-4.614 3.336-6.678 5.064-1.811 1.517-3.623 3.164-5.379 4.758a94.773 94.773 0 0 1 -11.088 9.091 75.491 75.491 0 0 1 -20.658 9.821 30.624 30.624 0 0 1 -8.515 1.255m63.194-80.562a55.589 55.589 0 0 0 -10.9 2.5 80.121 80.121 0 0 1 -8.632 2.236c-2.872.518-5.594.862-8.229 1.194-4.461.563-8.313 1.048-11.468 2.195a73.819 73.819 0 0 0 -17.283 8.745c-6.253 4.4-10.667 8.726-13.122 12.851-2.72 4.571-3.213 10.073-3.119 16.929.069 5.243 1.71 10.555 5.009 16.242 1.194 2.059 2.425 4.186 9.089 2.306a60.739 60.739 0 0 0 16.544-7.933 82.9 82.9 0 0 0 9.328-7.722c1.861-1.691 3.786-3.44 5.824-5.146 2.463-2.064 5.024-3.916 7.5-5.707a83.048 83.048 0 0 0 8.528-6.723 69.352 69.352 0 0 0 7.118-8.418 81.24 81.24 0 0 1 5.985-7.284 35.353 35.353 0 0 1 12.561-8c-5.561-6.557-6.425-7.291-14.735-8.269" fill="#6165a8"/><path d="m126.6 80.365c6.8 7.773-1.7 7.9-6.135 19.431-2.178 5.662-6.518 11.47-9.6 18.351-2.7 6.037-4.369 12.97-7.685 19.2-3.249 6.105-7.75 11.509-11.516 17.142-4 5.986-6.812 12.694-11.316 17.385-5.2 5.42-11.021 9.877-16.774 12.444-6.438 2.872-13.086 1.417-20.039-.889-7.787-2.582-14.739-4.75-19-9.651-4.8-5.517-6.649-12.676-6.765-20.24-.1-6.476 2.081-13.171 5.57-20.506 2.793-5.87 5.348-12.84 10.523-18.919 4.3-5.055 10.594-8.983 16.593-13.991 5.182-4.325 11.189-8.136 17.665-12.3 5.738-3.694 11.8-7.407 18.578-10.893 6.119-3.148 12.161-6.834 19.141-9.752 12.475.783 12.584 3.84 20.76 13.189" fill="#4c519d"/><path d="m55.684 193.25a47.314 47.314 0 0 1 -14.451-2.86l-.849-.281c-8.2-2.715-15.953-5.279-21.378-11.52-5.525-6.352-8.407-14.743-8.563-24.937-.108-7.078 1.829-14.408 6.281-23.766.523-1.1 1.038-2.242 1.564-3.41 2.418-5.356 5.158-11.428 10-17.111 3.393-3.987 7.655-7.24 11.777-10.385 1.89-1.441 3.844-2.934 5.7-4.483a173.234 173.234 0 0 1 17.4-12.2l.991-.638c4.954-3.187 11.611-7.344 19.191-11.245 1.864-.958 3.718-1.969 5.595-2.989a150.364 150.364 0 0 1 14.072-7.008l1.58-.663 1.709.108c12.945.813 16.587 4.547 22.412 11.631.976 1.19 2.081 2.533 3.406 4.049 8.318 9.51 2.772 16.093-.207 19.63a23.791 23.791 0 0 0 -4.6 7.26 73.424 73.424 0 0 1 -5.217 10.206 94.434 94.434 0 0 0 -4.532 8.508c-1 2.242-1.881 4.717-2.809 7.339a88.447 88.447 0 0 1 -5.094 12.311 106.426 106.426 0 0 1 -8.046 12.314c-1.362 1.883-2.647 3.663-3.849 5.459-1.3 1.946-2.481 4.009-3.73 6.194-2.4 4.2-4.885 8.542-8.392 12.194-6.1 6.353-12.7 11.215-19.074 14.061a25.871 25.871 0 0 1 -10.882 2.235m51.43-118.639c-3.88 1.725-7.579 3.737-11.168 5.689-1.977 1.075-3.931 2.138-5.892 3.147-7.023 3.615-13.289 7.531-17.963 10.538l-1 .64a162.709 162.709 0 0 0 -15.94 11.127c-2.1 1.754-4.185 3.346-6.2 4.884-3.668 2.8-7.132 5.442-9.507 8.232-3.492 4.1-5.68 8.95-7.793 13.638-.57 1.259-1.125 2.49-1.691 3.677-3.388 7.121-4.933 12.6-4.861 17.246.1 6.64 1.772 11.868 4.965 15.54 2.788 3.205 8.411 5.066 14.92 7.221l.859.284c6.137 2.033 10.742 2.936 14.746 1.151 4.664-2.082 9.67-5.825 14.472-10.825 2.253-2.347 4.19-5.734 6.239-9.319 1.321-2.307 2.685-4.693 4.271-7.064 1.349-2.018 2.774-3.991 4.154-5.9a93.839 93.839 0 0 0 6.984-10.613 75.939 75.939 0 0 0 4.218-10.321c.984-2.777 2-5.651 3.246-8.431a107.391 107.391 0 0 1 5.219-9.85 63.345 63.345 0 0 0 4.231-8.14 38.012 38.012 0 0 1 7.072-11.44c.13-.156.273-.325.416-.5l-.031-.036c-1.438-1.644-2.636-3.1-3.7-4.39-4.148-5.045-4.737-5.761-10.274-6.191" fill="#6165a8"/><path d="m113.687 104.681c-7.784-8.182-5.345-8.2-12.889-18.763-4-5.6-7.46-12.714-11.739-19.317-4.232-6.529-9.233-12.642-12.5-18.826-4.545-8.61-5.81-16.356-5.624-21.242.4-10.433 5.738-16.557 13.975-18.528a27.976 27.976 0 0 1 24.042 6.034c5.034 4.468 9.083 11.164 13.527 18.52 3.884 6.432 8.607 12.866 11.686 20.043 3.231 7.526 4.777 15.412 6.753 22.222 2.953 10.178 4.259 18.055 3.355 22.251-1.958 9.085-5.643 13.382-11.43 13.84-5.98.473-13.8-1.96-19.156-6.234" fill="#4c519d"/><path d="m131.088 118.305a37.278 37.278 0 0 1 -21.975-7.9l-.736-.676c-5.156-5.417-6.6-8.072-8.27-11.145a70.864 70.864 0 0 0 -5.275-8.411c-2.446-3.424-4.674-7.306-6.826-11.06-1.631-2.843-3.319-5.783-5.1-8.532-1.5-2.31-3.154-4.649-4.76-6.913a115.339 115.339 0 0 1 -8.068-12.468c-4.4-8.331-6.753-17.422-6.466-24.944.505-13.271 7.647-22.522 19.588-25.381a35.109 35.109 0 0 1 30.62 7.681c5.876 5.218 10.274 12.5 14.933 20.214 1.064 1.762 2.2 3.526 3.336 5.305a108.044 108.044 0 0 1 8.811 15.637 118.675 118.675 0 0 1 5.47 17.2c.527 2.021 1.038 3.989 1.585 5.871 4.654 16.045 4.217 22.432 3.483 25.84-2.645 12.272-8.708 18.867-18.019 19.6q-1.15.09-2.334.082m-12.458-19.069c3.762 2.832 9.535 4.695 13.638 4.371.864-.068 3.156-.249 4.842-8.077.155-.72.731-5.012-3.229-18.665-.583-2.007-1.131-4.107-1.693-6.263a105.648 105.648 0 0 0 -4.756-15.102 96.93 96.93 0 0 0 -7.684-13.509c-1.211-1.89-2.411-3.762-3.543-5.636-4.065-6.732-7.905-13.091-12.116-16.829a20.618 20.618 0 0 0 -17.47-4.387c-3.426.82-8.02 2.922-8.353 11.678-.071 1.855.064 8.6 4.782 17.54a103.1 103.1 0 0 0 7.06 10.842c1.694 2.385 3.442 4.853 5.106 7.419 2 3.082 3.783 6.2 5.511 9.208 2.067 3.6 4.019 7.006 6.041 9.838a84.408 84.408 0 0 1 6.222 9.924 29.323 29.323 0 0 0 5.642 7.653" fill="#6165a8"/><g fill="#e7424e"><path d="m143.638 92.909c-.024 3.352-2.316 6.117-4.527 8.3a11.748 11.748 0 0 1 -16.67-.106 11.209 11.209 0 0 1 -3.093-8.363c.023-3.352-.152-7.3 2.059-9.485s6.163-1.991 9.515-1.968 5.6 1.567 7.783 3.779 4.956 4.493 4.933 7.845"/><path d="m130.655 119.283a25.956 25.956 0 0 1 -25.968-26.648v-.721c.011-4.472.031-12.8 6.424-19.1 6.416-6.322 14.808-6.221 19.309-6.194l.6.006a25.175 25.175 0 0 1 18.119 8.145l.647.643c2.781 2.742 8.572 8.449 8.508 17.6-.071 9.939-6.715 16.486-8.9 18.637a25.922 25.922 0 0 1 -18.745 7.634m-1.199-28.955a6.763 6.763 0 0 0 -.474 2.475 8.607 8.607 0 0 0 .37 2.583 9.471 9.471 0 0 0 4.047-3.947 4.339 4.339 0 0 0 -.509-.63 2.852 2.852 0 0 0 -3.434-.481"/></g></svg>