<svg xmlns="http://www.w3.org/2000/svg" width="64" height="64" viewBox="0 0 64 64"><path fill="#72caaf" d="M7,55.65V8.35a2,2,0,0,1,3-1.76L53.74,30.24a2,2,0,0,1,0,3.52L10,57.41A2,2,0,0,1,7,55.65Z"/><rect width="5" height="52" x="7" y="6" fill="#97e0bb" rx="2.5" ry="2.5"/><path fill="#8d6c9f" d="M37.86 36.5L17.53 47A1 1 0 0 0 18 48.86a1 1 0 0 0 .46-.11L38.78 38.27a1 1 0 1 0-.92-1.78zM44.5 33.07l-2.9 1.49a1 1 0 0 0 .46 1.89 1 1 0 0 0 .46-.11l2.9-1.49a1 1 0 1 0-.92-1.78z"/><path fill="#8d6c9f" d="M54.18,29.32,10.39,5.67A3,3,0,0,0,6,8.31V55.61a3,3,0,0,0,4.43,2.64L54.18,34.6a3,3,0,0,0,0-5.28Zm-1,3.52L13.94,54.06A.94.94,0,0,0,14,54a1,1,0,0,0-1-1H11a1,1,0,0,0,0,2h1.3L9.44,56.49A1,1,0,0,1,8,55.61V8.31a1,1,0,0,1,.49-.86A1,1,0,0,1,9,7.31a1,1,0,0,1,.47.12L10.57,8A1,1,0,0,0,11,10h2a1,1,0,0,0,.67-.26l39.6,21.38a1,1,0,0,1,0,1.76Z"/><path fill="#8d6c9f" d="M13 23H11a1 1 0 0 0 0 2h2a1 1 0 1 0 0-2zM13 28H11a1 1 0 0 0 0 2h2a1 1 0 1 0 0-2zM13 33H11a1 1 0 0 0 0 2h2a1 1 0 0 0 0-2zM13 38H11a1 1 0 0 0 0 2h2a1 1 0 0 0 0-2zM13 43H11a1 1 0 0 0 0 2h2a1 1 0 0 0 0-2zM13 48H11a1 1 0 0 0 0 2h2a1 1 0 0 0 0-2zM13 13H11a1 1 0 0 0 0 2h2a1 1 0 0 0 0-2zM13 18H11a1 1 0 0 0 0 2h2a1 1 0 1 0 0-2z"/></svg>