<svg xmlns="http://www.w3.org/2000/svg"  viewBox="0 0 100 100" width="100px" height="100px"><path d="M31.459,93c-3.584,0-6.5-2.916-6.5-6.5V64.958h-3.418c-3.584,0-6.5-2.916-6.5-6.5V45.5c0-3.584,2.916-6.5,6.5-6.5h3.418 V17.5c0-3.584,2.916-6.5,6.5-6.5h51c3.584,0,6.5,2.916,6.5,6.5v69c0,3.584-2.916,6.5-6.5,6.5H31.459z" opacity=".35"/><path fill="#f2f2f2" d="M29.459,91c-3.584,0-6.5-2.916-6.5-6.5V62.958h-3.418c-3.584,0-6.5-2.916-6.5-6.5V43.5 c0-3.584,2.916-6.5,6.5-6.5h3.418V15.5c0-3.584,2.916-6.5,6.5-6.5h51c3.584,0,6.5,2.916,6.5,6.5v69c0,3.584-2.916,6.5-6.5,6.5 H29.459z"/><path fill="#bbdefb" d="M80.459,15.5v69h-51v-69H80.459z"/><polygon fill="#3f51b5" points="56.895,50.043 42,39.703 42,45 20,45 20,55 42,55 42,60.383"/><path fill="#40396e" d="M80.459,86h-51c-0.828,0-1.5-0.671-1.5-1.5V57.958h-8.418c-0.828,0-1.5-0.671-1.5-1.5V43.5 c0-0.829,0.672-1.5,1.5-1.5h8.418V15.5c0-0.829,0.672-1.5,1.5-1.5h51c0.828,0,1.5,0.671,1.5,1.5v69 C81.959,85.329,81.287,86,80.459,86z M30.959,83h48V17h-48v26.5c0,0.829-0.672,1.5-1.5,1.5h-8.418v9.958h8.418 c0.828,0,1.5,0.671,1.5,1.5V83z"/></svg>