<svg xmlns="http://www.w3.org/2000/svg"  viewBox="0 0 100 100" width="100px" height="100px"><path d="M25.505,94.41c-3.968,0-13.258,0-15.144-9.041c-1.341-6.423,3.457-11.629,6.96-15.431c0.302-0.327,0.687-0.745,1.082-1.187 c-3.466-1.287-9.651-3.688-10.796-10.555c-1.184-7.104,7.285-18.347,12.439-24.416c8.658-10.197,19.019-18.906,28.426-23.896 c0.939-0.497,1.99-0.758,3.045-0.758c2.41,0,4.61,1.322,5.741,3.45c1.679,3.171,0.47,7.111-2.69,8.79 c-17.164,9.103-31.546,28.242-33.82,34.309c0.775,0.367,1.887,0.78,2.343,0.949c3.156,1.171,7.927,2.941,9.594,7.946 c0.198,0.596,0.331,1.179,0.406,1.75L75.05,24.236c1.731-1.736,4.035-2.691,6.486-2.691c2.453,0,4.757,0.956,6.486,2.692 l6.817,6.832c3.56,3.581,3.558,9.389,0.004,12.955L50.27,88.729c-0.509,0.509-1.087,0.923-1.724,1.237 c-0.372,0.19-0.83,0.361-1.302,0.479c-4.325,1.092-8.698,2.065-12.99,3.279C31.454,94.516,28.393,94.41,25.505,94.41z M20.46,56.695L20.46,56.695z" opacity=".35"/><path fill="#f2f2f2" d="M23.505,92.41c-3.968,0-13.258,0-15.144-9.041c-1.341-6.423,3.457-11.629,6.96-15.431 c0.302-0.327,0.687-0.745,1.082-1.187c-3.466-1.287-9.651-3.688-10.796-10.555c-1.184-7.104,7.285-18.347,12.439-24.416 c8.658-10.197,19.019-18.906,28.426-23.896c0.939-0.497,1.99-0.758,3.045-0.758c2.41,0,4.61,1.322,5.741,3.45 c1.679,3.171,0.47,7.111-2.69,8.79c-17.164,9.103-31.546,28.242-33.82,34.309c0.775,0.367,1.887,0.78,2.343,0.949 c3.156,1.171,7.927,2.941,9.594,7.946c0.198,0.596,0.331,1.179,0.406,1.75L73.05,22.236c1.731-1.736,4.035-2.691,6.486-2.691 c2.453,0,4.757,0.956,6.486,2.692l6.817,6.832c3.56,3.581,3.558,9.389,0.004,12.955L48.27,86.729 c-0.509,0.509-1.087,0.923-1.724,1.237c-0.372,0.19-0.83,0.361-1.302,0.479c-4.325,1.092-8.698,2.065-12.99,3.279 C29.454,92.516,26.393,92.41,23.505,92.41z M18.46,54.695L18.46,54.695z"/><path fill="#40396e" d="M23.505,87.41c-5.936,0-9.392-0.95-10.249-5.062c-0.815-3.906,2.67-7.688,5.744-11.023 c2.019-2.191,4.53-4.918,4.096-6.223c-0.456-1.369-2.561-2.149-4.788-2.977c-3.155-1.171-7.081-2.628-7.769-6.751 c-1.212-7.273,18.638-32.656,38.276-43.072c0.733-0.388,1.64-0.109,2.028,0.622c0.388,0.732,0.109,1.64-0.622,2.028 C30.188,25.578,12.669,49.906,13.498,54.881c0.374,2.242,2.561,3.211,5.854,4.433c2.792,1.036,5.68,2.108,6.59,4.84 c0.995,2.985-1.788,6.006-4.735,9.204c-2.584,2.805-5.513,5.983-5.013,8.378c0.486,2.334,2.476,3.021,13.25,2.478 c0.828-0.022,1.531,0.596,1.573,1.423s-0.596,1.532-1.423,1.573C27.338,87.322,25.307,87.41,23.505,87.41z"/><path fill="#f9b84f" d="M80.034,45.657L43.964,81.841L33.38,71.233L69.45,35.049L80.034,45.657z"/><path fill="#f4665c" d="M88.239,33.661l-6.822-6.836c-1.037-1.041-2.726-1.041-3.765,0l-4.961,4.972l10.583,10.608 l4.965-4.968C89.278,36.393,89.278,34.706,88.239,33.661"/><path fill="#9aa2e6" d="M69.143,35.348l3.538-3.554l10.59,10.608l-3.538,3.554L69.143,35.348z"/><path fill="#fedeb3" d="M30.093,85.711l14.146-3.57L33.652,71.534L30.093,85.711z"/><path fill="#40396e" d="M29.519,87.211c-0.393,0-0.775-0.154-1.06-0.438c-0.374-0.373-0.523-0.915-0.396-1.427l3.56-14.177 c0.067-0.268,0.206-0.508,0.396-0.697l0,0l44.571-44.705c0.786-0.788,1.832-1.222,2.945-1.222c0,0,0,0,0.001,0 c1.113,0,2.158,0.434,2.943,1.222l6.82,6.835c0.001,0.001,0.002,0.001,0.002,0.002c1.616,1.626,1.616,4.269-0.001,5.892 L44.729,83.199c-0.116,0.116-0.25,0.212-0.395,0.283c-0.096,0.049-0.197,0.087-0.303,0.113l-14.146,3.569 C29.764,87.196,29.641,87.211,29.519,87.211z M34.433,72.301l-2.849,11.342l11.311-2.854l44.282-44.412 c0.454-0.455,0.454-1.199,0-1.657l-6.82-6.835c-0.219-0.22-0.51-0.34-0.82-0.34l0,0c-0.311,0-0.603,0.12-0.82,0.34L34.433,72.301z"/><path fill="#40396e" d="M31.321,78.542l-1.803,7.169l7.15-1.807L31.321,78.542z"/></svg>