<svg xmlns="http://www.w3.org/2000/svg" width="64" height="64" viewBox="0 0 64 64"><path fill="#72caaf" d="M47,53.77V59c0,1.1-0.9,2-2,2H19c-1.1,0-2-0.9-2-2v-5.23c0-1.01,0.75-1.86,1.75-1.99L25,51V31 l-6.25-0.78c-1-0.13-1.75-0.98-1.75-1.99V23c0-1.1,0.9-2,2-2h18c1.1,0,2,0.9,2,2v28l6.25,0.78C46.25,51.91,47,52.76,47,53.77z"/><path fill="#5dbc9d" d="M31 3A7 7 0 1 0 31 17 7 7 0 1 0 31 3zM47 59c0 1.1-.9 2-2 2H19c-1.1 0-2-.9-2-2 0-1.66 1.34-3 3-3h24C45.66 56 47 57.34 47 59z"/><path fill="#72caaf" d="M38,10H24c0-3.87,3.13-7,7-7S38,6.13,38,10z"/><path fill="#8d6c9f" d="M45.372,50.789L40,50.117V23c0-1.654-1.346-3-3-3H19c-1.654,0-3,1.346-3,3v5.234 c0,1.51,1.13,2.79,2.628,2.977L24,31.883v18.234l-5.372,0.672C17.13,50.976,16,52.256,16,53.766V59c0,1.654,1.346,3,3,3h26 c1.654,0,3-1.346,3-3v-5.234C48,52.256,46.87,50.976,45.372,50.789z M46,59c0,0.551-0.449,1-1,1H19c-0.551,0-1-0.449-1-1v-5.234 c0-0.503,0.376-0.93,0.876-0.992l6.248-0.781C25.625,51.93,26,51.504,26,51V31c0-0.504-0.375-0.93-0.876-0.992l-6.248-0.781 C18.376,29.164,18,28.738,18,28.234V23c0-0.551,0.449-1,1-1h18c0.551,0,1,0.449,1,1v28c0,0.504,0.375,0.93,0.876,0.992 l6.248,0.781c0.5,0.062,0.876,0.489,0.876,0.992V59z"/><path fill="#8d6c9f" d="M27 54c-.552 0-1 .448-1 1v2c0 .552.448 1 1 1s1-.448 1-1v-2C28 54.448 27.552 54 27 54zM32 54c-.552 0-1 .448-1 1v2c0 .552.448 1 1 1s1-.448 1-1v-2C33 54.448 32.552 54 32 54zM37 54c-.552 0-1 .448-1 1v2c0 .552.448 1 1 1s1-.448 1-1v-2C38 54.448 37.552 54 37 54zM42 54c-.552 0-1 .448-1 1v2c0 .552.448 1 1 1s1-.448 1-1v-2C43 54.448 42.552 54 42 54zM22 54c-.552 0-1 .448-1 1v2c0 .552.448 1 1 1s1-.448 1-1v-2C23 54.448 22.552 54 22 54zM31 18c4.411 0 8-3.589 8-8s-3.589-8-8-8-8 3.589-8 8S26.589 18 31 18zM31 4c3.309 0 6 2.691 6 6s-2.691 6-6 6-6-2.691-6-6S27.691 4 31 4z"/></svg>