<svg xmlns="http://www.w3.org/2000/svg" width="64" height="64" viewBox="0 0 64 64"><path fill="#acb7d0" d="M56.833,45H11V11.5c0-1.381,1.119-2.5,2.5-2.5h43.083C57.918,9,59,10.082,59,11.417v31.417 C59,44.03,58.03,45,56.833,45z"/><path fill="#becde8" d="M52,51H24c0,0-5,9-10,8c0.609-2.62,0.834-5.315,0.67-8H8c-1.657,0-3-1.343-3-3V18 c0-1.657,1.343-3,3-3h44c1.657,0,3,1.343,3,3v30C55,49.657,53.657,51,52,51z"/><path fill="#ced9ed" d="M38 51L55.56 33.44 55 20 24 51zM15 52L13 51 49 15 53.5 15 54.38 16.19 14.24 56.32zM40 15L5.45 49.55C5.99 50.444 6.956 50.994 8 51l36-36H40z"/><path fill="#b5c4e0" d="M5,50L5,50c0,0.552,0.448,1,1,1h8.67c0.164,2.685-0.061,5.38-0.67,8c5,1,10-8,10-8h30 c0.552,0,1-0.448,1-1l0,0c0-2.209-1.791-4-4-4H9C6.791,46,5,47.791,5,50z"/><path fill="#8d6c9f" d="M10 44c-.552 0-1 .448-1 1v2c0 .552.448 1 1 1 .552 0 1-.448 1-1v-2C11 44.448 10.552 44 10 44zM15 44c-.552 0-1 .448-1 1v2c0 .552.448 1 1 1s1-.448 1-1v-2C16 44.448 15.552 44 15 44zM20 44c-.552 0-1 .448-1 1v2c0 .552.448 1 1 1s1-.448 1-1v-2C21 44.448 20.552 44 20 44zM25 44c-.552 0-1 .448-1 1v2c0 .552.448 1 1 1s1-.448 1-1v-2C26 44.448 25.552 44 25 44zM30 44c-.552 0-1 .448-1 1v2c0 .552.448 1 1 1s1-.448 1-1v-2C31 44.448 30.552 44 30 44zM35 44c-.552 0-1 .448-1 1v2c0 .552.448 1 1 1s1-.448 1-1v-2C36 44.448 35.552 44 35 44zM40 44c-.552 0-1 .448-1 1v2c0 .552.448 1 1 1s1-.448 1-1v-2C41 44.448 40.552 44 40 44zM45 44c-.552 0-1 .448-1 1v2c0 .552.448 1 1 1s1-.448 1-1v-2C46 44.448 45.552 44 45 44zM50 44c-.552 0-1 .448-1 1v2c0 .552.448 1 1 1s1-.448 1-1v-2C51 44.448 50.552 44 50 44zM41 28h-4c-.552 0-1 .448-1 1s.448 1 1 1h4c.552 0 1-.448 1-1S41.552 28 41 28zM15 30h18c.552 0 1-.448 1-1s-.448-1-1-1H15c-.552 0-1 .448-1 1S14.448 30 15 30zM37 34H15c-.552 0-1 .448-1 1s.448 1 1 1h22c.552 0 1-.448 1-1S37.552 34 37 34z"/><path fill="#e2e9f7" d="M42.5 35L43.74 37.26 46 38.5 43.74 39.74 42.5 42 41.26 39.74 39 38.5 41.26 37.26zM33.42 19L34.27 20.56 35.84 21.42 34.27 22.27 33.42 23.84 32.56 22.27 31 21.42 32.56 20.56zM13.65 39L14.23 40.06 15.3 40.65 14.23 41.23 13.65 42.3 13.06 41.23 12 40.65 13.06 40.06z"/><path fill="#8d6c9f" d="M32,52h2h19c1.657,0,3-1.343,3-3V34v-2v-4V17c0-1.657-1.343-3-3-3H7c-1.657,0-3,1.343-3,3v32 c0,1.657,1.343,3,3,3h7.14c-0.001,2.315-0.698,4.576-2,6.49c-0.282,0.475-0.125,1.089,0.35,1.37C12.645,59.952,12.821,60,13,60 h0.22c7.72-1.72,10.6-6.24,11.44-8H30H32z M24,50c-0.43-0.001-0.813,0.273-0.95,0.68c0,0-1.58,4.52-8.05,6.74 c1.83-4.1,1-6.61,1-6.74c-0.143-0.425-0.552-0.703-1-0.68H7c-0.552,0-1-0.448-1-1V17c0-0.552,0.448-1,1-1h46c0.552,0,1,0.448,1,1 v32c0,0.552-0.448,1-1,1H24z"/><path fill="#8d6c9f" d="M57,8H13c-1.657,0-3,1.343-3,3v3.665c0.647-0.114,1.327-0.067,2-0.007V11c0-0.552,0.448-1,1-1h44 c0.552,0,1,0.448,1,1v32c0,0.552-0.448,1-1,1h-1.903c0.013,0.061,0.02,0.125,0.01,0.195c-0.088,0.596-0.065,1.202-0.051,1.805H57 c1.657,0,3-1.343,3-3V11C60,9.343,58.657,8,57,8z"/></svg>