<svg xmlns="http://www.w3.org/2000/svg" width="64" height="64" viewBox="0 0 64 64"><path fill="#c2cde7" d="M59.6,14.88l-6.24,6.24a2,2,0,0,1-1.93.52l-1.1-.29a8,8,0,0,1-5.65-5.66l-.3-1.1a2,2,0,0,1,.52-1.93l6.25-6.25C46.67,5,40.16,7.46,36.6,11s-3.19,7.21-1.79,11.69L17.5,40A10,10,0,1,0,26,48.5L43.3,31.18c4.47,1.41,8.14,1.76,11.68-1.78S61,19.35,59.6,14.88ZM19.37,53.18l-4.46,1.2-3.26-3.27,1.19-4.46,4.46-1.2,3.27,3.27Z"/><path fill="#d6dff2" d="M59.6,14.88l-6.24,6.24a2,2,0,0,1-1.93.52l-1.1-.29a8,8,0,0,1-5.65-5.66l-.3-1.1a2,2,0,0,1,.52-1.93l6.25-6.25C46.67,5,36.6,11,36.6,11s-2.44,2.36-2.07,3.44l17,17a7.77,7.77,0,0,0,3.41-2S62.13,21.81,59.6,14.88Z"/><path fill="#8d6c9f" d="M60.55,14.58a1,1,0,0,0-1.66-.41l-6.24,6.24a1,1,0,0,1-1,.26l-1.09-.29a7,7,0,0,1-4.95-5l-.29-1.09a1,1,0,0,1,.26-1l6.25-6.25a1,1,0,0,0-.4-1.66C46.37,3.84,39.55,6.65,35.89,10.3s-3.58,7.5-2.21,12.11L17.13,39A10.88,10.88,0,0,0,7.29,43.3a11,11,0,0,0,8.18,17.58l.62,0a11,11,0,0,0,7.78-3.22A10.9,10.9,0,0,0,27,48.86L43.58,32.31c4.61,1.37,8.46,1.44,12.11-2.21S62.15,19.66,60.55,14.58ZM54.28,28.69C51.16,31.8,48,31.61,43.6,30.23a1,1,0,0,0-1,.25L25.28,47.79a1,1,0,0,0-.28.85A9,9,0,0,1,9,55.48a9.05,9.05,0,0,1-.14-11,8.93,8.93,0,0,1,7.17-3.6,9.39,9.39,0,0,1,1.31.09,1,1,0,0,0,.85-.28L35.52,23.4a1,1,0,0,0,.25-1c-1.38-4.4-1.58-7.56,1.54-10.68C40.06,9,45.12,6.7,49.12,7L44.2,12a3,3,0,0,0-.78,2.9l.29,1.09a9,9,0,0,0,6.36,6.36l1.09.29a3,3,0,0,0,2.9-.78L59,16.92C59.28,20.92,57,25.94,54.28,28.69Z"/><path fill="#8d6c9f" d="M18 44.75a1 1 0 0 0-1-.26l-4.46 1.2a1 1 0 0 0-.71.71l-1.2 4.46a1 1 0 0 0 .26 1l3.27 3.27a1 1 0 0 0 .71.29 1 1 0 0 0 .26 0l4.46-1.2a1 1 0 0 0 .71-.71L21.53 49a1 1 0 0 0-.26-1zm.55 7.62l-3.35.9-2.45-2.45.9-3.35 3.35-.9L19.45 49zM40.14 18.79a1 1 0 0 0-1.41 1.41l7.07 7.07a1 1 0 0 0 1.41-1.41zM37.31 27.27a1 1 0 0 0-1.41 1.41l1.41 1.41a1 1 0 0 0 1.41-1.41zM33.77 30.81a1 1 0 1 0-1.41 1.41l1.41 1.41a1 1 0 0 0 1.41-1.41zM30.24 34.35a1 1 0 0 0-1.41 1.41l1.41 1.41a1 1 0 0 0 1.41-1.41zM26.7 37.88a1 1 0 0 0-1.41 1.41l1.42 1.41a1 1 0 0 0 1.41-1.41zM23.17 41.42a1 1 0 0 0-1.41 1.41l1.41 1.42a1 1 0 0 0 1.41-1.41z"/></svg>