<svg xmlns="http://www.w3.org/2000/svg"  viewBox="0 0 64 64" width="64px" height="64px"><rect width="50" height="50" x="3" y="9" fill="#cce7fc" rx="2" ry="2"/><path fill="#bbdef9" d="M7,34H49a4,4,0,0,1,4,4V56a3,3,0,0,1-3,3H6a3,3,0,0,1-3-3V38A4,4,0,0,1,7,34Z"/><rect width="38" height="38" x="9" y="15" fill="#faefde" rx="2" ry="2"/><path fill="#f9e3ae" d="M30.24 14.81H44.379999999999995V42.56H30.24z" transform="rotate(45 37.309 28.684)"/><path fill="#f6d397" d="M34.46 17.27H43.65V43.599999999999994H34.46z" transform="rotate(45 39.053 30.436)"/><path fill="#ed7899" d="M52.22,5.88h8.1a3,3,0,0,1,3,3v4.77a0,0,0,0,1,0,0H49.22a0,0,0,0,1,0,0V8.88a3,3,0,0,1,3-3Z" transform="rotate(45 56.268 9.757)"/><path fill="#c2cde7" d="M42.74 11.51H56.88V20.869999999999997H42.74z" transform="rotate(45 49.813 16.193)"/><path fill="#faefde" d="M21 42.64L21.79 34 27.29 34.79 28.07 37.14 30.36 38.32 32 44.21 22.57 44.21 21 42.64z"/><path fill="#8d6c9f" d="M64,11.66a4,4,0,0,0-1.17-2.83L57.17,3.17a4.09,4.09,0,0,0-5.66,0L48.74,5.95h0l-.46.46-.3.3h0L46.62,8.07A1,1,0,0,0,46.29,8H5a3,3,0,0,0-3,3V57a3,3,0,0,0,3,3H51a3,3,0,0,0,3-3V23.33L59.29,18h0l3.53-3.53A4,4,0,0,0,64,11.66Zm-8.24,7.08a1,1,0,0,0-1.39,0L53,20.16a1,1,0,0,0,0,1.39L51.52,23,43,14.49l5.65-5.66,8.48,8.48Zm-30,25.11-3.56-3.56.57-4.86,4.46.47v1.93a1,1,0,0,0,1,1h1.93l.47,4.51Zm6.74-1.76L32,37.72a1,1,0,0,0-1-.9H29.18V35.41L34.54,30a1,1,0,0,0-1.41-1.41l-5.32,5.32L24,33.55l17.6-17.64,8.48,8.48ZM52,57a1,1,0,0,1-1,1H5a1,1,0,0,1-1-1V11a1,1,0,0,1,1-1H44.69L41,13.75l0,0,0,0L21.14,33.61a1,1,0,0,0-.29.59l-.73,6.31h0l-.71,4.95a1,1,0,0,0,1,1.14h.14l4.92-.7,6.39-.68a1,1,0,0,0,.6-.29L52,25.33Zm9.41-43.93L58.59,15.9,50.1,7.41l.05-.05,2.78-2.78a2,2,0,0,1,2.83,0l5.66,5.66a2,2,0,0,1,0,2.83Z"/><path fill="#8d6c9f" d="M47.29 11.68l-1.41 1.41a1 1 0 1 0 1.41 1.41l1.41-1.41a1 1 0 0 0-1.41-1.41zM50.83 15.21l-1.41 1.41A1 1 0 1 0 50.83 18l1.41-1.41a1 1 0 0 0-1.41-1.41zM40.2 23a1 1 0 0 0-1.41 0L36 25.8a1 1 0 1 0 1.41 1.41l2.83-2.83A1 1 0 0 0 40.2 23zM43 54h3a2 2 0 0 0 2-2V35.08a1 1 0 0 0-2 0V52H43a1 1 0 0 0 0 2zM13 52H10V16H35.33a1 1 0 0 0 0-2H10a2 2 0 0 0-2 2V52a2 2 0 0 0 2 2h3a1 1 0 0 0 0-2zM23 50a1 1 0 0 0-1 1v2a1 1 0 0 0 2 0V51A1 1 0 0 0 23 50zM28 50a1 1 0 0 0-1 1v2a1 1 0 0 0 2 0V51A1 1 0 0 0 28 50zM32 51v2a1 1 0 0 0 2 0V51a1 1 0 0 0-2 0zM38 54a1 1 0 0 0 1-1V51a1 1 0 0 0-2 0v2A1 1 0 0 0 38 54zM18 50a1 1 0 0 0-1 1v2a1 1 0 0 0 2 0V51A1 1 0 0 0 18 50z"/></svg>