<svg xmlns="http://www.w3.org/2000/svg"  viewBox="0 0 100 100" width="100px" height="100px"><path d="M14.796,88.024c-3.518-0.146-6.254-3.033-6.212-6.57c0.007-0.483,1.112-46.205,44.299-50.412v-8.575 c0-2.494,1.455-4.798,3.708-5.87c0.869-0.413,1.833-0.63,2.792-0.63c1.485,0,2.939,0.515,4.094,1.451l29.539,24 c1.525,1.238,2.4,3.077,2.4,5.044s-0.875,3.806-2.402,5.045L63.482,75.502c-1.167,0.942-2.619,1.455-4.102,1.455l0,0 c-0.961,0-1.927-0.218-2.794-0.631c-2.249-1.07-3.704-3.374-3.704-5.868v-8.04c-29.533,2.148-31.254,18.83-31.314,19.577 c-0.243,3.383-3.091,6.035-6.483,6.035L14.796,88.024z" opacity=".35"/><path fill="#f2f2f2" d="M12.796,86.024c-3.518-0.146-6.254-3.033-6.212-6.57c0.007-0.483,1.112-46.205,44.299-50.412v-8.575 c0-2.494,1.455-4.798,3.708-5.87c0.869-0.413,1.833-0.63,2.792-0.63c1.485,0,2.939,0.515,4.094,1.451l29.539,24 c1.525,1.238,2.4,3.077,2.4,5.044s-0.875,3.806-2.402,5.045L61.482,73.502c-1.167,0.942-2.619,1.455-4.102,1.455l0,0 c-0.961,0-1.927-0.218-2.794-0.631c-2.249-1.07-3.704-3.374-3.704-5.868v-8.04c-29.533,2.148-31.254,18.83-31.314,19.577 c-0.243,3.383-3.091,6.035-6.483,6.035L12.796,86.024z"/><path fill="#70bfff" d="M86.916,44.463L57.383,68.458V53.692c-42.638,0-44.299,25.841-44.299,25.841 s0.554-44.299,44.299-44.299V20.468L86.916,44.463z"/><path fill="#40396e" d="M13.085,81.03c-0.021,0-0.042,0-0.063-0.001c-0.811-0.034-1.447-0.704-1.438-1.515 c0.006-0.453,1.063-44.762,44.299-45.763V20.467c0-0.579,0.333-1.106,0.855-1.354s1.141-0.174,1.591,0.19l29.533,23.996 c0.351,0.285,0.554,0.712,0.554,1.164s-0.203,0.879-0.554,1.164L58.329,69.622c-0.451,0.364-1.069,0.438-1.591,0.19 c-0.522-0.249-0.855-0.776-0.855-1.354V55.202c-39.153,0.57-41.232,23.446-41.302,24.432C14.524,80.422,13.868,81.03,13.085,81.03z M58.883,23.619v11.615c0,0.829-0.672,1.5-1.5,1.5c-17.491,0-29.997,7.145-37.17,21.236c-1.719,3.376-2.913,6.772-3.743,9.838 c5.441-7.407,16.892-15.617,40.913-15.617c0.828,0,1.5,0.671,1.5,1.5v11.615l25.654-20.844L58.883,23.619z"/></svg>