<svg xmlns="http://www.w3.org/2000/svg"  viewBox="0 0 100 100" width="100px" height="100px"><path d="M89.5,37H67V14.5c0-3.59-2.91-6.5-6.5-6.5h-17c-1.724,0-3.378,0.685-4.597,1.905	C37.684,11.124,37,12.778,37,14.502V37H14.5C10.91,37,8,39.91,8,43.5v17c0,3.59,2.91,6.5,6.5,6.5H37v22.5c0,3.59,2.91,6.5,6.5,6.5	h17c3.59,0,6.5-2.91,6.5-6.5V67h22.5c3.59,0,6.5-2.91,6.5-6.5v-17C96,39.91,93.09,37,89.5,37z" opacity=".35"/><path fill="#f2f2f2" d="M87.5,35H65V12.5C65,8.91,62.09,6,58.5,6h-17c-1.724,0-3.378,0.685-4.597,1.905	C35.684,9.124,35,10.778,35,12.502V35H12.5C8.91,35,6,37.91,6,41.5v17c0,3.59,2.91,6.5,6.5,6.5H35v22.5c0,3.59,2.91,6.5,6.5,6.5h17	c3.59,0,6.5-2.91,6.5-6.5V65h22.5c3.59,0,6.5-2.91,6.5-6.5v-17C94,37.91,91.09,35,87.5,35z"/><polygon fill="#9aa2e6" points="58.5,41.5 58.5,12.5 41.5,12.5 41.5,41.5 12.5,41.5 12.5,58.5 41.5,58.5 41.5,87.5 58.5,87.5 58.5,58.5 87.5,58.5 87.5,41.5"/><path fill="#40396e" d="M58.5,89h-17c-0.829,0-1.5-0.671-1.5-1.5V60H12.5c-0.829,0-1.5-0.671-1.5-1.5v-17	c0-0.829,0.671-1.5,1.5-1.5H40V12.5c0-0.829,0.671-1.5,1.5-1.5h17c0.829,0,1.5,0.671,1.5,1.5V40h27.5c0.829,0,1.5,0.671,1.5,1.5v17	c0,0.829-0.671,1.5-1.5,1.5H60v27.5C60,88.329,59.329,89,58.5,89z M43,86h14V58.5c0-0.829,0.671-1.5,1.5-1.5H86V43H58.5	c-0.829,0-1.5-0.671-1.5-1.5V14H43v27.5c0,0.829-0.671,1.5-1.5,1.5H14v14h27.5c0.829,0,1.5,0.671,1.5,1.5V86z"/></svg>