<svg xmlns="http://www.w3.org/2000/svg"  viewBox="0 0 100 100" width="100px" height="100px"><path d="M52,96C27.738,96,8,76.262,8,52S27.738,8,52,8s44,19.738,44,44S76.262,96,52,96z" opacity=".35"/><path fill="#f2f2f2" d="M50,94C25.738,94,6,74.262,6,50S25.738,6,50,6s44,19.738,44,44S74.262,94,50,94z"/><path fill="#70bfff" d="M50,87.5c-20.625,0-37.5-16.875-37.5-37.5S29.375,12.5,50,12.5S87.5,29.375,87.5,50 S70.625,87.5,50,87.5z M50,18.787c-17.167,0-31.213,14.046-31.213,31.213S32.833,81.213,50,81.213S81.213,67.167,81.213,50 S67.167,18.787,50,18.787z"/><path fill="#40396e" d="M50,89c-21.505,0-39-17.495-39-39s17.495-39,39-39s39,17.495,39,39S71.505,89,50,89z M50,14 c-19.851,0-36,16.149-36,36s16.149,36,36,36s36-16.149,36-36S69.851,14,50,14z M50,82.713c-18.038,0-32.713-14.675-32.713-32.713 S31.962,17.287,50,17.287S82.713,31.962,82.713,50S68.038,82.713,50,82.713z M50,20.287c-16.384,0-29.713,13.329-29.713,29.713 S33.616,79.713,50,79.713S79.713,66.384,79.713,50S66.384,20.287,50,20.287z"/></svg>