<svg xmlns="http://www.w3.org/2000/svg"  viewBox="0 0 100 100" width="100px" height="100px"><path d="M60.875,94.897c-1.698,0-3.345-0.508-4.761-1.468L37.583,80.877l-9.54-1.538	c-2.772-0.446-4.936-2.609-5.382-5.384l-1.538-9.538L8.568,45.885c-1.511-2.228-1.878-4.97-1.005-7.52	c0.872-2.549,2.841-4.49,5.401-5.327l67.268-21.991c0.854-0.28,1.747-0.423,2.648-0.423c2.263,0,4.395,0.884,6.001,2.49	c2.279,2.278,3.071,5.594,2.07,8.654l-21.99,67.267c-0.837,2.561-2.778,4.529-5.327,5.401C62.74,94.742,61.812,94.897,60.875,94.897	z" opacity=".35"/><path fill="#f2f2f2" d="M58.875,92.897c-1.698,0-3.345-0.508-4.761-1.468L35.583,78.877l-9.54-1.538	c-2.772-0.446-4.936-2.609-5.382-5.384l-1.538-9.538L6.568,43.885c-1.511-2.228-1.878-4.97-1.005-7.52	c0.872-2.549,2.841-4.49,5.401-5.327L78.232,9.047c0.854-0.28,1.747-0.423,2.648-0.423c2.263,0,4.395,0.884,6.001,2.49	c2.279,2.278,3.071,5.594,2.07,8.654l-21.99,67.267c-0.837,2.561-2.778,4.529-5.327,5.401C60.74,92.742,59.812,92.897,58.875,92.897	z"/><path fill="#d9eeff" d="M80.252,15.225L12.984,37.217c-1.264,0.413-1.78,1.922-1.034,3.023l13.36,19.723l1.768,10.96	l10.96,1.768l19.723,13.36c1.101,0.746,2.609,0.23,3.023-1.034l21.992-67.268C83.284,16.191,81.809,14.716,80.252,15.225z"/><polygon fill="#70bfff" points="25.31,59.962 67.292,30.878 38.038,72.69 27.078,70.922"/><path fill="#40396e" d="M58.875,87.897c-0.688,0-1.365-0.206-1.956-0.606L37.472,74.117l-10.633-1.715	c-0.638-0.103-1.139-0.604-1.241-1.241l-1.715-10.633L10.708,41.08c-0.622-0.917-0.773-2.046-0.414-3.096s1.17-1.849,2.225-2.193	L79.786,13.8l0,0c1.259-0.413,2.624-0.086,3.563,0.852c0.938,0.938,1.264,2.303,0.852,3.563L62.209,85.481	c-0.345,1.055-1.144,1.865-2.193,2.225C59.642,87.834,59.257,87.897,58.875,87.897z M28.387,69.613l9.891,1.596	c0.216,0.034,0.421,0.116,0.602,0.238l19.723,13.36c0.181,0.123,0.356,0.089,0.442,0.06c0.089-0.03,0.246-0.111,0.313-0.317	l21.991-67.268c0.083-0.254-0.04-0.429-0.121-0.51c-0.081-0.08-0.255-0.204-0.51-0.121L13.45,38.643	c-0.206,0.067-0.287,0.225-0.317,0.313c-0.03,0.088-0.063,0.262,0.059,0.441l13.361,19.724c0.122,0.181,0.204,0.386,0.238,0.602	L28.387,69.613z"/></svg>