<svg xmlns="http://www.w3.org/2000/svg"  viewBox="0 0 64 64" width="64px" height="64px"><path fill="#72caaf" d="M48,43a7,7,0,0,0-4.06,1.3L23,32.6c0-.2,0-.4,0-.6s0-.4,0-.6l21-11.7A7,7,0,1,0,41,14a7.08,7.08,0,0,0,0,.71L20.15,26.37a7,7,0,1,0,0,11.26L41,49.29A7.08,7.08,0,0,0,41,50a7,7,0,1,0,7-7Z"/><path fill="#81d6bb" d="M48 7A7 7 0 1 0 48 21 7 7 0 1 0 48 7zM48 43A7 7 0 1 0 48 57 7 7 0 1 0 48 43z"/><path fill="#8d6c9f" d="M48 42a7.94 7.94 0 0 0-4.1 1.13L24 32V32L43.9 20.87l.18.09.56.29.39.17.54.19.43.13c.2.05.4.09.6.12l.39.07A7.93 7.93 0 0 0 48 22a8 8 0 1 0-8-8s0 .1 0 .14L20.2 25.2A7.92 7.92 0 0 0 16 24a8 8 0 0 0 0 16 7.92 7.92 0 0 0 4.2-1.2L40 49.86S40 50 40 50a8 8 0 0 0 .07 1c0 .09 0 .18 0 .27q.06.38.16.75c0 .08 0 .16.06.24a7.93 7.93 0 0 0 .32.9l.11.24c.1.21.21.42.33.63s.06.12.09.18l.06.07A8 8 0 1 0 48 42zm0 14a6 6 0 0 1-5.17-3q-.14-.23-.25-.47l-.09-.18a6 6 0 0 1-.24-.67l0-.19q-.07-.28-.12-.56c0-.07 0-.14 0-.21a5.67 5.67 0 0 1 0-1.36h0a6 6 0 0 1 .44-1.72 1 1 0 1 0-1.84-.78 8 8 0 0 0-.3.86l-19.69-11a1 1 0 0 0-1.08.07A6 6 0 0 1 16 38a6 6 0 0 1 0-12 6 6 0 0 1 3.55 1.17 1 1 0 0 0 1.08.07L41.52 15.58a1 1 0 0 0 .51-1 6.06 6.06 0 1 1 5.14 5.32l-.27 0-.56-.13-.27-.08a5.94 5.94 0 0 1-.67-.27l-.09 0a6.08 6.08 0 0 1-.76-.46 6 6 0 0 1-1.42-1.39 1 1 0 1 0-1.62 1.17 7.94 7.94 0 0 0 .71.84l-19.73 11a1 1 0 0 0-.51 1c0 .17 0 .34 0 .51s0 .34 0 .51a1 1 0 0 0 .51 1l21 11.7a1 1 0 0 0 1.07-.06A6 6 0 1 1 48 56zM16 21a1 1 0 0 0 1-1V18a1 1 0 0 0-2 0v2A1 1 0 0 0 16 21zM9.13 22.11a1 1 0 0 0 1.73-1l-1-1.73a1 1 0 1 0-1.73 1zM6.11 25.13l-1.73-1a1 1 0 1 0-1 1.73l1.73 1a1 1 0 0 0 .5.13 1 1 0 0 0 .5-1.87zM5 32a1 1 0 0 0-1-1H2a1 1 0 0 0 0 2H4A1 1 0 0 0 5 32zM16 43a1 1 0 0 0-1 1v2a1 1 0 0 0 2 0V44A1 1 0 0 0 16 43zM10.5 41.53a1 1 0 0 0-1.37.37l-1 1.73a1 1 0 0 0 1.73 1l1-1.73A1 1 0 0 0 10.5 41.53zM5.11 37.13l-1.73 1a1 1 0 1 0 1 1.73l1.73-1a1 1 0 1 0-1-1.73z"/></svg>