<svg xmlns="http://www.w3.org/2000/svg"  viewBox="0 0 100 100" width="100px" height="100px"><circle cx="52" cy="52" r="44" opacity=".35"/><circle cx="50" cy="50" r="44" fill="#f2f2f2"/><path fill="#f2f2f2" d="M50,91C27.393,91,9,72.607,9,50S27.393,9,50,9s41,18.393,41,41S72.607,91,50,91z"/><circle cx="50.026" cy="50.026" r="38.026" fill="#70bfff"/><g><path fill="#f2f2f2" d="M54.191,59.581h9.355l1.469-9.503H54.189v-5.194c0-3.948,1.29-7.449,4.983-7.449h5.934v-8.293 c-1.043-0.141-3.248-0.449-7.414-0.449c-8.7,0-13.801,4.595-13.801,15.063v6.322h-8.944v9.503h8.944v26.12 c1.771,0.266,3.565,0.447,5.407,0.447c1.665,0,3.29-0.152,4.893-0.369V59.581z"/></g><g><path fill="#40396e" d="M50,89c-21.505,0-39-17.495-39-39s17.495-39,39-39s39,17.495,39,39S71.505,89,50,89z M50,14 c-19.851,0-36,16.149-36,36s16.149,36,36,36s36-16.149,36-36S69.851,14,50,14z"/></g></svg>