<svg xmlns="http://www.w3.org/2000/svg"  viewBox="0 0 100 100" width="100px" height="100px"><path d="M47.5,100c-3.245,0-6.015-2.426-6.443-5.643l-0.684-5.129c-2.237-0.696-4.401-1.592-6.476-2.683 l-4.112,3.145c-1.12,0.86-2.525,1.337-3.946,1.337c-1.736,0-3.368-0.675-4.596-1.903l-6.366-6.365 c-2.295-2.293-2.539-5.968-0.566-8.546l3.143-4.111c-1.091-2.075-1.987-4.238-2.683-6.476l-5.131-0.684 C6.426,62.515,4,59.745,4,56.5v-9c0-3.245,2.426-6.015,5.643-6.443l5.129-0.684c0.696-2.237,1.592-4.401,2.683-6.476l-3.145-4.112 c-1.972-2.577-1.728-6.251,0.569-8.546l6.362-6.362c1.226-1.227,2.859-1.904,4.596-1.904c1.419,0,2.821,0.475,3.948,1.336 l4.113,3.145c2.075-1.09,4.239-1.987,6.476-2.683l0.684-5.131C41.485,6.426,44.255,4,47.5,4h9c3.245,0,6.015,2.426,6.443,5.643 l0.684,5.129c2.237,0.696,4.401,1.592,6.476,2.683l4.112-3.145c1.13-0.863,2.531-1.336,3.948-1.336 c1.737,0,3.37,0.677,4.598,1.906l6.362,6.362c2.295,2.293,2.539,5.968,0.566,8.546l-3.143,4.111 c1.09,2.075,1.987,4.239,2.683,6.476l5.131,0.684C97.574,41.485,100,44.255,100,47.5v9c0,3.245-2.426,6.015-5.643,6.443 l-5.129,0.684c-0.696,2.237-1.592,4.4-2.683,6.476l3.145,4.112c1.972,2.577,1.728,6.251-0.569,8.546l-6.362,6.362 c-1.223,1.227-2.857,1.904-4.597,1.904c-1.42,0-2.824-0.476-3.953-1.341l-4.107-3.141c-2.075,1.09-4.239,1.987-6.476,2.683 l-0.684,5.131C62.515,97.574,59.745,100,56.5,100H47.5z" opacity=".35"/><path fill="#f2f2f2" d="M45.5,98c-3.245,0-6.015-2.426-6.443-5.643l-0.684-5.129c-2.237-0.696-4.401-1.592-6.476-2.683 l-4.112,3.145c-1.12,0.86-2.525,1.337-3.946,1.337c-1.736,0-3.368-0.675-4.596-1.903l-6.366-6.365 c-2.295-2.293-2.539-5.968-0.566-8.546l3.143-4.111c-1.091-2.075-1.987-4.238-2.683-6.476l-5.131-0.684 C4.426,60.515,2,57.745,2,54.5v-9c0-3.245,2.426-6.015,5.643-6.443l5.129-0.684c0.696-2.237,1.592-4.401,2.683-6.476l-3.145-4.112 c-1.972-2.577-1.728-6.251,0.569-8.546l6.362-6.362c1.226-1.227,2.859-1.904,4.596-1.904c1.419,0,2.821,0.475,3.948,1.336 l4.113,3.145c2.075-1.09,4.239-1.987,6.476-2.683l0.684-5.131C39.485,4.426,42.255,2,45.5,2h9c3.245,0,6.015,2.426,6.443,5.643 l0.684,5.129c2.237,0.696,4.401,1.592,6.476,2.683l4.112-3.145c1.13-0.863,2.531-1.336,3.948-1.336 c1.737,0,3.37,0.677,4.598,1.906l6.362,6.362c2.295,2.293,2.539,5.968,0.566,8.546l-3.143,4.111 c1.09,2.075,1.987,4.239,2.683,6.476l5.131,0.684C95.574,39.485,98,42.255,98,45.5v9c0,3.245-2.426,6.015-5.643,6.443 l-5.129,0.684c-0.696,2.237-1.592,4.4-2.683,6.476l3.145,4.112c1.972,2.577,1.728,6.251-0.569,8.546l-6.362,6.362 c-1.223,1.227-2.857,1.904-4.597,1.904c-1.42,0-2.824-0.476-3.953-1.341l-4.107-3.141c-2.075,1.09-4.239,1.987-6.476,2.683 l-0.684,5.131C60.515,95.574,57.745,98,54.5,98H45.5z"/><path fill="#9aa2e6" d="M81.979,55.769c-0.839,4.679-2.675,9.009-5.287,12.763l5.835,7.63l-6.364,6.364l-7.63-5.835 c-3.754,2.612-8.085,4.448-12.763,5.287L54.5,91.5h-9l-1.269-9.521c-4.679-0.839-9.009-2.675-12.763-5.287l-7.63,5.835 l-6.364-6.364l5.835-7.63c-2.612-3.754-4.448-8.085-5.287-12.763L8.5,54.5v-9l9.521-1.269c0.839-4.679,2.675-9.009,5.287-12.763 l-5.835-7.63l6.364-6.364l7.63,5.835c3.754-2.612,8.085-4.448,12.763-5.287L45.5,8.5h9l1.269,9.521 c4.679,0.839,9.009,2.675,12.763,5.287l7.63-5.835l6.364,6.364l-5.835,7.63c2.612,3.754,4.448,8.085,5.287,12.763L91.5,45.5v9 L81.979,55.769z M50,35.5c-8.008,0-14.5,6.492-14.5,14.5S41.992,64.5,50,64.5S64.5,58.008,64.5,50S58.008,35.5,50,35.5z"/><path fill="none" stroke="#40396e" stroke-linecap="round" stroke-linejoin="round" stroke-miterlimit="10" stroke-width="3" d="M81.979,55.769c-0.839,4.679-2.675,9.009-5.287,12.763l5.835,7.63l-6.364,6.364l-7.63-5.835c-3.754,2.612-8.085,4.448-12.763,5.287 L54.5,91.5h-9l-1.269-9.521c-4.679-0.839-9.009-2.675-12.763-5.287l-7.63,5.835l-6.364-6.364l5.835-7.63 c-2.612-3.754-4.448-8.085-5.287-12.763L8.5,54.5v-9l9.521-1.269c0.839-4.679,2.675-9.009,5.287-12.763l-5.835-7.63l6.364-6.364 l7.63,5.835c3.754-2.612,8.085-4.448,12.763-5.287L45.5,8.5h9l1.269,9.521c4.679,0.839,9.009,2.675,12.763,5.287l7.63-5.835 l6.364,6.364l-5.835,7.63c2.612,3.754,4.448,8.085,5.287,12.763L91.5,45.5v9L81.979,55.769z M81.979,55.769 c-0.839,4.679-2.675,9.009-5.287,12.763l5.835,7.63l-6.364,6.364l-7.63-5.835c-3.754,2.612-8.085,4.448-12.763,5.287L54.5,91.5h-9 l-1.269-9.521c-4.679-0.839-9.009-2.675-12.763-5.287l-7.63,5.835l-6.364-6.364l5.835-7.63c-2.612-3.754-4.448-8.085-5.287-12.763 L8.5,54.5v-9l9.521-1.269c0.839-4.679,2.675-9.009,5.287-12.763l-5.835-7.63l6.364-6.364l7.63,5.835 c3.754-2.612,8.085-4.448,12.763-5.287L45.5,8.5h9l1.269,9.521c4.679,0.839,9.009,2.675,12.763,5.287l7.63-5.835l6.364,6.364 l-5.835,7.63c2.612,3.754,4.448,8.085,5.287,12.763L91.5,45.5v9L81.979,55.769z M50,35.5c-8.008,0-14.5,6.492-14.5,14.5 S41.992,64.5,50,64.5S64.5,58.008,64.5,50S58.008,35.5,50,35.5z"/><path fill="none" stroke="#40396e" stroke-linecap="round" stroke-linejoin="round" stroke-miterlimit="10" stroke-width="3" d="M50,35.5c-8.008,0-14.5,6.492-14.5,14.5S41.992,64.5,50,64.5S64.5,58.008,64.5,50S58.008,35.5,50,35.5z"/><path fill="none" stroke="#40396e" stroke-miterlimit="10" d="M50,35.5c-8.008,0-14.5,6.492-14.5,14.5S41.992,64.5,50,64.5 S64.5,58.008,64.5,50S58.008,35.5,50,35.5z"/></svg>