<svg xmlns="http://www.w3.org/2000/svg"  viewBox="0 0 100 100" width="100px" height="100px"><path d="M48.061,99.009c-2.974-0.013-5.768-1.177-7.869-3.279s-3.265-4.896-3.277-7.864l-0.012-3.041 c-0.002-0.576,0.041-1.147,0.127-1.711c-1.508-1.392-2.745-2.766-3.52-3.715l-4.362-3.64l-3.213-1.081 c-2.23-0.752-6.861-2.312-8.515-7.085c-0.729-2.106-1.05-5.439,1.56-9.364c0.246-0.371,0.504-0.724,0.771-1.059 C18.049,55.453,17,53.097,17,50.5v-36C17,9.262,21.262,5,26.5,5h43c5.238,0,9.5,4.262,9.5,9.5v35.649 c1.694,1.824,3.364,4.663,3.91,8.976c0.728,5.748-0.985,15.309-4.579,21.862c0.463,1.233,0.708,2.549,0.713,3.889l0.012,3.04 c0.009,2.989-1.147,5.795-3.255,7.904c-2.103,2.102-4.895,3.259-7.864,3.259L48.061,99.009z" opacity=".35"/><path fill="#f2f2f2" d="M46.061,97.009c-2.974-0.013-5.768-1.177-7.869-3.279s-3.265-4.896-3.277-7.864l-0.012-3.041 c-0.002-0.576,0.041-1.147,0.127-1.711c-1.508-1.392-2.745-2.766-3.52-3.715l-4.362-3.64l-3.213-1.081 c-2.23-0.752-6.861-2.312-8.515-7.085c-0.729-2.106-1.05-5.439,1.56-9.364c0.246-0.371,0.504-0.724,0.771-1.059 C16.049,53.453,15,51.097,15,48.5v-36C15,7.262,19.262,3,24.5,3h43c5.238,0,9.5,4.262,9.5,9.5v35.649 c1.694,1.824,3.364,4.663,3.91,8.976c0.728,5.748-0.985,15.309-4.579,21.862c0.463,1.233,0.708,2.549,0.713,3.889l0.012,3.04 c0.009,2.989-1.147,5.795-3.255,7.904c-2.103,2.102-4.895,3.259-7.864,3.259L46.061,97.009z"/><polygon fill="#9aa2e6" points="69.383,53.404 41.468,53.404 40.787,51.319 21.5,50.596 21.5,9.915 69.383,9.915"/><rect width="8" height="7" x="42" y="16" fill="#f2f2f2"/><rect width="8" height="7" x="55" y="16" fill="#f2f2f2"/><rect width="8" height="7" x="29" y="16" fill="#f2f2f2" transform="rotate(-180 33 19.5)"/><rect width="8" height="7" x="42" y="27" fill="#f2f2f2"/><rect width="8" height="7" x="55" y="27" fill="#f2f2f2"/><rect width="8" height="7" x="29" y="27" fill="#f2f2f2" transform="rotate(-180 33 30.5)"/><rect width="8" height="7" x="55" y="38" fill="#f2f2f2"/><rect width="8" height="7" x="29" y="38" fill="#f2f2f2" transform="rotate(-180 33 41.5)"/><path fill="#ffc7a3" d="M65.883,52.883c-1.482-4.447-4.857-5.598-7.822-3.128c-2.761-3.451-6.423-1.976-7.905-0.494 L50,34.024c0-5.79-8-5.109-8-0.024c0.234,6.362,0.252,18.226,0.252,18.226c0,4.941-0.988,6.917-1.976,7.905 c-1.976,1.976-6.423-1.976-10.869-1.976c-3.458,0-5.142,1.236-5.917,2.399c-1.976,2.964,0.482,4.024,3.447,5.012l4.447,1.482 l5.929,4.941c0,0,2.458,5.92,6.885,7.001l-0.001,0.178c-1.93,0-1.909,1.302-1.909,3.231v3.254c0,1.93,1.564,3.493,3.493,3.493 h19.692c1.93,0,3.493-1.564,3.493-3.493v-3.254c0-1.93,0.175-3.612-1.755-3.612l0.001-0.063c4.264-0.967,6.651-14.029,5.837-20.638 C72.303,52.019,67.859,51.401,65.883,52.883z"/><rect width="27" height="10" x="42" y="80" fill="#70bfff"/><path fill="#ffe8d9" d="M44.277,33.962c0.025-1.013,0.878-1.813,1.904-1.787c1.026,0.026,1.837,0.868,1.811,1.881 C47.967,35.069,44.252,34.975,44.277,33.962z"/><circle cx="64.618" cy="84.467" r="1.747" fill="#40396e"/><path fill="#40396e" d="M65.937,92.079c-0.008,0-0.017,0-0.024,0l-19.834-0.07c-1.644-0.007-3.188-0.651-4.352-1.814 c-1.162-1.163-1.806-2.708-1.812-4.35l-0.012-3.04c-0.004-1.187,0.347-2.35,0.978-3.336c-2.787-2.015-5.074-4.669-5.773-5.581 l-5.476-4.569l-4.103-1.38c-1.806-0.608-4.533-1.526-5.384-3.982c-0.522-1.51-0.186-3.178,0.999-4.96 c1.132-1.703,3.023-3.655,7.645-3.655c0.021,0,0.04,0,0.062,0c2.51,0.009,4.784,0.912,6.792,1.709 c0.582,0.231,2.36,0.934,2.831,0.831c0.539-0.29,0.936-2.591,0.894-5.024L24.515,53C22.019,53,20,50.981,20,48.5v-36 c0-2.481,2.019-4.5,4.5-4.5h43c2.481,0,4.5,2.019,4.5,4.5v36c0,0.592-0.114,1.164-0.332,1.693c1.604,0.946,3.709,3.031,4.282,7.56 c0.738,5.836-1.605,16.104-5.452,21.077c0.981,1.109,1.54,2.544,1.546,4.065l0.012,3.04c0.005,1.645-0.632,3.189-1.792,4.351 C69.106,91.443,67.571,92.079,65.937,92.079z M28.786,58.341c-3.326,0-4.399,1.194-5.145,2.316 c-0.963,1.448-0.736,2.103-0.662,2.317c0.34,0.981,1.918,1.586,3.506,2.12l4.369,1.47c0.176,0.06,0.34,0.151,0.482,0.271 l5.827,4.862c0.098,0.081,0.184,0.174,0.258,0.276c0.403,0.562,3.312,4.036,6.482,5.895c0.426,0.25,0.702,0.694,0.737,1.188 c0.035,0.492-0.175,0.972-0.562,1.279c-0.74,0.591-1.181,1.51-1.178,2.459l0.012,3.039c0.003,0.845,0.335,1.641,0.935,2.24 c0.6,0.601,1.396,0.933,2.24,0.936l19.834,0.07c0.005,0,0.009,0,0.013,0c0.834,0,1.617-0.324,2.206-0.913 c0.592-0.593,0.917-1.381,0.914-2.22l-0.012-3.04c-0.004-1.085-0.557-2.085-1.479-2.675c-0.385-0.247-0.637-0.655-0.684-1.11 c-0.047-0.456,0.117-0.907,0.444-1.227l0.111-0.109c3.669-3.669,6.229-14.184,5.537-19.655c-0.486-3.841-2.259-5.143-3.272-5.577 c-0.203-0.087-0.43-0.156-0.69-0.21c-0.575-0.119-1.027-0.563-1.158-1.135c-0.13-0.572,0.085-1.168,0.551-1.525 C68.782,49.393,69,48.962,69,48.5v-36c0-0.827-0.673-1.5-1.5-1.5h-43c-0.827,0-1.5,0.673-1.5,1.5v36c0,0.827,0.673,1.5,1.5,1.5 l16.272-0.157c0.005,0,0.01,0,0.015,0c0.774,0,1.423,0.591,1.494,1.363c0.164,1.803,0.472,7.805-2.477,9.355 c-1.376,0.725-3.126,0.129-5.271-0.724c-1.76-0.698-3.754-1.49-5.695-1.497C28.821,58.341,28.804,58.341,28.786,58.341z"/></svg>