<svg xmlns="http://www.w3.org/2000/svg"  viewBox="0 0 100 100" width="100px" height="100px" baseProfile="basic"><path d="M28.5913086,94.0322266c-1.0322266,0-2.0625-0.25-2.9799805-0.7231445	c-2.171875-1.1210938-3.5200195-3.3344727-3.5200195-5.7768555V16.4677734c0-2.4423828,1.3481445-4.6557617,3.5185547-5.7758789	c0.9179688-0.4741211,1.9492188-0.7246094,2.9819336-0.7246094c1.3588867,0,2.6621094,0.4169922,3.769043,1.2050781	l49.9848633,35.5297852C84.0576172,47.9194336,85.0795898,49.8999023,85.0795898,52s-1.0219727,4.0805664-2.7333984,5.2973633	L32.3574219,92.8300781C31.2475586,93.6176758,29.9467773,94.0322266,28.5913086,94.0322266z" opacity=".35"/><path fill="#F2F2F2" d="M26.5913086,92.0322266c-1.0322266,0-2.0625-0.25-2.9799805-0.7231445	c-2.171875-1.1210938-3.5200195-3.3344727-3.5200195-5.7768555V14.4677734c0-2.4423828,1.3481445-4.6557617,3.5185547-5.7758789	c0.9179688-0.4741211,1.9492188-0.7246094,2.9819336-0.7246094c1.3588867,0,2.6621094,0.4169922,3.769043,1.2050781	l49.9848633,35.5297852C82.0576172,45.9194336,83.0795898,47.8999023,83.0795898,50s-1.0219727,4.0805664-2.7333984,5.2973633	L30.3574219,90.8300781C29.2475586,91.6176758,27.9467773,92.0322266,26.5913086,92.0322266z"/><polygon fill="#70BFFF" points="76.5793686,50 26.5912914,14.4676981 26.5912914,85.5323029"/><path fill="#40396E" d="M26.5913086,87.0322266c-0.2353516,0-0.4711914-0.0551758-0.6879883-0.1669922 c-0.4985352-0.2573242-0.8120117-0.7719727-0.8120117-1.3330078V14.4677734c0-0.5610352,0.3134766-1.0756836,0.8120117-1.3330078 s1.0991211-0.2158203,1.5571289,0.1103516l49.9882812,35.5322266c0.3955078,0.28125,0.6308594,0.7368164,0.6308594,1.2226562 s-0.2353516,0.9414062-0.6308594,1.2226562L27.4604492,86.7548828 C27.2016602,86.9384766,26.8969727,87.0322266,26.5913086,87.0322266z M28.0913086,17.3745117v65.2509766L73.9907227,50 L28.0913086,17.3745117z"/></svg>