<svg xmlns="http://www.w3.org/2000/svg" width="64" height="64" viewBox="0 0 64 64"><path fill="#72caaf" d="M49.83,32l0.12-0.12l-29-29l-4.24,4.24L38.59,29l3.24,3l-3.24,3L16.71,56.88l4.24,4.24l29-29	L49.83,32z"/><path fill="#97e0bb" d="M21.45,3.38L21.45,3.38l28,28l0,0c-1.171,1.17-3.069,1.17-4.24,0L21.45,7.62	C20.28,6.449,20.28,4.551,21.45,3.38z"/><path fill="#8d6c9f" d="M16.24,56.3c-0.388,0.39-0.388,1.02,0,1.41l4,4c0.39,0.388,1.02,0.388,1.41,0l29-29	c0.388-0.39,0.388-1.02,0-1.41l-29-29c-0.39-0.388-1.02-0.388-1.41,0l-4,4c-0.388,0.39-0.388,1.02,0,1.41L40.54,32L16.24,56.3z M18.36,57l24.3-24.3c0.388-0.39,0.388-1.02,0-1.41L18.36,7l2.59-2.59L48.54,32L20.95,59.59L18.36,57z"/><path fill="#8d6c9f" d="M31.04,37.33c0.269,0.002,0.527-0.105,0.716-0.296c0.389-0.392,0.386-1.025-0.006-1.414l-1.39-1.41	c-0.374-0.321-0.927-0.321-1.301,0c-0.419,0.359-0.468,0.991-0.109,1.41l1.38,1.41c0.189,0.187,0.444,0.292,0.71,0.29V37.33z M25.499,37.74c-0.419,0.359-0.468,0.991-0.109,1.41l1.41,1.41c0.034,0.039,0.07,0.076,0.109,0.109	c0.419,0.359,1.051,0.31,1.41-0.109s0.31-1.051-0.109-1.41l-1.41-1.41C26.425,37.419,25.873,37.419,25.499,37.74z M21.959,41.27	c-0.419,0.359-0.468,0.991-0.109,1.41l1.41,1.41c0.034,0.039,0.07,0.076,0.109,0.109c0.419,0.359,1.051,0.31,1.41-0.109	s0.31-1.051-0.109-1.41l-1.41-1.41C22.885,40.949,22.333,40.949,21.959,41.27z M18.429,44.81c-0.419,0.359-0.468,0.991-0.109,1.41	l1.41,1.41c0.034,0.039,0.07,0.076,0.109,0.109c0.419,0.359,1.051,0.31,1.41-0.109s0.31-1.051-0.109-1.41l-1.41-1.41	C19.355,44.489,18.803,44.489,18.429,44.81z M14.889,48.34c-0.419,0.359-0.468,0.991-0.109,1.41l1.41,1.41	c0.034,0.039,0.07,0.076,0.109,0.109c0.419,0.359,1.051,0.31,1.41-0.109s0.31-1.051-0.109-1.41l-1.41-1.41	C15.815,48.019,15.263,48.019,14.889,48.34z M11.359,51.88c-0.419,0.359-0.468,0.991-0.109,1.41l1.41,1.41	c0.034,0.039,0.07,0.076,0.109,0.109c0.419,0.359,1.051,0.31,1.41-0.109s0.31-1.051-0.109-1.41l-1.41-1.41	C12.285,51.559,11.733,51.559,11.359,51.88z M31.66,31.92c0,0.552,0.448,1,1,1h2c0.001,0,0.002,0,0.003,0	c0.552-0.001,0.999-0.449,0.999-1.001s-0.449-0.999-1.001-0.999h-2C32.107,30.92,31.66,31.368,31.66,31.92z M28.922,29.685	c0.352,0.426,0.982,0.486,1.408,0.135l1.41-1.41c0.321-0.374,0.321-0.927,0-1.301C31.38,26.69,30.749,26.641,30.33,27l-1.38,1.38	C28.619,28.748,28.607,29.303,28.922,29.685z M25.39,26.151c0.359,0.419,0.991,0.468,1.41,0.109l1.41-1.41	c0.321-0.374,0.321-0.927,0-1.301c-0.359-0.419-0.991-0.468-1.41-0.109l-1.41,1.41C25.069,25.224,25.069,25.777,25.39,26.151z M21.85,22.611c0.359,0.419,0.991,0.468,1.41,0.109l1.41-1.41c0.321-0.374,0.321-0.927,0-1.301c-0.359-0.419-0.991-0.468-1.41-0.109	l-1.41,1.41C21.529,21.684,21.529,22.237,21.85,22.611z M18.31,19.081c0.359,0.419,0.991,0.468,1.41,0.109l1.41-1.41	c0.321-0.374,0.321-0.927,0-1.301c-0.359-0.419-0.991-0.468-1.41-0.109l-1.41,1.41C17.989,18.154,17.989,18.707,18.31,19.081z M14.78,14.24c-0.321,0.374-0.321,0.927,0,1.301c0.359,0.419,0.991,0.468,1.41,0.109l1.41-1.41c0.321-0.374,0.321-0.927,0-1.301	c-0.359-0.419-0.991-0.468-1.41-0.109L14.78,14.24z M14.07,10.7c0.321-0.374,0.321-0.927,0-1.301	C13.71,8.98,13.079,8.931,12.66,9.29l-1.41,1.42c-0.321,0.374-0.321,0.927,0,1.301c0.359,0.419,0.991,0.468,1.41,0.109L14.07,10.7z"/></svg>