<svg xmlns="http://www.w3.org/2000/svg"  viewBox="0 0 100 100" width="100px" height="100px"><path d="M81.151,15.978C75.425,10.684,67.472,8,57.514,8H31.845C22.688,8,17,13.67,17,22.798V81c0,10.362,7.282,15,14.5,15 S46,91.362,46,81V68h11.514c10.382,0,18.12-2.511,23.657-7.675C87.029,54.863,90,47.397,90,38.134 C90,28.86,87.023,21.406,81.151,15.978z" opacity=".35"/><path fill="#f2f2f2" d="M79.151,13.978C73.425,8.684,65.472,6,55.514,6H29.845C20.688,6,15,11.67,15,20.798V79 c0,10.362,7.282,15,14.5,15S44,89.362,44,79V66h11.514c10.382,0,18.12-2.511,23.657-7.675C85.029,52.863,88,45.397,88,36.134 C88,26.86,85.023,19.406,79.151,13.978z"/><path fill="#70bfff" d="M29.739,87.5c-2.676,0-4.719-0.736-6.127-2.206c-1.409-1.471-2.112-3.536-2.112-6.198V20.798 c0-5.53,2.781-8.298,8.345-8.298h25.669c8.309,0,14.718,2.085,19.226,6.25c4.506,4.167,6.76,9.962,6.76,17.384 c0,7.424-2.255,13.236-6.76,17.437c-4.508,4.203-10.917,6.303-19.226,6.303h-17.64v19.222c0,2.662-0.687,4.726-2.06,6.198 C34.44,86.764,32.415,87.5,29.739,87.5z M37.874,47.268h14.894c8.661,0,12.993-3.71,12.993-11.134 c0-7.282-4.332-10.924-12.993-10.924H37.874V47.268z"/><path fill="#40396e" d="M29.5,89c-2.229,0-9.5-0.721-9.5-10V20.798C20,14.479,23.496,11,29.845,11h25.669 c8.659,0,15.471,2.237,20.244,6.649C80.563,22.093,83,28.312,83,36.134c0,7.821-2.436,14.057-7.238,18.534 C71.193,58.929,64.569,61,55.514,61H39v18C39,88.279,31.729,89,29.5,89z M29.845,14C25.111,14,23,16.097,23,20.798V79 c0,5.785,3.535,7,6.5,7s6.5-1.215,6.5-7V59.5c0-0.828,0.672-1.5,1.5-1.5h18.014c8.376,0,14.159-1.756,18.202-5.526 C77.886,48.587,80,43.089,80,36.134c0-6.951-2.112-12.43-6.279-16.281C69.52,15.969,63.395,14,55.514,14H29.845z M52.768,48 H37.5c-0.828,0-1.5-0.672-1.5-1.5v-21c0-0.828,0.672-1.5,1.5-1.5h15.268C58.877,24,67,25.244,67,36S58.877,48,52.768,48z M39,45 h13.768C60.851,45,64,42.477,64,36s-3.149-9-11.232-9H39V45z"/></svg>