<svg xmlns="http://www.w3.org/2000/svg"  viewBox="0 0 100 100" width="100px" height="100px"><path d="M87.823,74.082l-17.69-23.563l17.009-22.583c2.357-3.23,3.39-6.733,2.988-10.128c-0.404-3.427-2.016-6.401-4.662-8.604 c-2.523-2.099-5.722-3.207-9.247-3.207c-3.007,0-5.741,0.775-8.13,2.307c-2.013,1.291-3.948,3.213-5.749,5.709l-9.346,12.922 l-9.383-12.878c-4.731-6.661-10.117-8.06-13.803-8.06c-3.666,0-6.932,1.169-9.44,3.379c-2.523,2.222-4.068,5.148-4.468,8.463 c-0.414,3.423,0.597,6.828,3.043,10.172l16.912,22.488L17.923,74.183c-2.275,3.154-3.265,6.611-2.862,9.989 c0.402,3.432,2.016,6.408,4.66,8.604c2.522,2.099,5.758,3.208,9.354,3.208c2.937,0,5.636-0.776,8.022-2.307 c2.04-1.308,3.98-3.273,5.77-5.844l10.061-13.816l10.166,13.865c1.878,2.575,3.75,4.457,5.714,5.747 c2.367,1.563,5.073,2.354,8.042,2.354c3.665,0,6.936-1.108,9.456-3.205c2.681-2.228,4.281-5.244,4.627-8.731 C91.265,80.649,90.185,77.196,87.823,74.082z" opacity=".35"/><path fill="#f2f2f2" d="M85.823,72.082l-17.69-23.563l17.009-22.583c2.357-3.23,3.39-6.733,2.988-10.128 c-0.404-3.427-2.016-6.401-4.662-8.604c-2.523-2.099-5.722-3.207-9.247-3.207c-3.007,0-5.741,0.775-8.13,2.307 c-2.013,1.291-3.948,3.213-5.749,5.709l-9.346,12.922l-9.383-12.878c-4.731-6.661-10.117-8.06-13.803-8.06 c-3.666,0-6.932,1.169-9.44,3.379c-2.523,2.222-4.068,5.148-4.468,8.463c-0.414,3.423,0.597,6.828,3.043,10.172l16.912,22.488 L15.923,72.183c-2.275,3.154-3.265,6.611-2.862,9.989c0.402,3.432,2.016,6.408,4.66,8.604c2.522,2.099,5.758,3.208,9.354,3.208 c2.937,0,5.636-0.776,8.022-2.307c2.04-1.308,3.98-3.273,5.77-5.844l10.061-13.816l10.166,13.865 c1.878,2.575,3.75,4.457,5.714,5.747c2.367,1.563,5.073,2.354,8.042,2.354c3.665,0,6.936-1.108,9.456-3.205 c2.681-2.228,4.281-5.244,4.627-8.731C89.265,78.649,88.185,75.196,85.823,72.082z"/><path fill="#70bfff" d="M27.075,87.484c-2.101,0-3.833-0.569-5.198-1.704c-1.364-1.134-2.152-2.59-2.361-4.365 c-0.211-1.774,0.349-3.584,1.68-5.43L42,48.512L22.141,22.104c-1.402-1.916-1.996-3.743-1.785-5.483 c0.209-1.738,0.979-3.194,2.31-4.365c1.329-1.172,3.045-1.758,5.146-1.758c3.149,0,5.984,1.777,8.504,5.324L51.016,36 l14.594-20.179c1.33-1.844,2.66-3.194,3.99-4.046c1.329-0.852,2.869-1.279,4.621-1.279c2.029,0,3.727,0.57,5.092,1.704 c1.365,1.136,2.152,2.592,2.362,4.366s-0.386,3.62-1.784,5.536L60,48.512l20.625,27.472c1.399,1.846,2.012,3.656,1.838,5.43 c-0.176,1.776-0.945,3.231-2.311,4.365c-1.365,1.135-3.133,1.704-5.303,1.704c-1.68,0-3.168-0.426-4.462-1.279 c-1.296-0.852-2.644-2.235-4.042-4.152L50.91,61L35.58,82.053c-1.33,1.917-2.661,3.301-3.99,4.152 C30.26,87.058,28.755,87.484,27.075,87.484z"/><path fill="#40396e" d="M74.85,88.984c-1.973,0-3.752-0.514-5.288-1.527c-1.461-0.96-2.91-2.439-4.428-4.521 l-14.22-19.394L36.793,82.936c-1.415,2.041-2.9,3.575-4.394,4.532c-1.568,1.006-3.359,1.517-5.324,1.517 c-2.449,0-4.521-0.69-6.157-2.052c-1.665-1.383-2.638-3.181-2.892-5.344c-0.256-2.148,0.4-4.33,1.952-6.481L40.121,48.51 l-19.18-25.504c-1.638-2.239-2.332-4.443-2.075-6.566c0.254-2.106,1.198-3.894,2.808-5.311c1.605-1.414,3.671-2.132,6.137-2.132 c3.647,0,6.92,2.004,9.727,5.955l13.474,18.494l13.383-18.504c1.436-1.989,2.915-3.479,4.396-4.43 c1.569-1.006,3.396-1.516,5.431-1.516c2.377,0,4.413,0.69,6.051,2.052c1.664,1.385,2.638,3.182,2.893,5.344 c0.255,2.152-0.438,4.371-2.062,6.596L61.877,48.514l19.947,26.57c1.624,2.142,2.343,4.322,2.132,6.477 c-0.216,2.177-1.173,3.983-2.846,5.373C79.475,88.294,77.368,88.984,74.85,88.984z M50.91,59.5c0.478,0,0.927,0.228,1.21,0.613 l15.436,21.053c1.285,1.763,2.515,3.035,3.656,3.785c1.054,0.696,2.243,1.033,3.638,1.033c1.824,0,3.245-0.444,4.344-1.358 c1.06-0.88,1.641-1.979,1.776-3.359c0.138-1.396-0.366-2.828-1.54-4.376L58.801,49.413c-0.401-0.534-0.4-1.27,0.001-1.803 l19.891-26.408c1.165-1.598,1.658-3.062,1.493-4.458c-0.165-1.392-0.765-2.5-1.832-3.389c-1.1-0.914-2.451-1.358-4.133-1.358 c-1.472,0-2.718,0.341-3.812,1.041c-1.163,0.746-2.369,1.978-3.583,3.661l-14.595,20.18c-0.282,0.391-0.7,0.59-1.216,0.621 c-0.479,0-0.93-0.229-1.212-0.617L35.103,16.704c-2.254-3.172-4.636-4.707-7.292-4.707c-1.738,0-3.098,0.452-4.154,1.384 c-1.054,0.928-1.646,2.046-1.812,3.418c-0.163,1.345,0.344,2.831,1.507,4.42l19.848,26.393c0.402,0.535,0.401,1.272-0.004,1.807 L22.391,76.89c-1.092,1.516-1.552,2.947-1.386,4.348c0.164,1.393,0.763,2.501,1.831,3.389c1.099,0.914,2.485,1.358,4.239,1.358 c1.4,0,2.612-0.341,3.704-1.042c1.16-0.743,2.36-2.002,3.568-3.744l15.35-21.081c0.282-0.387,0.731-0.616,1.21-0.617 C50.908,59.5,50.909,59.5,50.91,59.5z"/></svg>