<svg xmlns="http://www.w3.org/2000/svg"  viewBox="0 0 100 100" width="100px" height="100px"><path d="M88.965,19.126c-0.206-3.358-1.597-6.346-4.029-8.646c-2.434-2.291-5.774-3.502-9.66-3.502 c-2.972,0-5.664,0.735-8.007,2.188c-2.066,1.284-3.977,3.197-5.887,5.913l-8.699,12.791c1.483,5.31-2.013,10.512-7.025,12.133 c-5.217,1.688-10.804-1.978-12.301-6.984c-0.623-2.085-0.976-4.22-1.443-6.342c-0.228-1.033-0.515-2.036-0.809-3.05 c-0.246-0.46-0.518-0.903-0.824-1.325c-3.12-4.644-0.732-10.897,3.587-13.682c0.143-0.092,0.291-0.165,0.437-0.247 c-2.309-1.065-4.522-1.395-6.349-1.395c-5.094,0-8.228,2.065-9.959,3.796c-2.346,2.344-3.724,5.297-3.986,8.533 c-0.26,3.162,0.551,6.253,2.374,8.985L36.703,58.01v22.967c0,4.445,1.311,8.075,3.895,10.79c1.836,1.928,5.2,4.226,10.807,4.226 c9.004,0,14.598-5.754,14.598-15.016V58.005l20.084-29.469C88.192,25.494,89.162,22.328,88.965,19.126z" opacity=".35"/><path fill="#f2f2f2" d="M86.965,17.126c-0.206-3.358-1.597-6.346-4.029-8.646c-2.434-2.291-5.774-3.502-9.66-3.502 c-2.972,0-5.664,0.735-8.007,2.188c-2.066,1.284-3.977,3.197-5.887,5.913l-9.767,14.361l-9.77-14.362 c-4.556-6.695-10.067-8.101-13.89-8.101c-5.094,0-8.228,2.065-9.959,3.796c-2.346,2.344-3.724,5.297-3.986,8.533 c-0.26,3.162,0.551,6.253,2.374,8.985L34.703,56.01v22.967c0,4.445,1.311,8.075,3.895,10.79c1.836,1.928,5.2,4.226,10.807,4.226 c9.004,0,14.598-5.754,14.598-15.016V56.005l20.084-29.469C86.192,23.494,87.162,20.328,86.965,17.126z"/><path fill="#70bfff" d="M49.404,87.492c-2.664,0-4.697-0.736-6.099-2.208c-1.402-1.473-2.103-3.575-2.103-6.308V54 L19.751,22.624c-0.983-1.473-1.403-3.065-1.262-4.783c0.139-1.717,0.841-3.207,2.103-4.469s3.049-1.893,5.363-1.893 c3.294,0,6.133,1.754,8.516,5.257L49.615,39l15.141-22.265c1.331-1.891,2.645-3.24,3.943-4.047 c1.297-0.805,2.822-1.21,4.575-1.21c2.242,0,3.977,0.579,5.205,1.736c1.225,1.157,1.892,2.594,1.997,4.31 c0.106,1.718-0.473,3.488-1.735,5.31L57.502,54v24.976C57.502,84.653,54.802,87.492,49.404,87.492z"/><path fill="#40396e" d="M49.404,88.992c-3.078,0-5.496-0.899-7.186-2.674c-1.669-1.753-2.516-4.224-2.516-7.342V54.464 l-21.19-30.993c-1.181-1.769-1.688-3.699-1.519-5.753c0.168-2.072,1.021-3.892,2.537-5.406c1.548-1.548,3.71-2.333,6.425-2.333 c3.804,0,7.086,1.989,9.756,5.913l13.903,20.44l13.901-20.44c1.476-2.098,2.908-3.556,4.392-4.478 c1.536-0.953,3.342-1.436,5.367-1.436c2.625,0,4.723,0.721,6.233,2.143c1.508,1.426,2.337,3.212,2.466,5.312 c0.126,2.054-0.546,4.158-1.999,6.256L59.002,54.463v24.514C59.002,85.436,55.594,88.992,49.404,88.992z M25.956,12.979 c-1.917,0-3.325,0.476-4.304,1.454c-1.012,1.012-1.557,2.166-1.668,3.529c-0.114,1.384,0.218,2.636,1.015,3.829l21.442,31.362 c0.171,0.249,0.262,0.545,0.262,0.847v24.977c0,2.322,0.568,4.097,1.689,5.273c1.116,1.172,2.756,1.742,5.012,1.742 c4.563,0,6.598-2.164,6.598-7.016V54c0-0.302,0.091-0.596,0.261-0.845l21.24-31.166c1.066-1.54,1.561-3.008,1.478-4.373 c-0.082-1.333-0.583-2.416-1.53-3.312c-0.934-0.879-2.339-1.326-4.175-1.326c-1.479,0-2.717,0.322-3.784,0.984 c-1.118,0.695-2.299,1.919-3.508,3.636L50.855,39.844c-0.559,0.82-1.922,0.822-2.48,0L33.231,17.579 C31.125,14.483,28.745,12.979,25.956,12.979z"/></svg>