<svg xmlns="http://www.w3.org/2000/svg"  viewBox="0 0 100 100" width="100px" height="100px"><path d="M53.845,7.989c-4.178,0-7.601,1.384-10.171,4.109C41.236,14.681,40,18.17,40,22.47v43.536 c0,1.246-0.244,1.626-0.241,1.626c-0.01,0.008-0.385,0.29-1.718,0.376l-2.891,0.206c-3.546,0.283-6.484,1.819-8.496,4.438 c-1.743,2.27-2.665,5.036-2.665,8c0,3.703,1.274,6.978,3.687,9.471c2.407,2.487,5.701,3.803,9.525,3.803 c0.174,0,0.35-0.003,0.527-0.009l3.633-0.211c17.157-1.098,26.606-11.007,26.606-27.901V22.47 C67.968,13.538,62.556,7.989,53.845,7.989z" opacity=".35"/><path fill="#f2f2f2" d="M51.845,5.989c-4.178,0-7.601,1.384-10.171,4.109C39.236,12.681,38,16.17,38,20.47v43.536 c0,1.246-0.244,1.626-0.241,1.626c-0.01,0.008-0.385,0.29-1.718,0.376l-2.891,0.206c-3.546,0.283-6.484,1.819-8.496,4.438 c-1.743,2.27-2.665,5.036-2.665,8c0,3.703,1.274,6.978,3.687,9.471c2.407,2.487,5.701,3.803,9.525,3.803 c0.174,0,0.35-0.003,0.527-0.009l3.633-0.211c17.157-1.098,26.606-11.007,26.606-27.901V20.47 C65.968,11.538,60.556,5.989,51.845,5.989z"/><path fill="#70bfff" d="M35.525,85.421c-2.215,0.067-3.942-0.539-5.179-1.818c-1.236-1.279-1.857-2.929-1.857-4.95 c0-1.548,0.44-2.895,1.319-4.04c0.88-1.144,2.166-1.784,3.861-1.919l2.834-0.202c5.212-0.336,7.997-3.165,7.997-8.485V20.47 c0-2.558,0.596-4.528,1.9-5.909c1.302-1.38,3.035-2.072,5.445-2.072c5.083,0,7.623,2.662,7.623,7.981v43.334 c0,13.402-6.841,20.54-20.522,21.414L35.525,85.421z"/><path fill="#40396e" d="M35.201,86.926c-2.474,0-4.468-0.767-5.933-2.28c-1.513-1.563-2.279-3.58-2.279-5.993 c0-1.878,0.548-3.545,1.63-4.953c1.144-1.489,2.803-2.331,4.93-2.501l2.848-0.203C40.905,70.704,43,68.483,43,64.006V20.47 c0-3.023,0.756-5.293,2.31-6.938c1.613-1.711,3.751-2.542,6.535-2.542c5.883,0,9.123,3.367,9.123,9.48v43.335 c0,14.272-7.377,21.98-21.926,22.911L35.57,86.92C35.446,86.924,35.323,86.926,35.201,86.926z M51.845,13.989 c-1.939,0-3.323,0.509-4.354,1.601C46.487,16.653,46,18.249,46,20.47v43.536c0,6.047-3.339,9.592-9.4,9.982l-2.824,0.201 c-1.251,0.101-2.163,0.538-2.777,1.338c-0.679,0.884-1.009,1.906-1.009,3.125c0,1.631,0.47,2.908,1.436,3.907 c0.934,0.966,2.245,1.425,4.034,1.362l3.398-0.2c12.857-0.822,19.11-7.338,19.11-19.917V20.47 C57.968,15.988,56.079,13.989,51.845,13.989z"/></svg>