<svg xmlns="http://www.w3.org/2000/svg"  viewBox="0 0 100 100" width="100px" height="100px"><path d="M84.319,52.574c-0.845-1.129-1.789-2.168-2.826-3.114c0.525-0.617,1.019-1.261,1.48-1.935 c2.688-3.928,4.052-8.577,4.052-13.817c0-7.881-3.051-14.5-8.823-19.143c-5.417-4.356-12.877-6.565-22.174-6.565H30.862 c-9.176,0-14.876,5.748-14.876,15.001v56.999c0,9.252,5.7,15.001,14.876,15.001h26.311c9.303,0,16.909-2.336,22.605-6.944 C85.811,83.175,89,76.106,89,67.613C89,61.781,87.425,56.721,84.319,52.574z" opacity=".35"/><path fill="#f2f2f2" d="M82.334,50.574c-0.845-1.129-1.789-2.168-2.826-3.114c0.525-0.617,1.019-1.261,1.48-1.935 c2.688-3.928,4.052-8.577,4.052-13.817c0-7.881-3.051-14.5-8.823-19.143C70.8,8.208,63.34,6,54.043,6H28.876 C19.7,6,14,11.748,14,21.001V78c0,9.252,5.7,15.001,14.876,15.001h26.311c9.304,0,16.909-2.336,22.605-6.944 c6.033-4.88,9.222-11.95,9.222-20.442C87.014,59.782,85.44,54.721,82.334,50.574z"/><path fill="#70bfff" d="M28.877,86.502c-5.616,0-8.423-2.834-8.423-8.502V21.001c0-5.668,2.808-8.502,8.423-8.502h25.167 c7.833,0,13.883,1.715,18.147,5.144c4.263,3.43,6.396,8.119,6.396,14.065c0,3.921-0.972,7.296-2.912,10.13 c-1.942,2.834-4.646,4.952-8.112,6.351c4.16,1.191,7.366,3.29,9.62,6.299c2.253,3.009,3.379,6.718,3.379,11.127 c0,6.578-2.271,11.704-6.811,15.377c-4.542,3.674-10.729,5.511-18.563,5.511H28.877z M35.844,42.94h15.391 c7.903,0,11.855-3.078,11.855-9.238c0-6.088-3.952-9.132-11.855-9.132H35.844V42.94z M35.844,74.431h17.159 c4.159,0,7.21-0.803,9.151-2.414c1.94-1.609,2.912-4.057,2.912-7.348c0-3.218-0.972-5.632-2.912-7.243 c-1.941-1.609-4.992-2.414-9.151-2.414H35.844V74.431z"/><path fill="#40396e" d="M55.187,87.996H28.877c-6.396,0-9.918-3.55-9.918-9.996V21.001c0-6.54,3.43-9.997,9.918-9.997 h25.166c8.146,0,14.566,1.842,19.084,5.475c4.614,3.712,6.953,8.836,6.953,15.229c0,4.206-1.067,7.898-3.173,10.975 c-1.464,2.136-3.34,3.908-5.601,5.295c2.904,1.335,5.274,3.215,7.071,5.615c2.44,3.259,3.678,7.305,3.678,12.022 c0,7.02-2.478,12.584-7.365,16.539C69.896,86.03,63.335,87.996,55.187,87.996z M28.877,13.992c-4.792,0-6.93,2.162-6.93,7.009 V78c0,4.847,2.138,7.008,6.93,7.008h26.311c7.445,0,13.375-1.742,17.623-5.179c4.21-3.406,6.257-8.057,6.257-14.215 c0-4.058-1.037-7.5-3.082-10.231c-2.042-2.728-5.015-4.664-8.834-5.758c-0.613-0.176-1.048-0.721-1.081-1.358 c-0.033-0.637,0.341-1.225,0.933-1.464c3.171-1.28,5.674-3.235,7.438-5.81c1.758-2.569,2.65-5.693,2.65-9.286 c0-5.52-1.91-9.739-5.838-12.9c-3.973-3.194-9.764-4.814-17.211-4.814H28.877z M53.004,75.925H35.845 c-0.825,0-1.494-0.669-1.494-1.494V55.012c0-0.825,0.669-1.494,1.494-1.494h17.159c4.561,0,7.865,0.902,10.104,2.758 c2.291,1.902,3.452,4.727,3.452,8.394c0,3.738-1.161,6.598-3.452,8.498C60.871,75.022,57.565,75.925,53.004,75.925z M37.339,72.937h15.665c3.783,0,6.54-0.696,8.196-2.07c1.596-1.323,2.372-3.351,2.372-6.197c0-2.774-0.776-4.768-2.373-6.094 c-1.655-1.373-4.413-2.069-8.195-2.069H37.339V72.937z M51.235,44.434H35.845c-0.825,0-1.494-0.669-1.494-1.494V24.57 c0-0.825,0.669-1.494,1.494-1.494h15.391c11.034,0,13.35,5.778,13.35,10.626C64.585,38.598,62.27,44.434,51.235,44.434z M37.339,41.445h13.896c9.287,0,10.361-4.419,10.361-7.743c0-3.278-1.074-7.638-10.361-7.638H37.339V41.445z"/></svg>