<svg xmlns="http://www.w3.org/2000/svg"  viewBox="0 0 100 100" width="100px" height="100px"><path d="M89.64,28.407c-3.603-6.746-8.737-12.062-15.26-15.801c-6.446-3.691-13.986-5.563-22.41-5.563 c-8.436,0-15.964,1.875-22.374,5.573c-6.482,3.737-11.593,9.051-15.194,15.793C10.878,35.011,9.09,42.77,9.09,51.47 c0,8.701,1.787,16.461,5.312,23.061C18,81.269,23.126,86.598,29.635,90.369C36.083,94.106,43.598,96,51.97,96 c8.44,0,15.989-1.894,22.438-5.631c6.516-3.776,11.643-9.127,15.24-15.905c3.52-6.63,5.305-14.402,5.305-23.099 C94.954,42.735,93.166,35.012,89.64,28.407z" opacity=".35"/><path fill="#f2f2f2" d="M87.597,26.364c-3.603-6.746-8.737-12.062-15.26-15.801C65.891,6.871,58.351,5,49.926,5 c-8.436,0-15.964,1.875-22.374,5.573c-6.482,3.737-11.593,9.051-15.194,15.793c-3.525,6.602-5.312,14.361-5.312,23.06 c0,8.701,1.787,16.461,5.312,23.061c3.598,6.738,8.723,12.067,15.233,15.839c6.448,3.736,13.963,5.631,22.335,5.631 c8.44,0,15.989-1.894,22.438-5.631c6.516-3.776,11.643-9.127,15.24-15.905c3.52-6.63,5.305-14.402,5.305-23.099 C92.91,40.691,91.122,32.968,87.597,26.364z"/><path fill="#70bfff" d="M49.926,87.5c-7.221,0-13.555-1.764-19.004-4.922c-5.451-3.157-9.684-7.562-12.703-13.219 C15.199,63.704,13.5,57.06,13.5,49.426c0-7.632,1.699-14.276,4.719-19.932c3.02-5.654,7.237-10.045,12.652-13.167 c5.415-3.123,11.766-4.827,19.056-4.827s13.657,1.704,19.108,4.827c5.449,3.122,9.684,7.512,12.703,13.167 C84.757,35.15,86.5,41.76,86.5,49.322c0,7.634-1.743,14.295-4.762,19.985c-3.02,5.69-7.255,10.114-12.703,13.271 C63.584,85.736,57.216,87.5,49.926,87.5z M49.978,74.018c6.108,0,10.83-2.577,14.266-6.845C67.68,62.905,69.5,56.99,69.5,49.426 c0-7.632-1.803-13.547-5.205-17.746c-3.401-4.198-8.14-6.714-14.317-6.714c-6.039,0-10.83,2.516-14.266,6.714 C32.276,35.879,30.5,41.794,30.5,49.426c0,7.564,1.776,13.479,5.212,17.747C39.148,71.44,43.939,74.018,49.978,74.018z"/><path fill="#40396e" d="M49.926,89c-7.241,0-13.888-1.724-19.756-5.124c-5.67-3.284-10.136-7.931-13.274-13.811 C13.647,63.98,12,57.036,12,49.426s1.647-14.554,4.896-20.639c3.141-5.881,7.59-10.51,13.227-13.76 C35.905,11.691,42.568,10,49.926,10c7.354,0,14.034,1.69,19.854,5.025c5.672,3.25,10.14,7.88,13.28,13.761 C86.338,34.925,88,41.834,88,49.322c0,7.556-1.661,14.516-4.938,20.688c-3.139,5.915-7.605,10.58-13.276,13.866 C63.917,87.276,57.234,89,49.926,89z M49.926,13c-6.824,0-12.983,1.557-18.306,4.627c-5.143,2.965-9.206,7.195-12.078,12.573 C16.528,35.845,15,42.313,15,49.426s1.528,13.582,4.542,19.228c2.871,5.379,6.953,9.627,12.132,12.627 C37.079,84.412,43.22,86,49.926,86c6.774,0,12.95-1.588,18.356-4.72c5.178-3,9.259-7.266,12.13-12.677 C83.456,62.869,85,56.383,85,49.322c0-6.99-1.543-13.424-4.586-19.122c-2.871-5.377-6.95-9.606-12.126-12.571 C62.929,14.558,56.75,13,49.926,13z M49.979,75.518c-6.197,0-11.534-2.561-15.435-7.404C30.865,63.546,29,57.258,29,49.426 c0-7.905,1.867-14.195,5.551-18.696c3.891-4.752,9.225-7.264,15.428-7.264c6.365,0,11.575,2.446,15.482,7.27 C69.137,35.274,71,41.563,71,49.426c0,7.796-1.88,14.084-5.588,18.688C61.456,73.026,56.264,75.518,49.979,75.518z M49.979,26.466c-5.349,0-9.758,2.074-13.105,6.164C33.64,36.581,32,42.231,32,49.426c0,7.131,1.642,12.785,4.88,16.807 c3.359,4.17,7.766,6.285,13.099,6.285c5.332,0,9.738-2.115,13.098-6.285C66.344,62.175,68,56.52,68,49.426 c0-7.158-1.639-12.812-4.87-16.802C59.819,28.538,55.395,26.466,49.979,26.466z"/></svg>