<svg xmlns="http://www.w3.org/2000/svg"  viewBox="0 0 100 100" width="100px" height="100px"><path d="M70,66c0,0,13-1,13-14c0-0.339,0-0.662,0-1c0-13-13-14-13-14s13,0,13-14v-1c0-7.774-5.007-14-12.781-14H33.881 C24.702,8,19,13.748,19,23.002v56.996C19,89.252,24.702,95,33.881,95h36.338C77.993,95,83,89.936,83,82.097 c0-0.644,0-1.356,0-2.097C83,66,70,66,70,66z" opacity=".35"/><path fill="#f2f2f2" d="M68,64c0,0,13-1,13-14c0-0.339,0-0.662,0-1c0-13-13-14-13-14s13,0,13-14v-1 c0-7.774-5.007-14-12.781-14H31.881C22.702,6,17,11.748,17,21.002v56.996C17,87.252,22.702,93,31.881,93h36.338 C75.993,93,81,87.936,81,80.097c0-0.644,0-1.356,0-2.097C81,64,68,64,68,64z"/><path fill="#70bfff" d="M31.88,86.5c-5.622,0-8.434-2.834-8.434-8.502V21.002c0-5.668,2.811-8.502,8.434-8.502h36.339 c4.233,0,6.351,2.1,6.351,6.298C74.57,23.067,72.233,27,68,27H39v13l28,1c4.303,0,7,3.732,7,8c0,4.269-3.697,8-8,8l-27,1v12l29,1 c4.233,0,6.57,4.898,6.57,9.097c0,4.269-2.118,6.403-6.351,6.403H31.88z"/><path fill="#40396e" d="M66,88H31.88c-6.406,0-9.934-3.552-9.934-10.002V21.002c0-6.45,3.528-10.002,9.934-10.002H67 c5.086,0,9.07,3.953,9.07,9c0,5.327-4.238,10-9.07,10H40v10h26.5c5.505,0,9.5,3.995,9.5,9.5S72.005,59,66.5,59H40.356v10H67 c5.594,0,9.07,3.641,9.07,9.5C76.07,84.537,72.399,88,66,88z M31.88,14c-4.795,0-6.934,2.159-6.934,7.002v56.996 c0,4.843,2.138,7.002,6.934,7.002H66c4.757,0,7.07-2.126,7.07-6.5c0-2.428-0.789-6.5-6.07-6.5H38.856c-0.829,0-1.5-0.672-1.5-1.5 v-13c0-0.828,0.671-1.5,1.5-1.5H66.5c4.466,0,6.5-3.369,6.5-6.5S70.966,43,66.5,43h-28c-0.829,0-1.5-0.672-1.5-1.5v-13 c0-0.828,0.671-1.5,1.5-1.5H67c3.474,0,6.07-3.695,6.07-7c0-3.364-2.666-6-6.07-6H31.88z"/></svg>