<svg xmlns="http://www.w3.org/2000/svg"  viewBox="0 0 100 100" width="100px" height="100px"><path d="M88.145,11.152c-1.809-1.904-5.121-4.174-10.629-4.174c-8.981,0-14.562,5.665-14.562,14.785v35.755 C62.954,67.121,59.54,69,53.644,69c-4.985,0-6.493-1.685-6.988-2.238c-1.587-1.773-2.426-4.969-2.426-9.243V21.764 c0-9.12-5.58-14.785-14.562-14.785c-5.554,0-8.9,2.237-10.729,4.114C17.142,12.937,15,16.285,15,21.764v35.65 c0,12.387,3.42,22.025,10.163,28.648C31.874,92.656,41.457,96,53.644,96c12.209,0,21.754-3.358,28.367-9.98 c6.611-6.62,9.963-16.244,9.963-28.605v-35.65C91.974,17.397,90.686,13.827,88.145,11.152z" opacity=".35"/><path fill="#f2f2f2" d="M86.145,9.152c-1.809-1.904-5.121-4.174-10.629-4.174c-8.981,0-14.562,5.665-14.562,14.785v35.755 C60.954,65.121,57.54,67,51.644,67c-4.985,0-6.493-1.685-6.988-2.238c-1.587-1.773-2.426-4.969-2.426-9.243V19.764 c0-9.12-5.58-14.785-14.562-14.785c-5.554,0-8.9,2.237-10.729,4.114C15.142,10.937,13,14.285,13,19.764v35.65 c0,12.387,3.42,22.025,10.163,28.648C29.874,90.656,39.457,94,51.644,94c12.209,0,21.754-3.358,28.367-9.98 c6.611-6.62,9.963-16.244,9.963-28.605v-35.65C89.974,15.397,88.686,11.827,86.145,9.152z"/><path fill="#70bfff" d="M51.644,87.5c-10.47,0-18.446-2.691-23.925-8.074C22.238,74.044,19.5,66.04,19.5,55.414V19.763 c0-2.656,0.697-4.701,2.094-6.134c1.396-1.433,3.42-2.15,6.073-2.15c5.374,0,8.062,2.763,8.062,8.284v35.755 c0,6.013,1.361,10.538,4.083,13.579S46.477,73.5,51.644,73.5c10.539,0,15.81-5.887,15.81-17.981V19.763 c0-5.522,2.686-8.284,8.062-8.284c2.582,0,4.554,0.718,5.916,2.15c1.361,1.434,2.042,3.479,2.042,6.134v35.651 c0,10.626-2.688,18.63-8.062,24.012C70.035,84.809,62.114,87.5,51.644,87.5z"/><path fill="#40396e" d="M51.644,89c-10.83,0-19.233-2.861-24.976-8.504C20.916,74.848,18,66.409,18,55.414v-35.65 c0-3.05,0.848-5.466,2.52-7.182c1.683-1.728,4.088-2.604,7.147-2.604c6.167,0,9.562,3.475,9.562,9.785v35.755 c0,5.604,1.245,9.835,3.701,12.578C43.281,70.724,46.785,72,51.644,72c9.763,0,14.311-5.237,14.311-16.481V19.764 c0-6.311,3.396-9.785,9.562-9.785c2.997,0,5.354,0.88,7.004,2.617c1.629,1.715,2.454,4.127,2.454,7.168v35.65 c0,10.988-2.86,19.424-8.501,25.072C70.831,86.136,62.478,89,51.644,89z M27.667,12.979c-2.251,0-3.886,0.556-4.999,1.697 C21.546,15.828,21,17.492,21,19.764v35.65c0,10.16,2.614,17.879,7.77,22.941C33.932,83.428,41.628,86,51.644,86 c10.008,0,17.647-2.568,22.706-7.634s7.624-12.788,7.624-22.952v-35.65c0-2.246-0.549-3.963-1.63-5.102 c-1.076-1.133-2.655-1.684-4.828-1.684c-4.538,0-6.562,2.093-6.562,6.785v35.755C68.954,68.445,63.13,75,51.644,75 c-5.761,0-9.997-1.604-12.949-4.901c-2.963-3.311-4.465-8.216-4.465-14.58V19.764C34.229,15.071,32.205,12.979,27.667,12.979z"/></svg>