<svg xmlns="http://www.w3.org/2000/svg"  viewBox="0 0 100 100" width="100px" height="100px"><path d="M73,68H55.567l25.85-34.171c2.759-3.513,4.323-7.121,4.648-10.725c0.382-4.23-0.878-7.988-3.65-10.87 c-1.867-1.937-5.308-4.245-11.093-4.245H30c-8.979,0-15.011,5.43-15.011,13.511C14.989,29.701,20.881,35,30,35h16.263 L19.86,69.17c-2.993,3.844-4.529,7.231-4.834,10.661c-0.375,4.217,0.876,8.09,3.521,10.9c2.613,2.785,6.564,4.258,11.425,4.258 H73c9.112,0,15-5.295,15-13.489C88,73.425,81.972,68,73,68z" opacity=".35"/><path fill="#f2f2f2" d="M71,66H53.567l25.85-34.171c2.759-3.513,4.323-7.121,4.648-10.725 c0.382-4.23-0.878-7.988-3.65-10.87c-1.867-1.937-5.308-4.245-11.093-4.245H28c-8.979,0-15.011,5.43-15.011,13.511 C12.989,27.701,18.881,33,28,33h16.263L17.86,67.17c-2.993,3.844-4.529,7.231-4.834,10.661c-0.375,4.217,0.876,8.09,3.521,10.9 c2.613,2.785,6.564,4.258,11.425,4.258H71c9.112,0,15-5.295,15-13.489C86,71.425,79.972,66,71,66z"/><path fill="#70bfff" d="M27.972,86.489c-2.828,0-5.271-0.699-6.685-2.205c-1.415-1.503-1.999-3.497-1.787-5.877 c0.212-2.378,1.58-4.792,3.489-7.243L57.5,26.5H28c-5.5,0-8.511-2.451-8.511-7c0-4.477,3.011-7.011,8.511-7.011h41.321 c2.826,0,4.965,0.754,6.415,2.257c1.448,1.505,2.067,3.429,1.855,5.773c-0.212,2.345-1.309,4.776-3.287,7.294L40.5,72.5H71 c5.5,0,8.5,2.523,8.5,7c0,4.55-3,6.989-8.5,6.989H27.972z"/><path fill="#40396e" d="M71,87.989H27.972c-3.445,0-6.135-0.927-7.779-2.679c-1.681-1.786-2.438-4.22-2.187-7.036 c0.216-2.429,1.424-4.981,3.799-8.032L54.445,28H28c-6.362,0-10.011-3.098-10.011-8.5c0-5.329,3.742-8.511,10.011-8.511h41.321 c3.235,0,5.757,0.914,7.494,2.716c1.758,1.828,2.521,4.166,2.27,6.949c-0.237,2.626-1.449,5.347-3.601,8.087L43.516,71H71 c6.262,0,10,3.178,10,8.5C81,84.896,77.355,87.989,71,87.989z M28,13.989c-4.652,0-7.011,1.854-7.011,5.511 c0,1.36,0,5.5,7.011,5.5h29.5c0.572,0,1.094,0.325,1.346,0.839c0.252,0.514,0.19,1.126-0.159,1.578L24.176,72.081 c-2.009,2.58-3.019,4.631-3.182,6.459c-0.175,1.967,0.291,3.554,1.385,4.716c1.049,1.118,3.034,1.733,5.592,1.733H71 c7,0,7-4.132,7-5.489c0-3.649-2.355-5.5-7-5.5H40.5c-0.569,0-1.089-0.322-1.343-0.832c-0.253-0.51-0.196-1.119,0.147-1.573 l33.805-44.686c1.805-2.298,2.805-4.486,2.989-6.524c0.172-1.906-0.299-3.41-1.442-4.599c-1.149-1.192-2.944-1.797-5.333-1.797 H28z"/></svg>