<svg xmlns="http://www.w3.org/2000/svg"  viewBox="0 0 100 100" width="100px" height="100px"><path d="M32.073,93.402c-5.339,0-8.555-2.202-10.312-4.048c-2.437-2.555-3.726-6.077-3.726-10.183V25.536 c0-8.586,5.548-14.134,14.135-14.134c0,0,23.104-0.401,23.105-0.401c9.311,0,16.689,2.407,22.02,7.153 c5.549,4.944,8.361,11.747,8.361,20.22c0,6.537-1.772,12.148-5.267,16.678c-1.211,1.57-2.602,2.973-4.162,4.201 c0.691,0.931,1.337,1.936,1.938,3.013l6.036,11.194c2.876,5.208,2.181,9.573,1.087,12.311C84.419,87.946,81.496,93,73.166,93 c-3.423,0-6.393-0.823-8.825-2.445c-2.262-1.506-4.154-3.705-5.624-6.533l-9.24-17.037c-0.314-0.587-0.543-0.818-0.613-0.881 c-0.386-0.163-1.057-0.342-2.145-0.355l-0.705,0.04V79.17c0,4.074-1.253,7.576-3.622,10.126 C40.652,91.169,37.45,93.402,32.073,93.402z" opacity=".35"/><path fill="#f2f2f2" d="M30.073,91.402c-5.339,0-8.555-2.202-10.312-4.048c-2.437-2.555-3.726-6.077-3.726-10.183V23.536 c0-8.586,5.548-14.134,14.135-14.134c0,0,23.104-0.401,23.105-0.401c9.311,0,16.689,2.407,22.02,7.153 c5.549,4.944,8.361,11.747,8.361,20.22c0,6.537-1.772,12.148-5.267,16.678c-1.211,1.57-2.602,2.973-4.162,4.201 c0.691,0.931,1.337,1.936,1.938,3.013l6.036,11.194c2.876,5.208,2.181,9.573,1.087,12.311C82.419,85.946,79.496,91,71.166,91 c-3.423,0-6.393-0.823-8.825-2.445c-2.262-1.506-4.154-3.705-5.624-6.533l-9.24-17.037c-0.314-0.587-0.543-0.818-0.613-0.881 c-0.386-0.163-1.057-0.342-2.145-0.355l-0.705,0.04V77.17c0,4.074-1.253,7.576-3.622,10.126 C38.652,89.169,35.45,91.402,30.073,91.402z"/><path fill="#70bfff" d="M30.073,84.902c-2.45,0-4.317-0.677-5.605-2.03c-1.29-1.353-1.933-3.253-1.933-5.702V23.536 c0-5.088,2.544-7.634,7.634-7.634L53.384,15.5c7.601,0,13.464,1.836,17.588,5.508c4.122,3.672,6.185,8.794,6.185,15.366 c0,5.09-1.304,9.326-3.913,12.708c-2.61,3.382-6.33,5.686-11.163,6.909c3.414,1.032,6.217,3.512,8.408,7.441l5.992,11.113 c1.353,2.45,1.609,4.72,0.773,6.813c-0.839,2.094-2.868,3.141-6.088,3.141c-2.127,0-3.866-0.452-5.218-1.353 c-1.353-0.902-2.513-2.286-3.48-4.156L53.19,61.886c-0.966-1.803-2.159-3.028-3.575-3.672c-1.418-0.643-3.093-0.966-5.026-0.966 l-7.076,0.402v19.521c0,2.449-0.627,4.348-1.884,5.702C34.373,84.225,32.52,84.902,30.073,84.902z M37.514,46.826l13.164-0.402 c8.053,0,12.08-3.221,12.08-9.664c0-6.378-4.027-9.567-12.08-9.567l-13.164,0.402V46.826z"/><path fill="#40396e" d="M30.073,86.402c-2.864,0-5.115-0.84-6.691-2.496c-1.558-1.634-2.347-3.9-2.347-6.736V23.536 c0-5.89,3.244-9.134,9.135-9.134L53.357,14c7.972,0,14.225,1.981,18.612,5.888c4.437,3.953,6.687,9.5,6.687,16.486 c0,5.406-1.422,9.99-4.226,13.624c-2.106,2.73-4.899,4.822-8.332,6.246c2.213,1.466,4.121,3.627,5.7,6.458l6.002,11.132 c1.566,2.836,1.854,5.56,0.846,8.082C77.9,83.779,75.997,86,71.166,86c-2.418,0-4.454-0.54-6.051-1.605 c-1.562-1.04-2.901-2.626-3.98-4.715l-9.263-17.078c-0.808-1.505-1.774-2.52-2.878-3.022c-1.216-0.551-2.698-0.832-4.404-0.832 l-5.576,0.318V77.17c0,2.829-0.769,5.09-2.285,6.723C35.183,85.558,32.943,86.402,30.073,86.402z M53.384,17l-23.188,0.402 c-4.27,0-6.161,1.892-6.161,6.134V77.17c0,2.068,0.497,3.594,1.519,4.667c1.002,1.053,2.48,1.564,4.52,1.564 c2.03,0,3.488-0.507,4.458-1.551c0.997-1.074,1.482-2.605,1.482-4.681V57.649c0-0.795,0.621-1.453,1.415-1.498l7.076-0.401 c0.007,0,0.015,0,0.021,0c2.212,0,4.104,0.37,5.708,1.098c1.718,0.782,3.156,2.238,4.278,4.329l9.273,17.099 c0.856,1.658,1.858,2.868,2.992,3.623C67.875,82.629,69.351,83,71.166,83c3.814,0,4.478-1.655,4.695-2.199 c0.666-1.668,0.439-3.478-0.694-5.53l-5.999-11.126c-2.002-3.591-4.465-5.794-7.521-6.717c-0.646-0.195-1.081-0.796-1.066-1.47 c0.016-0.674,0.479-1.255,1.132-1.42c4.475-1.132,7.954-3.275,10.343-6.372c2.389-3.097,3.601-7.064,3.601-11.792 c0-6.179-1.858-10.839-5.683-14.246C66.153,18.726,60.571,17,53.384,17z M37.514,48.326c-0.39,0-0.764-0.151-1.044-0.423 c-0.292-0.282-0.456-0.671-0.456-1.077V27.595c0-0.811,0.644-1.475,1.454-1.5l13.164-0.402c11.27,0,13.626,6.018,13.626,11.066 c0,5.093-2.356,11.164-13.58,11.164L37.56,48.326C37.544,48.326,37.529,48.326,37.514,48.326z M39.014,29.05V45.28l11.618-0.355 c9.529,0,10.626-4.66,10.626-8.165c0-3.463-1.097-8.067-10.58-8.067L39.014,29.05z"/></svg>