<svg xmlns="http://www.w3.org/2000/svg"  viewBox="0 0 100 100" width="100px" height="100px"><path d="M88,52c0-14-13-14-13-14s13,0,13-14h0c0-0.391,0-0.73,0-1c0-5-3.906-8.715-7.428-10.68 c-4.063-2.282-8.35-3.936-12.737-4.913c-4.247-0.948-8.557-1.429-12.809-1.429c-9.348,0-17.554,1.865-24.389,5.543 c-7.018,3.775-12.467,9.188-16.193,16.087C10.811,34.33,8.968,42.284,8.968,51.25c0,8.73,1.779,16.524,5.29,23.165 c3.615,6.839,8.952,12.225,15.862,16.008c6.741,3.694,14.943,5.567,24.379,5.567c4.221,0,8.545-0.391,12.855-1.16 c4.271-0.766,8.202-1.784,11.651-3.017c3.072-1.073,5.497-3.019,7.011-5.626c1.319-2.271,1.988-4.938,1.988-7.926V53 c0-0.316,0-0.653,0-1H88z" opacity=".35"/><path fill="#f2f2f2" d="M86,50c0-14-13-14-13-14s13,0,13-14h0c0-0.391,0-0.73,0-1c0-5-3.906-8.715-7.428-10.68 c-4.063-2.282-8.35-3.936-12.737-4.913c-4.247-0.948-8.557-1.429-12.809-1.429c-9.348,0-17.554,1.865-24.389,5.543 c-7.018,3.775-12.467,9.188-16.193,16.087C8.811,32.33,6.968,40.284,6.968,49.25c0,8.73,1.779,16.524,5.29,23.165 c3.615,6.839,8.952,12.225,15.862,16.008c6.741,3.694,14.943,5.567,24.379,5.567c4.221,0,8.545-0.391,12.855-1.16 c4.271-0.766,8.202-1.784,11.651-3.017c3.072-1.073,5.497-3.019,7.011-5.626c1.319-2.271,1.988-4.938,1.988-7.926V51 c0-0.316,0-0.653,0-1H86z"/><path fill="#70bfff" d="M52.499,87.491c-8.37,0-15.454-1.589-21.256-4.767c-5.802-3.177-10.216-7.627-13.239-13.347 c-3.025-5.72-4.536-12.428-4.536-20.127c0-7.908,1.564-14.759,4.694-20.55c3.129-5.79,7.648-10.276,13.556-13.453 c5.907-3.178,13.01-4.767,21.309-4.767c3.797,0,7.595,0.425,11.393,1.272c3.798,0.847,7.453,2.261,10.971,4.236 c1.899,1.06,3.041,2.473,3.429,4.237c0.386,1.766,0.192,3.48-0.581,5.138c-0.774,1.66-1.951,2.86-3.534,3.602 c-1.582,0.741-3.464,0.582-5.643-0.477c-4.712-2.471-10.022-3.707-15.929-3.707c-7.526,0-13.169,2.101-16.931,6.302 c-3.763,4.203-5.644,10.259-5.644,18.167c0,7.981,1.916,14.02,5.749,18.114c3.832,4.097,9.51,6.144,17.036,6.144 c4.009,0,7.726-0.635,12.157-1.906V55.5h-8.993c-4.361,0-7.007-2.544-7.007-6.5c0-3.955,2.639-6.5,7-6.5h16.57 c4.288,0,6.435,4.122,6.435,8.5v25.262c0,1.836-0.37,3.389-1.108,4.66c-0.739,1.272-1.917,2.19-3.534,2.755 c-3.165,1.13-6.717,2.049-10.655,2.755C60.269,87.136,56.366,87.491,52.499,87.491z"/><path fill="#40396e" d="M52.499,88.99c-8.585,0-15.979-1.666-21.977-4.952c-6.037-3.306-10.695-8.003-13.845-13.96 c-3.125-5.912-4.71-12.919-4.71-20.828c0-8.125,1.64-15.279,4.875-21.264c3.256-6.026,8.021-10.757,14.164-14.062 c6.1-3.282,13.509-4.946,22.02-4.946c3.888,0,7.83,0.44,11.72,1.309c3.914,0.872,7.742,2.351,11.378,4.393 c2.277,1.271,3.679,3.028,4.159,5.224c0.456,2.088,0.226,4.138-0.686,6.093c-0.924,1.979-2.355,3.436-4.257,4.326 c-2.008,0.939-4.342,0.775-6.937-0.486c-4.515-2.366-9.64-3.556-15.272-3.556c-7.045,0-12.365,1.952-15.813,5.803 c-3.491,3.899-5.262,9.675-5.262,17.167c0,7.552,1.798,13.301,5.345,17.088c3.52,3.763,8.883,5.67,15.941,5.67 c3.411,0,6.651-0.466,10.657-1.546V57h-7.492C51.34,57,48,53.859,48,49s3.337-8,8.5-8h16.569c4.672,0,7.936,4.112,7.936,10 v25.262c0,2.095-0.441,3.916-1.312,5.414c-0.919,1.583-2.378,2.733-4.336,3.417c-3.221,1.15-6.886,2.099-10.885,2.815 C60.455,88.626,56.427,88.99,52.499,88.99z M53.026,11.979c-8.01,0-14.939,1.544-20.598,4.589 c-5.618,3.021-9.974,7.344-12.947,12.845c-2.995,5.542-4.514,12.217-4.514,19.838c0,7.415,1.468,13.951,4.362,19.426 c2.87,5.429,7.12,9.712,12.634,12.731c5.551,3.041,12.46,4.583,20.535,4.583c3.751,0,7.602-0.349,11.445-1.035 c3.835-0.688,7.34-1.593,10.415-2.691c1.289-0.45,2.183-1.134,2.739-2.095c0.602-1.034,0.906-2.349,0.906-3.907V51 c0-3.484-1.526-7-4.936-7H56.5c-3.495,0-5.5,1.822-5.5,5s2.008,5,5.508,5H65.5c0.828,0,1.5,0.672,1.5,1.5v16.102 c0,0.669-0.443,1.258-1.087,1.441c-4.801,1.377-8.561,1.965-12.57,1.965c-7.923,0-14.022-2.228-18.132-6.62 c-4.083-4.36-6.154-10.799-6.154-19.138c0-8.253,2.027-14.702,6.027-19.169c4.042-4.513,10.113-6.801,18.048-6.801 c6.123,0,11.717,1.305,16.625,3.879c1.727,0.839,3.148,0.99,4.311,0.446c1.266-0.593,2.185-1.534,2.812-2.877 c0.636-1.364,0.791-2.733,0.474-4.184c-0.293-1.337-1.174-2.4-2.693-3.248c-3.384-1.9-6.938-3.272-10.566-4.082 C60.417,12.395,56.694,11.979,53.026,11.979z"/></svg>