<svg xmlns="http://www.w3.org/2000/svg"  viewBox="0 0 100 100" width="100px" height="100px"><path d="M72,36c0,0,13,0,13-14c0-0.705,0-1.384,0-2c0-7.654-5.521-13-13.428-13H35.535C26.098,7,20,12.888,20,22v58.5 C20,89.771,26.028,96,35,96s15-6.229,15-15.5V64h23c8.047,0,12-5.151,12-13c0-0.315,0-0.661,0-1C85,36,72,36,72,36z" opacity=".35"/><path fill="#f2f2f2" d="M70,34c0,0,13,0,13-14c0-0.705,0-1.384,0-2c0-7.654-5.521-13-13.428-13H33.535 C24.098,5,18,10.888,18,20v58.5C18,87.771,24.028,94,33,94s15-6.229,15-15.5V62h23c8.047,0,12-5.151,12-13c0-0.315,0-0.661,0-1 C83,34,70,34,70,34z"/><path fill="#70bfff" d="M33,87.5c-4.824,0-8.5-2.886-8.5-9V20c0-5.672,3.345-8.5,9.035-8.5H68.5c5,0,8,3.799,8,8 c0,4.272-3,8-8,8h-27v13h27c4.355,0,8,3.298,8,7.5c0,4.272-3.645,7.5-8,7.5h-27v23C41.5,84.242,38.338,87.5,33,87.5z"/><path fill="#40396e" d="M33,89c-6.168,0-10-4.023-10-10.5V20c0-6.355,3.84-10,10.535-10H68.5c5.416,0,9.5,4.084,9.5,9.5 c0,5.505-3.995,9.5-9.5,9.5H43v10h25.5c5.238,0,9.5,4.037,9.5,9c0,5.047-4.173,9-9.5,9H43v21.5C43,84.977,39.168,89,33,89z M33.535,13C28.465,13,26,15.29,26,20v58.5c0,4.767,2.552,7.5,7,7.5c4.579,0,7-2.594,7-7.5v-23c0-0.828,0.672-1.5,1.5-1.5h27 c3.645,0,6.5-2.636,6.5-6c0-3.309-2.916-6-6.5-6h-27c-0.828,0-1.5-0.672-1.5-1.5v-13c0-0.828,0.672-1.5,1.5-1.5h27 c4.466,0,6.5-3.369,6.5-6.5c0-3.23-2.232-6.5-6.5-6.5H33.535z"/></svg>