<svg xmlns="http://www.w3.org/2000/svg"  viewBox="0 0 100 100" width="100px" height="100px"><path d="M75,7.011c-8.374,0-14,5.784-14,14.394v20.142L40.102,14.104c-1.692-2.156-3.266-3.735-4.814-4.83 C33.16,7.772,30.5,7.011,27.382,7.011c-3.928,0-7.321,1.438-9.812,4.156c-2.378,2.595-3.584,6.069-3.584,10.327v58.123 c0,8.744,5.5,14.394,14.014,14.394c8.505,0,14-5.649,14-14.394V59.431l20.829,27.38c1.72,2.196,3.385,3.821,5.092,4.971 c2.203,1.479,4.941,2.229,8.137,2.229c3.868,0,7.183-1.469,9.587-4.251c2.16-2.505,3.303-5.831,3.303-9.619V21.404 C88.947,12.66,83.473,7.011,75,7.011z" opacity=".35"/><path fill="#f2f2f2" d="M73,5.011c-8.374,0-14,5.784-14,14.394v20.142L38.102,12.104c-1.692-2.156-3.266-3.735-4.814-4.83 C31.16,5.772,28.5,5.011,25.382,5.011c-3.928,0-7.321,1.438-9.812,4.156c-2.378,2.595-3.584,6.069-3.584,10.327v58.123 c0,8.744,5.5,14.394,14.014,14.394c8.505,0,14-5.649,14-14.394V57.431l20.829,27.38c1.72,2.196,3.385,3.821,5.092,4.971 c2.203,1.479,4.941,2.229,8.137,2.229c3.868,0,7.183-1.469,9.587-4.251c2.16-2.505,3.303-5.831,3.303-9.619V19.404 C86.947,10.66,81.473,5.011,73,5.011z"/><path fill="#70bfff" d="M26,85.511c-4.868,0-7.514-2.776-7.514-7.893V19.494c0-2.592,0.624-4.57,1.876-5.936 c1.25-1.364,2.923-2.048,5.02-2.048c1.757,0,3.144,0.359,4.157,1.075c1.014,0.717,2.163,1.894,3.448,3.532L65.5,58.809V19.404 c0-5.049,2.632-7.893,7.5-7.893s7.447,2.844,7.447,7.893v58.737c0,2.252-0.575,4.043-1.724,5.374 c-1.151,1.331-2.705,1.996-4.665,1.996c-1.894,0-3.397-0.376-4.513-1.126c-1.115-0.75-2.316-1.945-3.599-3.582L33.5,38.151 v39.467C33.5,82.735,30.868,85.511,26,85.511z"/><path fill="#40396e" d="M74.058,87.011c-2.186,0-3.985-0.465-5.35-1.381c-1.26-0.848-2.55-2.124-3.942-3.902L35,42.6 v35.018c0,5.97-3.28,9.394-9,9.394c-5.729,0-9.014-3.424-9.014-9.394V19.494c0-2.968,0.764-5.306,2.27-6.949 c1.541-1.682,3.602-2.534,6.126-2.534c2.065,0,3.755,0.454,5.022,1.349c1.142,0.808,2.373,2.061,3.763,3.832L64,54.363V19.404 c0-5.882,3.364-9.394,9-9.394c5.687,0,8.947,3.424,8.947,9.394v58.736c0,2.609-0.703,4.747-2.089,6.354 C78.415,86.164,76.464,87.011,74.058,87.011z M33.5,36.65c0.459,0,0.905,0.212,1.194,0.592L67.14,79.895 c1.167,1.488,2.262,2.586,3.242,3.245c0.859,0.578,2.097,0.871,3.676,0.871c1.517,0,2.671-0.483,3.53-1.477 c0.914-1.061,1.359-2.498,1.359-4.394V19.404c0-4.302-1.945-6.394-5.947-6.394c-3.981,0-6,2.151-6,6.394v39.404 c0,0.644-0.41,1.216-1.021,1.421c-0.607,0.208-1.283,0-1.673-0.512L31.794,17.026c-1.178-1.501-2.232-2.589-3.121-3.216 c-0.751-0.531-1.858-0.8-3.292-0.8c-1.671,0-2.952,0.511-3.914,1.562c-0.983,1.072-1.482,2.729-1.482,4.922v58.123 c0,4.302,1.967,6.394,6.014,6.394c4.038,0,6-2.092,6-6.394V38.15c0-0.644,0.411-1.216,1.021-1.422 C33.178,36.676,33.34,36.65,33.5,36.65z"/></svg>