<svg xmlns="http://www.w3.org/2000/svg"  viewBox="0 0 100 100" width="100px" height="100px"><path d="M62.587,40.286l-6.4-1.36c-1.579,0.16-3.155,0.269-4.753,0.276c-1.344,0.006-4.155-0.218-4.833-0.041 c-8.113,2.125-11.542-10.418-3.456-12.536c2.443-0.64,4.946-0.424,7.443-0.424c2.592,0,5.117-0.189,7.689-0.511 c3.507-0.438,6.5,3.326,6.5,6.5c0,1.247-3.224-0.094-3.777,0.809c0.614,0.252,6,3,6,3c2.353,1.144,3.455,2.013,5.62,2.013 c1.486,0,2.915-0.271,4.242-0.803c3.168-1.267,5.553-3.584,6.898-6.699c1.219-2.825,1.463-5.924,0.703-8.96 c-0.832-3.329-2.945-6.102-6.111-8.021c-3.421-2.16-7.383-3.813-11.779-4.914c-4.261-1.065-8.658-1.605-13.067-1.605 c-6.785,0-12.91,1.166-18.208,3.466c-5.568,2.421-10.008,5.918-13.2,10.396c-3.295,4.626-4.966,10.027-4.966,16.052 c0,1.651,0.126,3.381,0.425,5.137c2.313-1.551,5.505-1.865,8.166,0.47c9.914,8.701,23.687,10.586,35.685,15.052 c7.784,2.897,4.395,15.458-3.456,12.536c-0.802-0.298-1.607-0.586-2.412-0.869c-1.02,0.153-2.359,0.265-4.123,0.265 c-2.856,0-5.785-0.333-8.708-0.992c-2.76-0.619-5.275-1.576-7.521-2.87c-0.093-0.052-0.187-0.102-0.369-0.193 c-2.179-1.054-4.326-1.589-6.382-1.589c-1.641,0-3.214,0.338-4.675,1.002c-3.028,1.376-5.328,3.787-6.654,6.973 c-1.245,2.991-1.446,6.239-0.582,9.389c0.954,3.483,3.286,6.313,6.748,8.187c3.824,2.188,8.325,3.858,13.383,4.965 c4.895,1.07,9.861,1.613,14.759,1.613c6.979,0,13.196-1.143,18.481-3.396c5.58-2.381,10.013-5.827,13.178-10.241 C86.344,77.801,88,72.465,88,66.503C88,57.055,83.594,44.838,62.587,40.286z" opacity=".35"/><path fill="#f2f2f2" d="M60.587,38.286l-11.81-2.51c-3.148-0.666-4.34-1.338-4.662-1.555c0-0.01,0-0.02,0-0.03 c0-0.37,0-0.72,0.868-1.337c0.715-0.508,2.499-1.359,6.42-1.359c2.244,0,4.451,0.231,6.562,0.688 c2.006,0.435,3.939,1.126,5.744,2.055l0.103,0.052c2.353,1.144,4.644,1.723,6.809,1.723c1.486,0,2.915-0.271,4.241-0.803 c3.168-1.267,5.553-3.584,6.898-6.699c1.219-2.825,1.463-5.924,0.703-8.96c-0.832-3.329-2.945-6.102-6.111-8.021 c-3.421-2.16-7.383-3.813-11.779-4.914c-4.261-1.065-8.658-1.605-13.067-1.605c-6.785,0-12.91,1.166-18.208,3.466 c-5.568,2.421-10.008,5.918-13.2,10.396c-3.295,4.626-4.966,10.027-4.966,16.052c0,9.843,4.319,22.489,24.89,26.844l11.769,2.502 c3.189,0.696,4.614,1.336,5.173,1.648c-0.068,0.085-0.216,0.241-0.518,0.457c-0.266,0.189-1.856,1.14-7.029,1.14 c-2.856,0-5.785-0.333-8.708-0.992c-2.76-0.619-5.275-1.576-7.52-2.87c-0.093-0.052-0.187-0.102-0.369-0.193 c-2.179-1.054-4.326-1.589-6.382-1.589c-1.641,0-3.214,0.338-4.675,1.002c-3.028,1.376-5.328,3.787-6.654,6.973 c-1.245,2.991-1.446,6.239-0.582,9.389c0.954,3.483,3.286,6.313,6.748,8.187c3.824,2.188,8.325,3.858,13.383,4.965 c4.895,1.07,9.861,1.613,14.759,1.613c6.979,0,13.196-1.143,18.481-3.396c5.58-2.381,10.013-5.827,13.178-10.241 C84.344,75.801,86,70.465,86,64.503C86,55.055,81.594,42.838,60.587,38.286z"/><path fill="#81c2f6" d="M49.417,87.498c-4.457,0-8.914-0.489-13.37-1.464c-4.457-0.975-8.322-2.404-11.593-4.285 c-1.951-1.045-3.17-2.457-3.657-4.233c-0.488-1.777-0.383-3.502,0.314-5.175c0.696-1.672,1.81-2.856,3.343-3.553 c1.531-0.696,3.377-0.523,5.535,0.522c2.784,1.604,5.884,2.788,9.297,3.554c3.411,0.768,6.789,1.15,10.131,1.15 c5.014,0,8.617-0.784,10.81-2.352c2.194-1.567,3.29-3.536,3.29-5.905c0-2.021-0.766-3.623-2.298-4.808 c-1.533-1.184-4.214-2.195-8.043-3.031L41.374,55.41c-13.161-2.786-19.741-9.616-19.741-20.486c0-4.668,1.253-8.762,3.76-12.282 c2.507-3.517,6.007-6.253,10.498-8.205c4.491-1.95,9.696-2.927,15.615-2.927c3.899,0,7.73,0.47,11.49,1.411 c3.76,0.941,7.066,2.317,9.923,4.129c1.74,1.045,2.82,2.404,3.238,4.076c0.418,1.673,0.295,3.276-0.365,4.808 c-0.663,1.534-1.776,2.613-3.343,3.24c-1.567,0.627-3.499,0.384-5.797-0.731c-2.298-1.184-4.737-2.055-7.312-2.613 c-2.576-0.557-5.223-0.836-7.938-0.836c-4.387,0-7.781,0.854-10.184,2.561c-2.402,1.708-3.604,3.92-3.604,6.637 c0,2.022,0.732,3.658,2.194,4.913c1.462,1.254,4.003,2.265,7.625,3.031l11.803,2.508c13.508,2.927,20.264,9.548,20.264,19.859 c0,4.599-1.238,8.624-3.708,12.073c-2.472,3.449-5.954,6.132-10.445,8.048C60.854,86.54,55.544,87.498,49.417,87.498z"/><path fill="#40396e" d="M49.417,88.998c-4.538,0-9.145-0.504-13.69-1.498c-4.583-1.002-8.627-2.5-12.021-4.45 c-2.279-1.221-3.758-2.956-4.356-5.137c-0.576-2.098-0.449-4.167,0.376-6.148c0.842-2.023,2.224-3.484,4.106-4.341 c1.952-0.888,4.241-0.706,6.81,0.536c0.032,0.016,0.064,0.033,0.095,0.051c2.636,1.519,5.622,2.66,8.876,3.391 c3.282,0.739,6.58,1.113,9.803,1.113c4.671,0,8.015-0.697,9.938-2.072c1.792-1.28,2.663-2.813,2.663-4.685 c0-1.565-0.545-2.716-1.716-3.621c-1.348-1.042-3.853-1.968-7.444-2.752l-11.795-2.508 c-13.887-2.939-20.929-10.325-20.929-21.953c0-4.964,1.358-9.389,4.038-13.151c2.657-3.728,6.398-6.658,11.121-8.711 c4.662-2.024,10.117-3.051,16.213-3.051c4.003,0,7.991,0.49,11.854,1.456c3.898,0.976,7.384,2.429,10.363,4.317 c2.056,1.234,3.374,2.916,3.889,4.979c0.498,1.991,0.349,3.931-0.443,5.766c-0.821,1.903-2.222,3.262-4.163,4.038 c-1.968,0.79-4.326,0.528-7.008-0.774c-2.203-1.134-4.539-1.969-6.975-2.496c-2.459-0.532-5.023-0.802-7.621-0.802 c-4.048,0-7.183,0.769-9.315,2.283c-2,1.422-2.973,3.193-2.973,5.413c0,1.575,0.546,2.811,1.671,3.774 c1.264,1.084,3.605,1.993,6.958,2.702l11.805,2.508c14.237,3.086,21.452,10.261,21.452,21.327c0,4.896-1.342,9.252-3.988,12.946 c-2.623,3.659-6.35,6.538-11.075,8.555C61.276,87.99,55.719,88.998,49.417,88.998z M26.444,69.874 c-0.502,0-0.959,0.094-1.37,0.28c-1.187,0.54-2.03,1.443-2.579,2.764c-0.57,1.369-0.653,2.743-0.252,4.201 c0.377,1.376,1.332,2.458,2.918,3.308c3.166,1.819,6.923,3.206,11.205,4.142c4.336,0.949,8.727,1.43,13.05,1.43 c5.895,0,11.057-0.927,15.341-2.754c4.213-1.798,7.515-4.336,9.813-7.543c2.274-3.174,3.428-6.941,3.428-11.198 c0-9.594-6.241-15.61-19.081-18.394l-11.797-2.506c-3.904-0.826-6.617-1.925-8.29-3.36c-1.803-1.547-2.717-3.583-2.717-6.052 c0-3.217,1.425-5.86,4.235-7.858c2.651-1.883,6.37-2.838,11.053-2.838c2.811,0,5.588,0.293,8.255,0.87 c2.692,0.583,5.276,1.506,7.682,2.744c1.858,0.902,3.401,1.135,4.552,0.673c1.195-0.478,2.021-1.276,2.523-2.442 c0.532-1.233,0.626-2.492,0.287-3.85c-0.32-1.281-1.155-2.313-2.555-3.153c-2.738-1.736-5.929-3.063-9.515-3.96 c-3.625-0.906-7.368-1.366-11.126-1.366c-5.683,0-10.735,0.943-15.018,2.803c-4.216,1.832-7.538,4.423-9.874,7.7 c-2.31,3.243-3.481,7.082-3.481,11.41c0,10.155,6.068,16.376,18.552,19.019l11.805,2.51c4.094,0.894,6.92,1.977,8.648,3.312 c1.912,1.479,2.881,3.495,2.881,5.994c0,2.871-1.319,5.269-3.919,7.125c-2.476,1.771-6.298,2.632-11.682,2.632 c-3.444,0-6.963-0.399-10.46-1.186c-3.53-0.793-6.782-2.035-9.668-3.69C28.226,70.13,27.274,69.874,26.444,69.874z"/></svg>