<svg xmlns="http://www.w3.org/2000/svg"  viewBox="0 0 100 100" width="100px" height="100px"><path d="M79.897,18.714c-8.009-7.358-18.268-10.64-33.265-10.64H26.072c-9.277,0-15.041,5.745-15.041,14.992v56.931 c0,9.247,5.763,14.992,15.041,14.992h20.561c14.996,0,25.259-3.305,33.277-10.715C87.933,76.863,92,65.83,92,51.479 C92,37.118,87.929,26.094,79.897,18.714z" opacity=".35"/><path fill="#f2f2f2" d="M77.897,16.714c-8.009-7.358-18.268-10.64-33.265-10.64H24.072 c-9.277,0-15.041,5.745-15.041,14.992v56.931c0,9.247,5.763,14.992,15.041,14.992h20.561c14.996,0,25.259-3.305,33.277-10.715 C85.933,74.863,90,63.83,90,49.479C90,35.118,85.929,24.094,77.897,16.714z"/><path fill="#70bfff" d="M24.072,86.489c-5.694,0-8.54-2.831-8.54-8.492V21.067c0-5.661,2.847-8.492,8.54-8.492h20.56 c12.653,0,22.459,3.198,29.419,9.593C81.01,28.563,83.5,39,83.5,49.479c0,10.521-2.49,20.935-9.449,27.364 c-6.96,6.432-16.765,9.646-29.419,9.646H24.072z M31.875,73.174h11.809C59.5,73.174,66.5,64,66.5,49.479 c0-14.479-7-23.59-22.816-23.59H31.875V73.174z"/><path fill="#40396e" d="M44.633,87.989H24.072c-6.475,0-10.041-3.549-10.041-9.992V21.066 c0-6.443,3.566-9.992,10.041-9.992h20.561c13.649,0,22.865,2.875,29.882,9.321C81.473,26.79,85,36.575,85,49.479 c0,12.897-3.526,22.696-10.482,29.122C67.492,85.094,58.275,87.989,44.633,87.989z M24.072,14.074 c-4.869,0-7.041,2.156-7.041,6.992v56.931c0,4.836,2.171,6.992,7.041,6.992h20.561c12.831,0,21.42-2.649,27.85-8.591 C78.798,70.563,82,61.506,82,49.479c0-12.03-3.201-21.072-9.515-26.875c-6.421-5.899-15.011-8.53-27.853-8.53H24.072z M43.685,74H32.5c-0.829,0-1.5-0.672-1.5-1.5v-46c0-0.828,0.671-1.5,1.5-1.5h11.185C60.273,25,68,32.778,68,49.479 C68,66.208,60.273,74,43.685,74z M34,71h9.685C58.625,71,65,64.563,65,49.479C65,34.424,58.625,28,43.685,28H34V71z"/></svg>