<svg xmlns="http://www.w3.org/2000/svg"  viewBox="0 0 100 100" width="100px" height="100px"><path d="M72.474,67.009H50.998V21.501C50.998,12.692,45.355,7,36.623,7c-5.538,0-8.874,2.24-10.7,4.122 c-1.785,1.842-3.912,5.185-3.912,10.647v57.472c0,5.469,2.129,8.811,3.912,10.647c1.822,1.88,5.175,4.122,10.804,4.122h35.774 c8.181,0,13.467-5.3,13.467-13.501S80.671,67.009,72.474,67.009z" opacity=".35"/><path fill="#f2f2f2" d="M70.474,65.009H48.998V19.501C48.998,10.692,43.355,5,34.623,5c-5.538,0-8.874,2.24-10.7,4.122 c-1.785,1.842-3.912,5.185-3.912,10.647v57.472c0,5.469,2.129,8.811,3.912,10.647c1.822,1.88,5.175,4.122,10.804,4.122h35.774 c8.181,0,13.467-5.3,13.467-13.501S78.671,65.009,70.474,65.009z"/><path fill="#70bfff" d="M34.726,85.511c-2.704,0-4.75-0.715-6.136-2.146c-1.388-1.429-2.08-3.471-2.08-6.124V19.77 c0-2.651,0.692-4.693,2.08-6.124c1.386-1.429,3.396-2.146,6.032-2.146c4.878,0,7.875,2.49,7.875,8.001v52.007h27.977 c4.644,0,6.994,2.465,6.994,7.001c0,4.606-2.323,7.001-6.967,7.001H34.726z"/><path fill="#40396e" d="M70.501,87.011H34.727c-3.113,0-5.54-0.875-7.213-2.602c-1.661-1.711-2.503-4.123-2.503-7.168 V19.77c0-3.043,0.842-5.454,2.503-7.168C29.189,10.875,31.581,10,34.623,10c5.958,0,9.375,3.463,9.375,9.501v50.508h26.477 c5.398,0,8.494,3.099,8.494,8.501C78.968,83.992,75.961,87.011,70.501,87.011z M34.623,13c-2.231,0-3.852,0.553-4.955,1.69 c-1.115,1.149-1.657,2.812-1.657,5.079v57.472c0,2.27,0.542,3.931,1.656,5.079c1.103,1.138,2.757,1.69,5.06,1.69h35.774 c3.781,0,5.467-1.696,5.467-5.501c0-3.753-1.746-5.501-5.494-5.501H42.498c-0.829,0-1.5-0.672-1.5-1.5V19.501 C40.998,15.065,38.972,13,34.623,13z"/></svg>