<svg xmlns="http://www.w3.org/2000/svg"  viewBox="0 0 100 100" width="100px" height="100px"><path d="M87.468,71.296c-1.528-2.959-4-5.177-7.15-6.413c-1.361-0.533-2.805-0.804-4.289-0.804c-2.276,0-4.644,0.638-7.095,1.928 c-1.662,0.903-3.411,1.576-5.202,1.999c-1.849,0.438-3.669,0.661-5.411,0.661c-5.124,0-8.897-1.333-11.216-3.965 c-2.528-2.866-3.811-7.326-3.811-13.257c0-5.92,1.276-10.355,3.794-13.187c2.318-2.608,6.098-3.931,11.232-3.931 c1.867,0,3.735,0.221,5.553,0.657c1.676,0.401,3.316,1.075,4.876,2.002l0.106,0.062c2.309,1.296,4.637,1.953,6.919,1.953 c1.531,0,3.026-0.297,4.44-0.881c3.155-1.303,5.617-3.63,7.118-6.733c1.475-3.05,1.79-6.438,0.911-9.804 c-0.65-2.485-2.402-6.012-7.069-8.699c-3.182-1.821-6.915-3.274-11.098-4.322c-4.125-1.029-8.258-1.552-12.284-1.552 c-9.092,0-17.069,1.854-23.71,5.508c-6.784,3.733-12.075,9.06-15.726,15.831c-3.563,6.61-5.368,14.381-5.368,23.096 c0,8.786,1.806,16.592,5.368,23.2c3.65,6.772,8.94,12.099,15.726,15.831c6.643,3.654,14.62,5.508,23.71,5.508 c4.253,0,8.581-0.563,12.867-1.672c4.398-1.14,8.252-2.77,11.455-4.846c3.439-2.092,5.684-5.071,6.493-8.618 C89.369,77.523,88.976,74.222,87.468,71.296z" opacity=".35"/><path fill="#f2f2f2" d="M85.468,69.296c-1.528-2.959-4-5.177-7.15-6.413c-1.361-0.533-2.805-0.804-4.289-0.804 c-2.276,0-4.644,0.638-7.095,1.928c-1.662,0.903-3.411,1.576-5.202,1.999c-1.849,0.438-3.669,0.661-5.411,0.661 c-5.124,0-8.897-1.333-11.216-3.965c-2.528-2.866-3.811-7.326-3.811-13.257c0-5.92,1.276-10.355,3.794-13.187 c2.318-2.608,6.098-3.931,11.232-3.931c1.867,0,3.735,0.221,5.553,0.657c1.676,0.401,3.316,1.075,4.876,2.002l0.106,0.062 c2.309,1.296,4.637,1.953,6.919,1.953c1.531,0,3.026-0.297,4.44-0.881c3.155-1.303,5.617-3.63,7.118-6.733 c1.475-3.05,1.79-6.438,0.911-9.804c-0.65-2.485-2.402-6.012-7.069-8.699C75.993,9.063,72.26,7.61,68.077,6.563 c-4.125-1.029-8.258-1.552-12.284-1.552c-9.092,0-17.069,1.854-23.71,5.508c-6.784,3.733-12.075,9.06-15.726,15.831 c-3.563,6.61-5.368,14.381-5.368,23.096c0,8.786,1.806,16.592,5.368,23.2c3.65,6.772,8.94,12.099,15.726,15.831 c6.643,3.654,14.62,5.508,23.71,5.508c4.253,0,8.581-0.563,12.867-1.672c4.398-1.14,8.252-2.77,11.455-4.846 c3.439-2.092,5.684-5.071,6.493-8.618C87.369,75.523,86.976,72.222,85.468,69.296z"/><path fill="#70bfff" d="M55.774,87.484c-8.026,0-14.89-1.568-20.592-4.703c-5.702-3.134-10.085-7.54-13.147-13.219 c-3.062-5.677-4.593-12.383-4.593-20.117c0-7.663,1.531-14.333,4.593-20.012c3.062-5.677,7.445-10.085,13.147-13.219 c5.702-3.135,12.566-4.703,20.592-4.703c3.519,0,7.091,0.454,10.718,1.359c3.625,0.907,6.775,2.127,9.451,3.657 c2.181,1.255,3.52,2.821,4.013,4.703c0.491,1.881,0.333,3.657-0.475,5.329c-0.81,1.673-2.06,2.857-3.749,3.553 c-1.689,0.697-3.591,0.454-5.702-0.732c-2.112-1.254-4.329-2.159-6.653-2.717c-2.323-0.557-4.683-0.836-7.075-0.836 c-7.111,0-12.478,2.037-16.103,6.113c-3.627,4.075-5.439,9.911-5.439,17.503c0,7.595,1.812,13.447,5.439,17.557 c3.625,4.111,8.992,6.165,16.103,6.165c2.253,0,4.558-0.277,6.917-0.836c2.358-0.557,4.628-1.427,6.811-2.613 c2.252-1.184,4.224-1.444,5.913-0.783c1.689,0.663,2.939,1.777,3.749,3.344c0.808,1.567,1.003,3.275,0.58,5.12 c-0.422,1.847-1.62,3.362-3.59,4.546c-2.676,1.743-5.898,3.1-9.662,4.075C63.253,86.995,59.504,87.484,55.774,87.484z"/><path fill="#40396e" d="M55.793,88.984c-8.237,0-15.403-1.645-21.3-4.889c-5.929-3.262-10.549-7.912-13.734-13.822 c-3.165-5.872-4.77-12.88-4.77-20.828c0-7.877,1.604-14.85,4.77-20.724c3.187-5.911,7.807-10.561,13.734-13.822 c5.895-3.244,13.062-4.889,21.3-4.889c3.616,0,7.342,0.472,11.073,1.403c3.737,0.936,7.042,2.218,9.825,3.811 c2.535,1.46,4.121,3.352,4.716,5.625c0.582,2.229,0.389,4.368-0.575,6.361c-0.972,2.008-2.494,3.45-4.524,4.288 c-2.127,0.879-4.484,0.604-7.005-0.811c-2.001-1.188-4.098-2.046-6.264-2.565c-2.198-0.527-4.459-0.795-6.719-0.795 c-6.625,0-11.662,1.888-14.97,5.609c-3.355,3.772-5.057,9.326-5.057,16.508c0,7.184,1.702,12.757,5.061,16.564 c3.308,3.754,8.343,5.657,14.966,5.657c2.129,0,4.338-0.268,6.565-0.796c2.222-0.525,4.387-1.357,6.436-2.471 c2.661-1.4,5.065-1.688,7.172-0.862c2.03,0.797,3.555,2.16,4.532,4.053c0.972,1.886,1.21,3.952,0.709,6.143 c-0.514,2.251-1.952,4.101-4.276,5.497c-2.75,1.794-6.147,3.23-10.052,4.242C63.531,88.476,59.624,88.984,55.793,88.984z M55.793,13.011c-7.728,0-14.407,1.52-19.854,4.518c-5.413,2.978-9.632,7.223-12.54,12.616 c-2.927,5.433-4.41,11.926-4.41,19.301c0,7.446,1.483,13.975,4.41,19.404c2.907,5.394,7.126,9.639,12.539,12.617 c5.449,2.998,12.129,4.518,19.854,4.518c3.578,0,7.232-0.477,10.861-1.416c3.589-0.93,6.688-2.235,9.212-3.88 c1.666-1.002,2.614-2.178,2.944-3.623c0.344-1.503,0.195-2.844-0.451-4.099c-0.643-1.243-1.611-2.105-2.961-2.636 c-1.255-0.492-2.824-0.252-4.662,0.714c-2.264,1.231-4.679,2.159-7.159,2.746c-2.454,0.581-4.896,0.876-7.257,0.876 c-7.522,0-13.315-2.245-17.217-6.674c-3.854-4.371-5.81-10.611-5.81-18.548c0-7.938,1.956-14.163,5.814-18.501 c3.901-4.39,9.692-6.616,17.212-6.616c2.495,0,4.991,0.295,7.419,0.877c2.459,0.591,4.836,1.562,7.065,2.887 c1.67,0.938,3.105,1.151,4.357,0.634c1.349-0.556,2.319-1.479,2.969-2.82c0.653-1.352,0.776-2.757,0.374-4.297 c-0.39-1.488-1.472-2.726-3.307-3.782c-2.541-1.454-5.591-2.633-9.06-3.502C62.646,13.453,59.165,13.011,55.793,13.011z"/></svg>