<svg xmlns="http://www.w3.org/2000/svg"  viewBox="0 0 100 100" width="100px" height="100px"><path d="M90.989,22c0-9.105-5.688-14.989-14.489-14.989C67.691,7.011,62,12.895,62,22v15H42V22 c0-9.105-5.702-14.989-14.527-14.989c-8.772,0-14.44,5.883-14.44,14.985L13,79c0,8.953,5.816,14.968,14.473,14.968 C36.298,93.968,42,88.093,42,79V63h20v16c0,8.972,5.847,15,14.548,15C85.192,94,91,87.972,91,78.999L90.989,22z" opacity=".35"/><path fill="#f2f2f2" d="M88.989,20c0-9.105-5.688-14.989-14.489-14.989C65.691,5.011,60,10.895,60,20v15H40V20 c0-9.105-5.702-14.989-14.527-14.989c-8.772,0-14.44,5.883-14.44,14.985L11,77c0,8.953,5.816,14.968,14.473,14.968 C34.298,91.968,40,86.093,40,77V61h20v16c0,8.972,5.847,15,14.548,15C83.192,92,89,85.972,89,76.999L88.989,20z"/><path fill="#70bfff" d="M25.473,85.468C20.5,85.468,17.5,82.5,17.5,77l0.032-57c0-5.455,2.648-8.489,7.941-8.489 c5.227,0,8.027,3.034,8.027,8.489v21.5h33V20c0-5.455,2.772-8.489,8-8.489c5.294,0,7.989,3.034,7.989,8.489L82.5,77 c0,5.5-3,8.5-7.953,8.5c-5.047,0-8.047-3-8.047-8.5V54.5h-33V77C33.5,82.5,30.7,85.468,25.473,85.468z"/><path fill="#40396e" d="M74.548,87C68.569,87,65,83.262,65,77V56H35v21c0,6.335-3.473,9.968-9.527,9.968 C19.541,86.968,16,83.241,16,77l0.032-57.001c0-6.348,3.44-9.988,9.44-9.988C31.527,10.011,35,13.651,35,20v20h30V20 c0-6.349,3.463-9.989,9.5-9.989c6.03,0,9.489,3.641,9.489,9.989L84,77C84,83.262,80.467,87,74.548,87z M33.5,53h33 c0.828,0,1.5,0.672,1.5,1.5V77c0,4.579,2.265,7,6.548,7C78.769,84,81,81.579,81,77l-0.011-57c0-4.703-2.123-6.989-6.489-6.989 c-4.374,0-6.5,2.286-6.5,6.989v21.5c0,0.828-0.672,1.5-1.5,1.5h-33c-0.828,0-1.5-0.672-1.5-1.5V20 c0-4.638-2.196-6.989-6.527-6.989c-4.334,0-6.44,2.286-6.44,6.989L19,77.001c0,4.558,2.238,6.967,6.473,6.967 C29.865,83.968,32,81.688,32,77V54.5C32,53.672,32.672,53,33.5,53z"/></svg>