<svg xmlns="http://www.w3.org/2000/svg"  viewBox="0 0 100 100" width="100px" height="100px"><path d="M85.874,71.608L64.791,48.994l19.525-20.095c2.421-2.443,3.837-5.419,4.095-8.604c0.28-3.44-0.765-6.614-3.027-9.184 C83.043,8.46,79.508,7,75.431,7c-2.573,0-5.031,0.595-7.313,1.773c-1.908,0.99-3.706,2.38-5.302,4.085L47,29.339V21.5 C47,11.483,39.718,7,32.5,7S18,11.483,18,21.5v58C18,88.576,25.372,94,32.5,94S47,88.576,47,79.5v-9.514l16.127,17.111 c1.731,1.909,3.413,3.434,4.998,4.529C70.401,93.201,73.235,94,76.548,94c5.095,0,8.165-2.013,9.852-3.707 c2.423-2.445,3.671-5.608,3.609-9.162C89.939,77.742,88.561,74.552,85.874,71.608z" opacity=".35"/><path fill="#f2f2f2" d="M83.874,69.608L62.791,46.994l19.525-20.095c2.421-2.443,3.837-5.419,4.095-8.604 c0.28-3.44-0.765-6.614-3.027-9.184C81.043,6.46,77.508,5,73.431,5c-2.573,0-5.031,0.595-7.313,1.773 c-1.908,0.99-3.706,2.38-5.302,4.085L45,27.339V19.5C45,9.483,37.718,5,30.5,5S16,9.483,16,19.5v58C16,86.576,23.372,92,30.5,92 S45,86.576,45,77.5v-9.514l16.127,17.111c1.731,1.909,3.413,3.434,4.998,4.529C68.401,91.201,71.235,92,74.548,92 c5.095,0,8.165-2.013,9.852-3.707c2.423-2.445,3.671-5.608,3.609-9.162C87.939,75.742,86.561,72.552,83.874,69.608z"/><path fill="#70bfff" d="M30.5,85.5c-4,0-8-3-8-8v-58c0-6,4-8,8-8s8,2.053,8,8v24l0,0l27.004-28.14 c1.151-1.229,2.352-2.166,3.607-2.816c1.253-0.648,2.693-1.043,4.319-1.043c2.302,0,3.996,0.685,5.081,1.914 c1.082,1.23,1.557,2.68,1.421,4.353c-0.136,1.673-0.881,3.193-2.234,4.558l-23.88,24.577L79.12,74.04 c1.557,1.708,2.353,3.449,2.389,5.223c0.032,1.776-0.544,3.261-1.728,4.455c-1.187,1.193-2.932,1.782-5.234,1.782 c-1.966,0-3.54-0.399-4.725-1.219c-1.185-0.819-2.489-2.013-3.912-3.584L38.5,51.612l0,0V77.5C38.5,82.5,34.5,85.5,30.5,85.5z"/><path fill="#40396e" d="M74.548,87c-2.277,0-4.154-0.5-5.579-1.485c-1.279-0.885-2.683-2.167-4.17-3.811L40,55.391V77.5 c0,5.946-4.83,9.5-9.5,9.5S21,83.446,21,77.5v-58c0-7.004,4.907-9.5,9.5-9.5s9.5,2.496,9.5,9.5v20.271l24.423-25.45 c1.245-1.33,2.595-2.381,3.997-3.108C69.979,10.407,71.663,10,73.431,10c2.661,0,4.807,0.837,6.205,2.421 c1.36,1.545,1.962,3.384,1.792,5.468c-0.164,2.025-1.061,3.874-2.663,5.491L55.889,46.923l24.328,26.095 c1.813,1.987,2.749,4.074,2.793,6.216c0.038,2.191-0.689,4.054-2.162,5.54C79.377,86.252,77.258,87,74.548,87z M38.5,50.112 c0.405,0,0.803,0.164,1.092,0.472l27.411,29.085c1.354,1.495,2.582,2.625,3.673,3.379C71.589,83.68,72.892,84,74.548,84 c1.909,0,3.273-0.438,4.171-1.34c0.893-0.9,1.315-2.004,1.291-3.37c-0.028-1.408-0.682-2.796-1.998-4.239l-25.29-27.127 c-0.546-0.584-0.536-1.494,0.021-2.067l23.881-24.577c1.117-1.128,1.707-2.313,1.814-3.634c0.103-1.26-0.241-2.319-1.052-3.24 C76.562,13.474,75.231,13,73.431,13c-1.284,0-2.506,0.295-3.631,0.876c-1.098,0.569-2.175,1.414-3.2,2.509L39.582,44.539 c-0.424,0.441-1.073,0.582-1.642,0.353C37.372,44.663,37,44.112,37,43.5v-24c0-5.655-4.072-6.5-6.5-6.5S24,13.845,24,19.5v58 c0,4.222,3.349,6.5,6.5,6.5s6.5-2.278,6.5-6.5V51.612c0-0.615,0.375-1.167,0.946-1.395C38.126,50.146,38.313,50.112,38.5,50.112z"/></svg>