<svg xmlns="http://www.w3.org/2000/svg"  viewBox="0 0 100 100" width="100px" height="100px"><path d="M79.582,75.57c-0.398-0.619-0.812-1.209-1.239-1.768c2.73-2.426,5.028-5.201,6.777-8.211 C88.632,59.549,90,53.899,90,45.444c0-7.227-1.525-13.242-4.945-19.505c-3.135-5.74-7.598-10.262-13.267-13.439 C66.383,9.472,60.061,8,52.46,8c-7.608,0-13.921,1.475-19.299,4.509c-5.633,3.177-10.076,7.695-13.206,13.431 c-2.532,4.635-5.12,10.586-5.12,19.591c0,7.351,1.573,13.673,4.952,19.896c2.938,5.413,7.312,9.706,13.373,13.125 c5.733,3.233,12.406,4.978,19.345,5.043c1.283,0,1.841,0.15,2.028,0.219l6.181,9.867l0.104,0.159 c1.708,2.509,3.898,4.271,6.515,5.238c1.616,0.596,3.279,0.897,4.944,0.897c0.791,0,1.591-0.069,2.381-0.206 c2.517-0.438,4.73-1.491,6.584-3.132c2.004-1.775,3.329-4.106,3.834-6.749c0.378-1.99,0.347-5.124-1.939-8.76L79.582,75.57z" opacity=".35"/><path fill="#f2f2f2" d="M77.582,73.57c-0.398-0.619-0.812-1.209-1.239-1.768c2.73-2.426,5.028-5.201,6.777-8.211 C86.632,57.549,88,51.899,88,43.444c0-7.227-1.525-13.242-4.945-19.505c-3.135-5.74-7.598-10.262-13.267-13.439 C64.383,7.472,58.061,6,50.46,6c-7.608,0-13.921,1.475-19.299,4.509c-5.633,3.177-10.076,7.695-13.206,13.431 c-2.532,4.635-5.12,10.586-5.12,19.591c0,7.351,1.573,13.673,4.952,19.896c2.938,5.413,7.312,9.706,13.373,13.125 c5.733,3.233,12.406,4.978,19.345,5.043c1.283,0,1.841,0.15,2.028,0.219l6.181,9.867l0.104,0.159 c1.708,2.509,3.898,4.271,6.515,5.238c1.616,0.596,3.279,0.897,4.944,0.897c0.791,0,1.591-0.069,2.381-0.206 c2.517-0.438,4.73-1.491,6.584-3.132c2.004-1.775,3.329-4.106,3.834-6.749c0.378-1.99,0.347-5.124-1.939-8.76L77.582,73.57z"/><path fill="#70bfff" d="M75.634,82.59c0.938,1.491,1.29,2.852,1.056,4.086c-0.236,1.232-0.822,2.265-1.76,3.097 c-0.94,0.831-2.069,1.362-3.389,1.592c-1.32,0.228-2.641,0.099-3.96-0.387c-1.32-0.488-2.451-1.42-3.389-2.797l-6.249-9.98 c-1.467-2.237-3.859-3.108-7.437-3.108c-6.104-0.058-11.574-1.624-16.151-4.205c-4.577-2.581-8.301-5.86-10.853-10.564 c-2.552-4.703-4.165-9.933-4.165-16.795c0-7.13,1.771-11.801,4.323-16.476s6.118-8.303,10.694-10.884S44.299,12.5,50.46,12.5 s11.544,1.09,16.151,3.671c4.606,2.581,8.185,6.209,10.738,10.884c2.552,4.675,4.15,9.531,4.15,16.389 c0,7.556-1.183,12.035-4,16.881c-2.816,4.847-7.254,8.663-12.123,11.128c2.58,0.746,4.857,2.705,6.736,5.63L75.634,82.59z M50.46,62.5c9.04,0,16.04-7.157,16.04-18.348c0-11.725-6-18.652-16.04-18.652c-9.96,0-15.96,6.927-15.96,18.652 C34.5,55.343,40.5,62.5,50.46,62.5z"/><path fill="#40396e" d="M70.276,92.975c-1.076,0-2.152-0.197-3.215-0.589c-1.616-0.598-2.999-1.728-4.11-3.36 L56.67,78.998c-1.1-1.678-2.949-2.404-6.165-2.404c-6.055-0.058-11.89-1.579-16.889-4.398 c-5.217-2.942-8.958-6.591-11.435-11.154c-2.966-5.463-4.347-11.026-4.347-17.511c0-7.856,2.166-12.907,4.508-17.194 c2.676-4.902,6.469-8.762,11.274-11.472C38.227,12.264,43.736,11,50.46,11s12.246,1.264,16.885,3.862 c4.835,2.71,8.644,6.569,11.321,11.474C81.704,31.898,83,37.016,83,43.444c0,7.584-1.14,12.363-4.203,17.635 c-2.333,4.016-5.875,7.579-10.14,10.244c1.741,1.118,3.32,2.773,4.718,4.949l3.522,5.51c0.002,0.003,0.004,0.006,0.006,0.009 c1.142,1.814,1.565,3.553,1.26,5.165c-0.299,1.563-1.052,2.888-2.238,3.939c-1.146,1.015-2.534,1.67-4.126,1.947 C71.292,92.931,70.784,92.975,70.276,92.975z M50.46,14c-6.193,0-11.221,1.138-15.369,3.478 c-4.309,2.43-7.712,5.894-10.115,10.296c-2.485,4.552-4.141,8.973-4.141,15.757c0,5.964,1.266,11.073,3.983,16.079 c2.23,4.11,5.494,7.278,10.271,9.973c4.56,2.571,9.895,3.959,15.43,4.012c2.65,0,6.451,0.393,8.677,3.786l6.267,10.006 c0.732,1.073,1.605,1.804,2.638,2.186c1.076,0.397,2.118,0.502,3.185,0.315c1.049-0.183,1.917-0.588,2.65-1.236 c0.688-0.61,1.107-1.348,1.28-2.255c0.16-0.841-0.126-1.852-0.849-3.002l-3.518-5.503c-1.724-2.683-3.706-4.365-5.89-4.996 c-0.592-0.172-1.019-0.688-1.076-1.302c-0.058-0.613,0.266-1.199,0.815-1.478c4.913-2.487,8.999-6.231,11.504-10.544 C78.971,54.81,80,50.438,80,43.444c0-5.893-1.187-10.579-3.967-15.671c-2.403-4.401-5.82-7.864-10.155-10.294 C61.699,15.138,56.656,14,50.46,14z M50.46,64C39.69,64,33,56.395,33,44.151C33,31.722,39.69,24,50.46,24 C61.443,24,68,31.533,68,44.151C68,55.838,60.787,64,50.46,64z M50.46,27C41.271,27,36,33.251,36,44.151 C36,54.701,41.405,61,50.46,61C59.021,61,65,54.071,65,44.151C65,33.251,59.7,27,50.46,27z"/></svg>