<svg xmlns="http://www.w3.org/2000/svg"  viewBox="0 0 100 100" width="100px" height="100px"><path d="M96.677,13.232c-2.087-2.758-5.371-4.277-9.248-4.277c-6.381,0-11.824,4.393-13.535,10.885l-5.28,19.264l-5.019-19.139 c-2.617-9.1-8.291-11.01-12.59-11.01c-5.955,0-10.627,4.11-12.487,10.967l-5.315,19.158l-4.966-19.231 c-2.584-9.479-9.283-10.894-13.045-10.894c-3.794,0-7.261,1.611-9.512,4.42c-2.409,3.005-3.289,7.222-2.353,11.28l14.513,57.26 C19.715,89.369,25.335,94,32.507,94c6.924,0,12.575-4.706,14.413-11.996l3.836-13.803l3.461,13.764 C56.152,89.389,61.677,94,68.636,94c8.377,0,13.055-6.183,14.651-12.008l15.094-56.916 C98.874,23.355,100.09,17.748,96.677,13.232z" opacity=".35"/><path fill="#f2f2f2" d="M94.717,11.277C92.631,8.519,89.347,7,85.469,7c-6.381,0-11.824,4.393-13.535,10.885l-5.28,19.264 L61.636,18.01C59.019,8.91,53.345,7,49.046,7c-5.955,0-10.627,4.11-12.487,10.967l-5.315,19.158l-4.966-19.231 C23.694,8.415,16.995,7,13.232,7C9.439,7,5.971,8.611,3.72,11.42c-2.409,3.005-3.289,7.222-2.353,11.28L15.88,79.96 c1.875,7.455,7.495,12.086,14.666,12.086c6.924,0,12.575-4.706,14.413-11.996l3.836-13.803l3.461,13.764 c1.935,7.423,7.459,12.035,14.418,12.035c8.377,0,13.055-6.183,14.651-12.008l15.094-56.916 C96.914,21.401,98.13,15.794,94.717,11.277z"/><path fill="#70bfff" d="M30.547,85.695c-4.894,0-7.486-3.368-8.469-7.276L7.586,21.25c-0.894-3.884,1.129-7.9,5.646-7.9 c4.613,0,6.106,3.368,6.88,6.204l10.91,42.253l11.695-42.154c0.579-2.133,2.122-6.304,6.329-6.304 c4.482,0,5.814,4.203,6.447,6.404l11.024,42.053l11.581-42.253c0.878-3.336,3.419-6.204,7.371-6.204 c5.761,0,5.537,5.533,4.799,8.066L75.149,78.419c-0.878,3.201-3.367,7.276-8.473,7.276c-4.93,0-7.335-3.825-8.234-7.276 L49.105,41.29l-10.32,37.128C37.876,82.077,35.23,85.695,30.547,85.695z"/><path fill="#40396e" d="M66.676,87.194c-4.694,0-8.315-3.139-9.686-8.397l-7.958-31.645L40.23,78.82 c-1.001,4.028-4.079,8.374-9.684,8.374c-4.963,0-8.581-3.065-9.924-8.41L6.132,21.618c-0.607-2.636-0.082-5.301,1.398-7.16 c1.338-1.682,3.363-2.607,5.702-2.607c6.333,0,7.834,5.502,8.327,7.311l9.515,36.849l10.198-36.757 c1.294-4.771,4.056-7.402,7.774-7.402c5.734,0,7.299,5.441,7.889,7.489l9.615,36.677l10.102-36.857 c1.168-4.435,4.631-7.309,8.817-7.309c2.962,0,4.545,1.28,5.351,2.354c2.134,2.843,1.115,6.856,0.89,7.632L76.6,78.804 C76.057,80.781,73.748,87.194,66.676,87.194z M49.105,39.79c0.006,0,0.012,0,0.019,0c0.681,0.009,1.27,0.475,1.436,1.134 l9.336,37.129c0.596,2.286,2.274,6.142,6.78,6.142c4.814,0,6.519-4.316,7.027-6.172l15.115-56.99 c0.459-1.578,0.523-3.799-0.398-5.027c-0.583-0.776-1.549-1.154-2.951-1.154c-3.377,0-5.272,2.628-5.921,5.087L67.964,62.205 c-0.179,0.652-0.771,1.104-1.446,1.104c-0.003,0-0.006,0-0.009,0c-0.679-0.004-1.271-0.463-1.442-1.12L54.042,20.136 c-0.785-2.729-1.942-5.285-4.996-5.285c-2.304,0-3.946,1.748-4.881,5.196L32.467,62.21c-0.18,0.649-0.772,1.099-1.445,1.099 c-0.004,0-0.009,0-0.014,0c-0.679-0.006-1.269-0.468-1.438-1.125L18.66,19.931c-0.983-3.603-2.557-5.08-5.428-5.08 c-1.426,0-2.586,0.51-3.354,1.476c-0.916,1.15-1.226,2.865-0.83,4.587l14.484,57.138c0.705,2.804,2.494,6.144,7.015,6.144 c4.877,0,6.425-4.697,6.783-6.138l10.33-37.168C47.84,40.238,48.432,39.79,49.105,39.79z"/></svg>