<svg xmlns="http://www.w3.org/2000/svg"  viewBox="0 0 100 100" width="100px" height="100px"><path d="M77.685,7H24.315C16.227,7,11,12.223,11,20.305c0,8.285,5.227,13.639,13.315,13.639H36v46.956 c0,4.068,1.465,7.777,4.231,10.721c1.834,1.955,5.199,4.285,10.821,4.285c5.657,0,9.008-2.362,10.821-4.343 C63.756,89.507,66,85.988,66,80.899V33.943h11.5c8.075,0,13.5-5.481,13.5-13.639C91,12.223,85.773,7,77.685,7z" opacity=".35"/><path fill="#f2f2f2" d="M75.685,5H22.315C14.227,5,9,10.223,9,18.305c0,8.285,5.227,13.639,13.315,13.639H34v46.956 c0,4.068,1.465,7.777,4.231,10.721c1.834,1.955,5.199,4.285,10.821,4.285c5.657,0,9.008-2.362,10.821-4.343 C61.756,87.507,64,83.988,64,78.899V31.943h11.5c8.075,0,13.5-5.481,13.5-13.639C89,10.223,83.773,5,75.685,5z"/><path fill="#70bfff" d="M49.052,87.406c-2.657,0-4.684-0.744-6.082-2.23c-1.399-1.488-2.097-3.575-2.097-6.267V25.167 H22.315c-4.544,0-6.815-2.265-6.815-6.798c0-4.53,2.271-6.797,6.815-6.797h53.369c4.543,0,6.816,2.267,6.816,6.797 c0,4.533-2.272,6.798-6.816,6.798H57.126v53.741c0,2.692-0.682,4.779-2.045,6.267C53.718,86.662,51.708,87.406,49.052,87.406z"/><path fill="#40396e" d="M49.053,88.905c-3.075,0-5.49-0.909-7.175-2.703C39.995,84.2,39,81.678,39,78.908V27H22.315 C17.031,27,14,23.854,14,18.369c0-5.351,2.953-8.297,8.315-8.297h53.369c5.362,0,8.315,2.946,8.315,8.297 C84,23.773,80.822,27,75.5,27H59v51.908c0,3.48-1.53,5.88-2.813,7.28C54.534,87.991,52.134,88.905,49.053,88.905z M22.315,13.072c-3.726,0-5.315,1.584-5.315,5.297C17,22.211,18.689,24,22.315,24H40.5c0.828,0,1.5,0.672,1.5,1.5v53.408 c0,2.517,1.122,4.238,2.063,5.239c1.111,1.183,2.743,1.758,4.989,1.758c2.236,0,3.847-0.57,4.923-1.744 C54.899,83.153,56,81.424,56,78.908V25.5c0-0.828,0.672-1.5,1.5-1.5h18c3.649,0,5.5-1.895,5.5-5.631 c0-3.713-1.59-5.297-5.315-5.297H22.315z"/></svg>