<svg xmlns="http://www.w3.org/2000/svg"  viewBox="0 0 100 100" width="100px" height="100px"><path d="M79.375,95.927c-9.975,0-13.938-5.087-16.821-12.726l-1.944-5.25H43.158l-1.93,5.213 c-2.525,6.648-6.343,12.764-17.185,12.764c-10.731,0-14.555-6.131-14.555-11.87c0-2.532,0.717-4.753,1.794-7.309l24.273-58.115 C37.308,14.512,40.929,6,52.759,6c11.746,0,15.087,8.262,16.882,12.701L92.998,77.09c1.033,2.583,1.515,4.723,1.515,6.734 C94.512,89.675,90.536,95.927,79.375,95.927z" opacity=".35"/><path fill="#f2f2f2" d="M77.375,93.927c-9.975,0-13.938-5.087-16.821-12.726l-1.944-5.25H41.158l-1.93,5.213 c-2.525,6.648-6.343,12.764-17.185,12.764c-10.731,0-14.555-6.131-14.555-11.87c0-2.532,0.717-4.753,1.794-7.309l24.273-58.115 C35.308,12.512,38.929,4,50.759,4c11.746,0,15.087,8.262,16.882,12.701L90.998,75.09c1.033,2.583,1.515,4.723,1.515,6.734 C92.512,87.675,88.536,93.927,77.375,93.927z"/><path fill="#70bfff" d="M77.375,88.927c-7.237,0-9.768-3.196-12.143-9.491l-3.143-8.485H37.678l-3.139,8.477 c-2.342,6.166-5.025,9.5-12.496,9.5c-7.897,0-9.555-3.736-9.555-6.87c0-1.487,0.38-2.942,1.402-5.368L38.169,18.56 C40.314,13.518,42.888,9,50.759,9c7.744,0,10.128,4.337,12.247,9.576l23.349,58.372c0.79,1.973,1.157,3.523,1.157,4.877 C87.512,84.477,86.195,88.927,77.375,88.927z M55.714,53.475l-5.771-15.364L44.17,53.475H55.714z"/><g><path fill="none" stroke="#40396e" stroke-linecap="round" stroke-linejoin="round" stroke-miterlimit="10" stroke-width="3" d="M63.133,69.45H36.634l-3.502,9.456c-2.218,5.837-4.553,8.521-11.09,8.521c-5.837,0-8.054-2.101-8.054-5.37 c0-1.284,0.35-2.568,1.284-4.786l24.281-58.133c2.334-5.486,4.669-8.638,11.206-8.638s8.638,3.152,10.857,8.638l23.347,58.366 c0.701,1.751,1.05,3.152,1.05,4.319c0,3.619-2.801,5.603-8.638,5.603c-6.187,0-8.405-2.334-10.74-8.521L63.133,69.45z M42.004,54.975H57.88l-7.937-21.129L42.004,54.975z"/></g></svg>