<svg xmlns="http://www.w3.org/2000/svg"  viewBox="0 0 100 100" width="100px" height="100px"><path d="M51.048,7.926c-8.658,0-14.037,5.589-14.037,14.585v56.894c0,4.218,1.22,7.696,3.627,10.34 c1.765,1.937,5.003,4.245,10.41,4.245c8.6,0,13.941-5.589,13.941-14.585V22.511C64.989,13.515,59.647,7.926,51.048,7.926z" opacity=".35"/><path fill="#f2f2f2" d="M49.048,5.926c-8.658,0-14.037,5.589-14.037,14.585v56.894c0,4.218,1.22,7.696,3.627,10.34 c1.765,1.937,5.003,4.245,10.41,4.245c8.6,0,13.941-5.589,13.941-14.585V20.511C62.989,11.515,57.647,5.926,49.048,5.926z"/><path fill="#70bfff" d="M49.048,85.489c-2.448,0-4.316-0.708-5.605-2.122c-1.289-1.415-1.932-3.401-1.932-5.963V20.51 c0-5.389,2.513-8.085,7.537-8.085c4.961,0,7.442,2.696,7.442,8.085v56.894C56.489,82.796,54.009,85.489,49.048,85.489z"/><path fill="#40396e" d="M49.048,86.989c-2.876,0-5.135-0.879-6.714-2.612c-1.541-1.692-2.323-4.038-2.323-6.973V20.511 c0-6.181,3.209-9.585,9.037-9.585c5.766,0,8.941,3.404,8.941,9.585v56.894C57.989,83.585,54.813,86.989,49.048,86.989z M49.048,13.926c-4.175,0-6.037,2.031-6.037,6.585v56.894c0,2.164,0.519,3.83,1.541,4.953c1.001,1.098,2.472,1.632,4.496,1.632 c4.109,0,5.941-2.031,5.941-6.585V20.511C54.989,15.957,53.157,13.926,49.048,13.926z"/></svg>