<svg xmlns="http://www.w3.org/2000/svg"  viewBox="0 0 100 100" width="100px" height="100px"><path d="M91.18,11.782c-1.735-1.73-4.874-3.793-9.976-3.793c-3.309,0-6.149,0.796-8.441,2.365 c-2.029,1.389-3.827,3.476-5.36,6.229L51.154,46.213L34.883,16.546c-1.515-2.719-3.311-4.801-5.341-6.192 C27.249,8.785,24.375,7.989,21,7.989c-5.149,0-8.318,2.03-10.066,3.731c-1.789,1.736-3.921,4.905-3.921,10.139V81.5 c0,8.194,5.294,13.489,13.487,13.489c6.636,0,13.5-5.046,13.5-13.489V68.199l5.068,8.811c1.958,3.379,6.108,6.99,11.88,6.99 c4.814,0,9-2.427,11.784-6.833l0.058-0.092L68,67.981V81.12c0,8.166,5.551,13.869,13.5,13.869c7.941,0,13.487-5.703,13.487-13.869 V21.859C94.987,16.674,92.918,13.519,91.18,11.782z" opacity=".35"/><path fill="#f2f2f2" d="M89.18,9.782c-1.735-1.73-4.874-3.793-9.976-3.793c-3.309,0-6.149,0.796-8.441,2.365 c-2.029,1.389-3.827,3.476-5.36,6.229L49.154,44.213L32.883,14.546c-1.515-2.719-3.311-4.801-5.341-6.192 C25.249,6.785,22.375,5.989,19,5.989c-5.149,0-8.318,2.03-10.066,3.731c-1.789,1.736-3.921,4.905-3.921,10.139V79.5 c0,8.194,5.294,13.489,13.487,13.489c6.636,0,13.5-5.046,13.5-13.489V66.199l5.068,8.811c1.958,3.379,6.108,6.99,11.88,6.99 c4.814,0,9-2.427,11.784-6.833l0.058-0.092L66,65.981V79.12c0,8.166,5.551,13.869,13.5,13.869c7.941,0,13.487-5.703,13.487-13.869 V19.859C92.987,14.674,90.918,11.519,89.18,9.782z"/><path fill="#81c2f6" d="M18.692,86.489c-2.325,0-4.102-0.649-5.333-1.945c-1.231-1.296-1.846-3.104-1.846-5.425V19.859 c0-2.387,0.649-4.212,1.949-5.475c1.298-1.262,3.144-1.894,5.538-1.894c2.051,0,3.674,0.41,4.872,1.229 c1.195,0.819,2.307,2.149,3.334,3.991l21.948,40.019L71.102,17.71c1.025-1.842,2.137-3.173,3.333-3.991 c1.196-0.819,2.785-1.229,4.769-1.229c2.324,0,4.119,0.632,5.385,1.894c1.264,1.263,1.897,3.088,1.897,5.475V79.12 c0,4.913-2.394,7.37-7.179,7.37c-4.856,0-7.282-2.457-7.282-7.37V41.557L55.205,71.751c-0.82,1.297-1.692,2.269-2.615,2.917 c-0.923,0.649-2.138,0.973-3.641,0.973c-1.505,0-2.736-0.324-3.693-0.973c-0.959-0.647-1.812-1.62-2.564-2.917l-16.82-29.886 V79.12C25.872,84.032,23.478,86.489,18.692,86.489z"/><path fill="#40396e" d="M79.5,87.989c-5.164,0-8.5-3.481-8.5-8.869V47.193L56.506,72.496 C54.147,76.229,51.098,77,48.949,77c-3.648,0-6.294-2.323-7.554-4.497L27,47.48V79.5c0,5.514-4.379,8.489-8.5,8.489 c-5.473,0-8.487-3.015-8.487-8.489V19.859c0-2.799,0.809-5.003,2.404-6.552c1.582-1.538,3.797-2.318,6.583-2.318 c2.348,0,4.272,0.502,5.719,1.491c1.384,0.948,2.661,2.462,3.796,4.499L49.154,54.61l20.633-37.622 c1.14-2.047,2.417-3.561,3.801-4.508c1.445-0.989,3.335-1.491,5.617-1.491c2.725,0,4.893,0.785,6.444,2.333 c1.551,1.55,2.338,3.749,2.338,6.537V79.12C87.987,84.508,84.656,87.989,79.5,87.989z M72.5,40.057 c0.128,0,0.257,0.017,0.386,0.051C73.543,40.282,74,40.877,74,41.557V79.12c0,3.729,2.005,5.869,5.5,5.869 c3.487,0,5.487-2.14,5.487-5.869V19.859c0-1.991-0.477-3.435-1.458-4.414c-0.981-0.979-2.396-1.456-4.325-1.456 c-1.666,0-2.985,0.325-3.922,0.967c-0.998,0.683-1.963,1.854-2.87,3.483L50.47,58.451c-0.264,0.479-0.768,0.778-1.315,0.778 s-1.052-0.299-1.315-0.778l-21.949-40.02c-0.903-1.62-1.869-2.792-2.866-3.476c-0.938-0.642-2.292-0.967-4.024-0.967 c-2.006,0-3.476,0.48-4.493,1.47c-1.006,0.977-1.495,2.416-1.495,4.4V79.5c0,3.796,1.692,5.489,5.487,5.489 c2.211,0,5.5-1.462,5.5-5.489V41.864c0-0.68,0.457-1.273,1.113-1.449c0.656-0.174,1.348,0.112,1.688,0.701l17.192,29.887 C44.281,71.5,45.884,74,48.949,74c2.029,0,3.708-1.026,4.988-3.051l17.261-30.138C71.47,40.336,71.972,40.057,72.5,40.057z"/></svg>