<svg xmlns="http://www.w3.org/2000/svg" version="1.1" viewBox="0 0 3000 1688" width="3000" height="1688">
<!--ITEM 1--><g><defs><clipPath id="clip-path-id-viewbox-item-1"><rect x="0.0" y="0.0" width="1920.0" height="1080.0"/></clipPath></defs><g transform="translate(-5.0 0.0) rotate(0.0 1503.5 846.0) scale(1.5661458333333333 1.5666666666666667)"><g clip-path="url(#clip-path-id-viewbox-item-1)" transform="translate(-0.0 -0.0)"><rect style="fill:#7FD6C2;" width="1920" height="1080"/>
</g></g></g><!--ITEM 2--><g><defs><clipPath id="clip-path-id-crop-item-2"><rect transform="scale(0.5122743682310469 0.5133333333333333)" x="0.0" y="0.0" width="572.0" height="1155.0"/></clipPath><clipPath id="clip-path-id-viewbox-item-2"><rect x="0.0" y="0.0" width="709.5" height="592.9"/></clipPath></defs><g clip-path="url(#clip-path-id-crop-item-2)" transform="translate(818.0 415.0) rotate(0.0 692.5 577.5) scale(1.9520789288231148 1.948051948051948)"><g clip-path="url(#clip-path-id-viewbox-item-2)" transform="translate(-0.0 -0.0)"><g id="Layer_1_1_-i2">
	<g>
		<g>
			<path d="M121.6,126.6H5c-2.8,0-5-2.2-5-5V5c0-2.8,2.2-5,5-5h116.6c2.8,0,5,2.2,5,5v116.6     C126.6,124.4,124.4,126.6,121.6,126.6z M10,116.6h106.6V10H10V116.6z" style="fill:#f3f6e6;"/>
		</g>
		<g>
			<path d="M238.2,126.6H121.6c-2.8,0-5-2.2-5-5V5c0-2.8,2.2-5,5-5h116.6c2.8,0,5,2.2,5,5v116.6     C243.2,124.4,241,126.6,238.2,126.6z M126.6,116.6h106.6V10H126.6V116.6z" style="fill:#f3f6e6;"/>
		</g>
		<g>
			<path d="M354.7,126.6H238.1c-2.8,0-5-2.2-5-5V5c0-2.8,2.2-5,5-5h116.6c2.8,0,5,2.2,5,5v116.6     C359.7,124.4,357.5,126.6,354.7,126.6z M243.1,116.6h106.6V10H243.1V116.6z" style="fill:#f3f6e6;"/>
		</g>
		<g>
			<path d="M471.3,126.6H354.7c-2.8,0-5-2.2-5-5V5c0-2.8,2.2-5,5-5h116.6c2.8,0,5,2.2,5,5v116.6     C476.3,124.4,474.1,126.6,471.3,126.6z M359.7,116.6h106.6V10H359.7V116.6z" style="fill:#f3f6e6;"/>
		</g>
		<g>
			<path d="M587.9,126.6H471.3c-2.8,0-5-2.2-5-5V5c0-2.8,2.2-5,5-5h116.6c2.8,0,5,2.2,5,5v116.6     C592.9,124.4,590.7,126.6,587.9,126.6z M476.3,116.6h106.6V10H476.3V116.6z" style="fill:#f3f6e6;"/>
		</g>
		<g>
			<path d="M704.5,126.6H587.9c-2.8,0-5-2.2-5-5V5c0-2.8,2.2-5,5-5h116.6c2.8,0,5,2.2,5,5v116.6     C709.5,124.4,707.3,126.6,704.5,126.6z M592.9,116.6h106.6V10H592.9V116.6z" style="fill:#f3f6e6;"/>
		</g>
		<g>
			<path d="M121.6,243.2H5c-2.8,0-5-2.2-5-5V121.6c0-2.8,2.2-5,5-5h116.6c2.8,0,5,2.2,5,5v116.6     C126.6,241,124.4,243.2,121.6,243.2z M10,233.2h106.6V126.6H10V233.2z" style="fill:#f3f6e6;"/>
		</g>
		<g>
			<path d="M238.2,243.2H121.6c-2.8,0-5-2.2-5-5V121.6c0-2.8,2.2-5,5-5h116.6c2.8,0,5,2.2,5,5v116.6     C243.2,241,241,243.2,238.2,243.2z M126.6,233.2h106.6V126.6H126.6V233.2z" style="fill:#f3f6e6;"/>
		</g>
		<g>
			<path d="M354.7,243.2H238.1c-2.8,0-5-2.2-5-5V121.6c0-2.8,2.2-5,5-5h116.6c2.8,0,5,2.2,5,5v116.6     C359.7,241,357.5,243.2,354.7,243.2z M243.1,233.2h106.6V126.6H243.1V233.2z" style="fill:#f3f6e6;"/>
		</g>
		<g>
			<path d="M471.3,243.2H354.7c-2.8,0-5-2.2-5-5V121.6c0-2.8,2.2-5,5-5h116.6c2.8,0,5,2.2,5,5v116.6     C476.3,241,474.1,243.2,471.3,243.2z M359.7,233.2h106.6V126.6H359.7V233.2z" style="fill:#f3f6e6;"/>
		</g>
		<g>
			<path d="M587.9,243.2H471.3c-2.8,0-5-2.2-5-5V121.6c0-2.8,2.2-5,5-5h116.6c2.8,0,5,2.2,5,5v116.6     C592.9,241,590.7,243.2,587.9,243.2z M476.3,233.2h106.6V126.6H476.3V233.2z" style="fill:#f3f6e6;"/>
		</g>
		<g>
			<path d="M704.5,243.2H587.9c-2.8,0-5-2.2-5-5V121.6c0-2.8,2.2-5,5-5h116.6c2.8,0,5,2.2,5,5v116.6     C709.5,241,707.3,243.2,704.5,243.2z M592.9,233.2h106.6V126.6H592.9V233.2z" style="fill:#f3f6e6;"/>
		</g>
		<g>
			<path d="M121.6,359.8H5c-2.8,0-5-2.2-5-5V238.2c0-2.8,2.2-5,5-5h116.6c2.8,0,5,2.2,5,5v116.6     C126.6,357.6,124.4,359.8,121.6,359.8z M10,349.8h106.6V243.2H10V349.8z" style="fill:#f3f6e6;"/>
		</g>
		<g>
			<path d="M238.2,359.8H121.6c-2.8,0-5-2.2-5-5V238.2c0-2.8,2.2-5,5-5h116.6c2.8,0,5,2.2,5,5v116.6     C243.2,357.6,241,359.8,238.2,359.8z M126.6,349.8h106.6V243.2H126.6V349.8z" style="fill:#f3f6e6;"/>
		</g>
		<g>
			<path d="M354.7,359.8H238.1c-2.8,0-5-2.2-5-5V238.2c0-2.8,2.2-5,5-5h116.6c2.8,0,5,2.2,5,5v116.6     C359.7,357.6,357.5,359.8,354.7,359.8z M243.1,349.8h106.6V243.2H243.1V349.8z" style="fill:#f3f6e6;"/>
		</g>
		<g>
			<path d="M471.3,359.8H354.7c-2.8,0-5-2.2-5-5V238.2c0-2.8,2.2-5,5-5h116.6c2.8,0,5,2.2,5,5v116.6     C476.3,357.6,474.1,359.8,471.3,359.8z M359.7,349.8h106.6V243.2H359.7V349.8z" style="fill:#f3f6e6;"/>
		</g>
		<g>
			<path d="M587.9,359.8H471.3c-2.8,0-5-2.2-5-5V238.2c0-2.8,2.2-5,5-5h116.6c2.8,0,5,2.2,5,5v116.6     C592.9,357.6,590.7,359.8,587.9,359.8z M476.3,349.8h106.6V243.2H476.3V349.8z" style="fill:#f3f6e6;"/>
		</g>
		<g>
			<path d="M704.5,359.8H587.9c-2.8,0-5-2.2-5-5V238.2c0-2.8,2.2-5,5-5h116.6c2.8,0,5,2.2,5,5v116.6     C709.5,357.6,707.3,359.8,704.5,359.8z M592.9,349.8h106.6V243.2H592.9V349.8z" style="fill:#f3f6e6;"/>
		</g>
		<g>
			<path d="M121.6,476.4H5c-2.8,0-5-2.2-5-5V354.8c0-2.8,2.2-5,5-5h116.6c2.8,0,5,2.2,5,5v116.6     C126.6,474.2,124.4,476.4,121.6,476.4z M10,466.4h106.6V359.8H10V466.4z" style="fill:#f3f6e6;"/>
		</g>
		<g>
			<path d="M238.2,476.4H121.6c-2.8,0-5-2.2-5-5V354.8c0-2.8,2.2-5,5-5h116.6c2.8,0,5,2.2,5,5v116.6     C243.2,474.2,241,476.4,238.2,476.4z M126.6,466.4h106.6V359.8H126.6V466.4z" style="fill:#f3f6e6;"/>
		</g>
		<g>
			<path d="M354.7,476.4H238.1c-2.8,0-5-2.2-5-5V354.8c0-2.8,2.2-5,5-5h116.6c2.8,0,5,2.2,5,5v116.6     C359.7,474.2,357.5,476.4,354.7,476.4z M243.1,466.4h106.6V359.8H243.1V466.4z" style="fill:#f3f6e6;"/>
		</g>
		<g>
			<path d="M471.3,476.4H354.7c-2.8,0-5-2.2-5-5V354.8c0-2.8,2.2-5,5-5h116.6c2.8,0,5,2.2,5,5v116.6     C476.3,474.2,474.1,476.4,471.3,476.4z M359.7,466.4h106.6V359.8H359.7V466.4z" style="fill:#f3f6e6;"/>
		</g>
		<g>
			<path d="M587.9,476.4H471.3c-2.8,0-5-2.2-5-5V354.8c0-2.8,2.2-5,5-5h116.6c2.8,0,5,2.2,5,5v116.6     C592.9,474.2,590.7,476.4,587.9,476.4z M476.3,466.4h106.6V359.8H476.3V466.4z" style="fill:#f3f6e6;"/>
		</g>
		<g>
			<path d="M704.5,476.4H587.9c-2.8,0-5-2.2-5-5V354.8c0-2.8,2.2-5,5-5h116.6c2.8,0,5,2.2,5,5v116.6     C709.5,474.2,707.3,476.4,704.5,476.4z M592.9,466.4h106.6V359.8H592.9V466.4z" style="fill:#f3f6e6;"/>
		</g>
		<g>
			<path d="M121.6,592.9H5c-2.8,0-5-2.2-5-5V471.3c0-2.8,2.2-5,5-5h116.6c2.8,0,5,2.2,5,5v116.6     C126.6,590.7,124.4,592.9,121.6,592.9z M10,582.9h106.6V476.3H10V582.9z" style="fill:#f3f6e6;"/>
		</g>
		<g>
			<path d="M238.2,592.9H121.6c-2.8,0-5-2.2-5-5V471.3c0-2.8,2.2-5,5-5h116.6c2.8,0,5,2.2,5,5v116.6     C243.2,590.7,241,592.9,238.2,592.9z M126.6,582.9h106.6V476.3H126.6V582.9z" style="fill:#f3f6e6;"/>
		</g>
		<g>
			<path d="M354.7,592.9H238.1c-2.8,0-5-2.2-5-5V471.3c0-2.8,2.2-5,5-5h116.6c2.8,0,5,2.2,5,5v116.6     C359.7,590.7,357.5,592.9,354.7,592.9z M243.1,582.9h106.6V476.3H243.1V582.9z" style="fill:#f3f6e6;"/>
		</g>
		<g>
			<path d="M471.3,592.9H354.7c-2.8,0-5-2.2-5-5V471.3c0-2.8,2.2-5,5-5h116.6c2.8,0,5,2.2,5,5v116.6     C476.3,590.7,474.1,592.9,471.3,592.9z M359.7,582.9h106.6V476.3H359.7V582.9z" style="fill:#f3f6e6;"/>
		</g>
		<g>
			<path d="M587.9,592.9H471.3c-2.8,0-5-2.2-5-5V471.3c0-2.8,2.2-5,5-5h116.6c2.8,0,5,2.2,5,5v116.6     C592.9,590.7,590.7,592.9,587.9,592.9z M476.3,582.9h106.6V476.3H476.3V582.9z" style="fill:#f3f6e6;"/>
		</g>
		<g>
			<path d="M704.5,592.9H587.9c-2.8,0-5-2.2-5-5V471.3c0-2.8,2.2-5,5-5h116.6c2.8,0,5,2.2,5,5v116.6     C709.5,590.7,707.3,592.9,704.5,592.9z M592.9,582.9h106.6V476.3H592.9V582.9z" style="fill:#f3f6e6;"/>
		</g>
	</g>
</g>
<g id="Isolation_Mode-i2">
</g>
</g></g></g><!--ITEM 3--><g><defs><clipPath id="clip-path-id-viewbox-item-3"><rect x="0.0" y="0.0" width="709.5" height="592.9"/></clipPath></defs><g transform="translate(1273.0 415.0) rotate(0.0 692.5 577.5) scale(1.9520789288231148 1.948051948051948)"><g clip-path="url(#clip-path-id-viewbox-item-3)" transform="translate(-0.0 -0.0)"><g id="Layer_1_1_-i3">
	<g>
		<g>
			<path d="M121.6,126.6H5c-2.8,0-5-2.2-5-5V5c0-2.8,2.2-5,5-5h116.6c2.8,0,5,2.2,5,5v116.6     C126.6,124.4,124.4,126.6,121.6,126.6z M10,116.6h106.6V10H10V116.6z" style="fill:#f3f6e6;"/>
		</g>
		<g>
			<path d="M238.2,126.6H121.6c-2.8,0-5-2.2-5-5V5c0-2.8,2.2-5,5-5h116.6c2.8,0,5,2.2,5,5v116.6     C243.2,124.4,241,126.6,238.2,126.6z M126.6,116.6h106.6V10H126.6V116.6z" style="fill:#f3f6e6;"/>
		</g>
		<g>
			<path d="M354.7,126.6H238.1c-2.8,0-5-2.2-5-5V5c0-2.8,2.2-5,5-5h116.6c2.8,0,5,2.2,5,5v116.6     C359.7,124.4,357.5,126.6,354.7,126.6z M243.1,116.6h106.6V10H243.1V116.6z" style="fill:#f3f6e6;"/>
		</g>
		<g>
			<path d="M471.3,126.6H354.7c-2.8,0-5-2.2-5-5V5c0-2.8,2.2-5,5-5h116.6c2.8,0,5,2.2,5,5v116.6     C476.3,124.4,474.1,126.6,471.3,126.6z M359.7,116.6h106.6V10H359.7V116.6z" style="fill:#f3f6e6;"/>
		</g>
		<g>
			<path d="M587.9,126.6H471.3c-2.8,0-5-2.2-5-5V5c0-2.8,2.2-5,5-5h116.6c2.8,0,5,2.2,5,5v116.6     C592.9,124.4,590.7,126.6,587.9,126.6z M476.3,116.6h106.6V10H476.3V116.6z" style="fill:#f3f6e6;"/>
		</g>
		<g>
			<path d="M704.5,126.6H587.9c-2.8,0-5-2.2-5-5V5c0-2.8,2.2-5,5-5h116.6c2.8,0,5,2.2,5,5v116.6     C709.5,124.4,707.3,126.6,704.5,126.6z M592.9,116.6h106.6V10H592.9V116.6z" style="fill:#f3f6e6;"/>
		</g>
		<g>
			<path d="M121.6,243.2H5c-2.8,0-5-2.2-5-5V121.6c0-2.8,2.2-5,5-5h116.6c2.8,0,5,2.2,5,5v116.6     C126.6,241,124.4,243.2,121.6,243.2z M10,233.2h106.6V126.6H10V233.2z" style="fill:#f3f6e6;"/>
		</g>
		<g>
			<path d="M238.2,243.2H121.6c-2.8,0-5-2.2-5-5V121.6c0-2.8,2.2-5,5-5h116.6c2.8,0,5,2.2,5,5v116.6     C243.2,241,241,243.2,238.2,243.2z M126.6,233.2h106.6V126.6H126.6V233.2z" style="fill:#f3f6e6;"/>
		</g>
		<g>
			<path d="M354.7,243.2H238.1c-2.8,0-5-2.2-5-5V121.6c0-2.8,2.2-5,5-5h116.6c2.8,0,5,2.2,5,5v116.6     C359.7,241,357.5,243.2,354.7,243.2z M243.1,233.2h106.6V126.6H243.1V233.2z" style="fill:#f3f6e6;"/>
		</g>
		<g>
			<path d="M471.3,243.2H354.7c-2.8,0-5-2.2-5-5V121.6c0-2.8,2.2-5,5-5h116.6c2.8,0,5,2.2,5,5v116.6     C476.3,241,474.1,243.2,471.3,243.2z M359.7,233.2h106.6V126.6H359.7V233.2z" style="fill:#f3f6e6;"/>
		</g>
		<g>
			<path d="M587.9,243.2H471.3c-2.8,0-5-2.2-5-5V121.6c0-2.8,2.2-5,5-5h116.6c2.8,0,5,2.2,5,5v116.6     C592.9,241,590.7,243.2,587.9,243.2z M476.3,233.2h106.6V126.6H476.3V233.2z" style="fill:#f3f6e6;"/>
		</g>
		<g>
			<path d="M704.5,243.2H587.9c-2.8,0-5-2.2-5-5V121.6c0-2.8,2.2-5,5-5h116.6c2.8,0,5,2.2,5,5v116.6     C709.5,241,707.3,243.2,704.5,243.2z M592.9,233.2h106.6V126.6H592.9V233.2z" style="fill:#f3f6e6;"/>
		</g>
		<g>
			<path d="M121.6,359.8H5c-2.8,0-5-2.2-5-5V238.2c0-2.8,2.2-5,5-5h116.6c2.8,0,5,2.2,5,5v116.6     C126.6,357.6,124.4,359.8,121.6,359.8z M10,349.8h106.6V243.2H10V349.8z" style="fill:#f3f6e6;"/>
		</g>
		<g>
			<path d="M238.2,359.8H121.6c-2.8,0-5-2.2-5-5V238.2c0-2.8,2.2-5,5-5h116.6c2.8,0,5,2.2,5,5v116.6     C243.2,357.6,241,359.8,238.2,359.8z M126.6,349.8h106.6V243.2H126.6V349.8z" style="fill:#f3f6e6;"/>
		</g>
		<g>
			<path d="M354.7,359.8H238.1c-2.8,0-5-2.2-5-5V238.2c0-2.8,2.2-5,5-5h116.6c2.8,0,5,2.2,5,5v116.6     C359.7,357.6,357.5,359.8,354.7,359.8z M243.1,349.8h106.6V243.2H243.1V349.8z" style="fill:#f3f6e6;"/>
		</g>
		<g>
			<path d="M471.3,359.8H354.7c-2.8,0-5-2.2-5-5V238.2c0-2.8,2.2-5,5-5h116.6c2.8,0,5,2.2,5,5v116.6     C476.3,357.6,474.1,359.8,471.3,359.8z M359.7,349.8h106.6V243.2H359.7V349.8z" style="fill:#f3f6e6;"/>
		</g>
		<g>
			<path d="M587.9,359.8H471.3c-2.8,0-5-2.2-5-5V238.2c0-2.8,2.2-5,5-5h116.6c2.8,0,5,2.2,5,5v116.6     C592.9,357.6,590.7,359.8,587.9,359.8z M476.3,349.8h106.6V243.2H476.3V349.8z" style="fill:#f3f6e6;"/>
		</g>
		<g>
			<path d="M704.5,359.8H587.9c-2.8,0-5-2.2-5-5V238.2c0-2.8,2.2-5,5-5h116.6c2.8,0,5,2.2,5,5v116.6     C709.5,357.6,707.3,359.8,704.5,359.8z M592.9,349.8h106.6V243.2H592.9V349.8z" style="fill:#f3f6e6;"/>
		</g>
		<g>
			<path d="M121.6,476.4H5c-2.8,0-5-2.2-5-5V354.8c0-2.8,2.2-5,5-5h116.6c2.8,0,5,2.2,5,5v116.6     C126.6,474.2,124.4,476.4,121.6,476.4z M10,466.4h106.6V359.8H10V466.4z" style="fill:#f3f6e6;"/>
		</g>
		<g>
			<path d="M238.2,476.4H121.6c-2.8,0-5-2.2-5-5V354.8c0-2.8,2.2-5,5-5h116.6c2.8,0,5,2.2,5,5v116.6     C243.2,474.2,241,476.4,238.2,476.4z M126.6,466.4h106.6V359.8H126.6V466.4z" style="fill:#f3f6e6;"/>
		</g>
		<g>
			<path d="M354.7,476.4H238.1c-2.8,0-5-2.2-5-5V354.8c0-2.8,2.2-5,5-5h116.6c2.8,0,5,2.2,5,5v116.6     C359.7,474.2,357.5,476.4,354.7,476.4z M243.1,466.4h106.6V359.8H243.1V466.4z" style="fill:#f3f6e6;"/>
		</g>
		<g>
			<path d="M471.3,476.4H354.7c-2.8,0-5-2.2-5-5V354.8c0-2.8,2.2-5,5-5h116.6c2.8,0,5,2.2,5,5v116.6     C476.3,474.2,474.1,476.4,471.3,476.4z M359.7,466.4h106.6V359.8H359.7V466.4z" style="fill:#f3f6e6;"/>
		</g>
		<g>
			<path d="M587.9,476.4H471.3c-2.8,0-5-2.2-5-5V354.8c0-2.8,2.2-5,5-5h116.6c2.8,0,5,2.2,5,5v116.6     C592.9,474.2,590.7,476.4,587.9,476.4z M476.3,466.4h106.6V359.8H476.3V466.4z" style="fill:#f3f6e6;"/>
		</g>
		<g>
			<path d="M704.5,476.4H587.9c-2.8,0-5-2.2-5-5V354.8c0-2.8,2.2-5,5-5h116.6c2.8,0,5,2.2,5,5v116.6     C709.5,474.2,707.3,476.4,704.5,476.4z M592.9,466.4h106.6V359.8H592.9V466.4z" style="fill:#f3f6e6;"/>
		</g>
		<g>
			<path d="M121.6,592.9H5c-2.8,0-5-2.2-5-5V471.3c0-2.8,2.2-5,5-5h116.6c2.8,0,5,2.2,5,5v116.6     C126.6,590.7,124.4,592.9,121.6,592.9z M10,582.9h106.6V476.3H10V582.9z" style="fill:#f3f6e6;"/>
		</g>
		<g>
			<path d="M238.2,592.9H121.6c-2.8,0-5-2.2-5-5V471.3c0-2.8,2.2-5,5-5h116.6c2.8,0,5,2.2,5,5v116.6     C243.2,590.7,241,592.9,238.2,592.9z M126.6,582.9h106.6V476.3H126.6V582.9z" style="fill:#f3f6e6;"/>
		</g>
		<g>
			<path d="M354.7,592.9H238.1c-2.8,0-5-2.2-5-5V471.3c0-2.8,2.2-5,5-5h116.6c2.8,0,5,2.2,5,5v116.6     C359.7,590.7,357.5,592.9,354.7,592.9z M243.1,582.9h106.6V476.3H243.1V582.9z" style="fill:#f3f6e6;"/>
		</g>
		<g>
			<path d="M471.3,592.9H354.7c-2.8,0-5-2.2-5-5V471.3c0-2.8,2.2-5,5-5h116.6c2.8,0,5,2.2,5,5v116.6     C476.3,590.7,474.1,592.9,471.3,592.9z M359.7,582.9h106.6V476.3H359.7V582.9z" style="fill:#f3f6e6;"/>
		</g>
		<g>
			<path d="M587.9,592.9H471.3c-2.8,0-5-2.2-5-5V471.3c0-2.8,2.2-5,5-5h116.6c2.8,0,5,2.2,5,5v116.6     C592.9,590.7,590.7,592.9,587.9,592.9z M476.3,582.9h106.6V476.3H476.3V582.9z" style="fill:#f3f6e6;"/>
		</g>
		<g>
			<path d="M704.5,592.9H587.9c-2.8,0-5-2.2-5-5V471.3c0-2.8,2.2-5,5-5h116.6c2.8,0,5,2.2,5,5v116.6     C709.5,590.7,707.3,592.9,704.5,592.9z M592.9,582.9h106.6V476.3H592.9V582.9z" style="fill:#f3f6e6;"/>
		</g>
	</g>
</g>
<g id="Isolation_Mode-i3">
</g>
</g></g></g><!--ITEM 4--><g><defs><clipPath id="clip-path-id-viewbox-item-4"><rect x="0.0" y="0.0" width="380.4" height="744.3"/></clipPath></defs><g transform="translate(1193.0 1573.0) rotate(0.0 -252.0 -493.5) scale(-1.3249211356466877 -1.3260781942765014)"><g clip-path="url(#clip-path-id-viewbox-item-4)" transform="translate(-0.0 -0.0)"><g>
	<path d="M375.4,5v734.3c0,0-366.9-113.6-370.3-333.3c-0.8-48.8,7.5-86.4,20.8-117.4c46.6-108.4,155-136.5,155.5-282.5   c0-0.3,0-0.7,0-1h194L375.4,5L375.4,5z" style="fill:#F3F6E6;"/>
	<path d="M375.4,744.3c-0.5,0-1-0.1-1.5-0.2c-0.9-0.3-93.4-29.2-185-84.8c-54-32.7-97.2-68.2-128.4-105.3   C21.2,507.1,0.8,457.4,0.1,406.1c-0.7-45.4,6.2-84.5,21.2-119.4c18.3-42.5,45.9-72.9,72.6-102.3c42.3-46.5,82.2-90.5,82.5-178.3v-1   c0-2.8,2.2-5,5-5h193c0.3-0.1,0.6-0.1,1-0.1c0.2,0,0.4,0,0.6,0h0c0,0,0,0,0,0c0,0,0,0,0,0c0,0,0,0,0,0c0,0,0,0,0,0   c2.4,0.3,4.3,2.4,4.3,4.9l0,0c0,0,0,0,0,0c0,0,0,0,0,0l0,0.1c0,0,0,0.1,0,0.1v734.1c0,1.6-0.8,3.1-2,4   C377.4,744,376.4,744.3,375.4,744.3z M186.3,10.1c-0.7,39.5-9.4,74-26.7,105.4c-15.9,28.9-37.5,52.6-58.4,75.6   c-26.1,28.8-53.2,58.5-70.8,99.5C16,324.2,9.3,362,10.1,405.9c0.8,48.9,20.3,96.5,58.1,141.6c30.5,36.3,72.8,71,125.8,103.2   c76.7,46.5,154,74.2,176.4,81.7V10.1H186.3z" style="fill:#F3F6E6;"/>
</g>
</g></g></g><!--ITEM 5--><g><defs><clipPath id="clip-path-id-viewbox-item-5"><rect x="0.0" y="0.0" width="194.91916" height="294.92361"/></clipPath></defs><g transform="translate(2016.0 509.0) rotate(0.0 114.5 173.0) scale(1.1748460233462938 1.1731851512328904)"><g clip-path="url(#clip-path-id-viewbox-item-5)" transform="translate(-0.0 -0.0)"><g>
    <g>
      <path d="M116.37577,76.7613c0-8.72521-40.34979-8.72521-40.34979,0,0,19.96923-46.239,75.47693-46.239,108.66064H162.61481C162.61481,153.25361,116.37577,95.71515,116.37577,76.7613Z" style="         fill: #f3f6e7;       "/>
      <path d="M162.61434,190.42174H29.78719a4.99962,4.99962,0,0,1-5-5c0-20.01074,14.94531-46.27051,28.13086-69.44043,8.90235-15.64355,18.1084-31.81933,18.1084-39.21973,0-10.41894,17.60547-11.54394,25.1748-11.54394s25.17481,1.125,25.17481,11.54394c0,6.9209,9.12207,23.14454,17.94434,38.833,13.26171,23.58594,28.29394,50.31934,28.29394,69.82715A4.99962,4.99962,0,0,1,162.61434,190.42174Zm-127.47461-10H157.2452c-2.32227-16.67773-15.1748-39.5332-26.6416-59.92578-10.3877-18.47363-18.665-33.19336-19.2002-42.77148-1.62988-1.00586-6.96582-2.50684-15.20215-2.50684-8.23242,0-13.56738,1.499-15.20019,2.50586-.51563,10.03418-8.88477,24.74121-19.39258,43.2041C50.19735,140.97936,37.40536,163.4569,35.13973,180.42174Z" style="         fill: #383a47;       "/>
    </g>
    <g>
      <path d="M98.79924,215.27758h.00015a74.646,74.646,0,0,1,74.646,74.646v.00007a0,0,0,0,1,0,0H24.15328a0,0,0,0,1,0,0v-.00007A74.646,74.646,0,0,1,98.79924,215.27758Z" style="         fill: #f3f6e7;       "/>
      <path d="M173.4454,294.92369H24.1534a4.99962,4.99962,0,0,1-5-5,79.646,79.646,0,1,1,159.292,0A4.99963,4.99963,0,0,1,173.4454,294.92369Zm-144.11426-10H168.26766a69.64808,69.64808,0,0,0-138.93652,0Z" style="         fill: #383a47;       "/>
    </g>
    <g>
      <path d="M97.14576,244.56906c28.98759,0,55.04985,9.72927,73.07506,25.21355a74.67619,74.67619,0,0,0-71.89389-54.505h-.00012a74.67517,74.67517,0,0,0-71.12358,51.93589C45.05151,253.23,69.79642,244.56906,97.14576,244.56906Z" style="         fill: #383a47;       "/>
      <path d="M170.22176,274.78307a4.99323,4.99323,0,0,1-3.25879-1.207c-17.76074-15.25684-43.208-24.00684-69.81738-24.00684-25.35156,0-49.0957,7.66406-66.8584,21.58008a4.99995,4.99995,0,0,1-7.84765-5.45508,79.66788,79.66788,0,0,1,152.59668,2.74219,5.00083,5.00083,0,0,1-4.81446,6.34668ZM97.14559,239.5692c22.39844,0,44.11524,5.75977,61.84863,16.13574a69.69482,69.69482,0,0,0-120.2041-2C55.84481,244.51354,76.0118,239.5692,97.14559,239.5692Z" style="         fill: #383a47;       "/>
    </g>
    <g>
      <rect x="5" y="183.83412" width="184.91916" height="47.96521" rx="23.98258" style="         fill: #eebdd2;       "/>
      <path d="M165.93661,236.79967H28.9825a28.98291,28.98291,0,0,1,0-57.96582H165.93661a28.98291,28.98291,0,0,1,0,57.96582ZM28.9825,188.83385a18.98291,18.98291,0,0,0,0,37.96582H165.93661a18.98291,18.98291,0,0,0,0-37.96582Z" style="         fill: #383a47;       "/>
    </g>
    <g>
      <circle cx="96.20088" cy="46.52869" r="41.52869" style="         fill: #f3f6e7;       "/>
      <path d="M96.20125,93.05748a46.52881,46.52881,0,1,1,46.52833-46.52832A46.58127,46.58127,0,0,1,96.20125,93.05748Zm0-83.05761a36.52881,36.52881,0,1,0,36.52833,36.52929A36.57033,36.57033,0,0,0,96.20125,9.99987Z" style="         fill: #383a47;       "/>
    </g>
  </g>
</g></g></g><!--ITEM 6--><g><defs><clipPath id="clip-path-id-crop-item-6"><rect transform="scale(0.4906277777777778 0.48681159420289855)" x="0.0" y="3.0" width="180.0" height="480.0"/></clipPath><clipPath id="clip-path-id-viewbox-item-6"><rect x="0.0" y="0.0" width="88.313" height="235.13"/></clipPath></defs><g clip-path="url(#clip-path-id-crop-item-6)" transform="translate(1905.0 799.0) rotate(66.23975029970023 -90.0 -241.5) scale(-2.038205020778368 -2.0541827924977674)"><g clip-path="url(#clip-path-id-viewbox-item-6)" transform="translate(-0.0 -0.0)"><path d="M14.083,235.13a5.3,5.3,0,0,1-2.7-.8,5.008,5.008,0,0,1-1.5-6.9c1-1.6,2.1-3.2,3.1-4.8a4.993,4.993,0,0,1,8.4,5.4c-1,1.6-2.1,3.3-3.1,4.9A5.218,5.218,0,0,1,14.083,235.13Zm18.8-30.4a4.514,4.514,0,0,1-2.5-.7,4.957,4.957,0,0,1-1.8-6.8c2-3.5,4-6.9,5.9-10.3a4.992,4.992,0,1,1,8.7,4.9c-1.9,3.4-4,7-6,10.5A5.074,5.074,0,0,1,32.883,204.73Zm20-36.9a5.852,5.852,0,0,1-2.2-.5,5,5,0,0,1-2.3-6.7c1.8-3.6,3.5-7.2,5.2-10.7a4.966,4.966,0,1,1,9,4.2c-1.7,3.6-3.4,7.3-5.3,10.9A4.969,4.969,0,0,1,52.883,167.83Zm16.9-38.5a5.663,5.663,0,0,1-1.8-.3,4.952,4.952,0,0,1-2.9-6.4c1.4-3.8,2.8-7.5,4-11.1a5,5,0,0,1,9.5,3.1c-1.2,3.7-2.6,7.6-4.1,11.5A5.063,5.063,0,0,1,69.783,129.33Zm11.8-40.2a2.769,2.769,0,0,1-.9-.1,4.989,4.989,0,0,1-4-5.8c.8-3.9,1.3-7.8,1.7-11.5a4.98,4.98,0,1,1,9.9,1.1c-.4,3.9-1.1,8-1.9,12.2A4.915,4.915,0,0,1,81.583,89.13Zm.8-41.7a5.024,5.024,0,0,1-4.9-3.9,51.854,51.854,0,0,0-3.4-10.3,4.966,4.966,0,1,1,9-4.2,66.79,66.79,0,0,1,4.1,12.4,5.032,5.032,0,0,1-3.8,6A3.334,3.334,0,0,0,82.383,47.43Zm-24.4-32.4a5.852,5.852,0,0,1-2.2-.5,46.192,46.192,0,0,0-10.3-3.5,4.894,4.894,0,0,1-3.7-6,4.894,4.894,0,0,1,6-3.7,60.454,60.454,0,0,1,12.4,4.3,5,5,0,0,1,2.3,6.7A4.918,4.918,0,0,1,57.983,15.03Zm-53-3.3a4.992,4.992,0,0,1-.9-9.9q6.3-1.2,12.3-1.8a5.025,5.025,0,0,1,5.5,4.4,5.023,5.023,0,0,1-4.4,5.5c-3.7.4-7.5,1-11.5,1.7A3.751,3.751,0,0,1,4.983,11.73Z" fill="#383a48"/></g></g></g><!--ITEM 7--><g><defs><clipPath id="clip-path-id-crop-item-7"><rect transform="scale(0.4722620320855615 0.47026)" x="0.0" y="0.0" width="186.0" height="375.0"/></clipPath><clipPath id="clip-path-id-viewbox-item-7"><rect x="0.0" y="0.0" width="88.313" height="235.13"/></clipPath></defs><g clip-path="url(#clip-path-id-crop-item-7)" transform="translate(2360.0 1141.0) rotate(-71.09078241661044 -93.5 250.0) scale(-2.1174685493641934 2.126483222047378)"><g clip-path="url(#clip-path-id-viewbox-item-7)" transform="translate(-0.0 -0.0)"><path d="M14.083,235.13a5.3,5.3,0,0,1-2.7-.8,5.008,5.008,0,0,1-1.5-6.9c1-1.6,2.1-3.2,3.1-4.8a4.993,4.993,0,0,1,8.4,5.4c-1,1.6-2.1,3.3-3.1,4.9A5.218,5.218,0,0,1,14.083,235.13Zm18.8-30.4a4.514,4.514,0,0,1-2.5-.7,4.957,4.957,0,0,1-1.8-6.8c2-3.5,4-6.9,5.9-10.3a4.992,4.992,0,1,1,8.7,4.9c-1.9,3.4-4,7-6,10.5A5.074,5.074,0,0,1,32.883,204.73Zm20-36.9a5.852,5.852,0,0,1-2.2-.5,5,5,0,0,1-2.3-6.7c1.8-3.6,3.5-7.2,5.2-10.7a4.966,4.966,0,1,1,9,4.2c-1.7,3.6-3.4,7.3-5.3,10.9A4.969,4.969,0,0,1,52.883,167.83Zm16.9-38.5a5.663,5.663,0,0,1-1.8-.3,4.952,4.952,0,0,1-2.9-6.4c1.4-3.8,2.8-7.5,4-11.1a5,5,0,0,1,9.5,3.1c-1.2,3.7-2.6,7.6-4.1,11.5A5.063,5.063,0,0,1,69.783,129.33Zm11.8-40.2a2.769,2.769,0,0,1-.9-.1,4.989,4.989,0,0,1-4-5.8c.8-3.9,1.3-7.8,1.7-11.5a4.98,4.98,0,1,1,9.9,1.1c-.4,3.9-1.1,8-1.9,12.2A4.915,4.915,0,0,1,81.583,89.13Zm.8-41.7a5.024,5.024,0,0,1-4.9-3.9,51.854,51.854,0,0,0-3.4-10.3,4.966,4.966,0,1,1,9-4.2,66.79,66.79,0,0,1,4.1,12.4,5.032,5.032,0,0,1-3.8,6A3.334,3.334,0,0,0,82.383,47.43Zm-24.4-32.4a5.852,5.852,0,0,1-2.2-.5,46.192,46.192,0,0,0-10.3-3.5,4.894,4.894,0,0,1-3.7-6,4.894,4.894,0,0,1,6-3.7,60.454,60.454,0,0,1,12.4,4.3,5,5,0,0,1,2.3,6.7A4.918,4.918,0,0,1,57.983,15.03Zm-53-3.3a4.992,4.992,0,0,1-.9-9.9q6.3-1.2,12.3-1.8a5.025,5.025,0,0,1,5.5,4.4,5.023,5.023,0,0,1-4.4,5.5c-3.7.4-7.5,1-11.5,1.7A3.751,3.751,0,0,1,4.983,11.73Z" fill="#383a48"/></g></g></g><!--ITEM 8--><g><defs><clipPath id="clip-path-id-crop-item-8"><rect transform="scale(2.027455121436114 2.030075187969925)" x="0.0" y="0.0" width="926.0" height="532.0"/></clipPath><clipPath id="clip-path-id-viewbox-item-8"><rect x="0.0" y="0.0" width="1920.0" height="1080.0"/></clipPath></defs><g clip-path="url(#clip-path-id-crop-item-8)" transform="translate(84.0 834.0) rotate(-89.99999999999993 473.5 266.0) scale(0.49322916666666666 0.4925925925925926)"><g clip-path="url(#clip-path-id-viewbox-item-8)" transform="translate(-0.0 -0.0)"><rect style="fill:#f3f6e6;" width="1920" height="1080"/>
</g></g></g><!--ITEM 9--><g><defs><clipPath id="clip-path-id-viewbox-item-9"><rect x="0.0" y="0.0" width="366.121" height="683.55"/></clipPath></defs><g transform="translate(2763.0 750.0) rotate(0.0 -204.0 382.0) scale(-1.1143856812365311 1.1176943895837905)"><g clip-path="url(#clip-path-id-viewbox-item-9)" transform="translate(-0.0 -0.0)"><g>
	<g>
		<path style="fill:#F3F6E7;" d="M183.061,529.3L183.061,529.3c-82.429,0-149.25,66.821-149.25,149.25v0H332.31v0    C332.31,596.122,265.489,529.3,183.061,529.3z"/>
		<path style="fill:#383A47;" d="M332.311,683.55h-298.5c-2.762,0-5-2.239-5-5c0-85.053,69.196-154.25,154.25-154.25    s154.25,69.196,154.25,154.25C337.311,681.311,335.072,683.55,332.311,683.55z M38.896,673.55h288.328    c-2.646-77.231-66.299-139.25-144.164-139.25S41.542,596.319,38.896,673.55z"/>
	</g>
	<g>
		<path style="fill:#383A47;" d="M180.699,587.867c57.959,0,110.068,19.453,146.109,50.413    C309.233,575.415,251.535,529.3,183.061,529.3h0c-66.594,0-122.993,43.619-142.207,103.842    C76.54,605.184,126.016,587.867,180.699,587.867z"/>
		<path style="fill:#383A47;" d="M326.809,643.28c-1.167,0-2.328-0.408-3.259-1.207c-36.402-31.271-88.47-49.206-142.851-49.206    c-51.802,0-100.371,15.702-136.762,44.212c-1.729,1.354-4.136,1.421-5.938,0.169c-1.802-1.253-2.576-3.534-1.909-5.625    c9.867-30.927,28.927-57.553,55.119-77c26.717-19.837,58.479-30.323,91.852-30.323c34.351,0,66.859,11.049,94.011,31.954    c26.292,20.242,45.666,48.895,54.552,80.679c0.593,2.122-0.272,4.381-2.131,5.564C328.669,643.022,327.737,643.28,326.809,643.28z     M180.699,582.867c50.375,0,98.942,14.833,135.93,41.121c-21.898-53.539-74.672-89.687-133.568-89.687    c-57.562,0-108.603,33.604-131.631,85.125C87.643,595.752,132.892,582.867,180.699,582.867z"/>
	</g>
	<g>
		<path style="fill:#F3F6E7;" d="M278.445,38.099H144.303c-1.951-4.39-5.214-9.038-10.071-13.896C117.909,7.88,80.296,5,80.296,5    s2.238,29.203,13.939,47.313c-40.818,21.601-84.039,68.08-84.039,141.176c0,105.325,68.013,130.83,68.013,188.451    s-68.013,95.406-68.013,95.406h291.887c0,0,53.843-44.397,53.843-109.103c0-107.686-155.39-125.57-155.39-206.603    c2.119,0.134,4.269,0.204,6.446,0.204c29.116,0,40.504-12.79,48.544-30.362c3.491-7.631,11.195-12.451,19.587-12.451l0,0    c6.702,0,12.924,3.186,17.122,8.41c5.564,6.925,17.786,11.733,31.969,11.733c19.425,0,35.173-13.225,35.173-39.508l0,0    C359.376,54.968,323.142,38.099,278.445,38.099z"/>
		<path style="fill:#383A47;" d="M302.083,482.347H10.195c-2.278,0-4.269-1.54-4.84-3.746c-0.572-2.206,0.42-4.519,2.411-5.625    c0.652-0.363,65.441-37.078,65.441-91.036c0-23.002-11.866-41.044-25.606-61.936C28.708,291.279,5.195,255.529,5.195,193.489    c0-34.534,9.277-65.724,27.575-92.705c17.211-25.379,38.416-41.156,54.566-50.383C77.428,31.633,75.398,6.529,75.311,5.382    c-0.111-1.455,0.418-2.886,1.449-3.917c1.032-1.032,2.46-1.562,3.918-1.45c1.611,0.124,39.659,3.222,57.09,20.653    c4.108,4.108,7.335,8.277,9.626,12.432h131.052c54.61,0,85.931,24.263,85.931,66.566c0,27.037-15.769,44.507-40.173,44.507    c-15.383,0-29.127-5.211-35.866-13.601c-3.341-4.157-8.161-6.541-13.225-6.541c-6.487,0-12.392,3.741-15.04,9.531    c-7.908,17.286-19.813,33.282-53.09,33.282c-0.4,0-0.802-0.002-1.203-0.007c3.048,32.231,34.211,54.553,67.105,78.114    c41.268,29.558,88.041,63.059,88.041,123.292c0,66.301-53.389,111.087-55.662,112.961    C304.368,481.943,303.244,482.347,302.083,482.347z M27.004,472.347h273.205c8.073-7.238,50.717-48.143,50.717-104.104    c0-55.096-42.634-85.632-83.863-115.163c-36.783-26.346-71.526-51.23-71.526-91.44c0-1.381,0.571-2.701,1.578-3.646    s2.365-1.426,3.738-1.345c2.026,0.129,4.089,0.194,6.13,0.194c26.183,0,36.246-10.5,43.996-27.442    c4.271-9.337,13.745-15.371,24.134-15.371c8.109,0,15.771,3.746,21.02,10.278c4.74,5.9,16.021,9.864,28.071,9.864    c18.611,0,30.173-13.223,30.173-34.507c0-49.218-47.573-56.566-75.931-56.566H144.304c-1.976,0-3.767-1.164-4.569-2.969    c-1.78-4.005-4.82-8.174-9.037-12.391c-11.104-11.104-33.814-15.515-44.701-17.043c1.302,9.208,4.677,26.891,12.438,38.904    c0.76,1.177,0.991,2.62,0.638,3.976s-1.261,2.501-2.499,3.157c-19.091,10.103-81.378,49.823-81.378,136.757    c0,59.047,21.655,91.971,40.761,121.021c14.623,22.233,27.252,41.435,27.252,67.431C83.208,425.312,47.683,457.364,27.004,472.347    z"/>
	</g>
	<g>
		<path style="fill:#EEBDD2;" d="M339.395,499.073H26.726C14.727,499.073,5,489.346,5,477.346v0    c0-11.999,9.727-21.726,21.726-21.726h312.669c11.999,0,21.726,9.727,21.726,21.726v0    C361.121,489.346,351.394,499.073,339.395,499.073z"/>
		<path style="fill:#383A47;" d="M339.395,504.073H26.727C11.989,504.073,0,492.083,0,477.347c0-14.737,11.989-26.727,26.727-26.727    h312.668c14.737,0,26.727,11.989,26.727,26.727C366.121,492.083,354.132,504.073,339.395,504.073z M26.727,460.62    c-9.223,0-16.727,7.503-16.727,16.727c0,9.223,7.504,16.726,16.727,16.726h312.668c9.223,0,16.727-7.503,16.727-16.726    c0-9.223-7.504-16.727-16.727-16.727H26.727z"/>
	</g>
	<g>
		<path style="fill:#EEBDD2;" d="M310.112,542.525H56.009c-11.999,0-21.726-9.727-21.726-21.726v0    c0-11.999,9.727-21.726,21.726-21.726h254.102c11.999,0,21.726,9.727,21.726,21.726v0    C331.838,532.798,322.111,542.525,310.112,542.525z"/>
		<path style="fill:#383A47;" d="M310.112,547.525H56.01c-14.737,0-26.727-11.989-26.727-26.727    c0-14.737,11.989-26.726,26.727-26.726h254.103c14.736,0,26.726,11.989,26.726,26.726    C336.838,535.536,324.849,547.525,310.112,547.525z M56.01,504.073c-9.223,0-16.727,7.503-16.727,16.726    c0,9.223,7.504,16.727,16.727,16.727h254.103c9.223,0,16.726-7.503,16.726-16.727c0-9.223-7.503-16.726-16.726-16.726H56.01z"/>
	</g>
	<g>
		<path style="fill:#F3F6E7;" d="M200.536,161.844h-12.843c-25.661,0-49.371-13.697-62.19-35.928"/>
		<path style="fill:#383A47;" d="M200.536,166.844h-12.843c-27.362,0-52.853-14.725-66.521-38.43    c-1.38-2.392-0.559-5.45,1.833-6.829c2.395-1.378,5.449-0.558,6.829,1.834c11.89,20.617,34.06,33.425,57.859,33.425h12.843    c2.762,0,5,2.239,5,5S203.298,166.844,200.536,166.844z"/>
	</g>
	<circle style="fill:#383A47;" cx="168.419" cy="76.356" r="12.28"/>
</g>
</g></g></g><!--ITEM 10--><g><defs><clipPath id="clip-path-id-viewbox-item-10"><rect x="0.0" y="0.0" width="389.53253" height="385.69075"/></clipPath></defs><g transform="translate(1219.0 473.0) rotate(-7.794949681392214 323.5 322.5) scale(1.660965260077252 1.6723242649713534)"><g clip-path="url(#clip-path-id-viewbox-item-10)" transform="translate(-0.0 -0.0)"><g>
    <g>
      <polygon points="98.56 60.869 61.036 98.393 220.941 290.929 291.096 220.774 98.56 60.869" style="         fill: #aac4fa;       "/>
      <path d="M220.941,295.9288c-.07715,0-.15332-.002-.23047-.00488a5.00192,5.00192,0,0,1-3.61621-1.80078L57.18908,101.587a4.99825,4.99825,0,0,1,.31152-6.7295L95.025,57.3331a5.0004,5.0004,0,0,1,6.72949-.31152L294.28966,216.92783a4.99839,4.99839,0,0,1,.34083,7.38183l-70.1543,70.1543A4.996,4.996,0,0,1,220.941,295.9288ZM67.79455,98.70517,221.28381,283.51572l62.39843-62.39844L98.87267,67.62705Z" style="         fill: #383a47;       "/>
    </g>
    <g>
      <path d="M305.35839,264.19366h.00016a74.64595,74.64595,0,0,1,74.64595,74.64595v.00008a0,0,0,0,1,0,0H230.71243a0,0,0,0,1,0,0v-.00008A74.646,74.646,0,0,1,305.35839,264.19366Z" transform="translate(-123.76707 304.23323) rotate(-45)" style="         fill: #aac4fa;       "/>
      <path d="M278.9674,385.69052a4.98216,4.98216,0,0,1-3.53516-1.46484,79.73406,79.73406,0,0,1,0-112.63574h0a79.64429,79.64429,0,0,1,112.63575,0,4.99818,4.99818,0,0,1,0,7.07031L282.50256,384.22568A4.98216,4.98216,0,0,1,278.9674,385.69052Zm52.78223-127.42871a69.189,69.189,0,0,0-49.24707,20.39844h0a69.73825,69.73825,0,0,0-3.40918,94.834l98.24414-98.24511A69.12648,69.12648,0,0,0,331.74963,258.26181ZM278.9674,275.12509h0Z" style="         fill: #383a47;       "/>
    </g>
    <g>
      <path d="M298.51007,297.00677c20.49732-20.49732,45.80575-32.0465,69.50053-33.8432a74.67618,74.67618,0,0,0-89.37752,12.29578l-.00009.00008a74.67519,74.67519,0,0,0-13.56775,87.01619C267.7981,339.96719,279.17117,316.34567,298.51007,297.00677Z" style="         fill: #383a47;       "/>
      <path d="M265.0631,367.47568a5.0012,5.0012,0,0,1-4.4414-2.70606A79.66861,79.66861,0,0,1,370.46349,258.80673a4.9996,4.9996,0,0,1-2.07519,9.3418c-23.34571,1.77051-47.52637,13.57812-66.34278,32.39355-17.92578,17.92676-29.29687,40.13575-32.0166,62.53614a5.00175,5.00175,0,0,1-4.96582,4.39746ZM331.53674,258.628a69.64925,69.64925,0,0,0-67.83008,86.10254c5.55957-18.55859,16.32422-36.31543,31.26855-51.25879,15.83789-15.83887,35.26563-27.12207,55.1416-32.32519A69.60761,69.60761,0,0,0,331.53674,258.628Z" style="         fill: #383a47;       "/>
    </g>
    <g>
      <polygon points="62.817 5 90.087 52.561 52.561 90.087 5 62.817 33.259 55.604 14.366 14.366 54.805 31.051 62.817 5" style="         fill: #aac4fa;       "/>
      <path d="M52.5592,95.087a4.993,4.993,0,0,1-2.48536-.66211L2.51232,67.15537a5.0004,5.0004,0,0,1,1.251-9.18262L26.21838,52.2413,9.81994,16.44833a5.00058,5.00058,0,0,1,6.45312-6.70507L51.63927,24.337,58.03771,3.53037A5.00073,5.00073,0,0,1,67.1549,2.51279L94.42541,50.07431a4.99894,4.99894,0,0,1-.80274,6.02246L56.09631,93.62216A4.99726,4.99726,0,0,1,52.5592,95.087ZM18.18322,64.6124,51.73009,83.84677,83.84728,51.73056l-19.63769-34.249-4.625,15.04a5.001,5.001,0,0,1-6.68653,3.15234L24.20373,23.8331,37.80529,53.52158a5.00041,5.00041,0,0,1-3.30957,6.92773Z" style="         fill: #383a47;       "/>
    </g>
    <g>
      <rect x="37.45254" y="65.80104" width="86.92956" height="29.89849" rx="14.94923" transform="translate(-33.39894 80.86839) rotate(-45)" style="         fill: #aac4fa;       "/>
      <path d="M60.75353,120.85361a19.93995,19.93995,0,0,1-14.10547-34.0459L86.97521,46.48056a19.94884,19.94884,0,1,1,28.21192,28.21192L74.86,115.01962A19.88362,19.88362,0,0,1,60.75353,120.85361Zm40.32715-70.21192a9.91832,9.91832,0,0,0-7.03516,2.90918L53.71838,93.878a9.9499,9.9499,0,1,0,14.07128,14.07129l40.32715-40.32715a9.94483,9.94483,0,0,0-7.03613-16.98047Z" style="         fill: #383a47;       "/>
    </g>
    <g>
      <rect x="189.07368" y="242.39084" width="158.49375" height="47.96521" rx="23.98258" transform="translate(-109.7652 267.75026) rotate(-45)" style="         fill: #e06e9c;       "/>
      <path d="M229.24279,334.43369a28.9824,28.9824,0,0,1-20.49316-49.47657l78.15527-78.15527v-.001a28.98309,28.98309,0,0,1,40.98828,40.98828L249.736,325.94443A28.78778,28.78778,0,0,1,229.24279,334.43369Zm64.73242-120.56153-78.15527,78.15625a18.98243,18.98243,0,0,0,26.84472,26.84571l78.15723-78.15528a18.98312,18.98312,0,1,0-26.84668-26.8457Z" style="         fill: #383a47;       "/>
    </g>
  </g>
</g></g></g><!--ITEM 11--><g><defs><clipPath id="clip-path-id-crop-item-11"><rect transform="scale(0.4801785150078989 0.4805439330543933)" x="44" y="0.0" width="589.0" height="478.0"/></clipPath><clipPath id="clip-path-id-viewbox-item-11"><rect x="0.0" y="0.0" width="303.953" height="229.7"/></clipPath></defs><g clip-path="url(#clip-path-id-crop-item-11)" transform="translate(902.0 734.0) rotate(-137.42113924350002 316.5 239.0) scale(2.0825588166591547 2.080975185023944)"><g clip-path="url(#clip-path-id-viewbox-item-11)" transform="translate(-0.0 -0.0)"><path d="M5.053,229.7a5.277,5.277,0,0,1-4-1.9,4.96,4.96,0,0,1,.9-7c1.5-1.2,3-2.3,4.5-3.5a4.982,4.982,0,0,1,6.2,7.8c-1.5,1.2-3,2.4-4.6,3.6A5.389,5.389,0,0,1,5.053,229.7Zm27.3-23.1a5,5,0,0,1-3.4-8.7c2.9-2.7,5.8-5.4,8.6-8.2a5.021,5.021,0,1,1,7,7.2c-2.9,2.8-5.8,5.6-8.8,8.4A5.01,5.01,0,0,1,32.353,206.6Zm29.2-30.1a5.163,5.163,0,0,1-3.3-1.2,5.051,5.051,0,0,1-.5-7.1c2.6-3,5.1-6,7.6-9.1a4.974,4.974,0,0,1,7.7,6.3c-2.6,3.1-5.2,6.3-7.8,9.3A4.591,4.591,0,0,1,61.553,176.5Zm25.5-33.3a5.852,5.852,0,0,1-2.2-.5,5,5,0,0,1-2.3-6.7c1.8-3.6,3.7-7.3,5.7-10.8a4.992,4.992,0,1,1,8.7,4.9c-1.9,3.4-3.7,6.9-5.5,10.4A4.874,4.874,0,0,1,87.053,143.2Zm21.7-35.9a4.643,4.643,0,0,1-2.9-1,5.057,5.057,0,0,1-1.1-7c2.4-3.3,4.9-6.6,7.4-9.7a4.982,4.982,0,1,1,7.8,6.2c-2.4,3-4.8,6.2-7.1,9.3A5.046,5.046,0,0,1,108.753,107.3Zm27.5-31.7a5,5,0,0,1-3.5-8.6c2.9-2.8,6-5.6,9-8.3a5.033,5.033,0,1,1,6.6,7.6c-2.9,2.6-5.8,5.2-8.6,7.9A4.906,4.906,0,0,1,136.253,75.6Zm32.6-26.3a5.218,5.218,0,0,1-4.2-2.2,4.983,4.983,0,0,1,1.4-6.9c3.4-2.3,6.9-4.5,10.4-6.5a5.025,5.025,0,0,1,5.2,8.6c-3.3,2-6.7,4.1-9.9,6.3A7.7,7.7,0,0,1,168.853,49.3Zm36.9-20a5,5,0,0,1-4.6-3,5.067,5.067,0,0,1,2.6-6.6c3.7-1.6,7.6-3.2,11.4-4.6a4.968,4.968,0,1,1,3.5,9.3c-3.6,1.4-7.3,2.8-10.9,4.4A5.34,5.34,0,0,1,205.753,29.3Zm39.8-13.2a5.109,5.109,0,0,1-4.9-3.9,4.968,4.968,0,0,1,3.7-6c4-.9,8-1.7,12-2.5a4.982,4.982,0,1,1,1.8,9.8c-3.8.7-7.7,1.5-11.5,2.4A2.344,2.344,0,0,1,245.553,16.1Zm41.5-5.8a5.042,5.042,0,0,1-5-4.8,4.941,4.941,0,0,1,4.7-5.2c4-.2,8.2-.3,12.2-.3a4.951,4.951,0,0,1,5,5,4.951,4.951,0,0,1-5,5c-3.9,0-7.9.1-11.8.3Z" fill="#383a48"/></g></g></g><!--ITEM 12--><g><defs><clipPath id="clip-path-id-viewbox-item-12"><rect x="0.0" y="0.0" width="738.71997" height="531.63946"/></clipPath></defs><g transform="translate(291.0 68.0) rotate(0.0 576.5 413.5) scale(1.560807947292937 1.5555654954581437)"><g clip-path="url(#clip-path-id-viewbox-item-12)" transform="translate(-0.0 -0.0)"><g>
    <path d="M622.69727,531.63946H90.0152a90,90,0,0,1-90-90V384.13973L375.863,451.12614l298.83424-1.712v30.22528A52,52,0,0,1,622.69727,531.63946Z" style="         fill: #383a47;       "/>
    <g>
      <g>
        <path d="M171.35,462.277a113.51536,113.51536,0,0,0,80.52,33.35h-133a113.87,113.87,0,1,1,0-227.74h133a113.8725,113.8725,0,0,0-80.52,194.39Z" style="         fill: #eebdd2;       "/>
        <path d="M251.86979,500.62711h-133a118.87011,118.87011,0,1,1,0-237.74023h133a5,5,0,1,1,0,10,108.87012,108.87012,0,1,0,0,217.74023,5,5,0,1,1,0,10Zm-133-227.74023a108.87012,108.87012,0,1,0,0,217.74023H203.985a118.77956,118.77956,0,0,1-36.16992-24.81543h-.001A118.87038,118.87038,0,0,1,204.153,272.88688Z" style="         fill: #383a47;       "/>
      </g>
      <g>
        <path d="M240.65785,128.64544H477.34893a43.998,43.998,0,0,1,43.998,43.998v.00009a43.998,43.998,0,0,1-43.998,43.998H240.65785a0,0,0,0,1,0,0V128.64544A0,0,0,0,1,240.65785,128.64544Z" transform="translate(208.35891 553.64587) rotate(-90)" style="         fill: #f6e258;       "/>
        <path d="M425.00065,317.98844h-87.9961a4.99962,4.99962,0,0,1-5-5V76.297a48.998,48.998,0,0,1,97.9961,0V312.98844A4.99963,4.99963,0,0,1,425.00065,317.98844Zm-82.9961-10h77.9961V76.297a38.99805,38.99805,0,0,0-77.9961,0Z" style="         fill: #383a47;       "/>
      </g>
      <g>
        <path d="M278.30654,126.01149H586.606a43.998,43.998,0,0,1,43.998,43.998v.00009a43.998,43.998,0,0,1-43.998,43.998H278.30654a0,0,0,0,1,0,0V126.01149a0,0,0,0,1,0,0Z" transform="translate(116.08361 517.77014) rotate(-66.29456)" style="         fill: #f6e258;       "/>
        <path d="M423.9235,353.98453a4.99114,4.99114,0,0,1-2.00977-.42187l-80.57226-35.37793a5.00074,5.00074,0,0,1-2.56836-6.58789L462.72037,29.31071a48.99774,48.99774,0,1,1,89.72754,39.39648L428.50162,350.9943a5.00275,5.00275,0,0,1-4.57812,2.99023Zm-73.98438-42.94628,71.416,31.35839,121.93652-277.709v-.001a38.99787,38.99787,0,0,0-71.415-31.35644Z" style="         fill: #383a47;       "/>
      </g>
      <g>
        <path d="M317.525,141.969H664.17679a43.998,43.998,0,0,1,43.998,43.998v.00009a43.998,43.998,0,0,1-43.998,43.998H317.525a0,0,0,0,1,0,0V141.969a0,0,0,0,1,0,0Z" transform="translate(13.25437 405.06301) rotate(-43.6111)" style="         fill: #f6e258;       "/>
        <path d="M401.77506,357.55094c-.04,0-.08106,0-.12109-.001a5.001,5.001,0,0,1-3.499-1.5498l-60.69629-63.71289a5.00021,5.00021,0,0,1,.1709-7.06934L588.61881,46.11149a48.99845,48.99845,0,0,1,67.59473,70.95312l-3.44922-3.62011,3.44922,3.62011L405.22428,356.17106A5.0035,5.0035,0,0,1,401.77506,357.55094Zm-53.627-68.542,53.79882,56.47265L649.3151,109.82438a38.998,38.998,0,1,0-53.79785-56.47266Z" style="         fill: #383a47;       "/>
      </g>
      <g>
        <path d="M733.72,274.75694a46.65925,46.65925,0,0,1-72.58,38.77l-28.25-18.88-52.95-35.37-81.4,35.97a56.21722,56.21722,0,0,0,22.72,107.64H623.33a46.37,46.37,0,0,1,0,92.74H251.87a113.87,113.87,0,1,1,0-227.74h54.89L567.9,148.777a30.0173,30.0173,0,0,1,30.16,3.08l36.92,26.99,79.64,58.22A46.48334,46.48334,0,0,1,733.69,273.137Q733.72,273.947,733.72,274.75694Z" style="         fill: #f6e258;       "/>
        <path d="M623.32975,500.62711h-371.46a118.87011,118.87011,0,1,1,0-237.74023h53.80468L565.82486,144.2277a35.05577,35.05577,0,0,1,35.18457,3.5918L717.571,233.03043A51.379,51.379,0,0,1,738.68717,272.966c.02148.59082.0332,1.19043.0332,1.791a51.65974,51.65974,0,0,1-80.3584,42.92675l-78.91406-52.72363-78.88769,34.86035a51.2172,51.2172,0,0,0,20.70019,98.06641H623.32975a51.37012,51.37012,0,0,1,0,102.74023Zm-371.46-227.74023a108.87012,108.87012,0,1,0,0,217.74023h371.46a41.37012,41.37012,0,1,0,0-82.74023H521.26041A61.21654,61.21654,0,0,1,496.51822,290.674l81.40137-35.97071a4.98864,4.98864,0,0,1,4.79785.416l81.20117,54.25a41.65844,41.65844,0,0,0,64.80176-34.6123q0-.71925-.02734-1.43946a41.437,41.437,0,0,0-17.02735-32.21679L595.109,155.89274a25.04847,25.04847,0,0,0-25.13476-2.56641L308.83561,272.43571a4.99027,4.99027,0,0,1-2.0752.45117Z" style="         fill: #383a47;       "/>
      </g>
      <g>
        <path d="M192.57562,275.61484a4.13229,4.13229,0,1,0,4.14569,4.13233A4.13907,4.13907,0,0,0,192.57562,275.61484Z" style="         fill: #383a48;       "/>
        <path d="M192.57562,479.74863a4.13229,4.13229,0,1,0,4.14569,4.13232A4.13907,4.13907,0,0,0,192.57562,479.74863Z" style="         fill: #383a48;       "/>
        <path d="M172.09576,275.61484a4.13229,4.13229,0,1,0,4.14575,4.13233A4.139,4.139,0,0,0,172.09576,275.61484Z" style="         fill: #383a48;       "/>
        <path d="M172.09576,479.74863a4.13229,4.13229,0,1,0,4.14575,4.13232A4.139,4.139,0,0,0,172.09576,479.74863Z" style="         fill: #383a48;       "/>
        <path d="M151.616,275.61484a4.13229,4.13229,0,1,0,4.14576,4.13233A4.139,4.139,0,0,0,151.616,275.61484Z" style="         fill: #383a48;       "/>
        <path d="M151.616,296.02817a4.13235,4.13235,0,1,0,4.14576,4.13233A4.139,4.139,0,0,0,151.616,296.02817Z" style="         fill: #383a48;       "/>
        <path d="M151.616,316.44162a4.13229,4.13229,0,1,0,4.14576,4.13221A4.13891,4.13891,0,0,0,151.616,316.44162Z" style="         fill: #383a48;       "/>
        <path d="M151.616,438.922a4.13222,4.13222,0,1,0,4.14576,4.1322A4.13891,4.13891,0,0,0,151.616,438.922Z" style="         fill: #383a48;       "/>
        <path d="M151.616,459.3353a4.13229,4.13229,0,1,0,4.14576,4.13232A4.139,4.139,0,0,0,151.616,459.3353Z" style="         fill: #383a48;       "/>
        <path d="M151.616,479.74863a4.13229,4.13229,0,1,0,4.14576,4.13232A4.139,4.139,0,0,0,151.616,479.74863Z" style="         fill: #383a48;       "/>
        <path d="M131.13617,275.61484a4.13229,4.13229,0,1,0,4.14569,4.13233A4.139,4.139,0,0,0,131.13617,275.61484Z" style="         fill: #383a48;       "/>
        <ellipse cx="131.13617" cy="300.1605" rx="4.14569" ry="4.13232" style="         fill: #383a48;       "/>
        <path d="M131.13617,316.44162a4.13229,4.13229,0,1,0,4.14569,4.13221A4.13891,4.13891,0,0,0,131.13617,316.44162Z" style="         fill: #383a48;       "/>
        <ellipse cx="131.13617" cy="340.98728" rx="4.14569" ry="4.1322" style="         fill: #383a48;       "/>
        <path d="M131.13617,357.26841a4.13228,4.13228,0,1,0,4.14569,4.13232A4.139,4.139,0,0,0,131.13617,357.26841Z" style="         fill: #383a48;       "/>
        <path d="M131.13617,377.68174a4.13228,4.13228,0,1,0,4.14569,4.13232A4.139,4.139,0,0,0,131.13617,377.68174Z" style="         fill: #383a48;       "/>
        <ellipse cx="131.13617" cy="402.22739" rx="4.14569" ry="4.13232" style="         fill: #383a48;       "/>
        <path d="M131.13617,418.50852a4.13228,4.13228,0,1,0,4.14569,4.1322A4.1389,4.1389,0,0,0,131.13617,418.50852Z" style="         fill: #383a48;       "/>
        <ellipse cx="131.13617" cy="443.05417" rx="4.14569" ry="4.1322" style="         fill: #383a48;       "/>
        <path d="M131.13617,459.3353a4.13229,4.13229,0,1,0,4.14569,4.13232A4.139,4.139,0,0,0,131.13617,459.3353Z" style="         fill: #383a48;       "/>
        <path d="M131.13617,479.74863a4.13229,4.13229,0,1,0,4.14569,4.13232A4.139,4.139,0,0,0,131.13617,479.74863Z" style="         fill: #383a48;       "/>
        <path d="M110.65637,275.61484a4.13229,4.13229,0,1,0,4.14569,4.13233A4.139,4.139,0,0,0,110.65637,275.61484Z" style="         fill: #383a48;       "/>
        <ellipse cx="110.65637" cy="300.1605" rx="4.14569" ry="4.13232" style="         fill: #383a48;       "/>
        <path d="M110.65637,316.44162a4.13229,4.13229,0,1,0,4.14569,4.13221A4.13891,4.13891,0,0,0,110.65637,316.44162Z" style="         fill: #383a48;       "/>
        <ellipse cx="110.65637" cy="340.98728" rx="4.14569" ry="4.1322" style="         fill: #383a48;       "/>
        <path d="M110.65637,357.26841a4.13228,4.13228,0,1,0,4.14569,4.13232A4.139,4.139,0,0,0,110.65637,357.26841Z" style="         fill: #383a48;       "/>
        <path d="M110.65637,377.68174a4.13228,4.13228,0,1,0,4.14569,4.13232A4.139,4.139,0,0,0,110.65637,377.68174Z" style="         fill: #383a48;       "/>
        <ellipse cx="110.65637" cy="402.22739" rx="4.14569" ry="4.13232" style="         fill: #383a48;       "/>
        <path d="M110.65637,418.50852a4.13228,4.13228,0,1,0,4.14569,4.1322A4.13891,4.13891,0,0,0,110.65637,418.50852Z" style="         fill: #383a48;       "/>
        <ellipse cx="110.65637" cy="443.05417" rx="4.14569" ry="4.1322" style="         fill: #383a48;       "/>
        <path d="M110.65637,459.3353a4.13229,4.13229,0,1,0,4.14569,4.13232A4.139,4.139,0,0,0,110.65637,459.3353Z" style="         fill: #383a48;       "/>
        <path d="M110.65637,479.74863a4.13229,4.13229,0,1,0,4.14569,4.13232A4.139,4.139,0,0,0,110.65637,479.74863Z" style="         fill: #383a48;       "/>
        <path d="M90.17657,275.61484a4.13229,4.13229,0,1,0,4.14569,4.13233A4.139,4.139,0,0,0,90.17657,275.61484Z" style="         fill: #383a48;       "/>
        <ellipse cx="90.17657" cy="300.1605" rx="4.14569" ry="4.13232" style="         fill: #383a48;       "/>
        <path d="M90.17657,316.44162a4.13229,4.13229,0,1,0,4.14569,4.13221A4.13891,4.13891,0,0,0,90.17657,316.44162Z" style="         fill: #383a48;       "/>
        <ellipse cx="90.17657" cy="340.98728" rx="4.14569" ry="4.1322" style="         fill: #383a48;       "/>
        <path d="M90.17657,357.26841a4.13228,4.13228,0,1,0,4.14569,4.13232A4.139,4.139,0,0,0,90.17657,357.26841Z" style="         fill: #383a48;       "/>
        <path d="M90.17657,377.68174a4.13228,4.13228,0,1,0,4.14569,4.13232A4.139,4.139,0,0,0,90.17657,377.68174Z" style="         fill: #383a48;       "/>
        <ellipse cx="90.17657" cy="402.22739" rx="4.14569" ry="4.13232" style="         fill: #383a48;       "/>
        <path d="M90.17657,418.50852a4.13228,4.13228,0,1,0,4.14569,4.1322A4.13891,4.13891,0,0,0,90.17657,418.50852Z" style="         fill: #383a48;       "/>
        <ellipse cx="90.17657" cy="443.05417" rx="4.14569" ry="4.1322" style="         fill: #383a48;       "/>
        <path d="M90.17657,459.3353a4.13229,4.13229,0,1,0,4.14569,4.13232A4.139,4.139,0,0,0,90.17657,459.3353Z" style="         fill: #383a48;       "/>
        <path d="M90.17657,479.74863a4.13229,4.13229,0,1,0,4.14569,4.13232A4.139,4.139,0,0,0,90.17657,479.74863Z" style="         fill: #383a48;       "/>
        <path d="M69.69677,275.61484a4.13229,4.13229,0,1,0,4.1457,4.13233A4.13907,4.13907,0,0,0,69.69677,275.61484Z" style="         fill: #383a48;       "/>
        <path d="M69.69677,296.02817a4.13235,4.13235,0,1,0,4.1457,4.13233A4.13907,4.13907,0,0,0,69.69677,296.02817Z" style="         fill: #383a48;       "/>
        <path d="M69.69677,316.44162a4.13229,4.13229,0,1,0,4.1457,4.13221A4.139,4.139,0,0,0,69.69677,316.44162Z" style="         fill: #383a48;       "/>
        <path d="M69.69677,336.85508a4.13222,4.13222,0,1,0,4.1457,4.1322A4.139,4.139,0,0,0,69.69677,336.85508Z" style="         fill: #383a48;       "/>
        <path d="M69.69677,357.26841a4.13228,4.13228,0,1,0,4.1457,4.13232A4.13906,4.13906,0,0,0,69.69677,357.26841Z" style="         fill: #383a48;       "/>
        <path d="M69.69677,377.68174a4.13228,4.13228,0,1,0,4.1457,4.13232A4.13906,4.13906,0,0,0,69.69677,377.68174Z" style="         fill: #383a48;       "/>
        <path d="M69.69677,398.09507a4.13234,4.13234,0,1,0,4.1457,4.13232A4.13906,4.13906,0,0,0,69.69677,398.09507Z" style="         fill: #383a48;       "/>
        <path d="M69.69677,418.50852a4.13228,4.13228,0,1,0,4.1457,4.1322A4.139,4.139,0,0,0,69.69677,418.50852Z" style="         fill: #383a48;       "/>
        <path d="M69.69677,438.922a4.13222,4.13222,0,1,0,4.1457,4.1322A4.139,4.139,0,0,0,69.69677,438.922Z" style="         fill: #383a48;       "/>
        <path d="M69.69677,459.3353a4.13229,4.13229,0,1,0,4.1457,4.13232A4.13907,4.13907,0,0,0,69.69677,459.3353Z" style="         fill: #383a48;       "/>
        <path d="M69.69677,479.74863a4.13229,4.13229,0,1,0,4.1457,4.13232A4.13907,4.13907,0,0,0,69.69677,479.74863Z" style="         fill: #383a48;       "/>
        <path d="M49.217,296.02817a4.13235,4.13235,0,1,0,4.14569,4.13233A4.13907,4.13907,0,0,0,49.217,296.02817Z" style="         fill: #383a48;       "/>
        <path d="M49.217,316.44162a4.13229,4.13229,0,1,0,4.14569,4.13221A4.139,4.139,0,0,0,49.217,316.44162Z" style="         fill: #383a48;       "/>
        <path d="M49.217,336.85508a4.13222,4.13222,0,1,0,4.14569,4.1322A4.139,4.139,0,0,0,49.217,336.85508Z" style="         fill: #383a48;       "/>
        <path d="M49.217,357.26841a4.13228,4.13228,0,1,0,4.14569,4.13232A4.13906,4.13906,0,0,0,49.217,357.26841Z" style="         fill: #383a48;       "/>
        <path d="M49.217,377.68174a4.13228,4.13228,0,1,0,4.14569,4.13232A4.13906,4.13906,0,0,0,49.217,377.68174Z" style="         fill: #383a48;       "/>
        <path d="M49.217,398.09507a4.13234,4.13234,0,1,0,4.14569,4.13232A4.13906,4.13906,0,0,0,49.217,398.09507Z" style="         fill: #383a48;       "/>
        <path d="M49.217,418.50852a4.13228,4.13228,0,1,0,4.14569,4.1322A4.139,4.139,0,0,0,49.217,418.50852Z" style="         fill: #383a48;       "/>
        <path d="M49.217,438.922a4.13222,4.13222,0,1,0,4.14569,4.1322A4.139,4.139,0,0,0,49.217,438.922Z" style="         fill: #383a48;       "/>
        <path d="M49.217,459.3353a4.13229,4.13229,0,1,0,4.14569,4.13232A4.13907,4.13907,0,0,0,49.217,459.3353Z" style="         fill: #383a48;       "/>
        <path d="M28.73712,316.44162a4.13229,4.13229,0,1,0,4.14575,4.13221A4.139,4.139,0,0,0,28.73712,316.44162Z" style="         fill: #383a48;       "/>
        <path d="M28.73712,336.85508a4.13222,4.13222,0,1,0,4.14575,4.1322A4.13894,4.13894,0,0,0,28.73712,336.85508Z" style="         fill: #383a48;       "/>
        <path d="M28.73712,357.26841a4.13228,4.13228,0,1,0,4.14575,4.13232A4.139,4.139,0,0,0,28.73712,357.26841Z" style="         fill: #383a48;       "/>
        <path d="M28.73712,377.68174a4.13228,4.13228,0,1,0,4.14575,4.13232A4.139,4.139,0,0,0,28.73712,377.68174Z" style="         fill: #383a48;       "/>
        <path d="M28.73712,398.09507a4.13234,4.13234,0,1,0,4.14575,4.13232A4.139,4.139,0,0,0,28.73712,398.09507Z" style="         fill: #383a48;       "/>
        <path d="M28.73712,418.50852a4.13228,4.13228,0,1,0,4.14575,4.1322A4.13894,4.13894,0,0,0,28.73712,418.50852Z" style="         fill: #383a48;       "/>
        <path d="M28.73712,438.922a4.13222,4.13222,0,1,0,4.14575,4.1322A4.139,4.139,0,0,0,28.73712,438.922Z" style="         fill: #383a48;       "/>
        <path d="M8.25732,357.26841a4.13228,4.13228,0,1,0,4.14575,4.13232A4.139,4.139,0,0,0,8.25732,357.26841Z" style="         fill: #383a48;       "/>
        <path d="M8.25732,377.68174a4.13228,4.13228,0,1,0,4.14575,4.13232A4.139,4.139,0,0,0,8.25732,377.68174Z" style="         fill: #383a48;       "/>
        <path d="M8.25732,398.09507a4.13234,4.13234,0,1,0,4.14575,4.13232A4.139,4.139,0,0,0,8.25732,398.09507Z" style="         fill: #383a48;       "/>
      </g>
      <polygon points="569.211 142.852 337.004 225.808 337.559 255.547 567.9 148.777 569.211 142.852" style="         fill: #383a48;       "/>
    </g>
  </g>
</g></g></g><!--ITEM 13--><g><defs><clipPath id="clip-path-id-viewbox-item-13"><rect x="0.0" y="0.0" width="254.2" height="426.8"/></clipPath></defs><g transform="translate(462.0 1010.0) rotate(0.0 143.0 238.0) scale(1.1250983477576713 1.1152764761012184)"><g clip-path="url(#clip-path-id-viewbox-item-13)" transform="translate(-0.0 -0.0)"><g>
	<g>
		<path d="M15.2,406.6c0-98.1,104.1-159.9,104.1-192.2S15.2,120.2,15.2,22.2h223.9c0,98.1-104.1,159.9-104.1,192.2    s104.1,94.2,104.1,192.2H15.2z" style="fill:#f3f6e6;"/>
		<path d="M239.1,411.6H15.2c-2.8,0-5-2.2-5-5c0-64.2,42.7-112.7,73.9-148c16.2-18.4,30.2-34.3,30.2-44.2    s-14-25.8-30.2-44.2c-31.2-35.4-73.9-83.9-73.9-148c0-2.8,2.2-5,5-5h223.9c2.8,0,5,2.2,5,5c0,64.2-42.7,112.7-73.9,148    C154,188.6,140,204.5,140,214.4s14,25.8,30.2,44.2c31.2,35.4,73.9,83.9,73.9,148C244.1,409.4,241.8,411.6,239.1,411.6z     M20.3,401.6H234c-2.2-58-42-103.2-71.3-136.4c-19-21.5-32.7-37.1-32.7-50.8s13.7-29.3,32.7-50.8C192,130.4,231.8,85.2,234,27.2    H20.3c2.2,58,42,103.2,71.3,136.4c19,21.5,32.7,37.1,32.7,50.8s-13.7,29.3-32.7,50.8C62.2,298.4,22.4,343.6,20.3,401.6z" style="fill:#383A48;"/>
	</g>
	<g>
		<path d="M61.1,132.2C48.5,108.5,204.3,113,191.5,135c-14.8,22.7-51.7,64.2-51.7,64.2c-8.7,6.6-20.7,5.2-28.5-4.2    C103.5,185.5,72.2,151.6,61.1,132.2z" style="fill:#F6E049;"/>
		<path d="M127.9,208.2c-7.5,0-15.1-3.5-20.5-10.1c-1.7-2.1-4.6-5.4-8.3-9.6c-12.6-14.4-33.6-38.4-42.4-53.9    c0,0,0-0.1-0.1-0.1c-2.5-4.8-1.4-9.7,3.1-13.3c12.9-10.3,54.5-10.1,67-9.8c39,1,59.8,7.4,66.3,13c4.3,3.7,5.2,8.6,2.6,13    c0,0.1-0.1,0.1-0.1,0.2c-14.8,22.7-50.6,63.1-52.1,64.8c-0.2,0.2-0.4,0.5-0.7,0.7C138.3,206.6,133.1,208.2,127.9,208.2z     M65.5,129.8c8.4,14.6,28.9,38.1,41.2,52.2c3.7,4.3,6.7,7.6,8.5,9.8c5.7,7,14.6,8.5,21.2,3.7c3.7-4.2,37-42,50.7-63    c-1.1-1.4-6.5-4.8-22.4-7.6c-13.1-2.3-30-3.6-46.7-3.6c-0.2,0-0.4,0-0.6,0c-35.5,0.1-50.4,5.6-52,8.3    C65.4,129.6,65.4,129.7,65.5,129.8z" style="fill:#383A48;"/>
	</g>
	<path d="M249.2,0H5C2.2,0,0,2.2,0,5v34.3c0,2.8,2.2,5,5,5h244.2c2.8,0,5-2.2,5-5V5C254.2,2.2,252,0,249.2,0z" style="fill:#383A48;"/>
	<g>
		<path d="M15.2,390c0,0,59.6-67,111.9-67S239,390,239,390H15.2z" style="fill:#F6E049;"/>
		<path d="M239.1,395H15.2c-2,0-3.8-1.2-4.6-3c-0.8-1.8-0.5-3.9,0.8-5.4c2.5-2.8,61.7-68.7,115.7-68.7    s113.2,65.9,115.7,68.7c1.3,1.5,1.6,3.6,0.8,5.4S241,395,239.1,395z M26.9,385h200.4c-17.7-17.6-61.6-57-100.2-57    C88.4,328,44.6,367.4,26.9,385z" style="fill:#383A48;"/>
	</g>
	<path d="M249.2,382.5H5c-2.8,0-5,2.2-5,5v34.3c0,2.8,2.2,5,5,5h244.2c2.8,0,5-2.2,5-5v-34.3   C254.2,384.7,252,382.5,249.2,382.5z" style="fill:#383A48;"/>
	<g>
		<circle cx="120.6" cy="261.7" r="6.3" style="fill:#383A48;"/>
		<path d="M120.6,273c-6.2,0-11.3-5.1-11.3-11.3s5.1-11.3,11.3-11.3s11.3,5.1,11.3,11.3S126.8,273,120.6,273z     M120.6,260.4c-0.7,0-1.3,0.6-1.3,1.3s0.6,1.3,1.3,1.3s1.3-0.6,1.3-1.3S121.3,260.4,120.6,260.4z" style="fill:#383A48;"/>
	</g>
	<g>
		<circle cx="145.4" cy="293" r="6.3" style="fill:#383A48;"/>
		<path d="M145.4,304.3c-6.2,0-11.3-5.1-11.3-11.3s5.1-11.3,11.3-11.3s11.3,5.1,11.3,11.3    C156.7,299.2,151.6,304.3,145.4,304.3z M145.4,291.7c-0.7,0-1.3,0.6-1.3,1.3s0.6,1.3,1.3,1.3s1.3-0.6,1.3-1.3    C146.7,292.2,146.1,291.7,145.4,291.7z" style="fill:#383A48;"/>
	</g>
</g>
</g></g></g><!--ITEM 14--><g><defs><clipPath id="clip-path-id-crop-item-14"><rect transform="scale(0.4641507430997877 0.46494345718901453)" x="2" y="0.0" width="468" height="405.0"/></clipPath><clipPath id="clip-path-id-viewbox-item-14"><rect x="0.0" y="0.0" width="218.615" height="287.8"/></clipPath></defs><g clip-path="url(#clip-path-id-crop-item-14)" transform="translate(1547.0 1125.0) rotate(12.211500255164479 235.5 309.5) scale(2.1544724744413695 2.1507991660875607)"><g clip-path="url(#clip-path-id-viewbox-item-14)" transform="translate(-0.0 -0.0)"><path d="M5.015,287.8a7.719,7.719,0,0,1-1.5-.2,5.06,5.06,0,0,1-3.3-6.3l.4-1.3a5.06,5.06,0,0,1,6.3-3.3,5.06,5.06,0,0,1,3.3,6.3l-.4,1.3A5.137,5.137,0,0,1,5.015,287.8Zm9.4-30a7.719,7.719,0,0,1-1.5-.2,5.06,5.06,0,0,1-3.3-6.3l3.6-11.4a5.029,5.029,0,0,1,9.6,3l-3.6,11.4A5.006,5.006,0,0,1,14.415,257.8Zm12.6-40.1a7.719,7.719,0,0,1-1.5-.2,5.06,5.06,0,0,1-3.3-6.3l3.6-11.4a5.029,5.029,0,0,1,9.6,3l-3.6,11.4A5.006,5.006,0,0,1,27.015,217.7Zm12.6-40a7.719,7.719,0,0,1-1.5-.2,5.06,5.06,0,0,1-3.3-6.3l3.6-11.4a5.028,5.028,0,1,1,9.6,3l-3.6,11.4A5.137,5.137,0,0,1,39.615,177.7Zm12.6-40.1a7.719,7.719,0,0,1-1.5-.2,5.059,5.059,0,0,1-3.3-6.3l3.6-11.4a5.028,5.028,0,1,1,9.6,3l-3.6,11.4A5.137,5.137,0,0,1,52.215,137.6Zm15-39.1a4.642,4.642,0,0,1-2.3-.6,4.983,4.983,0,0,1-2.1-6.7c1.9-3.6,4-7.3,6.1-10.7a5.008,5.008,0,0,1,8.5,5.3c-2,3.3-4,6.7-5.8,10.1A5.091,5.091,0,0,1,67.215,98.5Zm23.9-34.4a5,5,0,0,1-3.7-8.4c2.8-3,5.7-6,8.6-8.8a5.022,5.022,0,1,1,6.9,7.3c-2.8,2.7-5.5,5.5-8.1,8.3A4.71,4.71,0,0,1,91.115,64.1Zm31.9-27.2a5.062,5.062,0,0,1-4.2-2.3,4.983,4.983,0,0,1,1.4-6.9c3.4-2.3,7-4.4,10.6-6.4a4.992,4.992,0,1,1,4.9,8.7q-5.1,2.85-9.9,6A4.9,4.9,0,0,1,123.015,36.9Zm37.6-18.4a4.987,4.987,0,0,1-1.6-9.7c3.9-1.3,7.9-2.5,11.8-3.5a5.008,5.008,0,0,1,2.5,9.7c-3.7,1-7.5,2.1-11.1,3.3A7.772,7.772,0,0,1,160.615,18.5Zm41.1-8.2a5.013,5.013,0,0,1-5-4.6,4.946,4.946,0,0,1,4.6-5.3c4.1-.3,8.2-.4,12.3-.4a4.951,4.951,0,0,1,5,5,4.951,4.951,0,0,1-5,5c-3.9,0-7.8.1-11.6.4A.366.366,0,0,0,201.715,10.3Z" fill="#383a48"/></g></g></g><!--ITEM 15--><g><defs><clipPath id="clip-path-id-viewbox-item-15"><rect x="0.0" y="0.0" width="201.478" height="44.435"/></clipPath></defs><g transform="translate(2658.0 265.0) rotate(0.0 -203.0 44.5) scale(-2.0151083492986825 2.00292562169461)"><g clip-path="url(#clip-path-id-viewbox-item-15)" transform="translate(-0.0 -0.0)"><g>
    <path d="M105.174,10H5A5,5,0,0,1,5,0H105.174a5,5,0,0,1,0,10Z" style="         fill: #f3f6e7;       "/>
    <path d="M196.478,44.435H5a5,5,0,0,1,0-10H196.478a5,5,0,0,1,0,10Z" style="         fill: #f3f6e7;       "/>
  </g>
</g></g></g></svg>