<svg xmlns="http://www.w3.org/2000/svg"  viewBox="0 0 100 100" width="100px" height="100px"><path d="M52,100c-14.57,0-25.922-10.196-29.605-20.268C21.576,77.49,21.437,71.367,21,68 c-4.469-2.371-9-5.217-9-14.5c0-3.18,2.03-7.74,3-9.5c-9.103-3.829-11-8.001-11-9.5c0-3.245,2.426-6.015,5.643-6.443L19,26.809 V11.5C19,7.916,21.916,5,25.5,5h53c3.584,0,6.5,2.916,6.5,6.5v15.309l9.359,1.248C97.574,28.485,100,31.255,100,34.5 c0,1.499-0.563,7.86-9.666,11.688C91.304,47.948,92,50.32,92,53.5c0,9.283-4.052,14.617-8.521,16.988 c-0.437,3.367-1.056,7.002-1.874,9.242C77.923,89.804,66.57,100,52,100z" opacity=".35"/><path fill="#f2f2f2" d="M50,98c-14.57,0-25.922-10.196-29.605-20.268c-0.818-2.243-1.438-5.878-1.874-9.245 C14.052,66.117,10,60.783,10,51.5c0-3.18,0.696-5.551,1.666-7.312C2.563,40.36,2,33.999,2,32.5c0-3.245,2.426-6.015,5.643-6.443 L17,24.809V9.5C17,5.916,19.916,3,23.5,3h53C80.084,3,83,5.916,83,9.5v15.309l9.359,1.248C95.574,26.485,98,29.255,98,32.5 c0,1.499-0.563,7.86-9.666,11.688C89.304,45.948,90,48.32,90,51.5c0,9.283-4.052,14.617-8.521,16.988 c-0.437,3.367-1.056,7.002-1.874,9.242C75.923,87.804,64.57,98,50,98z"/><path fill="#ffc7a3" d="M91.5,32.5l-16-2l-2-21H50H26.5l-2,21l-16,2c0,0-2.219,5.094,15.5,7.721V45.5c0,0-7.5-2-7.5,6 s4,12,8,12c0,0,0.798,8.713,2,12c2.584,7.069,11.5,16,23.5,16s20.916-8.931,23.5-16c1.202-3.287,2-12,2-12c4,0,8-4,8-12 s-6.5-6-6.5-6v-5.279C94.719,37.594,91.5,32.5,91.5,32.5z"/><path fill="#707cc0" d="M50,40.25c-27.968,0-35.877-2.913-39-5.25l-1-2l10.297-1c1.459,0,2.675-1.115,2.801-2.568L24.875,11 h50.25l1.777,18.432C77.028,30.885,78.244,32,79.703,32L90,33l-1,2C85.877,37.337,77.968,40.25,50,40.25z"/><rect width="54" height="8" x="23" y="24" fill="#96c362"/><path fill="none" stroke="#40396e" stroke-linecap="round" stroke-linejoin="round" stroke-miterlimit="10" stroke-width="3" d="M91.5,32.5l-15-2v-21H50H23.5v21l-15,2c0,0,0,6,14,7.721V45.5c0,0-6-2-6,6s4,12,8,12c0,0,0.798,8.713,2,12 c2.584,7.069,11.5,16,23.5,16s20.916-8.931,23.5-16c1.202-3.287,2-12,2-12c4,0,8-4,8-12s-6-6-6-6v-5.279 C91.5,38.5,91.5,32.5,91.5,32.5z"/><path fill="none" stroke="#40396e" stroke-linecap="round" stroke-linejoin="round" stroke-miterlimit="10" stroke-width="3" d="M31.616,44.93c-1.821,0.246-3.145,1.815-3.132,3.653c0.019,2.827,0.672,6.746,3.952,7.917c2.8,1,5.477,0.744,7.465,0 c2.792-1.044,4.769-4.373,5.391-8.321c0.238-1.513-0.868-2.901-2.384-3.114C37.957,44.369,34.065,44.598,31.616,44.93z"/><path fill="none" stroke="#40396e" stroke-linecap="round" stroke-linejoin="round" stroke-miterlimit="10" stroke-width="3" d="M68.361,44.93c1.821,0.246,3.145,1.815,3.132,3.653c-0.019,2.827-0.672,6.746-3.952,7.917c-2.8,1-5.477,0.744-7.465,0 c-2.792-1.044-4.769-4.373-5.391-8.321c-0.238-1.513,0.868-2.901,2.384-3.114C62.02,44.369,65.912,44.598,68.361,44.93z"/><path fill="none" stroke="#40396e" stroke-linecap="round" stroke-linejoin="round" stroke-miterlimit="10" stroke-width="3" d="M44.702,51c0,0,2.377-2.5,5.309-2.5c2.932,0,5.309,2.5,5.309,2.5"/><path fill="#40396e" d="M50,65c0,0-13,0-13,7s0,16,0,16l13,3.5L63,88c0,0,0-9,0-16S50,65,50,65z"/><path fill="#ffc7a3" d="M50,62.921c0,0-10.016,2-8,2c5,0,4,2,8,2s3-2,8-2C60.016,64.921,50,62.921,50,62.921z"/><path fill="#ffc7a3" d="M56,83H44c-1.657,0-3,0.657-3-1v-6c0-1.657,1.343-3,3-3h12c1.657,0,3,1.343,3,3v6 C59,83.657,57.657,83,56,83z"/><rect width="8" height="5" x="46" y="79" fill="#40396e"/></svg>