<svg xmlns="http://www.w3.org/2000/svg"  viewBox="0 0 100 100" width="100px" height="100px"><g id="Слой_2"><path d="M93.331,76.661c-0.76-2.509-1.767-4.867-2.993-7.007c-2.836-4.954-4.335-10.326-4.335-15.536V50v-9.919 c0-0.759,0.009-1.518,0.018-2.274c0.069-5.952,0.146-12.68-3.628-19.172C75.294,6.422,65.958,4.599,61.025,4.599 c-3.851,0-7.24,1.005-9.864,2.16c-2.486-1.161-5.707-2.159-9.43-2.16c-5.448,0-13.415,2.156-20.448,12.429 C16,24.743,16.001,33.309,16.003,40.867v0.339V50v4.108c0,5.211-1.5,10.586-4.339,15.542c-1.227,2.142-2.234,4.5-2.995,7.01 c-1.389,4.586-0.548,9.424,2.308,13.274C13.838,93.789,18.232,96,23.032,96h0.971h54.965c4.8,0,9.194-2.211,12.055-6.067 C93.879,86.084,94.72,81.246,93.331,76.661z" opacity=".35"/><path fill="#f2f2f2" d="M91.331,74.661c-0.76-2.509-1.767-4.867-2.993-7.007c-2.836-4.954-4.335-10.326-4.335-15.536V48v-9.919 c0-0.759,0.009-1.518,0.018-2.274c0.069-5.952,0.146-12.68-3.628-19.172C73.294,4.422,63.958,2.599,59.025,2.599 c-3.851,0-7.24,1.005-9.864,2.16c-2.486-1.161-5.707-2.159-9.43-2.16c-5.448,0-13.415,2.156-20.448,12.429 C14,22.743,14.001,31.309,14.003,38.867v0.339V48v4.108c0,5.211-1.5,10.586-4.339,15.542c-1.227,2.142-2.234,4.5-2.995,7.01 c-1.389,4.586-0.548,9.424,2.308,13.274C11.838,91.789,16.232,94,21.032,94h0.971h54.965c4.8,0,9.194-2.211,12.055-6.067 C91.879,84.084,92.72,79.246,91.331,74.661z"/><path fill="#de5147" d="M33.003,62c-0.689,0-1.35,0.026-2,0.063V49h-9l0,4.108c0,6.874-1.98,13.552-5.397,19.518 c-1.021,1.782-1.754,3.617-2.28,5.354C12.964,82.472,16.338,87,21.032,87h31.971L33.003,62z"/><rect width="20" height="23" x="29.003" y="64" fill="#b73b3b"/><path fill="#de5147" d="M76.003,53.117l0-4.117h-9v13.063C66.351,62.026,65.688,62,64.997,62l-20,25h31.971 c4.694,0,8.068-4.528,6.707-9.019c-0.526-1.736-1.259-3.57-2.279-5.352C77.981,66.665,76.003,59.989,76.003,53.117z"/><polygon fill="#b73b3b" points="70.003,33 28.003,33 22.003,87 76.003,87"/><rect width="22" height="15" x="38.003" y="72" fill="#2b59a1"/><path fill="#40396e" d="M59.025,11.599c4.528,0,9.876,2.185,14.452,10.056c3.065,5.273,2.526,11.327,2.526,17.426V49l0,4.117 c0,6.758,1.782,13.408,5.225,19.223c1.108,1.872,1.892,3.81,2.447,5.64c1.361,4.492-2.013,9.02-6.707,9.02h-0.965h-54l-0.971,0 c-4.698,0-8.068-4.534-6.704-9.03c0.524-1.726,1.252-3.549,2.264-5.32c3.412-5.975,5.41-12.65,5.41-19.53l0-4.119v-8.794 c0-6.986-0.066-13.894,3.881-19.659c4.773-6.972,9.742-8.949,13.846-8.948c3.739,0,6.759,1.642,8.254,2.644 c0.637,0.427,1.462,0.421,2.116,0.022C51.741,13.265,55.07,11.599,59.025,11.599 M59.025,8.599c-4.25,0-7.857,1.603-9.944,2.789 c-1.96-1.209-5.295-2.789-9.351-2.789c0,0-0.002,0-0.002,0c-4.243,0-10.518,1.779-16.32,10.254 C19,25.29,19.002,32.7,19.003,39.867l0,0.339V49v4.108c0,6.082-1.729,12.315-5,18.027c-1.04,1.815-1.897,3.825-2.548,5.975 c-0.926,3.055-0.365,6.279,1.539,8.844C14.901,88.525,17.831,90,21.032,90h0.971h54.965c3.201,0,6.131-1.475,8.039-4.046 c1.903-2.565,2.464-5.789,1.539-8.844c-0.651-2.149-1.508-4.158-2.547-5.973c-3.269-5.709-4.996-11.941-4.996-18.021V49v-9.919 c0-0.784,0.009-1.567,0.018-2.348c0.064-5.548,0.13-11.286-2.951-16.586C70.522,10.602,63.738,8.599,59.025,8.599L59.025,8.599z"/><path fill="#2785bd" d="M75.721,48.793c-1.564-1.998-4.336-1.146-5.577,0.629c0.716-3.758,0.383-6.363,0.383-9.384 c0-13.249-9.475-21.434-21.101-22.006V18c-0.142,0.003-0.282,0.012-0.424,0.016c-0.142-0.005-0.282-0.014-0.424-0.016v0.032 c-11.625,0.573-21.101,8.757-21.101,22.006c0,3.021-0.332,5.626,0.383,9.384c-1.241-1.774-4.013-2.627-5.577-0.629 c2.25-2.874,4.978,15.206,1.502,11.748c2.348,2.336,3.587-0.021,5.023-0.504c0.01-0.003-0.036,5.536,2.193,8.962 c2.565,3.942,11.908,12.679,17.577,13h0.848c5.669-0.322,15.01-10.058,17.575-14c2.229-3.426,2.185-7.966,2.195-7.962 c1.435,0.482,2.674,2.84,5.023,0.504C70.745,64.001,73.468,45.916,75.721,48.793z"/><path fill="#40396e" d="M45.003,54c0,0-2-12-14-8C31.003,46,33.003,54,45.003,54z"/><path fill="#40396e" d="M53.003,54c0,0,2-12,14-8C67.003,46,65.003,54,53.003,54z"/><path fill="#ffe385" d="M53.003,54c0,0,2.347-7.042,10.562-5.868v0c-1.47,2.94-4.289,4.972-7.543,5.437L53.003,54z"/><path fill="#ffe385" d="M45.003,54c0,0-2.347-7.042-10.563-5.868l0,0c1.47,2.94,4.289,4.972,7.543,5.437L45.003,54z"/><path fill="#de5147" d="M73.476,21.655c-8.228-14.154-18.954-9.921-22.916-7.661c-0.961,0.548-2.143,0.504-3.085-0.077 c-3.59-2.213-12.918-6.041-21.593,6.631c-3.947,5.765-3.881,12.673-3.881,19.659V87h7V45c0,0-2-29,20-7c22-22,20,7,20,7v42h7 V39.081C76.003,32.982,76.541,26.928,73.476,21.655z"/><path fill="#40396e" d="M53.541,50.343c0.958-0.25,3.347-2.647,5.173-4.536c1.662-1.72,3.897-2.863,6.289-2.807c0.025,0.001,0,0,0,0 s-2.025-2.106-5.295-1.252c-1.635,0.427-3.367,1.984-6.21,4.473c-0.671,0.556-1.202,1.24-1.615,1.918 C51.19,49.277,52.251,50.68,53.541,50.343L53.541,50.343z"/><path fill="#40396e" d="M44.466,50.343c1.29,0.337,2.351-1.066,1.657-2.205c-0.412-0.678-0.943-1.362-1.615-1.918 c-2.843-2.489-4.575-4.046-6.21-4.473C35.029,40.894,33.004,43,33.004,43s-0.025,0.001,0,0c2.391-0.056,4.626,1.087,6.289,2.807 C41.119,47.697,43.508,50.093,44.466,50.343L44.466,50.343z"/><path fill="#f9b84f" d="M42.901,50.734c-1.141-1.178-2.828-2.286-5.215-2.619c-0.421,0.516-0.683,1.167-0.683,1.885 c0,0.703,0.252,1.341,0.657,1.853c0.649,0.454,1.35,0.831,2.093,1.122C39.836,52.982,39.917,53,40.003,53 C41.405,53,42.572,52.034,42.901,50.734z"/><path fill="#f9b84f" d="M55.104,50.734c0.329,1.3,1.497,2.266,2.899,2.266c0.086,0,0.166-0.018,0.25-0.025 c0.743-0.291,1.444-0.668,2.093-1.122c0.405-0.511,0.657-1.15,0.657-1.853c0-0.718-0.263-1.368-0.683-1.885 C57.932,48.448,56.245,49.556,55.104,50.734z"/><path fill="#f2f2f2" d="M49.424,29h-0.842c-3.958,0-7.579,2.472-7.579,6.59c0,2.883,1.264,3.707,1.264,3.707 c0.126,0.123,0.252,0.246,0.422,0.371v0.23c0,1.246,0.945,2.334,2.298,2.645l0.018,0.004l0.209,0.872 C45.435,44.341,46.348,45,47.405,45h3.161c1.029,0,1.925-0.625,2.174-1.516l0.262-0.937c0,0,0,0,0,0 c1.361-0.305,2.316-1.4,2.316-2.652v-0.227c0.168-0.123,0.294-0.246,0.422-0.371c0,0,1.264-1.235,1.264-3.707 C57.001,31.472,53.379,29,49.424,29z M44.708,37.898c0.336-1.071,1.348-1.606,2.484-1.194c0.926,0.33,1.264,1.524,0.968,2.306 c-0.378,1.235-1.516,1.73-2.864,1.36C44.792,40.204,44.16,39.463,44.708,37.898z M49.626,43.127c-0.353,0-0.644-0.782-0.708-1.112 c0,0.412-0.219,1.112-0.636,1.112c-0.255,0-0.448-0.205-0.448-0.577c0-0.782,0.668-2.306,1.084-2.431 c0.417,0.205,1.156,1.647,1.156,2.431C50.075,42.922,49.883,43.127,49.626,43.127z M52.665,40.368 c-1.306,0.412-2.442-0.123-2.864-1.358c-0.252-0.866,0.084-2.06,1.01-2.306c1.052-0.33,2.148,0.123,2.442,1.194 C53.801,39.463,53.253,40.163,52.665,40.368z"/></g></svg>