<svg xmlns="http://www.w3.org/2000/svg"  viewBox="0 0 100 100" width="100px" height="100px"><path d="M57.901,96.02c-14.868,0-23.875-5.157-28.545-9.035 c-1.337,0.428-2.736,0.652-4.138,0.652C17.7,87.637,11.583,81.52,11.583,74c0-2.4,0.634-4.734,1.801-6.773 c-2.63-4.949-3.04-10.691-3.316-13.862C6.151,50.607,2.23,46.917,2.23,39.986c0-9.346,7.23-14.51,14.393-15.609l1.585-1.007 C25.452,12.853,35.521,7.302,47.389,7.302c6.39,0,11.547,1.987,15.33,5.905c2.812,2.914,4.243,6.321,4.967,9.159 c3.41,0.951,5.434,3.535,7.152,5.971c0.577-0.905,1.973-2.55,2.789-3.379c1.452-1.477,4.432-3.957,8.057-3.957 c1.622,0,3.132,0.501,4.385,1.454c0.234,0.167,0.456,0.353,0.651,0.548l5.154,5.071c4.104,4.04,4.157,10.666,0.12,14.769 l-0.196,0.199c-0.713,0.724-1.514,1.332-2.38,1.812c1.636,2.801,2.527,6.145,2.527,9.777c0,11.33-5.863,17.019-9.714,19.53 C83.934,84.01,74.468,96.02,57.901,96.02z" opacity=".35"/><path fill="#f2f2f2" d="M55.901,94.02c-14.868,0-23.875-5.157-28.545-9.035c-1.337,0.428-2.736,0.652-4.138,0.652 C15.7,85.637,9.583,79.52,9.583,72c0-2.4,0.634-4.734,1.801-6.773c-2.63-4.949-3.534-9.539-3.811-12.71 C3.657,49.76,0.23,44.917,0.23,37.986c0-9.346,7.23-14.51,14.393-15.609l1.585-1.007C23.452,10.853,33.521,5.302,45.389,5.302 c6.39,0,11.547,1.987,15.33,5.905c2.812,2.914,4.243,6.321,4.967,9.159c3.41,0.951,6.119,2.775,7.837,5.211 c0.577-0.905,1.288-1.791,2.104-2.619c1.452-1.477,4.432-3.957,8.057-3.957c1.622,0,3.132,0.501,4.385,1.454 c0.234,0.167,0.456,0.353,0.651,0.548l5.154,5.071c4.104,4.04,4.157,10.666,0.12,14.769l-0.196,0.199 c-0.713,0.724-1.514,1.332-2.38,1.812c1.636,2.801,2.527,6.145,2.527,9.777c0,11.33-5.863,17.019-9.714,19.53 C81.934,82.01,72.468,94.02,55.901,94.02z"/><path fill="#f9b84f" d="M89.359,36.285l-0.188,0.191c-1.528,1.552-4.025,1.573-5.577,0.045l-5.182-5.099l5.72-5.813 l5.182,5.099C90.867,32.235,90.887,34.732,89.359,36.285z"/><path fill="#ffc7a3" d="M69.094,44.475c0,0-3.058-1.019-6.117,0c0,0-3.058-3.058-3.465-5.888c0,0,9.582-1.249,9.582-6.346 c0-4.078-4.078-6.117-9.175-6.117c0,0,0.504-14.324-14.53-14.324c-5.67,0-16.288,1.523-24.535,14.318l-4.02,2.554 c0,0-10.103,0.51-10.103,9.312c0,8.528,7.314,10.567,7.314,10.567s-1.1,8.156,5.057,16.821l0.43,0.526 c-2.064,1.251-3.448,3.511-3.448,6.101c0,3.941,3.195,7.136,7.136,7.136c2.075,0,3.937-0.891,5.241-2.305 c0,0,6.992,10.461,27.381,10.461c16.311,0,22.428-14.272,22.428-19.369c0,0,9.175-2.548,9.175-15.291S73.172,38.359,69.094,44.475z"/><path fill="#d9eeff" d="M14.554,49.063c0,0,7.978-17.056,32.534-17.056c8.244,0,12.425,6.581,12.425,6.581l8.169-3.287 l1.006-5.561l-5.67-2.244l-3.608-1.88l-2.484-8.858l-8.247-4.695h-8.238l-10.388,4.361l-6.559,6.066l-2.64,3.63l-4.02,2.554 l-7.732,2.754l-2.371,7.7l2.575,6.256L14.554,49.063z"/><path fill="none" stroke="#40396e" stroke-linecap="round" stroke-linejoin="round" stroke-miterlimit="10" stroke-width="3" d="M69.094,44.475c0,0-3.058-1.019-6.117,0c0,0-3.058-3.058-3.465-5.888c0,0,9.582-1.249,9.582-6.346c0-4.078-4.078-6.117-9.175-6.117 c0,0,0.504-14.324-14.53-14.324c-5.67,0-16.288,1.523-24.535,14.318l-4.02,2.554c0,0-10.103,0.51-10.103,9.312 c0,8.528,7.314,10.567,7.314,10.567s-1.1,8.156,5.057,16.821l0.43,0.526c-2.064,1.251-3.448,3.511-3.448,6.101 c0,3.941,3.195,7.136,7.136,7.136c2.075,0,3.937-0.891,5.241-2.305c0,0,7.053,10.688,27.441,10.688 c16.311,0,22.367-14.5,22.367-19.597c0,0,9.175-2.548,9.175-15.291S73.172,38.359,69.094,44.475z"/><line x1="79.983" x2="83.6" y1="41.414" y2="36.977" fill="none" stroke="#40396e" stroke-linecap="round" stroke-linejoin="round" stroke-miterlimit="10" stroke-width="3"/><path fill="none" stroke="#40396e" stroke-linecap="round" stroke-linejoin="round" stroke-miterlimit="10" stroke-width="3" d="M89.359,36.285l-0.188,0.191c-1.528,1.552-4.025,1.573-5.577,0.045l-5.182-5.099l5.72-5.813l5.182,5.099 C90.867,32.235,90.887,34.732,89.359,36.285z"/><ellipse cx="81.354" cy="28.595" fill="none" stroke="#40396e" stroke-linecap="round" stroke-linejoin="round" stroke-miterlimit="10" stroke-width="3" rx="4.078" ry="1.536" transform="rotate(-45.461 81.35 28.593)"/><path fill="#40396e" d="M15.294,47.745c0,0-3.177-2.007,1.299-6.838c6.016-6.494,22.207-16.311,43.836-16.311 c8.665,0.51,8.98,6.832,8.98,6.832l-2.887,5.37l-8.133,3.09c0,0-2.039-7.136-16.311-7.136S15.294,47.745,15.294,47.745z"/><circle cx="42.079" cy="29.694" r="5.097" fill="#f9b84f"/><ellipse cx="55.841" cy="44.985" fill="#40396e" rx="2.549" ry="4.078" transform="rotate(-18.016 55.849 44.989)"/><path fill="none" stroke="#40396e" stroke-linecap="round" stroke-linejoin="round" stroke-miterlimit="10" stroke-width="3" d="M52.783,32.242c0,0-5.097,3.058-3.058,8.156"/><path fill="none" stroke="#40396e" stroke-linecap="round" stroke-linejoin="round" stroke-miterlimit="10" stroke-width="3" d="M47.087,52.728c0,0-4.499-2.136-7.557,0.922"/><path fill="none" stroke="#40396e" stroke-linecap="round" stroke-linejoin="round" stroke-miterlimit="10" stroke-width="3" d="M31.374,44.475c0,0,0-5.097,4.078-5.097s7.136,8.156,12.233,8.156c2.772,0,2.039-2.039,2.039-2.039"/><path fill="none" stroke="#40396e" stroke-linecap="round" stroke-linejoin="round" stroke-miterlimit="10" stroke-width="3" d="M54.22,60.666c0,0-19.788-2.938-18.768,5.217"/><ellipse cx="63.182" cy="55.197" fill="#eb976e" rx="11.724" ry="8.665" transform="rotate(-32.881 63.184 55.198)"/><circle cx="23.878" cy="71.439" r="2.887" fill="#eb976e"/><polygon fill="#ffc7a3" points="22.159,68.037 26.764,74.326 30.149,70.718 25.768,66.388"/></svg>