<svg xmlns="http://www.w3.org/2000/svg"  viewBox="0 0 100 100" width="100px" height="100px"><path d="M52,100c-18.284,0-34.539-18.42-37.509-43.028 c-0.212-0.136-0.416-0.284-0.611-0.444c-1.513-1.241-2.38-3.073-2.38-5.027v-7c0-1.955,0.867-3.787,2.378-5.026 c0.326-0.267,0.676-0.501,1.044-0.699c3.036-16.464,13.372-28.664,27.47-32.499c0.269-0.738,0.672-1.429,1.199-2.036 C44.82,2.819,46.611,2,48.5,2h7c1.889,0-1.735,1.572-0.5,3c0.524,0.604,6.341,0.54,6.608,1.276 c14.098,3.834,24.434,16.035,27.47,32.499c0.367,0.197,0.716,0.43,1.041,0.696c1.514,1.242,2.381,3.074,2.381,5.029v7 c0,1.955-0.867,2.787-2.378,4.026c-0.196,0.161-0.401,0.309-0.613,0.445C86.539,80.58,70.284,100,52,100z" opacity=".35"/><path fill="#f2f2f2" d="M50,98c-18.284,0-34.539-18.42-37.509-43.028c-0.212-0.136-0.416-0.284-0.611-0.444 C10.367,53.287,9.5,51.455,9.5,49.5v-7c0-1.955,0.867-3.787,2.378-5.026c0.326-0.267,0.676-0.501,1.044-0.699 c3.036-16.464,13.372-28.664,27.47-32.499c0.269-0.738,0.672-1.429,1.199-2.036C42.82,0.819,44.611,0,46.5,0h7 c1.889,0,3.68,0.819,4.915,2.247c0.524,0.604,0.926,1.293,1.193,2.03c14.098,3.834,24.434,16.035,27.47,32.499 c0.367,0.197,0.716,0.43,1.041,0.696c1.514,1.242,2.381,3.074,2.381,5.029v7c0,1.955-0.867,2.787-2.378,4.026 c-0.196,0.161-0.401,0.309-0.613,0.445C84.539,78.58,68.284,98,50,98z"/><path fill="#ffe8d9" d="M81.5,47c0,22.92-14.103,44.5-31.5,44.5S18.5,69.92,18.5,47S32.603,9.5,50,9.5S81.5,24.08,81.5,47z"/><path fill="none" stroke="#40396e" stroke-linecap="round" stroke-linejoin="round" stroke-miterlimit="10" stroke-width="3" d="M81.5,47c0,22.92-14.103,44.5-31.5,44.5S18.5,69.92,18.5,47S32.603,9.5,50,9.5S81.5,24.08,81.5,47z"/><polygon fill="#40396e" stroke="#40396e" stroke-linecap="round" stroke-linejoin="round" stroke-miterlimit="10" stroke-width="3" points="52.5,13.5 47.5,13.5 46.5,6.5 53.5,6.5"/><polygon fill="#40396e" stroke="#40396e" stroke-linecap="round" stroke-linejoin="round" stroke-miterlimit="10" stroke-width="3" points="21,43.5 21,48.5 16,49.5 16,42.5"/><polygon fill="#40396e" stroke="#40396e" stroke-linecap="round" stroke-linejoin="round" stroke-miterlimit="10" stroke-width="3" points="84,42.5 84,49.5 79,48.5 79,43.5"/><ellipse cx="75.5" cy="54" fill="#40396e" rx="1.5" ry="2"/><ellipse cx="70.5" cy="57" fill="#40396e" rx="1.5" ry="2"/><ellipse cx="75.5" cy="35" fill="#40396e" rx="1.5" ry="2"/><ellipse cx="71.5" cy="30" fill="#40396e" rx="1.5" ry="2"/><ellipse cx="70.5" cy="38" fill="#40396e" rx="1.5" ry="2"/><ellipse cx="24.5" cy="35" fill="#40396e" rx="1.5" ry="2"/><ellipse cx="28.5" cy="30" fill="#40396e" rx="1.5" ry="2"/><ellipse cx="29.5" cy="38" fill="#40396e" rx="1.5" ry="2"/><ellipse cx="24.5" cy="54" fill="#40396e" rx="1.5" ry="2"/><ellipse cx="29.5" cy="57" fill="#40396e" rx="1.5" ry="2"/><circle cx="45" cy="69" r="2" fill="#40396e"/><ellipse cx="61.5" cy="71" fill="#40396e" rx="1.5" ry="2"/><ellipse cx="66.5" cy="74" fill="#40396e" rx="1.5" ry="2"/><ellipse cx="38.5" cy="71" fill="#40396e" rx="1.5" ry="2"/><ellipse cx="33.5" cy="74" fill="#40396e" rx="1.5" ry="2"/><circle cx="45" cy="76" r="2" fill="#40396e"/><circle cx="45" cy="83" r="2" fill="#40396e"/><circle cx="55" cy="69" r="2" fill="#40396e"/><circle cx="55" cy="76" r="2" fill="#40396e"/><circle cx="55" cy="83" r="2" fill="#40396e"/><g><circle cx="37" cy="33" r="2" fill="#40396e"/><circle cx="45" cy="33" r="2" fill="#40396e"/><circle cx="55" cy="33" r="2" fill="#40396e"/><circle cx="37" cy="26" r="2" fill="#40396e"/><circle cx="37" cy="19" r="2" fill="#40396e"/><circle cx="63" cy="33" r="2" fill="#40396e"/><circle cx="63" cy="26" r="2" fill="#40396e"/><circle cx="63" cy="19" r="2" fill="#40396e"/></g><g><path fill="#40396e" d="M38.5,42.011c2.114,0.175,6,2,6,6c0,5-5,6-7,6c-3,0-6-1.815-6-6.416 C31.5,42.596,36.357,41.834,38.5,42.011z"/><path fill="#40396e" d="M61.5,42.011c-2.114,0.175-6,2-6,6c0,5,5,6,7,6c3,0,6-1.815,6-6.416 C68.5,42.596,63.643,41.834,61.5,42.011z"/></g><polygon fill="#f4665c" points="38.534,38 50.485,44.157 61.466,38"/><path fill="#f4665c" d="M36.918,56.099l-5.032,12.21l-3.218-3.034C28.668,65.275,31.565,59.613,36.918,56.099z"/><path fill="#f4665c" d="M60.75,56.099l5.032,12.21L69,65.275C69,65.275,66.103,59.613,60.75,56.099z"/><path fill="#40396e" d="M44.5,62.204h11c0,0-1.5-4.204-5.5-4.204S44.5,62.204,44.5,62.204z"/></svg>