<svg xmlns="http://www.w3.org/2000/svg"  viewBox="0 0 100 100" width="100px" height="100px"><path d="M26.5,100c-3.584,0-6.5-2.916-6.5-6.5v-49c0-11.037,5.915-21.504,15-27.027V15.5 c0-2.296,1.197-4.318,3-5.475V8.5C38,4.916,40.916,2,44.5,2h8C56.084,2,59,4.916,59,8.5v1.525c1.803,1.157,3,3.179,3,5.475v0.752 c6.217,2.512,9.603,6.954,13,12.748c0.226,0.386,2.23,0.801,2.44,1.199C83.104,32.574,87,38.232,87,44.5v9 c0,4.814-2.278,9.332-6,12.233V70.5c0,2.296-1.197,4.318-3,5.475v4.05c1.803,1.157,3,3.179,3,5.475v8c0,3.584-2.916,6.5-6.5,6.5 H26.5z" opacity=".35"/><path fill="#f2f2f2" d="M24.5,98c-3.584,0-6.5-2.916-6.5-6.5v-49c0-11.037,5.915-21.504,15-27.027V13.5 c0-2.296,1.197-4.318,3-5.475V6.5C36,2.916,38.916,0,42.5,0h8C54.084,0,57,2.916,57,6.5v1.525c1.803,1.157,3,3.179,3,5.475v0.752 c6.632,2.68,12.073,7.58,15.44,13.947C81.104,30.574,85,36.232,85,42.5v9c0,4.814-2.278,9.332-6,12.233V68.5 c0,2.296-1.197,4.318-3,5.475v4.05c1.803,1.157,3,3.179,3,5.475v8c0,3.584-2.916,6.5-6.5,6.5H24.5z"/><path fill="#9aa2e6" d="M70.789,33.603c-2.935-7.346-9.396-12.891-17.289-14.566V13.5h-3v-7h-8v7h-3v6.751 c-8.794,3.561-15,12.178-15,22.249v49h48v-8h-3v-15h3v-8.523c3.493-1.237,6-4.56,6-8.477v-9 C78.5,37.968,75.147,34.23,70.789,33.603z"/><path fill="#707cc0" d="M53.348,20.517c0,0-1.77-0.517-6-0.517c-5.107,0-7.517,0.888-7.517,0.888L40,15h13L53.348,20.517z"/><path fill="#707cc0" d="M69.458,59H37.542C33.377,59,30,55.623,30,51.458v-8.916C30,38.377,33.377,35,37.542,35h31.916 C73.623,35,77,38.377,77,42.542v8.916C77,55.623,73.623,59,69.458,59z"/><path fill="#40396e" d="M69.157,56H41.843C39.168,56,37,53.832,37,51.157v-8.315C37,40.168,39.168,38,41.843,38h27.315 C71.832,38,74,40.168,74,42.843v8.315C74,53.832,71.832,56,69.157,56z"/><path fill="#ffc571" d="M71,47c0-3.967-2.315-7.383-5.663-9h-8.665c-1.452,0.703-2.713,1.738-3.672,3.018 c-0.959-1.28-2.22-2.315-3.672-3.018h-7.485C39.168,38,37,40.168,37,42.843v8.315C37,53.832,39.168,56,41.843,56h7.485 c1.452-0.703,2.713-1.738,3.672-3.018c0.959,1.28,2.22,2.315,3.672,3.018h8.665C68.685,54.383,71,50.967,71,47z"/><circle cx="42" cy="48" r="2" fill="#40396e"/><circle cx="58" cy="48" r="2" fill="#40396e"/><path fill="#ffc571" d="M71,85H40c-4.971,0-9-4.029-9-9v0c0-4.971,4.029-9,9-9h31V85z"/><path fill="none" stroke="#40396e" stroke-linecap="round" stroke-linejoin="round" stroke-miterlimit="10" stroke-width="3" d="M70.789,33.603c-2.935-7.346-9.396-12.891-17.289-14.566V13.5h-3v-7h-8v7h-3v5.955c-8.794,3.561-15,12.974-15,23.045v49h48v-8h-3 v-15h3v-8.523c3.493-1.237,6-4.56,6-8.477v-9C78.5,37.968,75.147,34.23,70.789,33.603z"/><path fill="#3f3a6b" d="M68,81v-3H58v-4h10v-3H58v-4h-3v4H45v-4h-3v4h-9.482c-0.601,0.898-1.04,1.913-1.287,3 H42v4H31.231c0.247,1.087,0.686,2.102,1.287,3H42v4h3v-4h10v4h3v-4H68z M55,78H45v-4h10V78z" opacity=".35"/></svg>