<svg xmlns="http://www.w3.org/2000/svg"  viewBox="0 0 100 100" width="100px" height="100px"><path d="M52.002,100.003c-5.801,0-8.825-2.554-12.203-5.335 c-0.559-0.46-1.18-1.115-1.788-1.59c-4.125-3.222-10.106-8.733-12.607-17.419c-4.413-2.11-8.329-5.443-8.329-13.021 c0-2.923,2.084-9.703,3.071-11.28L18.933,51c-2.287,0-4.473,2.564-5.638,0.596c-1.165-1.974-1.586-3.245-0.482-5.248l2.59-4.705 l-3.586-3.721c-1.649-1.712-2.232-4.184-1.524-6.45c0.712-2.272,2.602-3.97,4.932-4.435l2.316-0.461l-0.506-2.521 c-0.428-2.136,0.234-4.332,1.773-5.873c1.215-1.213,2.891-1.907,4.602-1.907c0.424,0,0.851,0.042,1.267,0.125l2.362,0.471 l0.681-4.071c0.34-2.025,1.634-3.789,3.461-4.72c0.916-0.464,1.934-0.708,2.951-0.708c1,0,2.001,0.235,2.896,0.681l5.604,2.792 l3.967-5.93C47.789,3.133,49.809,2.07,52,2.07s2.215,2.947,3.407,4.727l5.963,4.046l5.602-2.791c0.9-0.447,1.9-0.682,2.898-0.682 c1.019,0,2.038,0.244,2.946,0.706c1.832,0.933,3.125,2.696,3.465,4.719l0.681,4.074l2.361-0.471 c0.407-0.082,0.839-0.125,1.271-0.125c1.71,0,3.386,0.694,4.597,1.905c1.542,1.543,2.204,3.739,1.776,5.875l-0.506,2.522l2.3,0.458 c2.332,0.466,4.221,2.163,4.932,4.429c0.711,2.267,0.13,4.739-1.517,6.451l-3.574,3.717l2.604,4.708 c1.108,2.002,1.075,4.474-0.089,6.447c-1.162,1.972-3.308,3.198-5.599,3.198h-0.318c0.987,1.577,1.726,3.733,1.726,6.656 c0,7.58-3.695,13.409-8.11,15.519c-2.507,8.692-8.491,12.148-12.587,15.346c-0.636,0.497-1.227,0.957-1.783,1.416 C61.067,97.7,57.8,100.003,52.002,100.003z" opacity=".35"/><path fill="#f2f2f2" d="M50.002,98.003c-5.801,0-9.069-2.302-12.446-5.082c-0.559-0.46-1.148-0.92-1.756-1.395 c-4.125-3.222-10.118-6.685-12.619-15.37c-4.413-2.11-8.106-7.939-8.106-15.517c0-2.923,0.739-5.08,1.726-6.656h-0.295 c-2.287,0-4.431-1.223-5.595-3.191c-1.165-1.974-1.202-4.442-0.098-6.445l2.59-4.705l-3.586-3.721 c-1.649-1.712-2.232-4.184-1.524-6.45c0.712-2.272,2.602-3.97,4.932-4.435l2.316-0.461l-0.506-2.521 c-0.428-2.136,0.234-4.332,1.773-5.873c1.215-1.213,2.891-1.907,4.602-1.907c0.424,0,0.851,0.042,1.267,0.125l2.362,0.471 l0.681-4.071c0.34-2.025,1.634-3.789,3.461-4.72c0.916-0.464,1.934-0.708,2.951-0.708c1,0,2.001,0.235,2.896,0.681l5.604,2.792 l3.967-5.93C45.789,1.133,47.809,0.07,50,0.07s4.211,1.063,5.402,2.844l3.967,5.929l5.602-2.791c0.9-0.447,1.9-0.682,2.898-0.682 c1.019,0,2.038,0.244,2.946,0.706c1.832,0.933,3.125,2.696,3.465,4.719l0.681,4.074l2.361-0.471 c0.407-0.082,0.839-0.125,1.271-0.125c1.71,0,3.386,0.694,4.597,1.905c1.542,1.543,2.204,3.739,1.776,5.875l-0.506,2.522l2.3,0.458 c2.332,0.466,4.221,2.163,4.932,4.429c0.711,2.267,0.13,4.739-1.517,6.451l-3.574,3.717l2.604,4.708 c1.108,2.002,1.075,4.474-0.089,6.447c-1.162,1.972-3.308,3.198-5.599,3.198h-0.318c0.987,1.577,1.726,3.733,1.726,6.656 c0,7.58-3.695,13.409-8.11,15.519c-2.507,8.692-8.491,12.148-12.587,15.346c-0.636,0.497-1.227,0.957-1.783,1.416 C59.067,95.7,55.8,98.003,50.002,98.003z"/><path fill="#ffd2b5" d="M75.5,52.539v-5.056h8.017l-4.924-8.903l6.897-7.173l-8.684-1.731l1.787-8.903l-8.935,1.781 L67.871,11.87l-10.722,5.342L50,6.528l-7.148,10.684L32.129,11.87l-1.787,10.684l-8.935-1.781l1.787,8.903l-8.698,1.733l6.911,7.17 l-4.901,8.903H24.5v5.056h1.935l0.463,3.498l-0.074-0.024c0,0-5.248-1.542-5.248,4.626s3.498,9.253,6.997,9.253l0.147-0.078 l0.099,1.747c1.503,9.787,8.25,12.537,12.869,16.341c2.839,2.337,4.724,3.601,8.311,3.601h0H50h0.002h0 c3.587,0,5.472-1.263,8.311-3.601c4.619-3.803,11.366-6.554,12.869-16.341l0.099-1.747l0.147,0.078 c3.498,0,6.997-3.084,6.997-9.253s-5.248-4.626-5.248-4.626l-0.074,0.024l0.463-3.498H75.5z"/><polygon fill="#f9b84f" points="85.49,31.407 76.806,29.677 78.593,20.773 69.658,22.554 67.871,11.87 57.148,17.212 50,6.528 42.852,17.212 32.129,11.87 30.342,22.554 21.407,20.773 23.194,29.677 14.496,31.41 21.407,38.58 16.506,47.483 83.517,47.483 78.593,38.58"/><rect width="48" height="17" x="26" y="34" fill="#707cc0"/><path fill="#f9b84f" d="M27.826,31C26.048,33.994,31,46,31,46s2-9,5-12C34.712,31.843,29.108,28.84,27.826,31z"/><path fill="#f9b84f" d="M72.222,31c1.778,2.994-3.174,15-3.174,15s-2-9-5-12C65.335,31.843,70.939,28.84,72.222,31z"/><rect width="26" height="11" x="37" y="37" fill="#d9eeff"/><path fill="#40396e" d="M55.133,39.211c-0.366-0.366-0.96-0.366-1.326,0l-0.696,0.696c-0.604-0.557-1.569-1.172-2.893-1.172 c-2.004,0-3.63,1.583-3.731,3.562l-1.702,2.227C44.321,45.128,44.753,46,45.514,46h4.47c1.693,0,2.578-1.061,2.578-2.109 c0-1.194-0.862-1.641-1.406-1.641c-0.517,0-0.937,0.42-0.937,0.938c0,0.148,0.041,0.283,0.103,0.409 c0.019,0.039,0.047,0.069,0.071,0.105c0.054,0.081,0.114,0.15,0.189,0.21c0.019,0.015,0.028,0.039,0.047,0.052 c-0.092,0.075-0.292,0.161-0.645,0.161c-1.028,0-1.641-0.613-1.641-1.641c0-1.033,0.842-1.875,1.875-1.875 c1.303,0,2.018,1.114,2.042,1.155c0.15,0.248,0.403,0.411,0.69,0.446c0.292,0.039,0.574-0.064,0.776-0.268l1.406-1.406 C55.498,40.171,55.498,39.576,55.133,39.211z"/><circle cx="40" cy="40" r="1" fill="#9ba7c5"/><circle cx="40" cy="45" r="1" fill="#9ba7c5"/><circle cx="60" cy="40" r="1" fill="#9ba7c5"/><circle cx="60" cy="45" r="1" fill="#9ba7c5"/><path fill="#fff" d="M61.252,57c4,0,5,3,5,3s-1.018,3-4,3c-2.982,0-7,0-7,0S58.27,57,61.252,57z"/><path fill="#fff" d="M44.265,63c0,0-4.018,0-7,0s-4-3-4-3s1-3,5-3C41.247,57,44.265,63,44.265,63z"/><circle cx="39.265" cy="60" r="3" fill="#2b59a1"/><circle cx="60.265" cy="60" r="3" fill="#2b59a1"/><path fill="#f9ae34" d="M45.265,61c1.333,0,2.005-1.625,1.047-2.552c-0.571-0.552-1.257-1.079-2.047-1.448 c-3.379-1.69-5.449-2.759-7.138-2.759c-3.38,0-4.862,2.759-4.862,2.759s0.013-0.004,0.037-0.011c2.3-0.658,4.769-0.316,6.811,0.928 C41.358,59.285,44.275,61,45.265,61L45.265,61z"/><path fill="#f9ae34" d="M54.252,61c0.99,0,3.907-1.715,6.152-3.082c2.043-1.244,4.512-1.587,6.811-0.928 c0.024,0.006,0.037,0.01,0.037,0.01s-1.482-2.759-4.862-2.759c-1.69,0-3.759,1.069-7.138,2.759 c-0.79,0.369-1.476,0.896-2.047,1.448C52.247,59.375,52.919,61,54.252,61L54.252,61z"/><path fill="#d47f56" d="M28.854,73.629c1.673-1.102,4.553-2.32,8.242-1.223c0,0-4.762,0.763-7.82,3.172 C28.67,76.056,27.804,74.321,28.854,73.629z"/><path fill="#d47f56" d="M30.984,79.351c1.384-1.45,3.85-3.208,7.578-3.038c0,0-3.981,1.694-6.43,4.485 C31.482,81.539,30.045,80.335,30.984,79.351z"/><path fill="#d47f56" d="M34.502,83.886c1.194-1.476,3.128-3.029,6.138-3.487c0,0-2.59,1.769-4.505,4.279 C36.021,84.827,35,84,34.502,83.886z"/><path fill="#d47f56" d="M71.148,73.629c-1.673-1.102-4.553-2.32-8.242-1.223c0,0,4.762,0.763,7.82,3.172 C71.332,76.056,72.198,74.321,71.148,73.629z"/><path fill="#d47f56" d="M69.018,79.351c-1.384-1.45-3.85-3.208-7.578-3.038c0,0,3.981,1.694,6.43,4.485 C68.52,81.539,69.957,80.335,69.018,79.351z"/><path fill="#d47f56" d="M65.5,83.886c-1.194-1.476-3.128-3.029-6.138-3.487c0,0,2.496,1.704,4.399,4.142 C63.912,84.734,65.002,84,65.5,83.886z"/><path fill="none" stroke="#40396e" stroke-linecap="round" stroke-linejoin="round" stroke-miterlimit="10" stroke-width="3" d="M75.5,52.539v-5.056h8.017l-4.924-8.903l6.897-7.173l-8.684-1.731l1.787-8.903l-8.935,1.781L67.871,11.87l-10.722,5.342L50,6.528 l-7.148,10.684L32.129,11.87l-1.787,10.684l-8.935-1.781l1.787,8.903l-8.698,1.733l6.911,7.17l-4.901,8.903H24.5v5.056h1.935 l0.388,2.854c0,0-5.248-1.542-5.248,4.626s3.498,9.873,6.997,9.873l0.159,0.014l0.087,1.656c1.503,9.787,8.25,12.537,12.869,16.341 c2.839,2.337,4.724,3.601,8.311,3.601h0H50h0.002h0c3.587,0,5.472-1.263,8.311-3.601c4.619-3.803,11.366-6.554,12.869-16.341 l0.086-1.653l0.159-0.016c3.498,0,6.997-3.704,6.997-9.873s-5.248-4.626-5.248-4.626l0.388-2.854H75.5z"/></svg>