<svg xmlns="http://www.w3.org/2000/svg"  viewBox="0 0 100 100" width="100px" height="100px"><path d="M60.5,100c-0.505,0-1.003-0.096-1.503-0.176 c-15.473-2.487-22.443-7.926-26.042-11.52C19.414,86.663,8.837,76.875,8.837,62.915c0-9.799,4.878-14.801,7.223-17.205 c0.07-0.073,0.15-0.155,0.231-0.239c0.132-1.4,0.231-3.903-0.224-7.038c-1.256-8.652-5.906-13.77-5.966-13.838 c-1.719-1.885-3.544-3.336-2.502-5.691c1.033-2.35,3.368-3.873,5.945-3.873c3.479,0,6.731,0.826,9.571,2.392 c0.924-1.616,1.987-3.227,3.185-4.824C34.027,2.297,46.144,2,47.5,2c2.788,0,3.037,2.545,3.927,5.135 C67.23,7.6,80.557,20.707,80.708,29.574c0.011,0.651,0.17,1.496-1.301,3.188c1.732,5.341,0.525,9.817-1.159,12.604 c3.024-1.974,5.974-4.137,8.148-5.907C87.551,38.519,89.009,38,90.5,38c1.271,0,2.506,0.369,3.569,1.067 c2.391,1.577,3.464,4.474,2.682,7.216C89.878,70.336,75.725,79.377,68.769,82.46c-0.736,3.594-1.451,6.177-1.781,11.446 c-0.118,1.917-1.074,3.675-2.622,4.82C63.261,99.545,61.886,100,60.5,100z" opacity=".35"/><path fill="#f2f2f2" d="M58.5,98c-0.505,0-1.005-0.088-1.503-0.176c-13.447-2.372-18.682-4.565-25.561-9.009 c-13.541-1.641-24.6-13.939-24.6-27.899c0-9.799,4.878-14.801,7.223-17.205c0.07-0.073,0.15-0.155,0.231-0.239 c0.132-1.4,0.231-3.903-0.224-7.038c-1.256-8.652-7.281-12.471-7.342-12.539c-1.719-1.885-2.168-4.635-1.127-6.99 c1.033-2.35,3.368-3.873,5.945-3.873c3.479,0,6.731,0.826,9.571,2.392c0.924-1.616,1.987-3.227,3.185-4.824 C32.027,0.297,44.144,0,45.5,0c2.788,0,5.262,1.81,6.151,4.399C67.454,4.865,76.08,19.104,78.708,27.574 c0.669,2.16,0.17,4.496-1.301,6.188c1.732,5.341,0.525,6.817-1.159,9.604c3.024-1.974,5.974-4.137,8.148-5.907 C85.551,36.519,87.009,36,88.5,36c1.271,0,2.506,0.369,3.569,1.067c2.391,1.577,3.464,4.474,2.682,7.216 C87.878,68.336,73.725,77.377,66.769,80.46c-0.736,3.594-1.451,6.177-1.781,11.446c-0.118,1.917-1.074,3.675-2.622,4.82 C61.261,97.545,59.886,98,58.5,98z"/><path fill="#f4665c" d="M11.544,19.532c0,0,7.376,5.082,8.956,15.968c0.91,6.27,0,10.508,0,10.508 c-1,2.492-7.163,4.998-7.163,14.907C13.337,72.5,23.5,82.5,34.5,82.5c0,0,6.337,4.781,24,9c0,0,1-12,3-16c0,0,19-5,27-33 c0,0-19.467,14.787-27.5,14.787c0,0,2.854-3.938,0.177-3.938c0,0-0.404-8.165-8.541-13.507l-3.282-4.329l3.282-3.198 c0,0,6.864,1.185,11.741,13.256c0,0,2.301-5.975,0.465-11.638c0,0,3.034,0.708,5.393,6.7c0,0,5.528-3.295-4.736-13.132l7,2 c0,0-5.77-18.612-21.647-18.612c-13.353,0-16.661,8.016-16.661,8.016S36.5,10.5,45.5,6.5c0,0-10,0-16,8 c-5.532,7.376-5.971,12.789-5.971,12.789S20.588,19.532,11.544,19.532z"/><path fill="#f9b84f" d="M58.742,59.281c0,0,1.348-5.36,1.449-5.393c0.101-0.034,2.514,2.427,2.514,2.427 s2.812,3.135,2.508,3.202c-0.303,0.067-5.73,0.775-5.73,0.775L58.742,59.281z"/><ellipse cx="52.537" cy="51.864" fill="#fff" rx="6.613" ry="12.247" transform="rotate(-23.147 52.533 51.86)"/><ellipse cx="53.751" cy="54.752" fill="#40396e" rx="2.861" ry="5.298" transform="rotate(-16.559 53.76 54.759)"/><path fill="#f9b84f" d="M66.562,56.787c-13.877,4.906-29.663-2.562-39.472,4.281C22.436,64.313,22,68,21.966,71.179 c-0.079,7.449,5.876,10.304,5.876,10.304l7.433,2.136l9.141,3.312l14.225,5.056l0.742-8.404l2.09-8.225l14.679-9.595l7.973-12.926 l3.563-7.483l-0.664-1.749L80,49C80,49,72.663,54.63,66.562,56.787z"/><path fill="none" stroke="#40396e" stroke-linecap="round" stroke-linejoin="round" stroke-miterlimit="10" stroke-width="3" d="M11.544,19.532c0,0,7.376,5.082,8.956,15.968c0.91,6.27,0,10.508,0,10.508c-1,2.492-7.163,4.998-7.163,14.907 C13.337,72.5,23.5,82.5,34.5,82.5c0,0,10.118,6.343,24,9c0,0,1-12,3-16c0,0,19-5,27-33c0,0-18.622,13.862-26.654,13.862 c0,0,0.031-10.126-9.209-16.52l-3.282-4.329l3.282-3.198c0,0,6.864,1.185,11.741,13.256c0,0,2.301-5.975,0.465-11.638 c0,0,3.034,0.708,5.393,6.7c0,0,5.528-3.295-4.736-13.132l7,2c0,0-5.77-18.612-21.647-18.612c-13.353,0-16.661,8.016-16.661,8.016 S36.5,10.5,45.5,6.5c0,0-10,0-16,8c-5.532,7.376-5.971,12.789-5.971,12.789S20.588,19.532,11.544,19.532z"/><ellipse cx="43.524" cy="56.368" fill="#fff" rx="8.119" ry="15.036" transform="rotate(-34.875 43.526 56.369)"/><ellipse cx="41.215" cy="61.439" fill="#40396e" rx="3.123" ry="5.783" transform="rotate(-34.875 41.217 61.44)"/><circle cx="40.848" cy="57.287" r="1.5" fill="#fff"/><circle cx="54.434" cy="50.856" r="1.5" fill="#fff"/><path fill="none" stroke="#40396e" stroke-linecap="round" stroke-linejoin="round" stroke-miterlimit="10" stroke-width="3" d="M45.5,36.5c0,0,1-2,4-1"/><path fill="none" stroke="#40396e" stroke-linecap="round" stroke-linejoin="round" stroke-miterlimit="10" stroke-width="3" d="M28.5,44.5c0,0,0.501-2.904,4.725-5.14c3.438-1.82,6.963-0.337,6.963-0.337"/><path fill="#40396e" d="M31.978,68.869C31.978,68.869,41,77,56,75c0,0-2,3-1.566,10.102 C54.434,85.102,35.955,82.737,31.978,68.869z"/><path fill="#f4665c" d="M48.229,83.571c0.26-1.176,0.411-2.407,0.411-3.683c0-1.665-0.248-3.256-0.681-4.739 c-10.121-1.005-15.981-6.28-15.981-6.28C34.443,77.463,42.475,81.638,48.229,83.571z"/></svg>