<svg xmlns="http://www.w3.org/2000/svg"  viewBox="0 0 100 100" width="100px" height="100px"><path d="M18.5,95c-3.584,0-6.5-2.916-6.5-6.5V61.186C9.996,59.053,8,55.438,8,49.5C8,18.538,34.988,7,52,7 s44,11.538,44,42.5c0,5.938-1.996,9.553-4,11.686V88.5c0,3.584-2.916,6.5-6.5,6.5H18.5z" opacity=".35"/><path fill="#f2f2f2" d="M16.5,93c-3.584,0-6.5-2.916-6.5-6.5V59.186C7.996,57.053,6,53.438,6,47.5C6,16.538,32.988,5,50,5 s44,11.538,44,42.5c0,5.938-1.996,9.553-4,11.686V86.5c0,3.584-2.916,6.5-6.5,6.5H16.5z"/><rect width="10" height="33" x="17" y="53" fill="#ef8630"/><rect width="10" height="33" x="73" y="53" fill="#ef8630"/><path fill="#f9b84f" d="M25,85l0.081-31.987c-0.067,0.173-3.812,1.902-6.581,1.902c-2.175,0-4.5-1.948-4.5-7.416 C14,20.266,36.629,13,50,13s36,7.266,36,34.5c0,5.467-2.325,7.416-4.5,7.416c-2.769,0-6.424-1.729-6.5-1.926L75.09,85H25z"/><path fill="none" stroke="#40396e" stroke-linecap="round" stroke-linejoin="round" stroke-miterlimit="10" stroke-width="3" d="M87.5,47.5c0-26-23-36-37.5-36s-37.5,10-37.5,36c0,5.177,1.959,7.603,4,8.493V86.5h7h53h7V55.993 C85.541,55.103,87.5,52.677,87.5,47.5z"/><path fill="#88265a" d="M50,60L50,60c-3.866,0-7-3.134-7-7v-5h14v5C57,56.866,53.866,60,50,60z"/><ellipse cx="50" cy="57" fill="#ff7575" rx="6.317" ry="4"/><g><circle cx="34.5" cy="34.5" r="9.5" fill="#40396e"/><circle cx="34.5" cy="34.5" r="6.5" fill="#f2f2f2"/><circle cx="64.5" cy="34.5" r="9.5" fill="#40396e"/><circle cx="64.5" cy="34.5" r="6.5" fill="#f2f2f2"/><path fill="#ef8630" d="M50,35v12l-3,1c0,0,0,13-9,13c-7,0-7-9.586-7-11C31,47,31,35,50,35z"/><path fill="#ef8630" d="M50,35v12l3,1c0,0,0,13,9,13c7,0,7-9.586,7-11C69,47,69,35,50,35z"/><ellipse cx="50" cy="45" fill="#40396e" rx="7" ry="4"/></g></svg>