<svg xmlns="http://www.w3.org/2000/svg"  viewBox="0 0 100 100" width="100px" height="100px"><path d="M52,100c-17.466,0-40-26.429-40-54.5c0-10.661,4.394-21.608,12.054-30.035 C31.834,6.908,42.02,2,52,2s20.166,4.908,27.946,13.465C87.606,23.892,92,34.839,92,45.5C92,73.571,69.466,100,52,100z" opacity=".35"/><path fill="#f2f2f2" d="M50,98c-17.466,0-40-26.429-40-54.5c0-10.661,4.394-21.608,12.054-30.035 C29.834,4.908,40.02,0,50,0s20.166,4.908,27.946,13.465C85.606,21.892,90,32.839,90,43.5C90,71.571,67.466,98,50,98z"/><path fill="#707cc0" d="M50,91.5c12,0,33.5-19,33.5-48c0-19-16.107-37-33.5-37s-33.5,18-33.5,37C16.5,72.5,38,91.5,50,91.5z"/><path fill="none" stroke="#40396e" stroke-linecap="round" stroke-linejoin="round" stroke-miterlimit="10" stroke-width="3" d="M50,91.5c12,0,33.5-21,33.5-48c0-19-16.107-37-33.5-37s-33.5,18-33.5,37C16.5,70.5,38,91.5,50,91.5z"/><path fill="#d9eeff" d="M68,29c-5-5-5-15-18-15S37,24,32,29c-3.536,3.536-8,6-8,13c0,9,6,9,13,22c2.847,5.287,5,21,13,21 c9,0,10.153-15.713,13-21c7-13,13-13,13-22C76,35,71.536,32.536,68,29z"/><path fill="#40396e" d="M44,25c-2.844-0.013-3.33,3.867-8,9c-3.03,3.331-5.92,4.461-6,7c-0.012,0.382,0,5,6,5 c5,0,11-7.259,11-18C47,25,44.245,25.001,44,25z"/><path fill="#40396e" d="M55.999,25c2.844-0.013,3.33,3.867,8,9c3.03,3.331,5.92,4.461,6,7c0.012,0.382,0,5-6,5 c-5,0-11-7.259-11-18C52.999,25,55.754,25.001,55.999,25z"/><path fill="#40396e" d="M50,40c-1.667,0-5,3.771-5,6.599c0,3.771,5,2.828,5-0.943C50,41.886,50,40,50,40z"/><path fill="#40396e" d="M50,40c1.667,0,5,3.771,5,6.599c0,3.771-5,2.828-5-0.943C50,41.886,50,40,50,40z"/><path fill="#40396e" d="M50,52c-3.5,0-7,1.931-7,5.793C43,62.621,46.5,80,50,80s7-17.379,7-22.207C57,53.931,53.5,52,50,52z"/><path fill="none" stroke="#40396e" stroke-linecap="round" stroke-linejoin="round" stroke-miterlimit="10" stroke-width="3" d="M50,91.5c12,0,33.5-21,33.5-48c0-19-16.107-37-33.5-37s-33.5,18-33.5,37C16.5,70.5,38,91.5,50,91.5z"/></svg>