<svg xmlns="http://www.w3.org/2000/svg"  viewBox="0 0 100 100" width="100px" height="100px"><path d="M52,100.011c-11.292,0-17.968-10.913-20.313-15.604 C31.032,83.098,27.911,80.01,26,78c-2.141-2.252-4.239-2.654-5.699-4.599C15.565,67.086,13,59.974,13,40.5C13,13.625,38.826,2,52,2 s39,11.625,39,38.5c0,19.474-2.565,26.586-7.3,32.899c-1.446,1.928-3.412,3.978-5.494,6.147c-2.05,2.135-5.139,3.354-5.892,4.86 C70.484,88.067,63.61,100.011,52,100.011z" opacity=".35"/><path fill="#f2f2f2" d="M50,98.011c-11.292,0-17.968-10.913-20.313-15.604c-0.654-1.309-3.853-2.673-5.764-4.683 c-2.141-2.252-4.162-4.378-5.622-6.324C13.565,65.086,11,57.974,11,38.5C11,11.625,36.826,0,50,0s39,11.625,39,38.5 c0,19.474-2.565,26.586-7.3,32.899c-1.446,1.928-3.412,3.978-5.494,6.147c-2.05,2.135-5.139,3.354-5.892,4.86 C68.484,86.067,61.61,98.011,50,98.011z"/><path fill="#9ba7c5" d="M50,6.5c-10.267,0-32.5,9-32.5,32c0,20,3,25,6,29s11,10,12,14s7,10.011,14.5,10.011 S63.5,85.5,64.5,81.5s9-10,12-14s6-9,6-29C82.5,15.5,60.267,6.5,50,6.5z"/><path fill="none" stroke="#40396e" stroke-linecap="round" stroke-linejoin="round" stroke-miterlimit="10" stroke-width="3" d="M50,6.5c-10.267,0-32.5,9-32.5,32c0,20,3,25,6,29s10.156,10.312,12,14c2,4,7,10.011,14.5,10.011S62.656,85.188,64.5,81.5 c2-4,9-10,12-14s6-9,6-29C82.5,15.5,60.267,6.5,50,6.5z"/><path fill="#40396e" d="M23.069,45.223c2.958-2.721,7.18-3.639,11.149-3.599 c6.957,0.085,12.968,6.161,13.714,12.91c-1.484-2.143-2.987-4.096-4.763-5.695C37.898,43.64,29.988,43.485,23.069,45.223 L23.069,45.223z" opacity=".35"/><path fill="#40396e" d="M76.931,45.223c-2.958-2.721-7.18-3.639-11.149-3.599 c-6.957,0.085-12.968,6.161-13.714,12.91c1.484-2.143,2.987-4.096,4.763-5.695C62.102,43.64,70.012,43.485,76.931,45.223 L76.931,45.223z" opacity=".35"/><path fill="#40396e" d="M43.703,63.862c-2.99,5.153-11.332,5.061-14.368-0.002c0,0,3.509,1.139,7.058,1.14 C40.027,65.001,43.703,63.862,43.703,63.862L43.703,63.862z" opacity=".35"/><path fill="#40396e" d="M70.703,63.862c-2.99,5.153-11.332,5.061-14.368-0.002c0,0,3.509,1.139,7.058,1.14 C67.027,65.001,70.703,63.862,70.703,63.862L70.703,63.862z" opacity=".35"/><path fill="#40396e" d="M23.961,50.955c0,0,1.753-2.966,9.101-2.966S44.039,56,44.039,60c0,0-5.331,3.688-13,1 C24.433,58.684,23.961,50.955,23.961,50.955z"/><path fill="#40396e" d="M76.039,50.955c0,0-1.753-2.966-9.101-2.966S55.961,56,55.961,60c0,0,5.331,3.688,13,1 C75.567,58.684,76.039,50.955,76.039,50.955z"/><path fill="#40396e" d="M48.5,65v4.046c0,0.961-0.942,1.64-1.853,1.336h0c-0.712-0.237-1.128-0.993-0.913-1.712 C46.047,67.62,46.781,66.146,48.5,65z"/><path fill="#40396e" d="M51.5,65v4.046c0,0.961,0.942,1.64,1.853,1.336h0c0.712-0.237,1.128-0.993,0.913-1.712 C53.953,67.62,53.219,66.146,51.5,65z"/><path fill="#40396e" d="M57.248,79.668C54.831,76.042,50.196,76,50,76s-4.831,0.042-7.248,3.668 c0,0,3.956-0.668,7.248-0.668C53.146,79,57.248,79.668,57.248,79.668z" opacity=".35"/><circle cx="64" cy="53" r="2" fill="#d9eeff"/><circle cx="36" cy="53" r="2" fill="#d9eeff"/><path fill="#40396e" d="M29.632,15.984c-7.177,8.645-2.608,16.84-5.672,21.791 c-4.393,7.101-4.43,12.194-3.949,17.225c-2.5-0.994-2.068-8.891-2.011-13c0.078-5.577,1-12,1-12l3.539-9.373 C22.539,20.627,27.817,15.184,29.632,15.984z" opacity=".35"/><path fill="#40396e" d="M70.319,15.984c7.177,8.645,2.608,16.84,5.672,21.791 C80.383,44.876,80.42,49.969,79.94,55c2.5-0.994,2.068-8.891,2.011-13c-0.078-5.577-1-12-1-12l-3.539-9.373 C77.412,20.627,72.134,15.184,70.319,15.984z" opacity=".35"/></svg>