<svg xmlns="http://www.w3.org/2000/svg"  viewBox="0 0 100 100" width="100px" height="100px"><path d="M73.472,99c-3.584,0-6.5-2.916-6.5-6.5v-4.994 C66.195,87.827,65.349,88,64.472,88h-12c-0.163,0-0.325-0.006-0.486-0.018C51.825,87.994,51.663,88,51.5,88h-12 c-0.877,0-1.724-0.173-2.5-0.494V92.5c0,3.584-2.916,6.5-6.5,6.5H16.528c-1.914,0-3.721-0.837-4.959-2.297 c-1.239-1.462-1.768-3.384-1.452-5.274l2-10.993c0.1-0.597,0.277-1.162,0.521-1.687c-0.398-0.853-0.608-1.791-0.61-2.737 l-0.023-23.01c-0.406-0.257-0.787-0.562-1.135-0.91c-1.214-1.218-1.905-2.899-1.899-4.615L9,38.479 c0.008-2.555,1.501-4.77,3.659-5.824c0.309-0.636,0.722-1.224,1.225-1.731C15.093,29.703,16.776,29,18.5,29h6.573 C26.1,15.042,37.785,4,52,4s25.9,11.042,26.927,25L85,33c1.721,0,0.788-2.223,2-1c0.503,0.507,4.003,0.019,4.312,0.656 c2.156,1.054,3.65,3.267,3.659,5.821l0.028,8c0.006,1.717-0.686,3.399-1.899,4.614c-0.343,0.345-0.725,0.648-1.135,0.906 l-0.022,24.01c-0.002,0.95-0.211,1.887-0.61,2.742c0.244,0.525,0.422,1.091,0.521,1.687l2,10.996 c0.315,1.888-0.214,3.81-1.453,5.271C91.165,98.163,89.358,99,87.444,99H73.472z" opacity=".35"/><path fill="#f2f2f2" d="M71.472,97c-3.584,0-6.5-2.916-6.5-6.5v-4.994C64.195,85.827,63.349,86,62.472,86h-12 c-0.163,0-0.325-0.006-0.486-0.018C49.825,85.994,49.663,86,49.5,86h-12c-0.877,0-1.724-0.173-2.5-0.494V90.5 c0,3.584-2.916,6.5-6.5,6.5H14.528c-1.914,0-3.721-0.837-4.959-2.297c-1.239-1.462-1.768-3.384-1.452-5.274l2-10.993 c0.1-0.597,0.277-1.162,0.521-1.687c-0.398-0.853-0.608-1.791-0.61-2.737l-0.023-23.01c-0.406-0.257-0.787-0.562-1.135-0.91 c-1.214-1.218-1.905-2.899-1.899-4.615L7,36.479c0.008-2.555,1.501-4.77,3.659-5.824c0.309-0.636,0.722-1.224,1.225-1.731 C13.093,27.703,14.776,27,16.5,27h6.573C24.1,13.042,35.785,2,50,2s25.9,11.042,26.927,25h6.545c1.721,0,3.404,0.701,4.616,1.924 c0.503,0.507,0.916,1.095,1.225,1.731c2.156,1.054,3.65,3.267,3.659,5.821l0.028,8c0.006,1.717-0.686,3.399-1.899,4.614 c-0.343,0.345-0.725,0.648-1.135,0.906l-0.022,24.01c-0.002,0.95-0.211,1.887-0.61,2.742c0.244,0.525,0.422,1.091,0.521,1.687 l2,10.996c0.315,1.888-0.214,3.81-1.453,5.271C89.165,96.163,87.358,97,85.444,97H71.472z"/><path fill="#d9eeff" d="M50.472,80.5h12l3-6h5V45h5l-0.028,21l0.028,13.5l-4-0.008V90.5h13.972l-2-10.996h-1.978v-2 L83.444,74l0.028-29.5H86.5l-0.028-8h-3.028l0.028-3h-8l-0.028,3h-4.972H70.5V29c0-11.322-9.178-20.5-20.5-20.5h0 c-11.322,0-20.5,9.178-20.5,20.5v7.5h-4.972l-0.028-3h-8l0.028,3H13.5l-0.028,8H16.5L16.528,74l1.978,3.504v2h-1.978l-2,10.996 H28.5V79.492l-4,0.008L24.528,66L24.5,46h5v28.5h5l3,6h12"/><rect width="8" height="8" x="23" y="37" fill="#9aa2e6"/><rect width="8" height="8" x="69" y="37" fill="#9aa2e6" transform="rotate(-180 73 41)"/><rect width="8" height="13" x="16" y="54" fill="#9aa2e6"/><rect width="8" height="13" x="74" y="54" fill="#9aa2e6"/><polygon fill="#9aa2e6" points="63,81 37,81 34,73 66,73"/><rect width="12" height="9" x="15" y="81" fill="#9aa2e6"/><rect width="12" height="9" x="72" y="81" fill="#9aa2e6"/><path fill="#707cc0" d="M65.849,16C62.089,11.422,56.386,8.5,50,8.5S37.911,11.422,34.151,16H65.849z"/><rect width="12" height="8" x="30" y="30" fill="#707cc0"/><rect width="8" height="8" x="62" y="30" fill="#707cc0"/><rect width="14" height="8" x="43" y="27" fill="#707cc0" transform="rotate(-90 50 31)"/><rect width="14" height="8" x="43" y="51" fill="#707cc0" transform="rotate(-90 50 55)"/><path fill="none" stroke="#40396e" stroke-linecap="round" stroke-linejoin="round" stroke-miterlimit="10" stroke-width="3" d="M50.472,80.5h12l3-6h5v-30h5L75.444,66l0.028,13.5l-4-0.008V90.5h13.972l-2-10.996h-1.978v-2L83.444,74l0.028-29.5H86.5l-0.028-7 h-3.028l0.028-4h-8l-0.028,4H70.5V29c0-11.322-9.178-20.5-20.5-20.5h0c-11.322,0-20.5,9.178-20.5,20.5v8.5h-4.972l-0.028-4h-8 l0.028,5H13.5l-0.028,7H16.5L16.528,74l1.978,3.504v2h-1.978l-2,10.996H28.5V79.492l-4,0.008L24.528,66L24.5,45.5h5v29h5l3,6h12"/><circle cx="50" cy="28" r="2" fill="#40396e"/><circle cx="58" cy="34" r="2" fill="#9aa2e6"/><path fill="#d9eeff" d="M50,54L50,54c-0.828,0-1.5-0.672-1.5-1.5v-1c0-0.828,0.672-1.5,1.5-1.5l0,0 c0.828,0,1.5,0.672,1.5,1.5v1C51.5,53.328,50.828,54,50,54z"/><path fill="#d9eeff" d="M50,60L50,60c-0.828,0-1.5-0.672-1.5-1.5v-1c0-0.828,0.672-1.5,1.5-1.5l0,0 c0.828,0,1.5,0.672,1.5,1.5v1C51.5,59.328,50.828,60,50,60z"/><rect width="28" height="4" x="36" y="41" fill="#707cc0"/><rect width="8" height="8" x="46" y="65" fill="#707cc0"/><circle cx="50" cy="69" r="2" fill="#40396e"/><rect width="4" height="7" x="35" y="63" fill="#9aa2e6"/><rect width="4" height="5" x="61" y="65" fill="#9aa2e6"/></svg>